<svg xmlns="http://www.w3.org/2000/svg" width="142.696" height="38.637" viewBox="0 0 142.696 38.637">
  <g id="logo" transform="translate(-0.511 -1.222)">
    <g id="グループ_2334" data-name="グループ 2334" transform="translate(85.37 4.78)">
      <path id="パス_2156" data-name="パス 2156" d="M73.407,4.278c.538,0,1.671.009,1.909.009h2.269c.609,0,1.31,0,1.932-.009v.664c-.462-.008-1.417-.008-1.909-.008H75.339c-1.34,0-1.508,0-1.932.008Z" transform="translate(-73.407 -4.278)" fill="#fff"/>
    </g>
    <g id="グループ_2335" data-name="グループ 2335" transform="translate(37.183 1.553)">
      <path id="パス_2157" data-name="パス 2157" d="M34.529,1.506a3.626,3.626,0,0,0,1.023,1.456l-.27.409a5.2,5.2,0,0,1-1.255-1.145,7.238,7.238,0,0,1-1.749,1.562l-.265-.409a3.959,3.959,0,0,0,1.4-1.873Zm1.063.256h3.8v.431H36.551V3.618h2.683a5.3,5.3,0,0,1-1.01,3.5,3.853,3.853,0,0,0,1.294,1.132l-.325.343a4.486,4.486,0,0,1-1.417-1.008,5.247,5.247,0,0,1-1.7,1.057l-.331-.317a5.23,5.23,0,0,0,1.634-1.27,6.121,6.121,0,0,1-.726-2.65l.873-.224a7.52,7.52,0,0,0,.3,2.134A6.129,6.129,0,0,0,38.2,4.044H36.551v.492a4.894,4.894,0,0,1-1.545,4.112l-.378-.269a3.31,3.31,0,0,0,.47-.693l-.747.539c-.023-.2-.047-.317-.077-.523-1.171.537-1.3.6-1.74.776-.04.028-.1.093-.164.093s-.051,0-.058-.015l-.281-.731a4.612,4.612,0,0,0,.487-.086V3.681h.963V3.434c0-.078-.015-.409-.023-.5l.932.017c.03,0,.04.061.04.076s-.023.106-.031.147v.509h.779V6.236H33.488V7.5c.192-.055.539-.143.694-.2a4.429,4.429,0,0,0-.277-.8l.336-.248a8.3,8.3,0,0,1,.916,1.311,7,7,0,0,0,.433-2.806v-3Zm-2.1,2.956h.792V4.1h-.792Zm.793.431h-.792V5.8h.792Z" transform="translate(-32.013 -1.506)" fill="#fff"/>
    </g>
    <g id="グループ_2336" data-name="グループ 2336" transform="translate(45.141 1.971)">
      <path id="パス_2158" data-name="パス 2158" d="M39.919,8.042V8.4h-1.07V1.865h6.53V8.4H44.308V8.042ZM41.573,2.3H39.919V4.7h1.654Zm0,2.825H39.919V7.61h1.654ZM44.306,2.3H42.652V4.7h1.654ZM42.652,7.609h1.654V5.123H42.652Z" transform="translate(-38.849 -1.865)" fill="#fff"/>
    </g>
    <g id="グループ_2337" data-name="グループ 2337" transform="translate(52.24 1.238)">
      <path id="パス_2159" data-name="パス 2159" d="M44.947,5.071a3.743,3.743,0,0,0,1.84-2.463,5.889,5.889,0,0,0,.191-.9l1.126.286c.055.015.132.028.132.061a1.047,1.047,0,0,1-.076.154,6.925,6.925,0,0,1-.317.765h1.6c.239,0,.762,0,1.215-.033l.449.423a7.9,7.9,0,0,1-1,2.744,5.664,5.664,0,0,1-4.619,2.363l-.153-.487c1.07-.128,4-.485,4.489-4.521H47.573a4.968,4.968,0,0,1-2.326,2.027Zm5.675-3.52a4.854,4.854,0,0,1,.832.931l-.5.324a4.376,4.376,0,0,0-.694-1.022Zm.765-.314a3.957,3.957,0,0,1,.792.816l-.485.307a5.721,5.721,0,0,0-.671-.894Z" transform="translate(-44.947 -1.236)" fill="#fff"/>
    </g>
    <g id="グループ_2338" data-name="グループ 2338" transform="translate(58.833 1.926)">
      <path id="パス_2160" data-name="パス 2160" d="M53.262,4.413a4.964,4.964,0,0,1-.539,2.42A3.9,3.9,0,0,1,50.9,8.287l-.288-.409c1.248-.794,1.575-1.858,1.575-3.433V2.78c0-.106-.009-.847-.017-.923l1.017.068c.045.008.132.027.132.093a1.982,1.982,0,0,1-.055.2V4.413ZM54,2.673c0-.126,0-.658-.023-.846l1.056.083c.038,0,.13.007.13.052s-.055.192-.055.233V6.628a3.736,3.736,0,0,0,2.042-2.015l.4.284A5.488,5.488,0,0,1,55.234,7.77c-.1.054-.6.3-.717.353l-.563-.593A10.082,10.082,0,0,0,54,6.315V2.673Z" transform="translate(-50.611 -1.827)" fill="#fff"/>
    </g>
    <g id="グループ_2339" data-name="グループ 2339" transform="translate(66.126 4.78)">
      <path id="パス_2161" data-name="パス 2161" d="M56.877,4.278c.54,0,1.671.009,1.909.009h2.271c.608,0,1.308,0,1.931-.009v.664c-.462-.008-1.416-.008-1.91-.008H58.811c-1.341,0-1.51,0-1.935.008V4.278Z" transform="translate(-56.876 -4.278)" fill="#fff"/>
    </g>
    <g id="グループ_2340" data-name="グループ 2340" transform="translate(72.41 1.222)">
      <path id="パス_2162" data-name="パス 2162" d="M62.322,7.8c1.816-.423,3.8-1.41,4.367-4.846l-3.074.02c-.724,0-1.033.006-1.34.023V2.462c.439.017.884.017,1.326.017l2.923-.008c.417,0,.739-.008.886-.013l.524.522a7.539,7.539,0,0,1-1.115,2.8A6.561,6.561,0,0,1,62.6,8.28Zm6.114-6.578a.8.8,0,1,1-.787.794.792.792,0,0,1,.787-.794m0,.407a.389.389,0,0,0,0,.779.383.383,0,0,0,.375-.392.388.388,0,0,0-.375-.386" transform="translate(-62.274 -1.222)" fill="#fff"/>
    </g>
    <g id="グループ_2341" data-name="グループ 2341" transform="translate(78.518 1.886)">
      <path id="パス_2163" data-name="パス 2163" d="M67.521,6.89a6.154,6.154,0,0,0,1.71-2.4l.477.207a8.489,8.489,0,0,1-1.3,2.966Zm2.856-4.343c0-.092-.006-.532-.013-.754l.97.054c.069.008.217.016.217.07s-.055.215-.055.255V3.282h1.123c.217,0,.708,0,1.341-.024V3.8c-.3-.017-.6-.023-1.318-.023H71.5V7.338c0,.793-.37.939-.8.939a4.266,4.266,0,0,1-1.509-.335l.147-.49a1.982,1.982,0,0,0,.725.186c.24,0,.321-.094.321-.354V3.771H69.144c-.645,0-.946.007-1.261.023V3.258c.347.012.638.024,1.261.024h1.233ZM73.267,7.6a10.915,10.915,0,0,0-1.232-2.9l.447-.293A15.19,15.19,0,0,1,74.276,6.88Z" transform="translate(-67.521 -1.792)" fill="#fff"/>
    </g>
    <g id="グループ_2342" data-name="グループ 2342" transform="translate(91.207 1.926)">
      <path id="パス_2164" data-name="パス 2164" d="M81.073,4.413a4.964,4.964,0,0,1-.538,2.42,3.911,3.911,0,0,1-1.826,1.454l-.288-.409c1.247-.794,1.574-1.858,1.574-3.433V2.78c0-.106-.009-.847-.015-.923L81,1.925c.044.008.13.027.13.093a1.725,1.725,0,0,1-.055.2Zm.738-1.739c0-.126,0-.658-.021-.846l1.058.083c.037,0,.127.007.127.052s-.052.192-.052.233V6.628a3.732,3.732,0,0,0,2.042-2.015l.4.284A5.464,5.464,0,0,1,83.045,7.77c-.1.054-.6.3-.715.353l-.561-.593a10.817,10.817,0,0,0,.042-1.215V2.673Z" transform="translate(-78.421 -1.827)" fill="#fff"/>
    </g>
    <g id="グループ_2343" data-name="グループ 2343" transform="translate(98.218 1.439)">
      <path id="パス_2165" data-name="パス 2165" d="M85.1,7.954c1.832-.354,2.165-1.5,2.1-3.4H85.677c-.133,0-.711,0-1.234.022V4.04c.523.017.778.028,1.234.028h4.117c.64,0,.938-.01,1.235-.028v.538c-.457-.022-.959-.022-1.22-.022H88.387a5.971,5.971,0,0,1-.262,2.065,3.523,3.523,0,0,1-2.811,1.817Zm1.648-5.29c-.569,0-1,.013-1.307.023v-.54c.322.016.746.021,1.3.021h1.8c.525,0,1.023-.015,1.278-.021v.539c-.371-.017-.779-.023-1.248-.023H86.746Zm3.673.232a6.091,6.091,0,0,0-.538-1.1l.376-.176a4.566,4.566,0,0,1,.687,1.049Zm.762-.317a3.952,3.952,0,0,0-.508-.979l.385-.192a4.183,4.183,0,0,1,.661.909Z" transform="translate(-84.443 -1.408)" fill="#fff"/>
    </g>
    <g id="グループ_2344" data-name="グループ 2344" transform="translate(104.366 3.017)">
      <path id="パス_2166" data-name="パス 2166" d="M89.725,5.721a6.876,6.876,0,0,0,4.062-2.957l.768.487c.029.02.108.068.108.108,0,.023-.133.115-.154.137a10.207,10.207,0,0,1-1.328,1.186V7.522c0,.186,0,.648.009.835h-.908c.007-.164.007-.61.007-.835v-2.3a9.229,9.229,0,0,1-2.419.84Z" transform="translate(-89.725 -2.764)" fill="#fff"/>
    </g>
    <g id="グループ_2345" data-name="グループ 2345" transform="translate(109.436 1.78)">
      <path id="パス_2167" data-name="パス 2167" d="M94.08,7.143a7.284,7.284,0,0,0,5.951-3.552l.393.293a7.84,7.84,0,0,1-1.624,2.3A7.651,7.651,0,0,1,96.057,7.87c-.21.066-1.232.375-1.461.453Zm2.436-3.294a5.184,5.184,0,0,0-2.073-1.733L94.68,1.7a6.528,6.528,0,0,1,2.658,1.237Z" transform="translate(-94.08 -1.701)" fill="#fff"/>
    </g>
    <g id="グループ_2346" data-name="グループ 2346" transform="translate(115.668 1.238)">
      <path id="パス_2168" data-name="パス 2168" d="M99.433,5.071a3.738,3.738,0,0,0,1.838-2.463,5.41,5.41,0,0,0,.194-.9l1.125.286c.054.015.13.028.13.061a1.047,1.047,0,0,1-.076.154,7.167,7.167,0,0,1-.315.765h1.6c.239,0,.762,0,1.216-.033l.446.423A7.9,7.9,0,0,1,104.6,6.1a5.665,5.665,0,0,1-4.618,2.363l-.158-.487c1.071-.128,4-.485,4.489-4.521h-2.255a4.99,4.99,0,0,1-2.326,2.027Zm5.674-3.52a4.939,4.939,0,0,1,.834.931l-.5.324a4.439,4.439,0,0,0-.691-1.022Zm.762-.314a3.942,3.942,0,0,1,.8.816l-.489.307a5.484,5.484,0,0,0-.668-.894Z" transform="translate(-99.433 -1.236)" fill="#fff"/>
    </g>
    <g id="グループ_2347" data-name="グループ 2347" transform="translate(122.231 2.393)">
      <path id="パス_2169" data-name="パス 2169" d="M110.73,7.819A7.68,7.68,0,0,0,108.959,5.8a7.2,7.2,0,0,1-3.681,2.1l-.207-.469a5.908,5.908,0,0,0,2.482-1.374,7.236,7.236,0,0,0,1.778-3.311l-2.312.02c-.284,0-1.048.022-1.34.027l-.008-.537c.5.021.8.03,1.339.021l2.1-.013c.108,0,.941-.008,1.216-.033l.376.411c-.038.076-.332.786-.391.93a8.421,8.421,0,0,1-.985,1.78,10.375,10.375,0,0,1,2.361,1.8Z" transform="translate(-105.071 -2.228)" fill="#fff"/>
    </g>
    <g id="グループ_2348" data-name="グループ 2348" transform="translate(15.669 17.555)">
      <path id="パス_2170" data-name="パス 2170" d="M13.532,20.06l8.332,4.812v-9.62Z" transform="translate(-13.532 -15.252)" fill="#fff"/>
    </g>
    <g id="グループ_2349" data-name="グループ 2349" transform="translate(24.001 17.555)">
      <path id="パス_2171" data-name="パス 2171" d="M20.689,20.06h3.034l-3.034-4.808Z" transform="translate(-20.689 -15.252)" fill="#aaa"/>
    </g>
    <g id="グループ_2350" data-name="グループ 2350" transform="translate(24.001 15.798)">
      <path id="パス_2172" data-name="パス 2172" d="M20.689,15.5l3.034,4.808V13.743Z" transform="translate(-20.689 -13.743)" fill="#d1d1d2"/>
    </g>
    <g id="グループ_2351" data-name="グループ 2351" transform="translate(27.034 15.798)">
      <path id="パス_2173" data-name="パス 2173" d="M23.3,20.307h3.786L23.3,13.743Z" transform="translate(-23.295 -13.743)" fill="#fff"/>
    </g>
    <g id="グループ_2352" data-name="グループ 2352" transform="translate(27.034 13.614)">
      <path id="パス_2174" data-name="パス 2174" d="M23.3,14.051l3.786,6.564V11.867Z" transform="translate(-23.295 -11.867)" fill="#d1d1d2"/>
    </g>
    <g id="グループ_2353" data-name="グループ 2353" transform="translate(24.001 22.362)">
      <path id="パス_2175" data-name="パス 2175" d="M20.689,19.382h3.034l-3.034,4.812Z" transform="translate(-20.689 -19.382)" fill="#d1d1d2"/>
    </g>
    <g id="グループ_2354" data-name="グループ 2354" transform="translate(24.001 22.362)">
      <path id="パス_2176" data-name="パス 2176" d="M20.689,24.194l3.034-4.812v6.559Z" transform="translate(-20.689 -19.382)" fill="#fff"/>
    </g>
    <g id="グループ_2355" data-name="グループ 2355" transform="translate(27.034 22.362)">
      <path id="パス_2177" data-name="パス 2177" d="M23.3,19.382h3.786L23.3,25.941Z" transform="translate(-23.295 -19.382)" fill="#888988"/>
    </g>
    <g id="グループ_2356" data-name="グループ 2356" transform="translate(27.034 22.362)">
      <path id="パス_2178" data-name="パス 2178" d="M23.3,25.941l3.786-6.559v8.749Z" transform="translate(-23.295 -19.382)" fill="#d1d1d2"/>
    </g>
    <g id="グループ_2357" data-name="グループ 2357" transform="translate(15.669 12.741)">
      <path id="パス_2179" data-name="パス 2179" d="M13.532,20.738l8.332-4.808-8.332-4.814Z" transform="translate(-13.532 -11.117)" fill="#e2eccc"/>
    </g>
    <g id="グループ_2358" data-name="グループ 2358" transform="translate(15.669 12.52)">
      <path id="パス_2180" data-name="パス 2180" d="M17.7,13.556l1.516-2.629-5.682.221Z" transform="translate(-13.532 -10.927)" fill="#608233"/>
    </g>
    <g id="グループ_2359" data-name="グループ 2359" transform="translate(15.669 9.245)">
      <path id="パス_2181" data-name="パス 2181" d="M13.532,11.61l5.681-.221L13.532,8.114Z" transform="translate(-13.532 -8.114)" fill="#89b829"/>
    </g>
    <g id="グループ_2360" data-name="グループ 2360" transform="translate(15.669 9.239)">
      <path id="パス_2182" data-name="パス 2182" d="M19.214,11.389l1.893-3.28-7.575.006Z" transform="translate(-13.532 -8.109)" fill="#aec947"/>
    </g>
    <g id="グループ_2361" data-name="グループ 2361" transform="translate(15.669 4.867)">
      <path id="パス_2183" data-name="パス 2183" d="M13.532,8.731l7.575-.006L13.532,4.353Z" transform="translate(-13.532 -4.353)" fill="#89b829"/>
    </g>
    <g id="グループ_2362" data-name="グループ 2362" transform="translate(19.835 12.52)">
      <path id="パス_2184" data-name="パス 2184" d="M17.111,13.556l1.516-2.629,2.65,5.035Z" transform="translate(-17.111 -10.927)" fill="#89b829"/>
    </g>
    <g id="グループ_2363" data-name="グループ 2363" transform="translate(21.35 12.52)">
      <path id="パス_2185" data-name="パス 2185" d="M21.063,15.962l-2.651-5.035L24.1,14.205Z" transform="translate(-18.412 -10.927)" fill="#aec947"/>
    </g>
    <g id="グループ_2364" data-name="グループ 2364" transform="translate(21.351 9.239)">
      <path id="パス_2186" data-name="パス 2186" d="M18.413,11.389l1.893-3.28,3.79,6.559Z" transform="translate(-18.413 -8.109)" fill="#4a642f"/>
    </g>
    <g id="グループ_2365" data-name="グループ 2365" transform="translate(23.244 9.239)">
      <path id="パス_2187" data-name="パス 2187" d="M23.829,14.668l-3.79-6.559,7.576,4.372Z" transform="translate(-20.039 -8.109)" fill="#89b829"/>
    </g>
    <g id="グループ_2366" data-name="グループ 2366" transform="translate(15.669 22.362)">
      <path id="パス_2188" data-name="パス 2188" d="M13.532,19.382V29l8.332-4.81Z" transform="translate(-13.532 -19.382)" fill="#f5cecc"/>
    </g>
    <g id="グループ_2367" data-name="グループ 2367" transform="translate(19.835 27.175)">
      <path id="パス_2189" data-name="パス 2189" d="M17.111,25.921l1.516,2.622,2.65-5.027Z" transform="translate(-17.111 -23.516)" fill="#912039"/>
    </g>
    <g id="グループ_2368" data-name="グループ 2368" transform="translate(21.35 27.175)">
      <path id="パス_2190" data-name="パス 2190" d="M21.063,23.516l-2.651,5.027,5.684-3.28Z" transform="translate(-18.412 -23.516)" fill="#d5124b"/>
    </g>
    <g id="グループ_2369" data-name="グループ 2369" transform="translate(21.351 28.921)">
      <path id="パス_2191" data-name="パス 2191" d="M18.413,28.3l1.893,3.286,3.79-6.567Z" transform="translate(-18.413 -25.016)" fill="#e28086"/>
    </g>
    <g id="グループ_2370" data-name="グループ 2370" transform="translate(23.244 28.921)">
      <path id="パス_2192" data-name="パス 2192" d="M23.829,25.016l-3.79,6.567,7.576-4.369Z" transform="translate(-20.039 -25.016)" fill="#d5124b"/>
    </g>
    <g id="グループ_2371" data-name="グループ 2371" transform="translate(15.669 29.58)">
      <path id="パス_2193" data-name="パス 2193" d="M17.7,25.582,19.214,28.2l-5.682-.217Z" transform="translate(-13.532 -25.582)" fill="#d5124b"/>
    </g>
    <g id="グループ_2372" data-name="グループ 2372" transform="translate(15.669 31.985)">
      <path id="パス_2194" data-name="パス 2194" d="M13.532,27.648l5.681.217-5.681,3.286Z" transform="translate(-13.532 -27.648)" fill="#e28086"/>
    </g>
    <g id="グループ_2373" data-name="グループ 2373" transform="translate(15.669 32.201)">
      <path id="パス_2195" data-name="パス 2195" d="M19.214,27.834l1.893,3.286H13.532Z" transform="translate(-13.532 -27.834)" fill="#72162b"/>
    </g>
    <g id="グループ_2374" data-name="グループ 2374" transform="translate(15.669 35.488)">
      <path id="パス_2196" data-name="パス 2196" d="M13.532,30.657h7.575l-7.575,4.371Z" transform="translate(-13.532 -30.657)" fill="#d5124b"/>
    </g>
    <g id="グループ_2375" data-name="グループ 2375" transform="translate(7.334 17.555)">
      <path id="パス_2197" data-name="パス 2197" d="M14.707,20.06,6.372,24.872v-9.62Z" transform="translate(-6.372 -15.252)" fill="#b7b9d2"/>
    </g>
    <g id="グループ_2376" data-name="グループ 2376" transform="translate(4.304 17.555)">
      <path id="パス_2198" data-name="パス 2198" d="M6.8,20.06H3.769L6.8,15.252Z" transform="translate(-3.769 -15.252)" fill="#1c2d59"/>
    </g>
    <g id="グループ_2377" data-name="グループ 2377" transform="translate(4.304 15.798)">
      <path id="パス_2199" data-name="パス 2199" d="M6.8,15.5l-3.03,4.808V13.743Z" transform="translate(-3.769 -13.743)" fill="#2a559c"/>
    </g>
    <g id="グループ_2378" data-name="グループ 2378" transform="translate(0.511 15.798)">
      <path id="パス_2200" data-name="パス 2200" d="M4.3,20.307H.511L4.3,13.743Z" transform="translate(-0.511 -13.743)" fill="#152040"/>
    </g>
    <g id="グループ_2379" data-name="グループ 2379" transform="translate(0.511 13.614)">
      <path id="パス_2201" data-name="パス 2201" d="M4.3,14.051.511,20.615V11.867Z" transform="translate(-0.511 -11.867)" fill="#1c2d59"/>
    </g>
    <g id="グループ_2380" data-name="グループ 2380" transform="translate(4.304 22.362)">
      <path id="パス_2202" data-name="パス 2202" d="M6.8,19.382H3.769L6.8,24.194Z" transform="translate(-3.769 -19.382)" fill="#182448"/>
    </g>
    <g id="グループ_2381" data-name="グループ 2381" transform="translate(4.304 22.362)">
      <path id="パス_2203" data-name="パス 2203" d="M6.8,24.194l-3.03-4.812v6.559Z" transform="translate(-3.769 -19.382)" fill="#1c2d59"/>
    </g>
    <g id="グループ_2382" data-name="グループ 2382" transform="translate(0.511 22.362)">
      <path id="パス_2204" data-name="パス 2204" d="M4.3,19.382H.511L4.3,25.941Z" transform="translate(-0.511 -19.382)" fill="#2a559c"/>
    </g>
    <g id="グループ_2383" data-name="グループ 2383" transform="translate(0.511 22.362)">
      <path id="パス_2205" data-name="パス 2205" d="M4.3,25.941.511,19.382v8.749Z" transform="translate(-0.511 -19.382)" fill="#1c2d59"/>
    </g>
    <g id="グループ_2384" data-name="グループ 2384" transform="translate(7.334 12.741)">
      <path id="パス_2206" data-name="パス 2206" d="M14.707,20.738,6.372,15.931l8.335-4.814Z" transform="translate(-6.372 -11.117)" fill="#f1e4c5"/>
    </g>
    <g id="グループ_2385" data-name="グループ 2385" transform="translate(9.985 12.52)">
      <path id="パス_2207" data-name="パス 2207" d="M10.161,13.556,8.649,10.927l5.684.221Z" transform="translate(-8.649 -10.927)" fill="#cb9c2e"/>
    </g>
    <g id="グループ_2386" data-name="グループ 2386" transform="translate(9.986 9.245)">
      <path id="パス_2208" data-name="パス 2208" d="M14.333,11.61,8.65,11.389l5.683-3.275Z" transform="translate(-8.65 -8.114)" fill="#e6ae41"/>
    </g>
    <g id="グループ_2387" data-name="グループ 2387" transform="translate(8.094 9.239)">
      <path id="パス_2209" data-name="パス 2209" d="M8.916,11.389,7.025,8.109l7.575.006Z" transform="translate(-7.025 -8.109)" fill="#6c5425"/>
    </g>
    <g id="グループ_2388" data-name="グループ 2388" transform="translate(8.094 4.867)">
      <path id="パス_2210" data-name="パス 2210" d="M14.6,8.731,7.025,8.725,14.6,4.353Z" transform="translate(-7.025 -4.353)" fill="#cb9c2e"/>
    </g>
    <g id="グループ_2389" data-name="グループ 2389" transform="translate(7.334 12.52)">
      <path id="パス_2211" data-name="パス 2211" d="M10.535,13.556,9.023,10.927,6.372,15.962Z" transform="translate(-6.372 -10.927)" fill="#8c6a27"/>
    </g>
    <g id="グループ_2390" data-name="グループ 2390" transform="translate(4.304 12.52)">
      <path id="パス_2212" data-name="パス 2212" d="M6.8,15.962,9.45,10.927,3.769,14.205Z" transform="translate(-3.769 -10.927)" fill="#cb9c2e"/>
    </g>
    <g id="グループ_2391" data-name="グループ 2391" transform="translate(4.304 9.239)">
      <path id="パス_2213" data-name="パス 2213" d="M9.45,11.389,7.559,8.109l-3.79,6.559Z" transform="translate(-3.769 -8.109)" fill="#e6ae41"/>
    </g>
    <g id="グループ_2392" data-name="グループ 2392" transform="translate(0.511 9.239)">
      <path id="パス_2214" data-name="パス 2214" d="M4.3,14.668l3.79-6.559L.511,12.481Z" transform="translate(-0.511 -8.109)" fill="#cb9c2e"/>
    </g>
    <g id="グループ_2393" data-name="グループ 2393" transform="translate(7.334 22.362)">
      <path id="パス_2215" data-name="パス 2215" d="M14.707,19.382V29l-8.335-4.81Z" transform="translate(-6.372 -19.382)" fill="#c5d1e8"/>
    </g>
    <g id="グループ_2394" data-name="グループ 2394" transform="translate(7.334 27.175)">
      <path id="パス_2216" data-name="パス 2216" d="M10.535,25.921,9.023,28.543,6.372,23.516Z" transform="translate(-6.372 -23.516)" fill="#0e62a9"/>
    </g>
    <g id="グループ_2395" data-name="グループ 2395" transform="translate(4.304 27.175)">
      <path id="パス_2217" data-name="パス 2217" d="M6.8,23.516,9.45,28.543l-5.681-3.28Z" transform="translate(-3.769 -23.516)" fill="#397bb7"/>
    </g>
    <g id="グループ_2396" data-name="グループ 2396" transform="translate(4.304 28.921)">
      <path id="パス_2218" data-name="パス 2218" d="M9.45,28.3,7.559,31.583l-3.79-6.567Z" transform="translate(-3.769 -25.016)" fill="#003757"/>
    </g>
    <g id="グループ_2397" data-name="グループ 2397" transform="translate(0.511 28.921)">
      <path id="パス_2219" data-name="パス 2219" d="M4.3,25.016l3.79,6.567L.511,27.214Z" transform="translate(-0.511 -25.016)" fill="#0e62a9"/>
    </g>
    <g id="グループ_2398" data-name="グループ 2398" transform="translate(9.985 29.58)">
      <path id="パス_2220" data-name="パス 2220" d="M10.161,25.582,8.649,28.2l5.684-.217Z" transform="translate(-8.649 -25.582)" fill="#00487b"/>
    </g>
    <g id="グループ_2399" data-name="グループ 2399" transform="translate(9.986 31.985)">
      <path id="パス_2221" data-name="パス 2221" d="M14.333,27.648l-5.683.217,5.683,3.286Z" transform="translate(-8.65 -27.648)" fill="#0e62a9"/>
    </g>
    <g id="グループ_2400" data-name="グループ 2400" transform="translate(8.094 32.201)">
      <path id="パス_2222" data-name="パス 2222" d="M8.916,27.834,7.025,31.12H14.6Z" transform="translate(-7.025 -27.834)" fill="#397bb7"/>
    </g>
    <g id="グループ_2401" data-name="グループ 2401" transform="translate(8.094 35.488)">
      <path id="パス_2223" data-name="パス 2223" d="M14.6,30.657H7.025L14.6,35.028Z" transform="translate(-7.025 -30.657)" fill="#0e62a9"/>
    </g>
    <g id="グループ_2402" data-name="グループ 2402" transform="translate(8.216 17.216)">
      <path id="パス_2224" data-name="パス 2224" d="M11.944,14.961v.166a2.5,2.5,0,0,0-.7.125,1.233,1.233,0,0,0-.476.314,1.383,1.383,0,0,0-.359.838,7.159,7.159,0,0,0-.048.92v5.548a6.992,6.992,0,0,0,.055.991,1.636,1.636,0,0,0,.2.576,1.189,1.189,0,0,0,.506.452,2.1,2.1,0,0,0,.82.177v.176H7.13v-.176a2.247,2.247,0,0,0,.7-.125,1.214,1.214,0,0,0,.47-.311,1.177,1.177,0,0,0,.321-.61,5.41,5.41,0,0,0,.085-1.15V17.324a5.372,5.372,0,0,0-.085-1.147,1.19,1.19,0,0,0-.321-.611,1.1,1.1,0,0,0-.475-.314,2.544,2.544,0,0,0-.7-.125v-.166Z" transform="translate(-7.13 -14.961)" fill="#211714"/>
    </g>
    <g id="グループ_2403" data-name="グループ 2403" transform="translate(13.019 16.945)">
      <path id="パス_2225" data-name="パス 2225" d="M20.341,15l.085,3.275-.17.014A6.094,6.094,0,0,0,18.924,15.8a2.671,2.671,0,0,0-1.967-.813,3.056,3.056,0,0,0-1.541.361,3.688,3.688,0,0,0-1.2,1.186,6.719,6.719,0,0,0-1.129,3.847,6.915,6.915,0,0,0,.268,1.946,5.374,5.374,0,0,0,.79,1.613A3,3,0,0,0,16.61,25.3a2.486,2.486,0,0,0,1.078-.239,2.379,2.379,0,0,0,.829-.668A2.215,2.215,0,0,0,18.959,23a1.306,1.306,0,0,0-.4-1.076,2.069,2.069,0,0,0-1.328-.329v-.177h4.805v.177a2.934,2.934,0,0,0-.928.182.788.788,0,0,0-.4.427,3.855,3.855,0,0,0-.142,1.314c0,.186.01.466.031.845l.013.176a1.354,1.354,0,0,0-.427-.107.831.831,0,0,0-.416.176,5.079,5.079,0,0,1-1.524.693,6.756,6.756,0,0,1-1.829.243,6.073,6.073,0,0,1-2.392-.453,4.25,4.25,0,0,1-1.73-1.3,4.431,4.431,0,0,1-.768-1.5,6.357,6.357,0,0,1-.268-1.853,6.435,6.435,0,0,1,.484-2.508,4.884,4.884,0,0,1,3-2.854,5.745,5.745,0,0,1,1.976-.336,4.841,4.841,0,0,1,1.114.121,5.544,5.544,0,0,1,1.1.366l.441.207a.889.889,0,0,0,.3.063c.206,0,.357-.166.466-.485h.2Z" transform="translate(-11.256 -14.728)" fill="#211714"/>
    </g>
    <g id="グループ_2404" data-name="グループ 2404" transform="translate(36.843 12.698)">
      <path id="パス_2226" data-name="パス 2226" d="M37.174,12.216V11.08h1.289v1.135h1.821V13.5H38.462v.856h1.965V15.64H38.833a5.337,5.337,0,0,0,1.757,1.929l-.532,1.523A5.582,5.582,0,0,1,38.462,17v2.6H37.174V16.792a7.384,7.384,0,0,1-1.7,2.315l-.793-1.27a5.866,5.866,0,0,0,2.019-2.2H35.119a3.167,3.167,0,0,0,.405.451l-.775,1.027a4.252,4.252,0,0,1-.513-1.262V19.6H32.992V16.2a6.126,6.126,0,0,1-.847,1.857l-.424-1.775a6.412,6.412,0,0,0,1.171-2.47h-1V12.564h1.1V11.08h1.243v1.488h.856v.549a5.6,5.6,0,0,0,.576-1.874l1.208.116c-.036.226-.081.451-.171.856h.47Zm-1.416,2.136-.739-.54h-.785v.4a6.811,6.811,0,0,0,.856,1.4V14.353h.668Zm1.416,0V13.5h-.856a4.877,4.877,0,0,1-.451.856Z" transform="translate(-31.721 -11.08)" fill="#fff"/>
    </g>
    <g id="グループ_2405" data-name="グループ 2405" transform="translate(46.433 12.625)">
      <path id="パス_2227" data-name="パス 2227" d="M39.959,18.012c.054-.008,1.513-.108,1.675-.126V15.724H40.2V14.417h4.218v1.306H43.012v2.055c1.009-.108,1.414-.18,1.722-.234l.019,1.279a46.513,46.513,0,0,1-4.651.6Zm7.723-5.687h.856v1.307H46.023a11.618,11.618,0,0,0,.667,3.659c.054.135.253.6.477.6.243,0,.73-.622.946-1.226l.568,1.433c-.144.406-.595,1.532-1.487,1.532a1.573,1.573,0,0,1-1.091-.505c-1.306-1.425-1.406-4.02-1.46-5.5H40.03V12.324H44.6c-.009-.144-.045-1.19-.045-1.253H46v1.253h.884a4.732,4.732,0,0,0-.658-.838l1.162-.469c.135.1.253.18.865,1.055Z" transform="translate(-39.959 -11.017)" fill="#fff"/>
    </g>
    <g id="グループ_2406" data-name="グループ 2406" transform="translate(36.842 22.84)">
      <path id="パス_2228" data-name="パス 2228" d="M33.776,22.838a7.224,7.224,0,0,1-1.37.694l-.686-1.37c2.2-.865,3.137-1.622,3.668-2.37h1.6a8.1,8.1,0,0,0,3.623,2.353l-.7,1.361a10.187,10.187,0,0,1-1.343-.694v.549H33.775v-.523Zm5.183,5.642c-.09-.171-.189-.361-.361-.631-1.532.217-4.6.342-6.218.388l-.217-1.4c.044.008,1.19.008,1.315.008a11.327,11.327,0,0,0,.631-1.559H32.1v-1.3h8.129v1.3H38.364A15.189,15.189,0,0,1,40.256,27.8Zm-1.37-6.327a9.243,9.243,0,0,1-1.405-1.271A6.845,6.845,0,0,1,34.8,22.154Zm.559,3.136H35.614c-.325.757-.433.992-.711,1.559,1.063-.008,2.036-.008,2.937-.1-.378-.505-.576-.739-.757-.956Z" transform="translate(-31.72 -19.792)" fill="#fff"/>
    </g>
    <g id="グループ_2407" data-name="グループ 2407" transform="translate(46.342 22.913)">
      <path id="パス_2229" data-name="パス 2229" d="M42.549,28.389h-1.37v-3a11.192,11.192,0,0,1-.956.722l-.342-1.595a6.244,6.244,0,0,0,2.136-2.163H40.043V21.09h1.136V19.855h1.37V21.09h.918v1.262a5.953,5.953,0,0,1-.721,1.306,4.468,4.468,0,0,0,1.235.964l-.676,1.289a5.107,5.107,0,0,1-.757-.865v3.343Zm2.676-8.534h1.406V22.09h1.757v1.388H46.632v3.3h1.893v1.37H43.163v-1.37h2.064v-3.3H43.605V22.089h1.622V19.855Z" transform="translate(-39.881 -19.855)" fill="#fff"/>
    </g>
    <g id="グループ_2408" data-name="グループ 2408" transform="translate(59.33 12.645)">
      <path id="パス_2230" data-name="パス 2230" d="M71.282,14.79H62.655v.989h7.334v7.913H64.563a19.656,19.656,0,0,0,7.058,3.573l-1.526,2.5a21.011,21.011,0,0,1-7.441-5.025v5.308H60.068V24.782a19.387,19.387,0,0,1-7.5,5.087l-1.526-2.462c4.641-1.595,6.273-2.987,7.143-3.715H52.8V15.78h7.27v-.99H51.4V12.55h8.669V11.035h2.586V12.55h8.627V14.79Zm-16,4.1h4.79V17.656h-4.79Zm0,2.948h4.79V20.6h-4.79Zm7.377-2.948h4.833V17.656H62.655Zm0,2.948h4.833V20.6H62.655Z" transform="translate(-51.038 -11.035)" fill="#fff"/>
    </g>
    <g id="グループ_2409" data-name="グループ 2409" transform="translate(80.677 12.384)">
      <path id="パス_2231" data-name="パス 2231" d="M69.375,27.222a20.541,20.541,0,0,0,7.27-4.965H70.287V19.975h7.928V17.533h2.565v2.442h8.013v2.282H82.433A18.918,18.918,0,0,0,89.7,27.122l-1.59,2.261A19.808,19.808,0,0,1,80.78,23.59v6.56H78.215V23.771A22.707,22.707,0,0,1,70.987,29.5Zm3.561-12.576a13.308,13.308,0,0,0-1.611-2.584l2.395-.888a13.371,13.371,0,0,1,1.887,3.048l-1.144.424h4.091a13.72,13.72,0,0,0-1.759-3.028l2.417-.807a14.647,14.647,0,0,1,1.929,3.249l-1.717.586h3.9a33.313,33.313,0,0,0,1.865-3.613l2.776.787a27.177,27.177,0,0,1-1.781,2.826h2.84v4.6H86.416V16.865H72.6v2.382H70.032v-4.6h2.9Z" transform="translate(-69.375 -10.81)" fill="#fff"/>
    </g>
    <g id="グループ_2410" data-name="グループ 2410" transform="translate(101.619 12.364)">
      <path id="パス_2232" data-name="パス 2232" d="M89.527,20.865a12.67,12.67,0,0,1-1.271,1.372l-.891-3.35a15.042,15.042,0,0,0,3.413-7.832l2.627.262a18.334,18.334,0,0,1-1.293,5.066V30.091H89.527Zm11.3-6.035a23.125,23.125,0,0,0-3.773-2.321l2.162-1.716a18.076,18.076,0,0,1,4.134,2.5l-1.78,1.534h5.744v2.382H101.8V20.7h4.748v2.382H101.8V27.1h5.957v2.382H93.173V27.1h5.935V23.086H94.38V20.7h4.727V17.212H93.681V14.83h7.143Z" transform="translate(-87.365 -10.793)" fill="#fff"/>
    </g>
    <g id="グループ_2411" data-name="グループ 2411" transform="translate(123.239 12.586)">
      <path id="パス_2233" data-name="パス 2233" d="M113.144,19.281c-1.971.182-2.925.262-3.858.322l-.636-1.978h-2.12V12.62h8.013V10.984h2.735V12.62h8.034v5.006h-2.629V14.941H109.138V17.2a48.092,48.092,0,0,0,12.124-1.817l1.378,2.2a48.775,48.775,0,0,1-6.783,1.393V21.1l9.878-.989.17,2.341-10.047,1.029v3.109c0,.625.106.787.827.787h4.578c.785,0,.932-.424,1-.605a22.094,22.094,0,0,0,.148-2.483l2.735.605c-.127,3.028-.212,4.885-2.374,4.885h-7.674c-.339,0-1.95,0-1.95-1.595V23.74l-7.016.707-.191-2.362,7.207-.726V19.281Z" transform="translate(-105.937 -10.984)" fill="#fff"/>
    </g>
  </g>
</svg>
