<svg xmlns="http://www.w3.org/2000/svg" width="29" height="59.07" viewBox="0 0 29 59.07">
  <g id="アートワーク_105" data-name="アートワーク 105" transform="translate(0 1.182)">
    <g id="グループ_1043" data-name="グループ 1043">
      <g id="パス_718" data-name="パス 718" transform="translate(5.96 -0.193)" fill="#376e6d" stroke-miterlimit="10">
        <path d="M 16.65739822387695 55.63644027709961 L 14.33945751190186 55.63644027709961 L 3.93935751914978 55.63644027709961 L 0.811767578125 55.63644027709961 L 1.567957639694214 52.60163879394531 L 14.77415752410889 -0.3983603119850159 L 19.5860481262207 0.321739673614502 L 16.77994728088379 53.32173919677734 L 16.65739822387695 55.63644027709961 Z" stroke="none"/>
        <path d="M 14.33945751190186 53.19252777099609 L 17.14554786682129 0.1925296783447266 L 3.939366579055786 53.19252777099609 L 14.33945751190186 53.19252777099609 M 18.9753303527832 58.08034896850586 L -2.315815210342407 58.08034896850586 L 12.40274810791016 -0.9892521500587463 L 22.02653121948242 0.4509478509426117 L 18.9753303527832 58.08034896850586 Z" stroke="none" fill="#e1eaeb"/>
      </g>
      <path id="パス_719" data-name="パス 719" d="M2.214,51.591H5.332L9.9,32.447,6.981,1.213Z" transform="translate(3.381 1.409)" fill="#689da2"/>
      <path id="パス_720" data-name="パス 720" d="M7.641,47.236,8.07,21.982,0,4.271,5.735,47.548Z" transform="translate(0 5.452)" fill="#234646"/>
      <path id="パス_721" data-name="パス 721" d="M8.509,41.925l.977-23.431L16,7.855l-5,34.07" transform="translate(12.998 11.075)" fill="#689da2"/>
    </g>
  </g>
</svg>
