<svg xmlns="http://www.w3.org/2000/svg" width="129" height="97.244" viewBox="0 0 129 97.244">
  <g id="グループ_1034" data-name="グループ 1034" transform="translate(0 0)">
    <path id="パス_692" data-name="パス 692" d="M128,48.353c-1.625-4.9-7.707-11.823-16.07-11.364,0,0-.933-14.849-11.436-22.4-9.67-6.951-20.815-3.02-20.815-3.02S74.67-.683,54.993.03C35.433.738,23.462,15.218,23.964,22.608c0,0-19.769,1.559-23.506,24.445S16.774,75.416,28.294,75.172s63.865.255,73.788.255C124.762,75.427,131.879,60.061,128,48.353Z" transform="translate(0 0)" fill="#689da2"/>
    <ellipse id="楕円形_19" data-name="楕円形 19" cx="8.643" cy="8.643" rx="8.643" ry="8.643" transform="translate(89.717 68.737)" fill="#689da2" stroke="#e6ebec" stroke-miterlimit="10" stroke-width="1.776"/>
    <circle id="楕円形_20" data-name="楕円形 20" cx="5.004" cy="5.004" r="5.004" transform="translate(85.705 86.991)" fill="#689da2" stroke="#e1eaeb" stroke-miterlimit="10" stroke-width="0.488"/>
    <path id="パス_693" data-name="パス 693" d="M42.446,4.813a23.5,23.5,0,0,0-7.759,5.149,15.815,15.815,0,0,0-3.6,5.725" transform="translate(37.944 5.874)" fill="#689da2" stroke="#e1eaeb" stroke-miterlimit="10" stroke-width="1.776"/>
  </g>
</svg>
