<svg xmlns="http://www.w3.org/2000/svg" width="141" height="99.903" viewBox="0 0 141 99.903">
  <g id="アートワーク_103" data-name="アートワーク 103" transform="translate(0 3.903)">
    <g id="グループ_1045" data-name="グループ 1045" transform="translate(0 0)">
      <path id="パス_726" data-name="パス 726" d="M116.211,92.16,56.906,5.715,0,92.16Z" transform="translate(0 3.84)" fill="#234646"/>
      <path id="パス_724" data-name="パス 724" d="M126.132,97.519l-41.049-96-73.442,96Z" transform="translate(14.868 -1.519)" fill="#376e6d"/>
      <g id="パス_725" data-name="パス 725" transform="translate(42.137 -1.519)" fill="#689da2" stroke-miterlimit="10">
        <path d="M 72.2630615234375 35.84016036987305 L 62.87182998657227 28.67083168029785 L 59.95304107666016 30.80087852478027 L 59.09562301635742 31.42660903930664 L 58.52209091186523 30.53342819213867 L 52.3868522644043 20.97879028320312 L 36.86073303222656 30.83730888366699 L 35.52529144287109 29.39231872558594 L 56.92445373535156 0.9185285568237305 L 57.93955230712891 -0.432161420583725 L 58.63518142700195 1.107618570327759 L 73.78118133544922 34.63359832763672 L 72.2630615234375 35.84016036987305 Z" stroke="none"/>
        <path d="M 72.86986541748047 35.0452995300293 L 57.72386169433594 1.519318580627441 L 36.32470321655273 29.99310874938965 L 52.69073104858398 19.60127830505371 L 59.36355209350586 29.99310874938965 L 62.88531112670898 27.42302894592285 L 72.86986541748047 35.0452995300293 M 77.95500183105469 41.44350814819336 L 62.85836029052734 29.91863250732422 L 58.82769393920898 32.86009979248047 L 52.08296966552734 22.35630035400391 L 28.1335620880127 37.56329727172852 L 58.15524291992188 -2.383651494979858 L 77.95500183105469 41.44350814819336 Z" stroke="none" fill="#e1eaeb"/>
      </g>
      <g id="パス_727" data-name="パス 727" transform="translate(20.972 3.84)" fill="#689da2" stroke-miterlimit="10">
        <path d="M 14.03033924102783 36.81707763671875 L 15.79467868804932 34.13209915161133 L 34.82888793945312 5.16583776473999 L 35.64746856689453 3.920127630233765 L 36.48967742919922 5.149977684020996 L 48.51544952392578 22.71055793762207 L 49.00761795043945 23.42922782897949 L 48.36325836181641 24.01533699035645 L 42.61952972412109 29.23978805541992 L 41.55189895629883 30.21088790893555 L 41.01767730712891 28.87018775939941 L 39.40326309204102 24.81855964660645 L 31.46233940124512 33.01984786987305 L 30.69888877868652 33.80832672119141 L 29.98464965820312 32.97500610351562 L 28.30616760253906 31.01669120788574 L 17.0068187713623 35.60770797729492 L 14.03033924102783 36.81707763671875 Z" stroke="none"/>
        <path d="M 35.66460418701172 5.714996337890625 L 16.63039398193359 34.68125915527344 L 28.59683609008789 29.81918716430664 L 30.74391555786133 32.32423782348633 L 39.76007461547852 23.0124683380127 L 41.94664764404297 28.50002670288086 L 47.69037628173828 23.27557754516602 L 35.66460418701172 5.714996337890625 M 35.63032531738281 2.125267028808594 L 50.32484436035156 23.58287811279297 L 41.15713500976562 31.92174911499023 L 39.04645919799805 26.62464904785156 L 30.65384674072266 35.29242706298828 L 28.01548767089844 32.21418380737305 L 11.43027496337891 38.95289611816406 L 35.63032531738281 2.125267028808594 Z" stroke="none" fill="#e1eaeb"/>
      </g>
    </g>
  </g>
</svg>
