<svg xmlns="http://www.w3.org/2000/svg" width="157" height="105" viewBox="0 0 157 105">
  <g id="グループ_1033" data-name="グループ 1033" transform="translate(1)">
    <g id="グループ_1027" data-name="グループ 1027" transform="translate(99)">
      <path id="パス_680" data-name="パス 680" d="M60.253,33.127h-8.63L48.437,55.969h15Z" transform="translate(-27.439 49.031)" fill="#689da2"/>
      <path id="パス_681" data-name="パス 681" d="M89.595,38.308s5.812-7.83,1.293-18.523a14.491,14.491,0,0,0-9.676-8.626,12.2,12.2,0,0,0-3.778-7.9A12.494,12.494,0,0,0,68.55,0a12.49,12.49,0,0,0-8.884,3.259,12.19,12.19,0,0,0-3.781,7.9,14.5,14.5,0,0,0-9.676,8.626C41.693,30.478,47.5,38.308,47.5,38.308a19.082,19.082,0,0,0-7.421,16.136c1.077,19.049,16.881,18.2,16.881,18.2a14.887,14.887,0,0,0,3.164,3.215,15.278,15.278,0,0,0,16.843,0,14.886,14.886,0,0,0,3.164-3.215s15.806.853,16.883-18.2A19.087,19.087,0,0,0,89.595,38.308Z" transform="translate(-40.05)" fill="#234646"/>
    </g>
    <g id="グループ_1028" data-name="グループ 1028" transform="translate(79)">
      <path id="パス_682" data-name="パス 682" d="M52.243,33.127h-8.63L40.427,55.969h15Z" transform="translate(-19.429 49.031)" fill="#689da2"/>
      <path id="パス_683" data-name="パス 683" d="M81.585,38.308s5.812-7.83,1.293-18.523A14.491,14.491,0,0,0,73.2,11.159a12.188,12.188,0,0,0-3.778-7.9A12.494,12.494,0,0,0,60.54,0a12.49,12.49,0,0,0-8.884,3.259,12.19,12.19,0,0,0-3.781,7.9A14.5,14.5,0,0,0,38.2,19.785c-4.517,10.693,1.293,18.523,1.293,18.523a19.082,19.082,0,0,0-7.421,16.136c1.077,19.049,16.883,18.2,16.883,18.2a14.845,14.845,0,0,0,3.162,3.215,15.278,15.278,0,0,0,16.843,0,14.887,14.887,0,0,0,3.164-3.215s15.806.853,16.883-18.2A19.087,19.087,0,0,0,81.585,38.308Z" transform="translate(-32.04 0)" fill="#376e6d"/>
    </g>
    <g id="グループ_1029" data-name="グループ 1029" transform="translate(59)">
      <path id="パス_684" data-name="パス 684" d="M44.233,33.127H35.6L32.417,55.969h15Z" transform="translate(-11.419 49.031)" fill="#689da2"/>
      <path id="パス_685" data-name="パス 685" d="M73.575,38.308s5.812-7.83,1.293-18.523a14.491,14.491,0,0,0-9.676-8.626,12.188,12.188,0,0,0-3.778-7.9A12.494,12.494,0,0,0,52.53,0a12.494,12.494,0,0,0-8.884,3.259,12.19,12.19,0,0,0-3.781,7.9,14.5,14.5,0,0,0-9.676,8.626c-4.517,10.693,1.293,18.523,1.293,18.523a19.082,19.082,0,0,0-7.421,16.136c1.077,19.049,16.883,18.2,16.883,18.2a14.819,14.819,0,0,0,3.164,3.215,15.274,15.274,0,0,0,16.841,0,14.886,14.886,0,0,0,3.164-3.215s15.806.853,16.883-18.2A19.087,19.087,0,0,0,73.575,38.308Z" transform="translate(-24.03 0)" fill="#234646"/>
    </g>
    <g id="グループ_1030" data-name="グループ 1030" transform="translate(39 1)">
      <path id="パス_686" data-name="パス 686" d="M36.223,33.127h-8.63L24.407,55.969h15Z" transform="translate(-3.409 48.031)" fill="#689da2"/>
      <path id="パス_687" data-name="パス 687" d="M65.565,37.82a18.981,18.981,0,0,0,1.293-18.287,14.441,14.441,0,0,0-9.676-8.516,11.974,11.974,0,0,0-3.778-7.8A12.592,12.592,0,0,0,44.52,0a12.592,12.592,0,0,0-8.884,3.218,11.976,11.976,0,0,0-3.781,7.8,14.446,14.446,0,0,0-9.676,8.516A18.988,18.988,0,0,0,23.473,37.82a18.775,18.775,0,0,0-7.421,15.93C17.13,72.556,32.936,71.714,32.936,71.714A14.712,14.712,0,0,0,36.1,74.888a14.3,14.3,0,0,0,20-3.174s15.806.842,16.883-17.964A18.781,18.781,0,0,0,65.565,37.82Z" transform="translate(-16.02 0)" fill="#376e6d"/>
    </g>
    <g id="グループ_1031" data-name="グループ 1031" transform="translate(20 1)">
      <path id="パス_688" data-name="パス 688" d="M28.213,33.127h-8.63L16.4,55.969h15Z" transform="translate(4.601 48.031)" fill="#689da2"/>
      <path id="パス_689" data-name="パス 689" d="M57.555,37.82a18.98,18.98,0,0,0,1.293-18.287,14.443,14.443,0,0,0-9.673-8.516,11.988,11.988,0,0,0-3.781-7.8A12.592,12.592,0,0,0,36.51,0a12.592,12.592,0,0,0-8.884,3.218,11.976,11.976,0,0,0-3.781,7.8,14.446,14.446,0,0,0-9.676,8.516A18.988,18.988,0,0,0,15.463,37.82,18.775,18.775,0,0,0,8.042,53.75C9.12,72.556,24.926,71.714,24.926,71.714a14.712,14.712,0,0,0,3.164,3.174,14.3,14.3,0,0,0,20-3.174S63.9,72.556,64.978,53.75A18.781,18.781,0,0,0,57.555,37.82Z" transform="translate(-8.01 0)" fill="#234646"/>
    </g>
    <g id="グループ_1032" data-name="グループ 1032" transform="translate(0 3)">
      <path id="パス_690" data-name="パス 690" d="M20.2,33.127h-8.63L8.387,55.969h15Z" transform="translate(12.613 45.873)" fill="#689da2"/>
      <path id="パス_691" data-name="パス 691" d="M49.545,36.653A17.932,17.932,0,0,0,50.838,18.93a14.334,14.334,0,0,0-9.673-8.253,11.489,11.489,0,0,0-3.781-7.558C34.7.548,31.018,0,28.5,0s-6.2.548-8.884,3.119a11.478,11.478,0,0,0-3.781,7.558A14.338,14.338,0,0,0,6.16,18.93,17.939,17.939,0,0,0,7.453,36.653S-.569,41.952.032,52.093C1.11,70.318,16.916,69.5,16.916,69.5a14.469,14.469,0,0,0,3.164,3.076A15.2,15.2,0,0,0,28.5,75a15.208,15.208,0,0,0,8.42-2.421A14.535,14.535,0,0,0,40.085,69.5s15.806.816,16.883-17.41C57.567,41.952,49.545,36.653,49.545,36.653Z" transform="translate(-1 -1)" fill="#376e6d"/>
    </g>
  </g>
</svg>
