<svg xmlns="http://www.w3.org/2000/svg" width="297" height="310.036" viewBox="0 0 297 310.036">
  <g id="認証制度" transform="translate(8 8)">
    <g id="グループ_1041" data-name="グループ 1041">
      <path id="パス_2674" data-name="パス 2674" d="M140.5,0A140.372,140.372,0,1,1,0,140.372,140.436,140.436,0,0,1,140.5,0Z" fill="none" stroke="#689da2" stroke-width="16"/>
      <g id="グループ_1036" data-name="グループ 1036" transform="translate(61.866 59.024)">
        <g id="グループ_1035" data-name="グループ 1035" transform="translate(0 0)">
          <path id="パス_694" data-name="パス 694" d="M29.138,21.7a8.255,8.255,0,0,1,4.556,2.1,3.87,3.87,0,0,1,1.578,2.715c0,1.1-.526,1.4-1.8,1.578a38.708,38.708,0,0,0-5.34,1.091c-9.723,2.939-13.271,6-13.271,9.549,0,2.362,2.015,3.9,6,3.9a46.346,46.346,0,0,0,7.226-.437c.744-.134,1.226-.218,1.881-.4a8.253,8.253,0,0,1,1.8-.308c3.023,0,4.467,1.231,4.467,2.759,0,1.315-.834,1.842-2.407,2.149a41.163,41.163,0,0,1-7.142.437c-1.181,0-2.446,0-3.633-.045-6.829-.263-10.769-3.062-10.769-7.752,0-3.37,2.452-7.137,7.836-9.9a25.675,25.675,0,0,1-.481-3.107c-.134-1.181-.263-3.33-.655-9.37-.134-1.752-.526-2.144-1.226-2.407a4.506,4.506,0,0,0-1.668-.308l-.174-.481A4.977,4.977,0,0,1,18.85,12.11a5.875,5.875,0,0,1,3.941,1.573c1.181.918,1.4,1.668,1.4,2.233a3.29,3.29,0,0,1-.437,1.489,5.884,5.884,0,0,0-.571,2.407c-.045.789-.09,1.8-.09,2.933,0,1.668.09,3.549.174,4.864,2.149-.924,4.03-1.707,5.385-2.452.924-.487,1.187-.744,1.187-1.008a1.841,1.841,0,0,0-.263-.834,7.177,7.177,0,0,0-.7-1.052Z" transform="translate(-12.284 -10.313)" fill="#234646"/>
          <path id="パス_695" data-name="パス 695" d="M22.044,50.058c7.361-3.2,12.919-8.933,12.919-16.551,0-5.345-1.97-6.527-3.857-6.527a7.37,7.37,0,0,0-5.34,2.67,23.182,23.182,0,0,0-1.842,2.368c-.437.7-.918,1.1-1.483,1.1a3.078,3.078,0,0,1-2.278-1.187,5.466,5.466,0,0,1-1.534-3.5,9.086,9.086,0,0,1,2.015-4.78c1.271-1.573,3.023-3.151,6.829-5.687-2.933-1.489-4.024-2.8-4.6-5.872l.437-.3c1.8,2.189,3.985,2.843,8.933,3.241,2.8.213,4.114,1.483,4.114,3.28,0,1.052-.744,1.713-2.1,1.713-1.22,0-3.107-.313-4.025-.313a8.59,8.59,0,0,0-3.812,1.1,11.252,11.252,0,0,0-3.941,3.459,4.625,4.625,0,0,0-.963,2.5c0,.744.4.963.834.963a3.864,3.864,0,0,0,1.573-.61c2.72-1.668,5.038-2.631,7.226-2.631,4.993,0,8.5,3.767,8.5,9.46,0,9.678-7.444,14.973-17.341,16.725Z" transform="translate(16.891 -11.789)" fill="#234646"/>
          <path id="パス_696" data-name="パス 696" d="M32.125,13.152a5.308,5.308,0,0,1,3.2-1.355,9.352,9.352,0,0,1,3.37.739c.879.4,1.271.924,1.271,1.578a3.484,3.484,0,0,1-.174,1.136A3.191,3.191,0,0,0,39.7,16a5.07,5.07,0,0,0,.039.744,15.515,15.515,0,0,0,.353,1.836A14.848,14.848,0,0,0,42.5,17.445a6.408,6.408,0,0,0,1.489-1.052c.263-.263.789-.481,2.06-.481,1.444,0,2.317.744,2.317,1.791,0,.616-.347,1.142-1.31,1.668a47.307,47.307,0,0,1-6.045,2.586c.481,1.618,1.142,3.543,1.8,5.122a32,32,0,0,0,3.722-1.668,9.355,9.355,0,0,0,1.578-1.091,4,4,0,0,1,2.625-.963c1.4,0,2.233.784,2.233,1.842,0,.784-.526,1.444-1.707,2.009-1.444.7-4.164,1.886-7.092,2.978a28.381,28.381,0,0,0,4.288,6.09,4.837,4.837,0,0,1,1.136,3.107c0,1.925-.739,2.5-1.662,2.5a3.414,3.414,0,0,1-2.06-.963,14.913,14.913,0,0,0-9.191-2.849c-4.383,0-6.7,1.45-6.7,3.549,0,2.368,2.715,4.2,8.234,4.2.963,0,1.881-.045,2.446-.09.4-.045,1.226-.174,1.539-.174,2.054,0,3.806,1.052,3.806,2.67,0,1.881-1.578,2.194-4.556,2.194-9.236,0-14.055-3.33-14.055-7.887,0-4.03,4.03-6.437,10.07-6.437a42.991,42.991,0,0,1,6.706.392c-1.052-1.836-1.842-3.28-2.8-5.3A36.485,36.485,0,0,1,32.78,32.77c-3.5,0-4.243-1.315-4.243-2.849A4.934,4.934,0,0,1,30.328,26.6,29.448,29.448,0,0,1,34.4,23.356a13.334,13.334,0,0,1-3.37.481c-.481,0-.963-.045-1.45-.09a7.664,7.664,0,0,1-5.077-3.107l.392-.526a8.331,8.331,0,0,0,4.12.963,29.529,29.529,0,0,0,8.1-1.4c-.437-1.265-.918-2.754-1.4-4.114-.442-1.181-.968-1.791-3.241-1.791h-.263Zm.789,13c-1.181,1.187-1.752,1.97-1.752,2.541s.392.918,1.534.918a30.211,30.211,0,0,0,7.489-1.534c-.66-1.7-1.315-3.409-1.97-5.25A21.209,21.209,0,0,0,32.914,26.154Z" transform="translate(43.909 -11.752)" fill="#234646"/>
          <path id="パス_697" data-name="パス 697" d="M36.8,14.3a5.028,5.028,0,0,1,2.278-.7,8.982,8.982,0,0,1,3.2.834c1.136.481,1.528,1,1.528,1.483a3.066,3.066,0,0,1-.431,1.271c-.179.4-.269,1.142-.269,3.683,0,.213.09.257.269.257A11.614,11.614,0,0,0,47.4,20.3a7.353,7.353,0,0,1,2.586-1.052c1.925,0,2.888.789,2.888,1.707a1.724,1.724,0,0,1-1.618,1.8,35.157,35.157,0,0,1-5.782.828,4.9,4.9,0,0,1-2.323-.7c.224,4.383.442,8.368.571,10.551a27.1,27.1,0,0,1,7.836,2.894c1.534.873,2.278,1.925,2.278,2.933a1.69,1.69,0,0,1-1.752,1.8,3.326,3.326,0,0,1-2.189-1.1,19.145,19.145,0,0,0-6.174-3.633c.045,3.722-2.233,5.385-6.482,5.385-3.2,0-6.04-1.315-6.04-4.338,0-2.715,3.414-4.2,6.61-4.2,1.271,0,2.189.039,2.759.039-.174-3.9-.437-8.973-.7-14.273-.09-1.925-.218-2.67-.616-3.107a3.3,3.3,0,0,0-2.362-.879Zm-4.03,22.9c0,1.008,1.008,2.015,3.33,2.015,3.5,0,4.377-1.4,4.422-3.459a16.151,16.151,0,0,0-4.114-.526C34.568,35.224,32.771,35.8,32.771,37.194Z" transform="translate(74.67 -3.482)" fill="#234646"/>
          <path id="パス_698" data-name="パス 698" d="M40.786,50.058c7.355-3.2,12.919-8.933,12.919-16.551,0-5.345-1.97-6.527-3.857-6.527a7.36,7.36,0,0,0-5.34,2.67,21.668,21.668,0,0,0-1.842,2.368c-.437.7-.918,1.1-1.489,1.1a3.077,3.077,0,0,1-2.273-1.187,5.437,5.437,0,0,1-1.534-3.5,9.086,9.086,0,0,1,2.015-4.78c1.265-1.573,3.017-3.151,6.829-5.687-2.933-1.489-4.024-2.8-4.6-5.872l.437-.3c1.791,2.189,3.985,2.843,8.933,3.241,2.8.213,4.114,1.483,4.114,3.28,0,1.052-.744,1.713-2.1,1.713-1.22,0-3.107-.313-4.024-.313a8.59,8.59,0,0,0-3.812,1.1,11.252,11.252,0,0,0-3.941,3.459,4.625,4.625,0,0,0-.963,2.5c0,.744.392.963.834.963a3.864,3.864,0,0,0,1.573-.61c2.72-1.668,5.038-2.631,7.226-2.631,4.993,0,8.5,3.767,8.5,9.46,0,9.678-7.444,14.973-17.341,16.725Z" transform="translate(103.054 -11.789)" fill="#234646"/>
          <path id="パス_699" data-name="パス 699" d="M36.4,27.362c4.075,3.767,9.549,6.09,17.083,7.663l-.134.655a6.3,6.3,0,0,0-3.33,2.849c-.347.66-.565.963-.873.963a2.591,2.591,0,0,1-.873-.3,27.311,27.311,0,0,1-12.393-10.73c.039,6.918.3,8.76.3,10.2,0,1.136-1.528,1.881-3.543,1.881-.879,0-1.36-.4-1.36-1.1,0-1.31.134-2.888.179-8.055a37.815,37.815,0,0,1-9.9,6.874c4.819.526,5.609.834,5.609,1.355,0,.571-.4.795-1.36,1.315v2.933h1.36c.828-1.047,1.528-1.97,2.5-3.023,3.588,3.023,3.767,3.286,3.767,3.728,0,.3-.224.526-.66.526H25.809v2.407c3.985.526,6.219,2.452,6.219,4.422a2.127,2.127,0,0,1-2.233,2.278,1.958,1.958,0,0,1-1.925-1.668,7.708,7.708,0,0,0-2.06-3.985c.09,7.008.263,9.812.263,11.083,0,1.091-1.528,1.836-3.459,1.836-.828,0-1.31-.392-1.31-1.047,0-1.187.174-3.594.257-8.849a29.154,29.154,0,0,1-8.536,7.971l-.392-.526A43.325,43.325,0,0,0,20.688,45.1H17.973l-4.159.213V43.65l4.159.218h3.633c0-1.836-.045-3.677-.174-5.513a47.307,47.307,0,0,1-7.053,2.759l-.213-.616a45.037,45.037,0,0,0,14.8-13.137h-9.5l-4.377.224V25.918l4.377.218H31.5c0-1.791-.084-3.633-.218-5.256,5.39.526,6.219.834,6.219,1.4s-.4.828-1.618,1.355v2.5H44.51A22.587,22.587,0,0,1,47.527,22.2c4.864,3.42,5.345,4.12,5.345,4.556,0,.392-.263.61-.7.61ZM37.72,45.1l-3.677.213V43.65l3.677.218H40c0-2.452-.045-4.069-.174-5.558,4.948.526,5.732.789,5.732,1.31,0,.571-.392.795-1.355,1.315v2.933h2.625c.879-1.047,1.842-2.273,2.849-3.37,3.985,3.151,4.422,3.633,4.422,4.075,0,.3-.218.526-.655.526h-8.67a27.181,27.181,0,0,0,10.288,9.98l-.129.655a8.586,8.586,0,0,0-3.683,1.925c-.437.4-.7.616-.957.616-.224,0-.442-.218-.834-.616A26.211,26.211,0,0,1,44.2,46.41c.045,8.581.263,11.822.263,13.227,0,1.091-1.534,1.836-3.459,1.836-.834,0-1.315-.392-1.315-1.047,0-1.271.179-3.812.263-9.46a30.3,30.3,0,0,1-10.377,7.265l-.353-.526A37.731,37.731,0,0,0,39.254,45.1Z" transform="translate(-10.68 30.006)" fill="#234646"/>
          <path id="パス_700" data-name="パス 700" d="M21.54,35.226a4.4,4.4,0,0,0,2.843,1.618c.744,0,1.842-.263,4.819-1.8C36.687,31.2,40.5,30.1,45.62,30.1c7.444,0,12.745,4.383,12.745,10.775,0,6.7-4.993,9.941-9.241,11.732-4.467,1.886-9.941,2.933-16.551,3.375l-.045-.789c5.872-1.4,11.122-3.375,15.152-6.174,3.812-2.67,5.737-5.474,5.737-9.107,0-4.685-2.978-7.444-7.836-7.444-4.383,0-9.2,2.054-15.2,6.61a12.857,12.857,0,0,0-2.323,1.97,2.334,2.334,0,0,1-1.836.789c-1.925,0-4.338-2.412-5.122-4.467a6.6,6.6,0,0,1-.224-1.886ZM50.658,24.233a12.092,12.092,0,0,1,5.513,1.842,3.484,3.484,0,0,1,1.534,2.67,1.737,1.737,0,0,1-1.791,1.925c-.879,0-1.4-.61-2.015-1.842a10.7,10.7,0,0,0-3.5-3.98Zm4.159-3.2a11.492,11.492,0,0,1,5.474,1.534,3.359,3.359,0,0,1,1.752,2.888,1.692,1.692,0,0,1-1.8,1.752c-.61,0-1.181-.263-1.836-1.578a9.231,9.231,0,0,0-3.812-3.98Z" transform="translate(27.235 30.727)" fill="#234646"/>
          <path id="パス_701" data-name="パス 701" d="M39.7,21.217a7.369,7.369,0,0,1,5.737,2.625c1.226,1.226,1.578,2.015,1.578,2.759a1.978,1.978,0,0,1-1.052,1.578,16.53,16.53,0,0,0-2.06,1.181c-2.009,1.489-2.843,2.189-4.775,3.812-2.536,2.1-3.806,3.28-4.9,4.243a2.548,2.548,0,0,0-1.052,1.842c0,.7.616,1.226,2.06,2.362,2.5,1.97,4.864,3.9,6.963,5.782A26.532,26.532,0,0,1,47.321,53,5.212,5.212,0,0,1,48.2,55.68a2.76,2.76,0,0,1-2.67,2.972c-1.1,0-1.578-.526-2.233-1.707a46.857,46.857,0,0,0-8.452-11.167c-1.271-1.226-2.452-2.228-3.767-3.414a3.388,3.388,0,0,1-1.355-2.754,4.448,4.448,0,0,1,1.483-3.2c3.241-3.414,6.09-6.566,8.586-9.717a5.979,5.979,0,0,0,1.534-2.67c0-.571-.834-1.494-1.886-2.194Z" transform="translate(67.889 31.555)" fill="#234646"/>
          <path id="パス_702" data-name="パス 702" d="M36.833,21.021a9.382,9.382,0,0,1,3.857,3.151,3.972,3.972,0,0,1,.828,2.278,6.277,6.277,0,0,1-.61,2.323,38.264,38.264,0,0,0-2.189,8.844c-.09,1.4-.045,2.189-.045,2.8l.174.045a64.586,64.586,0,0,1,4.6-10.646c1.226-2.1,2.67-3.633,4.64-3.633,4.248,0,7.355,5.256,7.355,13.708,0,10.422-4.551,17.341-16.9,20.274l-.269-.7c10.075-4.73,12.745-11.782,12.745-21.415,0-6.784-1.618-9.807-3.677-9.807-1.136,0-2.407,1.662-3.5,4.159a37.859,37.859,0,0,0-2.715,8.362,20.222,20.222,0,0,0-.437,2.939c0,1.226.308,2.491.308,3.414,0,1.31-.526,2.144-1.668,2.144A2.346,2.346,0,0,1,37.4,48.258c-1.444-2.1-1.8-4.859-1.8-8.273A58.533,58.533,0,0,1,37.1,28.773a28.581,28.581,0,0,0,.571-3.767,5.162,5.162,0,0,0-.308-1.881,9.472,9.472,0,0,0-.918-1.578Z" transform="translate(94.94 30.654)" fill="#234646"/>
        </g>
      </g>
      <g id="グループ_1038" data-name="グループ 1038" transform="translate(45.197 164.366)">
        <g id="グループ_1037" data-name="グループ 1037" transform="translate(0 0)">
          <path id="パス_703" data-name="パス 703" d="M9.306,59.272a31.928,31.928,0,0,0,9.46-5c3.051,1.634,3.521,2.009,3.521,2.452,0,.47-.593.565-1.192.565-.157,0-.347-.034-.537-.034A31.953,31.953,0,0,1,9.4,59.681ZM26.154,33.748a.865.865,0,0,1-.5.722v2.8h7.92a23.85,23.85,0,0,1,2.2-2.452c3.207,2.513,3.269,2.731,3.269,2.955s-.185.375-.5.375H12.608L9.463,38.3V37.112l3.146.157h9.644V33.748H14.679l-3.14.157v-1.2l3.14.157H30.873a23.2,23.2,0,0,1,2.071-2.228c2.922,2.071,3.241,2.513,3.241,2.732s-.19.381-.5.381Zm4.4,7.008c.632-1.444,1.008-1.7,1.383-1.7.409,0,.851.157,2.015,1.069,1.1.879,1.254,1.226,1.254,1.539,0,.375-.375.722-1.131,1.1v1.416c0,6.415.218,8.642.218,9.275,0,.974-1.287,1.416-2.7,1.416-.532,0-.845-.224-.845-.823H17.321v.1c0,.66-.974,1.321-2.642,1.321-.565,0-.879-.28-.879-.817,0-.756.185-2.983.185-10.59,0-2.39-.028-3.051-.09-4.719,2.67.728,3.677,1.1,4.052,1.416Zm-12.824.879-.409.47v2.737H30.744V41.635Zm-.409,4.086v3.207H30.744V45.721Zm0,4.086v3.364H30.744V49.807Zm8.8,4.9a27.484,27.484,0,0,1,8.334,1.008c1.539.532,2.541,1.287,2.541,2.39a1.655,1.655,0,0,1-1.819,1.724,4.082,4.082,0,0,1-2.329-1.125A17.734,17.734,0,0,0,26,55.152Z" transform="translate(-9.306 -30.569)" fill="#234646"/>
          <path id="パス_704" data-name="パス 704" d="M28.876,40.336H19.1l-.252.347v16.91c0,.632-.784,1.259-2.233,1.259a.707.707,0,0,1-.812-.789c0-.722.157-3.079.157-14.99,0-2.233-.034-3.4-.129-4.842a12.846,12.846,0,0,1,3.487,1.226h2.642V35.875H18.28l-3.14.157V34.839l3.14.151h3.677v-.94c0-1.1-.062-2.166-.157-3.364,3.834.285,4.467.537,4.467,1.008,0,.409-.224.537-1.1.912V34.99h2.608c.66-.784,1.259-1.472,1.981-2.295,2.989,2.172,3.174,2.457,3.174,2.771,0,.218-.157.409-.5.409h-7.26v3.582h3.554c.532-1.287.784-1.478,1.1-1.478.375,0,.627.1,1.573.851.974.784,1.226,1.1,1.226,1.411,0,.409-.157.571-.912.884V43.2c0,7.987.19,10.719.19,12.415A2.719,2.719,0,0,1,28.937,58.6c-.6,0-.66-.062-.789-.627a2.68,2.68,0,0,0-2.133-2.233l.028-.47A15.618,15.618,0,0,0,28,55.393c.688,0,.879-.123.879-.879V51.122a.443.443,0,0,1-.381.151H24.851c.028,4.025.129,5.413.129,6.135,0,.655-.851,1.131-2.172,1.131-.565,0-.817-.19-.817-.66,0-.817.062-2.424.1-6.6h-.66l-1.92.162v-1.2l1.92.157h.66V47h-.537l-2.009.157v-1.2l2.009.162h2.138a43.306,43.306,0,0,0,1.164-5.312c2.983.75,3.174.94,3.174,1.287s-.19.5-1.036.655a22.335,22.335,0,0,1-2.424,3.37h1.008a20.472,20.472,0,0,1,1.321-1.573,12.237,12.237,0,0,1,1.981,1.825Zm-9.18.627c2.138.666,3.3,1.858,3.3,3.207a1.374,1.374,0,0,1-1.416,1.478,1.048,1.048,0,0,1-1.164-1.064,5.551,5.551,0,0,0-1.008-3.241Zm9.18,5.944a.514.514,0,0,1-.347.1H25.445a.719.719,0,0,1-.593.722v2.67h.627a20.2,20.2,0,0,1,1.355-1.7,12.353,12.353,0,0,1,2.043,2.009ZM44.683,56.932a5.626,5.626,0,0,0-2.642,1.131c-.313.252-.5.414-.627.414-.185,0-.313-.19-.5-.565-1.545-3.023-2.233-6.857-2.424-12.986a28.282,28.282,0,0,1-1.763,8.049,12.571,12.571,0,0,1-5.844,6.566l-.347-.313a15.039,15.039,0,0,0,3.9-7.165,40.836,40.836,0,0,0,1.036-9.935h-.347l-2.356.162v-1.2l2.356.157H35.5V37.571c0-2.513-.062-5.721-.123-6.79,3.991.442,4.495.627,4.495,1.069,0,.409-.347.627-1.164.974v6.728c0,.6,0,1.164-.028,1.7h.94c.6-.784,1.041-1.411,1.763-2.2,2.765,2.166,2.955,2.39,2.955,2.7,0,.218-.157.375-.476.375h-5.06c.6,6.067,3.084,11.318,6.068,14.368Zm-4.87-23.447c2.765.688,3.929,1.981,3.929,3.426a1.7,1.7,0,0,1-1.634,1.763,1.237,1.237,0,0,1-1.383-1.321,5.533,5.533,0,0,0-1.2-3.493Z" transform="translate(17.515 -30.339)" fill="#234646"/>
          <path id="パス_705" data-name="パス 705" d="M28.927,36.62c.565-.694,1.069-1.287,1.853-2.1,2.771,2.166,2.927,2.357,2.927,2.636,0,.19-.19.347-.5.347H23.24l-2.39.157V36.463l2.39.157Zm-1,12.353c.5-1.2.845-1.511,1.159-1.511.381,0,.694.067,1.758.851.98.722,1.069,1.041,1.069,1.321,0,.347-.341.66-.94.94v1.069c0,2.8.157,4.562.157,5.094,0,.946-.879,1.478-2.1,1.478a.825.825,0,0,1-.946-.912v-.946H24.718v1.8c0,.593-.756,1.159-2.233,1.159-.5,0-.756-.246-.756-.722,0-.532.1-2.955.1-7.478,0-1.444-.034-2.233-.1-3.459a14.657,14.657,0,0,1,3.426,1.321Zm-.162-16.344c.565-.694,1.131-1.287,1.763-1.948,2.67,2.071,2.7,2.228,2.7,2.48,0,.19-.19.347-.5.347h-7.17l-2.384.157V32.472l2.384.157Zm-.09,7.954a21.311,21.311,0,0,1,1.69-1.886c2.642,1.976,2.771,2.166,2.771,2.418,0,.19-.19.347-.5.347H24.555l-2.384.157v-1.2l2.384.162Zm-.224,4.052a20.6,20.6,0,0,1,1.7-1.886c2.636,1.981,2.759,2.172,2.759,2.424,0,.185-.185.341-.5.341H24.555l-2.384.157V44.479l2.384.157Zm-2.295,5.217-.437.5v5.122h3.358V49.852Zm8.928-.252a6.934,6.934,0,0,1,1.349,4.12c0,2.071-1,3.33-2.356,3.33a1.378,1.378,0,0,1-1.506-1.478c0-.565.19-1.035,1-1.948a3.678,3.678,0,0,0,1.136-2.608,10.685,10.685,0,0,0-.1-1.321ZM45.333,32.718c.476-1.254.817-1.567,1.164-1.567.5,0,.851.157,1.886.974.946.722,1.321,1.164,1.321,1.573,0,.532-.313.75-1.1,1.1a48.571,48.571,0,0,1-.851,7.92c-.537,2.39-1.7,3.582-4.181,3.935a2.148,2.148,0,0,1-.409.028c-.47,0-.537-.19-.756-.879-.313-.946-1.069-1.606-2.575-2.077l.062-.47c1.008.1,1.92.157,2.67.157,1.131,0,1.668-.381,1.92-1.383a46.3,46.3,0,0,0,.94-8.424H42.473c-.028.409-.185.627-.688.756a16.989,16.989,0,0,1-.756,3.207,4.7,4.7,0,0,1,.694.341c1.383.789,1.976,1.668,1.976,2.547,0,1.008-.593,1.573-1.287,1.573-.565,0-1.008-.157-1.73-1.069-.218-.285-.5-.565-.784-.879A15.207,15.207,0,0,1,32.6,46.549l-.313-.4a17.629,17.629,0,0,0,5.278-7.954A15.046,15.046,0,0,0,34.211,36.4l.151-.414a20.138,20.138,0,0,1,3.683.537c.218-.974.341-1.948.5-2.922H37.161l-2.888.157V32.567l2.888.151ZM45.462,52.9a20.329,20.329,0,0,0-.157,2.452c0,.688,1.159.722,1.159,1.573,0,1.159-.879,2.138-5.625,2.138-4.086,0-4.618-.476-4.618-2.138,0-1.008.1-2.2.1-5.094,0-1.478-.034-2.2-.062-2.922,3.392.313,4.053.565,4.053.907,0,.381-.218.537-.974.851v4.842c0,.627.375.784,1.506.784,1.791,0,2.58-.218,3.084-1.1a10.509,10.509,0,0,0,1.063-2.356Zm-6.1-6.319c3.3.627,4.909,2.485,4.909,4.276,0,1.192-.66,1.914-1.606,1.914a1.537,1.537,0,0,1-1.573-1.506,7.115,7.115,0,0,0-2.009-4.3Zm5.972,1.886a10.166,10.166,0,0,1,4.215,3.459,4.528,4.528,0,0,1,.756,2.485,1.812,1.812,0,0,1-1.8,2.043,1.636,1.636,0,0,1-1.629-1.64,12.291,12.291,0,0,0-1.892-6.034Z" transform="translate(43.766 -30.362)" fill="#234646"/>
          <path id="パス_706" data-name="パス 706" d="M35.074,36.62c.565-.694,1.164-1.349,1.948-2.172,3.051,2.233,3.146,2.424,3.146,2.7,0,.19-.19.347-.5.347H29.006l-2.39.157V36.463l2.39.157Zm-.789,12.292c.537-1.2.946-1.606,1.287-1.606.414,0,.884.157,1.892.946s1.159,1.069,1.159,1.349c0,.381-.218.66-1.008,1.041v1.192c0,2.39.129,3.957.129,4.685,0,.784-.879,1.349-2.323,1.349-.66,0-.946-.218-.946-.845V55.981H30.8V57.9c0,.627-.817,1.254-2.418,1.254-.537,0-.823-.246-.823-.784,0-.375.1-2.015.1-6.6,0-2.043-.034-3.146-.1-4.338A19.733,19.733,0,0,1,31.3,48.912Zm-.655-16.193a27.236,27.236,0,0,1,1.881-2.037C38.247,32.752,38.4,33,38.4,33.256c0,.19-.19.347-.5.347H30.232l-2.39.157V32.567l2.39.151ZM33.6,40.488a25.268,25.268,0,0,1,1.886-2.043c2.732,2.071,2.894,2.323,2.894,2.575,0,.19-.19.347-.5.347H30.361l-2.39.157V40.331l2.39.157Zm-.034,4.271a27.3,27.3,0,0,1,1.886-2.043c2.737,2.077,2.894,2.329,2.894,2.58,0,.19-.19.347-.5.347H30.361l-2.39.157V44.607l2.39.151ZM31.239,49.79l-.442.532V55.1h3.677V49.79ZM46.576,34.482H42.647l-2.983.157V33.446l2.983.157h7.8c.661-.884,1.383-1.7,2.1-2.513,3.017,2.356,3.207,2.67,3.207,2.983,0,.224-.157.409-.5.409H50.41a.919.919,0,0,1-.5.694v9.3h.632c.565-.722,1.287-1.6,1.914-2.295,2.676,2.1,2.86,2.39,2.86,2.8,0,.218-.157.375-.47.375H49.907V56.642h.6c.66-.879,1.45-1.825,2.166-2.608,3.051,2.356,3.3,2.7,3.3,3.112a.394.394,0,0,1-.437.375H40.481l-2.1.162v-1.2l2.1.157h.409V45.486c0-2.138-.067-3.649-.157-4.937,3.957.375,4.618.627,4.618,1.036,0,.442-.285.633-1.2,1.008V56.642h2.424Z" transform="translate(70.274 -30.362)" fill="#234646"/>
          <path id="パス_707" data-name="パス 707" d="M45.049,46.174c.632-1.478.884-1.634,1.293-1.634.437,0,.756.157,1.886.974,1.069.817,1.226,1.1,1.226,1.45,0,.409-.252.722-1.069,1.063v1.416c0,3.677.123,4.875.123,5.6a2.775,2.775,0,0,1-3.079,2.894c-.565,0-.633-.067-.756-.666a2.819,2.819,0,0,0-1.914-2.2c.028,2.233.062,3.084.062,3.336,0,.784-1.1,1.254-2.608,1.254-.565,0-.851-.218-.851-.688,0-.817.1-3.554.129-11.917H37.414l-.442.5v9.118c0,.722-.94,1.192-2.384,1.192-.6,0-.851-.218-.851-.688,0-.946.1-3.493.1-8.771,0-1.287,0-2.357-.1-3.521,2.547.688,3.487,1.007,3.834,1.287h1.92c0-1.226.028-2.452.028-3.677H35.528l-3.146.157V41.462l3.146.157h3.991V37.247H36.127a18.527,18.527,0,0,1-2.894,3.739l-.409-.218a41.27,41.27,0,0,0,2.015-9.555c3.8.817,4.243,1.164,4.243,1.506,0,.476-.347.728-1.293.884A21.022,21.022,0,0,1,36.6,36.368h2.922V35.2c0-2.009,0-3.33-.1-4.523,4.181.375,4.467.593,4.467.974,0,.341-.218.627-1.226.974v3.739h1.444c.66-.817,1.259-1.539,2.043-2.356,2.894,2.356,3.017,2.575,3.017,2.86,0,.218-.185.375-.5.375H42.664v4.372h2.166a30.731,30.731,0,0,1,2.138-2.452c3.051,2.452,3.179,2.67,3.179,2.955,0,.218-.19.375-.5.375h-6.98c0,1.226.028,2.452.028,3.677Zm-2.357.879c0,2.485.034,5,.067,7.484.974.1,1.411.129,1.7.129.565,0,.784-.19.784-.946V47.053Zm11.413-8.077c0,8.709.19,12.135.19,13.3,0,.845-1.041,1.411-2.547,1.411-.66,0-1.008-.313-1.008-.812,0-1.265.218-4.847.218-13.993,0-2.48-.062-3.991-.157-5.278,3.9.375,4.528.627,4.528,1.036,0,.442-.313.633-1.226,1.008ZM52.784,55.511a21.3,21.3,0,0,0,2.642.19c1.192,0,1.383-.19,1.383-1.383V36.933c0-2.67-.062-4.243-.157-5.592,4.086.375,4.775.655,4.775,1.1,0,.47-.375.694-1.349,1.069v3.644c0,13.831.28,17.133.28,19.02,0,1.914-1.226,3.364-3.9,3.364-.565,0-.66-.062-.784-.661-.347-1.511-.974-2.328-2.927-2.894Z" transform="translate(96.783 -30.362)" fill="#234646"/>
          <path id="パス_708" data-name="パス 708" d="M49,39.647c0-1.254-.028-2.356-.1-3.33,3.773.313,4.153.532,4.153.879,0,.381-.19.565-.912.884v1.567h4.747c-.034-1.355-.062-2.418-.123-3.33,3.705.313,4.243.532,4.243.879,0,.381-.162.565-.912.884v1.567h1.881c.632-.817,1.355-1.634,2.138-2.513,2.955,2.138,3.431,2.67,3.431,2.989,0,.218-.157.4-.5.4H60.1c.028,1.388.151,3.459.151,4.405,0,.817-.968,1.287-2.513,1.287-.532,0-.845-.285-.845-.694v-.688H52.148v.879c0,.722-1.069,1.2-2.418,1.2-.537,0-.851-.285-.851-.694,0-.784.123-2.894.123-5.693h-4.87v.5c0,9.432-1.791,14.525-5.754,18.326L38,59.075c1.92-4.058,2.8-8.676,2.8-17.979,0-4.909-.1-6.353-.19-7.926a16.737,16.737,0,0,1,4.052,1.388h7.512v-.851c0-1.1-.062-2.043-.151-3.084,3.9.381,4.775.632,4.775,1.041,0,.437-.313.627-1.226,1v1.892h6.851c.632-.823,1.349-1.64,2.138-2.519,2.955,2.138,3.426,2.67,3.426,2.989,0,.218-.157.409-.5.409H44.541l-.409.409v3.8Zm-.28,9.3-3.146.162v-1.2l3.146.157h9.991c.728-1.036,1.075-1.287,1.416-1.287.442,0,.789.062,1.791.851,1.136.879,1.416,1.315,1.416,1.6,0,.442-.313.694-1.444,1.008a17.147,17.147,0,0,1-3.773,4.3,32.055,32.055,0,0,0,9.46,1.506l-.1.476a4.217,4.217,0,0,0-2.009,2.261c-.252.627-.375.817-.789.817a2.555,2.555,0,0,1-.47-.034,21.148,21.148,0,0,1-8.922-3.107,29.779,29.779,0,0,1-12.639,3.358l-.129-.437A28.217,28.217,0,0,0,53.25,54.827a17.436,17.436,0,0,1-4.058-5.877Zm1.411,0a14.76,14.76,0,0,0,5.032,4.31,22.665,22.665,0,0,0,2.452-2.737c.381-.5.722-1.036,1.069-1.573Zm2.015-8.424v3.431h4.747V40.526Z" transform="translate(122.624 -30.624)" fill="#234646"/>
        </g>
      </g>
      <g id="グループ_1040" data-name="グループ 1040" transform="translate(119.329 205.28)">
        <g id="グループ_1039" data-name="グループ 1039">
          <path id="パス_709" data-name="パス 709" d="M25.841,42.556c0-1.931-.05-3.185-.134-4.276,3.347.325,3.862.521,3.862.873s-.241.515-1,.845v4.735h.353c.381-.6.733-1.119,1.254-1.8,1.9,1.8,2.009,2.043,2.009,2.261,0,.157-.157.3-.431.3H28.567c.022,1.825.022,3.649.022,5.474.823-.168,1.612-.33,2.345-.521l.162.381a28.557,28.557,0,0,1-2.474,1.528c.05,4.9.162,6.935.162,7.836,0,1.338-.873,2.317-2.8,2.536a2.051,2.051,0,0,1-.353.022c-.414,0-.493-.162-.655-.761a2.85,2.85,0,0,0-1.987-1.931l.028-.409a15.415,15.415,0,0,0,1.741.134c.924,0,1.086-.106,1.086-1.063v-5.06a15.349,15.349,0,0,1-1.439.571c-.14.705-.3.873-.627.873-.274,0-.543-.325-1.226-3.135,1.114-.134,2.205-.3,3.291-.459V45.495H24.7l-2.065.14V44.593l2.065.14h1.142Zm15.818,8.463c.543-1.142.868-1.332,1.142-1.332.33,0,.627.106,1.662.845,1.17.84,1.282,1.086,1.282,1.416,0,.409-.386.677-1.2.789A18.5,18.5,0,0,1,40.9,57.551a22.679,22.679,0,0,0,7.6,2.368l-.084.414A3.437,3.437,0,0,0,46.232,62.1c-.218.431-.353.627-.627.627a3.2,3.2,0,0,1-.487-.112,15.766,15.766,0,0,1-6.235-3.4,22.443,22.443,0,0,1-10.232,3.812l-.14-.381a23.508,23.508,0,0,0,8.849-5.038,15.684,15.684,0,0,1-2.155-3.621,17.273,17.273,0,0,1-.705-2.177l-2.4.112V50.885l2.72.134Zm2.995-4.22c.543-1.142.817-1.3,1.063-1.3.325,0,.621.19,1.411.789,1.2.924,1.338,1.114,1.338,1.444,0,.381-.386.733-1.472.817a17.855,17.855,0,0,1-2.53,1.55l-.33-.246a14.125,14.125,0,0,0,.632-2.284H33.957v.325c0,1.494-.873,2.452-1.993,2.452-.84,0-1.3-.465-1.3-1.092a1.934,1.934,0,0,1,.761-1.522A3.089,3.089,0,0,0,32.457,45.3c0-.134-.028-.274-.028-.409l.381-.134A5.651,5.651,0,0,1,33.817,46.8H41.6a51.089,51.089,0,0,0,2.071-5.441c3.1,1.142,3.269,1.388,3.269,1.713,0,.3-.33.543-1.2.655A23.436,23.436,0,0,1,42.723,46.8Zm-7.025-5.144c-1.276.084-2.474.14-3.756.168,2.289.649,3.269,1.819,3.269,3.017a1.435,1.435,0,0,1-1.584,1.578c-.593,0-1.058-.487-1.086-1.3a4.855,4.855,0,0,0-.924-2.995l.269-.3c-.924.022-1.875.022-2.855.022l-.056-.409a65.952,65.952,0,0,0,13.937-3.482c2.256,1.8,2.474,2.127,2.474,2.452,0,.3-.19.437-.705.437a5.593,5.593,0,0,1-.845-.084c-2.418.381-4.9.677-7.456.845,1.959.655,2.86,1.853,2.86,3.017a1.434,1.434,0,0,1-1.5,1.606c-.761,0-1.063-.459-1.114-1.3a5.225,5.225,0,0,0-1.041-3.157ZM35.183,51.78a11.983,11.983,0,0,0,3.566,4.355,17.425,17.425,0,0,0,1.931-2.72c.3-.515.571-1.058.845-1.634Z" transform="translate(-22.55 -37.871)" fill="#234646"/>
          <path id="パス_710" data-name="パス 710" d="M43.952,48.206c.465-1.254.845-1.606,1.142-1.606.437,0,.845.162,1.718.817,1.008.761,1.254,1.142,1.254,1.416,0,.353-.218.621-1.008.924-.028,1.226-.112,2.586-.246,3.918h1.332c.683-.845,1.2-1.466,1.987-2.284,2.748,2.177,2.883,2.418,2.883,2.72,0,.19-.157.325-.431.325H46.729a34.731,34.731,0,0,1-.649,4.058,5.6,5.6,0,0,1-5.939,4.629c-.431,0-.515-.14-.733-.761-.409-1.2-1.248-1.853-3.051-2.373l.056-.409c1.472.14,2.642.218,3.84.218a2.439,2.439,0,0,0,2.8-2.093,27.158,27.158,0,0,0,.571-3.269H30.211L27.6,54.57V53.54l2.614.134H43.734c.2-1.55.274-3.129.33-4.707H35.842l-.325,1.226c-.168.6-.9.98-1.959.98-1.17,0-1.5-.33-1.5-1.064A121.147,121.147,0,0,0,35.433,37.94c3.621.683,4.03.98,4.03,1.416,0,.3-.325.6-1.3.873l-.627,2.312h8.844a25.4,25.4,0,0,1,1.959-2.312c3.079,2.34,3.185,2.452,3.185,2.748,0,.19-.162.33-.437.33H37.336l-1.3,4.9Z" transform="translate(0.653 -37.94)" fill="#234646"/>
        </g>
      </g>
      <g id="パス_711" data-name="パス 711" transform="translate(155.458 137.258)" fill="#376e6d" stroke-miterlimit="10">
        <path d="M 78.93898010253906 159.2426452636719 L 77.92105102539062 159.2426452636719 L 36.92606735229492 159.2426452636719 L 35.93959808349609 159.2426452636719 L 35.90863418579102 158.2566528320312 L 34.29658126831055 106.9120864868164 L 34.28495025634766 106.5414428710938 L 34.51445007324219 106.2501525878906 L 64.49946594238281 68.19375610351562 C 65.55526733398438 66.85500335693359 67.13800048828125 66.08738708496094 68.84214782714844 66.08738708496094 L 71.41133117675781 66.08738708496094 C 72.78386688232422 66.08738708496094 74.04826354980469 66.77426910400391 74.79361724853516 67.92477416992188 C 75.53761291503906 69.07320404052734 75.64789581298828 70.50432586669922 75.08863067626953 71.75300598144531 L 64.17366027832031 96.21243286132812 L 97.43283843994141 69.71936798095703 L 104.6806182861328 33.92929077148438 C 105.0932846069336 31.88070678710938 106.9135971069336 30.3930721282959 109.0087356567383 30.3930721282959 L 112.9380798339844 30.3930721282959 C 114.0425643920898 30.3930721282959 115.0997161865234 30.80258941650391 115.9148330688477 31.54615592956543 C 116.7305679321289 32.29030609130859 117.2341156005859 33.30530548095703 117.3327178955078 34.40419006347656 L 123.1650009155273 97.94883728027344 L 123.2099304199219 98.43839263916016 L 122.8544311523438 98.7779541015625 L 78.93898010253906 140.7260894775391 L 78.93898010253906 158.2247009277344 L 78.93898010253906 159.2426452636719 Z" stroke="none"/>
        <path d="M 77.92104339599609 158.2247161865234 L 77.92104339599609 140.2907562255859 L 122.1513290405273 98.04187774658203 L 116.3188705444336 34.49516677856445 C 116.1621627807617 32.74877166748047 114.6956481933594 31.41100120544434 112.9380798339844 31.41100120544434 L 109.0087280273438 31.41100120544434 C 107.3911209106445 31.41100120544434 105.9973754882812 32.54727172851562 105.6783142089844 34.13131332397461 L 98.35697937011719 70.28462982177734 L 61.54320907592773 99.60914611816406 L 74.15964508056641 71.33692169189453 C 75.04958343505859 69.349853515625 73.59429168701172 67.10531616210938 71.41133117675781 67.10531616210938 L 68.84214782714844 67.10531616210938 C 67.45960235595703 67.10531616210938 66.15541839599609 67.73783874511719 65.29901885986328 68.82373046875 L 35.31402206420898 106.880126953125 L 36.92606353759766 158.2247161865234 L 77.92104339599609 158.2247161865234 M 79.95689392089844 160.2605590820312 L 34.953125 160.2605590820312 L 33.25589370727539 106.2027282714844 L 63.69989395141602 67.56377410888672 C 64.95024871826172 65.97833251953125 66.82433319091797 65.0694580078125 68.84214782714844 65.0694580078125 L 71.41133117675781 65.0694580078125 C 73.13037109375 65.0694580078125 74.71414184570312 65.92996215820312 75.64791870117188 67.37129211425781 C 76.58032989501953 68.810546875 76.71855926513672 70.60410308837891 76.01766967773438 72.1690673828125 L 66.80416107177734 92.81565856933594 L 96.50874328613281 69.15406036376953 L 103.6829605102539 33.72723007202148 C 104.1907272338867 31.20633506774902 106.4307098388672 29.37514686584473 109.0087280273438 29.37514686584473 L 112.9380798339844 29.37514686584473 C 114.2969818115234 29.37514686584473 115.5977935791016 29.87908554077148 116.6008529663086 30.79414749145508 C 117.6051864624023 31.71033477783203 118.2251663208008 32.96010589599609 118.3465805053711 34.31320953369141 L 124.2685165405273 98.83489990234375 L 79.95689392089844 141.1614837646484 L 79.95689392089844 160.2605590820312 Z" stroke="none" fill="#e1eaeb"/>
      </g>
      <g id="パス_712" data-name="パス 712" transform="translate(2.681 140.968)" fill="#376e6d" stroke-miterlimit="10">
        <path d="M 88.29376220703125 160.049560546875 L 87.30728912353516 160.049560546875 L 46.31227493286133 160.049560546875 L 45.29434204101562 160.049560546875 L 45.29434204101562 159.0316314697266 L 45.29434204101562 141.5330810546875 L 1.378908514976501 99.58501434326172 L 1.023441910743713 99.2454833984375 L 1.068341851234436 98.7559814453125 L 6.895174980163574 35.2148323059082 C 6.997175216674805 34.11398315429688 7.50195837020874 33.09844970703125 8.316625595092773 32.35431671142578 C 9.131508827209473 31.61000061035156 10.18734169006348 31.2000675201416 11.28964233398438 31.2000675201416 L 15.2245922088623 31.2000675201416 C 17.31184196472168 31.2000675201416 19.13187599182129 32.68863296508789 19.55220794677734 34.73955154418945 L 26.79490661621094 70.53195190429688 L 60.05876159667969 97.02472686767578 L 49.13860702514648 72.56451416015625 C 48.58145904541016 71.30918121337891 48.69549179077148 69.87487030029297 49.44272613525391 68.72570037841797 C 50.18835830688477 67.57901763916016 51.44954299926758 66.89441680908203 52.81641006469727 66.89441680908203 L 55.39119338989258 66.89441680908203 C 57.06819152832031 66.89441680908203 58.68959045410156 67.68190002441406 59.72842407226562 69.00093078613281 L 89.71891021728516 107.0627517700195 L 89.94842529296875 107.3540344238281 L 89.93679046630859 107.7247009277344 L 88.32472229003906 159.0635833740234 L 88.29376220703125 160.049560546875 Z" stroke="none"/>
        <path d="M 87.30729675292969 159.0316314697266 L 88.91934204101562 107.6927337646484 L 58.92871856689453 69.63075256347656 C 58.07792663574219 68.55046081542969 56.76813507080078 67.91233825683594 55.39119720458984 67.91233825683594 L 52.81640625 67.91233825683594 C 50.63903045654297 67.91233825683594 49.1837158203125 70.15687561035156 50.06811141967773 72.14954376220703 L 62.69013214111328 100.4217758178711 L 25.87075805664062 71.09723663330078 L 18.55500793457031 34.94392013549805 C 18.23036193847656 33.35987854003906 16.84221649169922 32.2180061340332 15.2245922088623 32.2180061340332 L 11.28965473175049 32.2180061340332 C 9.537674903869629 32.2180061340332 8.071175575256348 33.55581665039062 7.908842086791992 35.30777359008789 L 2.082008600234985 98.84892272949219 L 46.31227874755859 141.0977325439453 L 46.31227874755859 159.0316314697266 L 87.30729675292969 159.0316314697266 M 89.28023529052734 161.0674896240234 L 44.27642440795898 161.0674896240234 L 44.27642440795898 141.9684600830078 L -0.03511646389961243 99.64202880859375 L 5.881487846374512 35.12185668945312 C 6.00700855255127 33.7672119140625 6.627945899963379 32.51810836791992 7.630112648010254 31.60273361206055 C 8.633028984069824 30.68664932250977 9.932675361633301 30.18214988708496 11.28965473175049 30.18214988708496 L 15.2245922088623 30.18214988708496 C 16.47546768188477 30.18214988708496 17.69738388061523 30.61908721923828 18.66527938842773 31.41246223449707 C 19.62957191467285 32.202880859375 20.29869651794434 33.3118782043457 20.54940414428711 34.53517150878906 L 20.55042457580566 34.5401496887207 L 27.71910858154297 69.96668243408203 L 57.42740249633789 93.62765502929688 L 48.20911407470703 72.97948455810547 C 47.51075744628906 71.40602874755859 47.65357208251953 69.60990142822266 48.58934020996094 68.17079925537109 C 49.52348709106445 66.73416900634766 51.10369491577148 65.87648010253906 52.81640625 65.87648010253906 L 55.39119720458984 65.87648010253906 C 57.3775520324707 65.87648010253906 59.29788208007812 66.80906677246094 60.52811431884766 68.37113189697266 L 90.97747039794922 107.0153198242188 L 89.28023529052734 161.0674896240234 Z" stroke="none" fill="#e1eaeb"/>
      </g>
    </g>
  </g>
</svg>
