<!--?xml version="1.0" encoding="utf-8"?-->
<!-- Generator: Adobe Illustrator 18.1.1, SVG Export Plug-In . SVG Version: 6.00 Build 0)  -->

<svg version="1.1" id="_x32_" xmlns="http://www.w3.org/2000/svg" xmlns:xlink="http://www.w3.org/1999/xlink" x="0px" y="0px" viewBox="0 0 512 512" style="width: 256px; height: 256px; opacity: 1;" xml:space="preserve">
<style type="text/css">
	.st0{fill:#4B4B4B;}
</style>
<g>
	<path class="st0" d="M426.583,71.209c-7.871-18.787-20.457-35.787-38.119-48.446c-23.655-17.09-47.544-22.852-68.09-22.762
		C304.24,0.01,290.161,3.261,278.869,6.2c-5.628,1.475-10.577,2.859-14.579,3.806c-3.966,0.955-7.003,1.358-8.29,1.339
		c-1.286,0.018-4.323-0.384-8.308-1.339c-12.131-2.752-31.954-9.952-56.066-10.006c-20.547-0.09-44.444,5.663-68.09,22.762
		c-17.671,12.658-30.249,29.659-38.128,48.455c-7.906,18.813-11.31,39.422-11.31,60.3c0.134,48.257,17.777,98.374,45.972,134.769
		c20.725,26.604,48.294,40.432,73.405,47.418c25.165,7.013,48.446,7.576,62.524,7.584c14.079-0.009,37.35-0.572,62.516-7.584
		c25.121-6.986,52.689-20.815,73.414-47.418c28.194-36.386,45.829-86.512,45.972-134.769
		C437.892,110.641,434.488,90.032,426.583,71.209z M366.238,246.277c-15.383,19.724-35.841,30.266-56.476,36.055
		c-20.583,5.77-40.79,6.405-53.762,6.396c-12.989,0.009-33.187-0.626-53.761-6.396c-20.636-5.789-41.094-16.331-56.495-36.055
		c-23.379-29.784-39.226-74.701-39.092-114.758c0-17.34,2.876-33.68,8.772-47.669c5.914-14.016,14.67-25.674,27.104-34.625
		c18.404-13.114,34.18-16.563,49.098-16.661c11.686,0,22.816,2.403,33.277,5.154c5.244,1.359,10.292,2.797,15.33,3.985
		c5.065,1.161,10.077,2.171,15.767,2.198c5.682-0.027,10.703-1.037,15.759-2.198c14.955-3.627,31.016-9.183,48.615-9.138
		c14.91,0.098,30.686,3.564,49.098,16.661c12.426,8.951,21.172,20.609,27.104,34.625c5.887,13.972,8.773,30.329,8.754,47.669
		C405.474,171.576,389.626,216.492,366.238,246.277z" style="fill: rgb(5, 143, 197);"></path>
	<polygon class="st0" points="199.058,336.54 185.498,336.54 199.058,373.202 314.317,373.202 327.878,336.54 314.317,336.54 	" style="fill: rgb(5, 143, 197);"></polygon>
	<polygon class="st0" points="218.48,512 296.057,512 305.187,487.326 209.35,487.326 	" style="fill: rgb(5, 143, 197);"></polygon>
	<polygon class="st0" points="203.963,388.014 191.554,404.772 203.963,421.541 309.404,421.541 321.812,404.772 309.404,388.014 	
		" style="fill: rgb(5, 143, 197);"></polygon>
	<polygon class="st0" points="203.963,437.942 191.554,454.693 203.963,471.452 309.404,471.452 321.812,454.693 309.404,437.942 	
		" style="fill: rgb(5, 143, 197);"></polygon>
</g>
</svg>
