<!--?xml version="1.0" encoding="utf-8"?-->
<!-- Generator: Adobe Illustrator 18.0.0, SVG Export Plug-In . SVG Version: 6.00 Build 0)  -->

<svg version="1.1" id="_x32_" xmlns="http://www.w3.org/2000/svg" xmlns:xlink="http://www.w3.org/1999/xlink" x="0px" y="0px" viewBox="0 0 512 512" style="width: 256px; height: 256px; opacity: 1;" xml:space="preserve">
<style type="text/css">
	.st0{fill:#4B4B4B;}
</style>
<g>
	<path class="st0" d="M81.585,512c-3.049,0-5.907-1.179-8.05-3.32l-27.729-27.729c-2.139-2.141-3.318-5-3.318-8.05
		c0-3.05,1.179-5.908,3.318-8.049l208.975-208.975l-78.666-78.44c-1.175-1.174-1.772-2.784-1.683-4.533
		c0.09-1.742,0.851-3.414,2.143-4.707L342.622,2.152C343.988,0.784,345.827,0,347.665,0c1.616,0,3.108,0.601,4.196,1.692
		l114.331,114.331c2.139,2.141,3.318,4.999,3.318,8.049c0,3.05-1.179,5.908-3.318,8.05L89.635,508.68
		C87.496,510.821,84.634,512,81.585,512z M224.617,150.027c-1.753,0-3.51,0.75-4.817,2.058l-10.712,10.712
		c-1.238,1.235-1.964,2.831-2.05,4.494c-0.082,1.656,0.484,3.18,1.593,4.29l58.788,58.788c1.03,1.031,2.444,1.6,3.974,1.6
		c1.753,0,3.506-0.75,4.814-2.056l10.708-10.712c2.549-2.548,2.756-6.49,0.461-8.788l-58.788-58.788
		C227.557,150.595,226.147,150.027,224.617,150.027z M263.757,110.888c-1.753,0-3.509,0.75-4.817,2.058l-10.708,10.708
		c-1.238,1.237-1.964,2.834-2.05,4.497c-0.086,1.657,0.48,3.181,1.589,4.291l58.788,58.788c1.031,1.031,2.444,1.599,3.974,1.599
		c1.753,0,3.506-0.749,4.814-2.056l10.712-10.712c2.549-2.549,2.752-6.491,0.457-8.788l-58.788-58.788
		C266.696,111.455,265.287,110.888,263.757,110.888z M302.893,71.746c-1.753,0-3.506,0.749-4.814,2.056l-10.708,10.712
		c-1.238,1.237-1.964,2.834-2.05,4.497c-0.086,1.657,0.48,3.181,1.589,4.291l58.788,58.788c1.031,1.031,2.444,1.599,3.974,1.599
		c1.753,0,3.506-0.749,4.814-2.056l10.712-10.712c1.238-1.237,1.964-2.834,2.05-4.497c0.082-1.657-0.484-3.181-1.593-4.291
		l-58.788-58.787C305.836,72.314,304.423,71.746,302.893,71.746z M342.032,32.607c-1.749,0-3.502,0.749-4.81,2.056l-10.712,10.712
		c-1.238,1.237-1.964,2.834-2.05,4.497c-0.086,1.657,0.48,3.181,1.589,4.291l58.792,58.788c1.031,1.03,2.44,1.598,3.97,1.598
		c1.749,0,3.506-0.75,4.814-2.058l10.712-10.708c2.549-2.549,2.752-6.491,0.457-8.788l-58.788-58.788
		C344.976,33.175,343.563,32.607,342.032,32.607z" style="fill: rgb(75, 75, 75);"></path>
	<path class="st0" d="M466.081,116.136l-25.094-25.09L351.749,1.804c-2.362-2.362-6.397-2.155-9.012,0.461L294.11,50.891h0
		l-29.653,29.653h-0.001l-48.627,48.626c0,0,0,0,0,0.004l-39.14,39.136c-2.615,2.616-2.821,6.652-0.458,9.014l78.664,78.666
		L45.919,464.965c-4.365,4.364-4.365,11.508,0,15.873l27.731,27.729c4.365,4.364,11.507,4.364,15.872,0l376.558-376.558
		C470.445,127.644,470.445,120.5,466.081,116.136z M287.029,219.314l-10.71,10.712c-2.616,2.616-6.651,2.818-9.012,0.457
		l-58.789-58.788c-2.362-2.362-2.157-6.398,0.459-9.01l10.711-10.712c2.615-2.616,6.65-2.823,9.012-0.461l58.788,58.788
		C289.85,212.665,289.644,216.698,287.029,219.314z M326.169,180.174l-10.711,10.712c-2.616,2.616-6.651,2.818-9.012,0.457
		l-58.788-58.788c-2.362-2.362-2.156-6.398,0.459-9.014l10.71-10.708c2.616-2.615,6.651-2.822,9.013-0.46l58.788,58.788
		C328.99,173.522,328.785,177.558,326.169,180.174z M365.309,141.034l-10.71,10.712c-2.616,2.615-6.651,2.818-9.013,0.456
		l-58.788-58.787c-2.362-2.362-2.157-6.398,0.459-9.014l10.711-10.712c2.615-2.616,6.65-2.819,9.012-0.457l58.788,58.788
		C368.131,134.382,367.925,138.418,365.309,141.034z M404.449,101.894l-10.71,10.708c-2.616,2.616-6.651,2.822-9.012,0.46
		l-58.789-58.788c-2.362-2.362-2.156-6.398,0.459-9.014l10.711-10.712c2.616-2.615,6.651-2.818,9.012-0.456l58.788,58.787
		C407.271,95.242,407.065,99.279,404.449,101.894z" style="fill: rgb(5, 143, 197);"></path>
</g>
</svg>
