<?xml version="1.0" encoding="utf-8"?>
<!-- Generator: Adobe Illustrator 14.0.0, SVG Export Plug-In  -->
<!DOCTYPE svg PUBLIC "-//W3C//DTD SVG 1.1//EN" "http://www.w3.org/Graphics/SVG/1.1/DTD/svg11.dtd" [
	<!ENTITY ns_flows "http://ns.adobe.com/Flows/1.0/">
]>
<svg version="1.1"
	 xmlns="http://www.w3.org/2000/svg" xmlns:xlink="http://www.w3.org/1999/xlink" xmlns:a="http://ns.adobe.com/AdobeSVGViewerExtensions/3.0/"
	 x="0px" y="0px" width="850px" height="116px" viewBox="0 0 850 116" enable-background="new 0 0 850 116" xml:space="preserve">
<defs>
</defs>
<path fill="#FFFFFF" d="M278.154,0.932c0.336,0.042,1.092,0.168,1.092,0.672c0,0.546-0.588,0.84-1.554,1.302
	c0,1.344-0.042,3.403-0.042,4.495c0,2.143,0.042,3.235,0.126,4.369h6.049l2.352-2.772l3.655,3.066v0.84H277.86
	c0.168,2.184,0.672,8.443,2.227,12.14c1.176,2.856,2.73,5.503,5.041,7.225c0.882-1.092,1.176-1.512,2.479-3.739l1.092-1.89
	l0.84,0.378l-1.176,3.655c-0.294,0.84-0.336,1.554-0.336,2.058c0,1.681,0.504,2.395,1.68,3.528
	c-0.756,1.219-1.344,1.723-2.521,1.723c-3.402,0-9.032-5.713-11.09-12.98c-1.47-5.125-1.765-9.83-1.891-12.098h-22.264l-0.546-1.134
	h22.768c-0.126-2.688-0.126-3.193-0.21-8.275l-0.042-3.151L278.154,0.932z M259.208,18.197c0.378,0.042,0.924,0.252,0.924,0.672
	c0,0.546-0.588,0.84-1.428,1.218v12.56c1.68-0.126,2.184-0.21,3.739-0.378V14.249l4.117,0.504c0.336,0.042,1.008,0.168,1.008,0.672
	c0,0.504-0.588,0.756-1.554,1.218v4.999h2.856l2.101-2.395l3.36,2.646v0.882h-8.317v9.074c3.109-0.42,4.873-0.672,10.04-1.555
	l0.21,0.84c-6.217,1.975-12.56,3.487-18.987,4.915l-2.688,0.589c-0.546,1.008-0.63,1.134-0.924,1.134
	c-0.21,0-0.504-0.252-0.714-0.714l-1.555-3.781c1.975-0.168,2.311-0.21,3.781-0.294V17.693L259.208,18.197z M265.132,5.343
	l2.142-2.521l3.571,2.898v0.714h-16.257l-0.504-1.092H265.132z M279.414,3.158c2.479,0.462,3.781,0.882,4.831,1.975
	c0.378,0.42,1.008,1.218,1.008,2.311c0,1.134-0.588,2.184-1.597,2.184c-1.008,0-1.344-0.798-1.638-1.554
	c-0.84-2.269-1.764-3.192-2.94-4.285L279.414,3.158z"/>
<path fill="#FFFFFF" d="M329.886,4.965l2.269-2.646l3.696,2.898v0.84h-12.35v2.73l3.907,0.336c0.336,0,0.63,0.252,0.63,0.588
	c0,0.462-0.084,0.504-1.134,1.092c-0.042,0.546-0.042,0.588-0.042,1.218h4.285l1.932-2.353l3.319,2.646v0.84h-9.536
	c0.042,4.033,0.168,8.065,1.344,11.93c1.722-4.075,2.184-6.049,2.646-7.897l3.864,1.974c0.294,0.126,0.546,0.42,0.546,0.714
	c0,0.462-0.168,0.504-1.68,0.756c-1.597,4.159-2.269,5.461-3.865,8.065c1.134,1.975,1.722,2.73,3.57,4.453
	c1.008-2.143,1.218-2.688,2.604-6.427l0.798,0.336l-0.63,3.655c-0.084,0.504-0.336,1.806-0.336,2.856
	c0,1.344,0.294,1.932,1.218,2.983c-0.546,0.672-1.176,1.344-2.143,1.344c-1.848,0-4.411-1.891-7.267-6.217
	c-1.806,1.974-3.907,4.284-9.83,6.889l-0.504-0.756c1.807-1.05,3.193-1.891,6.049-4.915h-12.434v3.276l-3.235,0.589V15.172
	l3.571,1.723h7.519l1.429-1.933l3.234,2.395v0.714h-6.175v3.571h2.227l0.924-1.428l2.94,1.764c0.168,0.084,0.42,0.294,0.42,0.546
	c0,0.42-0.294,0.504-1.134,0.84v5.377l-2.898,0.462v-1.512h-2.479v4.075h3.151l1.638-1.975l2.437,1.806
	c0.798-1.008,1.008-1.344,1.764-2.52c-0.756-1.807-1.554-3.571-2.101-7.729c-0.42-3.277-0.462-6.259-0.504-8.191h-17.937v8.863
	c0,7.729-1.933,11.342-6.427,16.005l-0.672-0.546c2.814-4.537,3.528-7.268,3.528-14.661V10.005l3.613,2.017h17.895
	c-0.042-1.05-0.042-1.176-0.042-2.227l-3.613,0.546V6.057h-6.637v4.159l-3.612,0.504V6.057h-10.082l-0.378-1.092h10.46V0.428
	l3.865,0.378c0.126,0,1.428,0.126,1.428,0.756c0,0.588-0.882,0.924-1.681,1.218v2.185h6.637V0.638l3.697,0.294
	c0.546,0.042,1.386,0.168,1.386,0.672c0,0.546-0.546,0.756-1.47,1.134v2.227H329.886z M314.133,21.642v-3.571h-3.318v3.571H314.133z
	 M310.815,26.515h8.821v-3.697h-8.821V26.515z M314.091,31.766v-4.075h-3.276v4.075H314.091z M328.5,9.124
	c-0.378-0.714-1.218-1.218-2.017-1.68l0.168-0.63c5.167,0.126,5.251,2.353,5.251,2.772c0,0.882-0.63,1.596-1.47,1.596
	c-0.672,0-1.092-0.504-1.26-0.798L328.5,9.124z"/>
<path fill="#FFFFFF" d="M355.544,12.19l1.89-2.395l2.646,2.395h3.991c-0.378-0.42-0.546-0.63-0.966-2.311
	c-0.462-1.764-0.504-2.058-1.68-3.486h-2.856l-0.546-1.134h9.62V0.176l4.075,0.462c0.714,0.084,1.05,0.378,1.05,0.672
	c0,0.462-0.63,0.714-1.555,1.008v2.94h5.713l2.1-2.479l3.403,2.814v0.798h-5.587c0.882,0.714,1.092,0.882,1.092,1.176
	c0,0.462-0.378,0.462-1.302,0.546c-1.932,2.479-2.352,2.94-3.402,4.075h5.209l2.1-2.563l3.277,2.856v0.84h-29.699V24.96l5.377-1.134
	v0.84l-10.502,4.915c-0.252,0.924-0.336,1.302-0.84,1.302c-0.252,0-0.546-0.126-0.714-0.462l-1.891-3.781l4.999-0.966v-12.35h-3.865
	l-0.546-1.134h4.411V1.73l4.243,0.462c0.42,0.042,0.756,0.294,0.756,0.588c0,0.42-0.126,0.504-1.428,1.008v8.401H355.544z
	 M364.03,16.307h11.678l1.176-1.764l3.108,1.89c0.63,0.378,0.756,0.63,0.756,0.84c0,0.462-0.126,0.504-1.302,1.008v9.199
	l-3.529,0.588v-1.302h-1.47v6.805c0,0.42,0.126,0.714,0.588,0.714h4.075c1.092,0,1.47-0.588,1.807-2.1l0.756-3.108h0.84
	c-0.042,0.462-0.042,0.882-0.042,1.302c0,2.562,0.378,3.15,1.806,3.696c-0.336,1.428-0.756,3.361-3.486,3.361h-7.226
	c-1.68,0-2.479-0.714-2.479-2.269v-8.401h-2.646c-0.378,2.353-1.008,6.175-5.419,8.695c-1.26,0.714-4.537,2.185-10.333,2.688
	l-0.252-0.882c2.311-0.378,5.671-0.925,8.864-3.781c2.898-2.646,3.235-5.209,3.403-6.721h-1.134v1.134l-3.529,0.672V14.584
	L364.03,16.307z M363.316,6.393c1.596,0.924,3.402,2.31,3.402,4.369c0,0.63-0.126,0.882-0.504,1.428h5.419
	c0.882-2.646,1.134-3.697,1.638-5.797H363.316z M375.918,20.843v-3.402h-12.35v3.402H375.918z M375.918,25.59v-3.613h-12.35v3.613
	H375.918z"/>
<path fill="#FFFFFF" d="M395.645,24.918c0.672,2.059,1.26,3.907,1.26,5.797c0,3.15-1.386,4.663-2.563,4.663
	c-0.42,0-1.512-0.21-1.512-1.386c0-0.714,0.336-1.344,0.966-2.73c0.714-1.596,1.26-2.772,0.924-6.259L395.645,24.918z
	 M407.113,2.906l2.142-2.185l3.193,2.646v0.672h-7.562v4.453h1.806l1.807-1.932l2.772,2.269v0.84h-6.385v4.159h1.764l1.975-2.142
	l2.856,2.394v0.882h-6.595v4.621h2.353l1.344-1.891l2.814,2.185c0.588,0.462,0.798,0.63,0.798,0.882
	c0,0.504-0.756,0.756-1.344,0.966c-0.084,2.856-0.42,8.485-1.555,12.098c-1.218,3.781-4.285,3.949-4.915,3.949
	c-0.462,0-0.672-0.21-0.756-0.84c-0.294-2.101-0.714-2.185-2.688-2.604v-0.882h4.747c1.386-3.319,1.596-7.352,1.764-10.586
	l0.084-2.101h-9.158v1.555l-3.402,0.504V1.058l3.612,1.848H407.113z M397.745,24.876c1.218,1.555,3.108,3.991,3.108,6.007
	c0,0.924-0.462,1.848-1.554,1.848c-0.882,0-1.218-0.42-1.218-1.68c0-2.563,0-3.108-1.092-5.881L397.745,24.876z M401.568,8.493
	V4.041h-3.193v4.453H401.568z M401.568,9.669h-3.193v4.159h3.193V9.669z M398.375,14.962v4.621h3.193v-4.621H398.375z
	 M399.972,24.204c4.285,2.437,4.285,5.041,4.285,5.461c0,1.302-0.84,1.68-1.302,1.68c-0.798,0-1.092-1.008-1.134-1.428l-0.294-1.344
	c-0.042-0.21-0.504-1.932-2.101-3.907L399.972,24.204z M402.198,22.734c4.117,1.134,4.705,2.814,4.705,3.697
	c0,0.42-0.168,1.428-1.008,1.428c-0.588,0-1.008-0.672-1.26-1.176c-0.672-1.344-1.134-1.765-2.772-3.277L402.198,22.734z
	 M417.573,17.105v2.688c0,1.092-0.252,6.805-1.975,10.754c-1.596,3.738-4.369,6.343-5.713,7.645l-0.672-0.588
	c1.302-1.849,3.067-4.369,3.907-9.368c0.294-1.68,0.714-4.831,0.672-8.443V2.066l4.075,1.806h7.771l1.387-2.185l2.94,2.269
	c0.21,0.168,0.798,0.588,0.798,0.924c0,0.462-0.63,0.672-1.302,0.924v13.316l-3.529,0.63v-2.646h-5.125
	c0.336,2.268,0.672,4.495,2.772,8.191c3.319,5.797,6.469,7.939,8.654,9.368l-0.252,0.714c-1.597,0.126-2.227,0.42-3.277,2.563
	c-1.512-1.512-4.116-4.075-6.427-9.578c-1.722-4.075-2.269-7.939-2.604-11.258H417.573z M425.932,5.049h-8.359v10.88h8.359V5.049z"
	/>
<path fill="#FFFFFF" d="M451.909,12.904c-1.932,2.478-2.478,3.108-3.822,4.495l1.218,0.504c0.337,0.168,0.547,0.462,0.547,0.63
	c0,0.42-0.504,0.672-1.177,0.966v18.315l-3.57,0.63V20.381c-2.437,2.185-3.066,2.688-5.461,4.243l-0.63-0.672
	c5.209-4.579,7.813-9.536,10.628-14.913l3.822,2.688c0.294,0.21,0.462,0.504,0.462,0.63c0,0.21-0.336,0.462-0.672,0.504
	L451.909,12.904z M453.296,2.99c0.042,0.042,0.378,0.252,0.378,0.546c0,0.462-0.126,0.462-1.849,0.462
	c-4.998,4.999-7.771,6.637-12.014,8.779l-0.42-0.63c2.269-1.764,5.797-4.453,10.124-11.846L453.296,2.99z M469.427,7.233
	l2.185-2.521l3.612,2.857v0.798H465.1v7.562h6.176l2.395-2.73l3.822,3.066v0.84H465.31c0.547,0.126,0.883,0.21,0.883,0.546
	c0,0.378-0.252,0.462-1.051,0.756v5.335h4.327l2.227-2.604l3.444,2.982v0.756h-9.998l-0.042,8.906
	c1.009,0.126,1.681,0.21,2.604,0.21h9.872v0.756c-1.218,0.336-1.849,0.798-2.059,2.814h-7.309c-4.117,0-7.897-1.429-12.099-8.401
	c-1.429,3.822-2.437,5.713-5.461,9.325l-0.756-0.546c3.15-5.083,3.864-9.83,4.158-17.979l4.579,1.218
	c0.336,0.084,0.546,0.462,0.546,0.588c0,0.336-0.168,0.42-1.47,1.008c-0.463,2.604-0.673,3.276-1.177,5.083
	c2.185,2.814,2.94,3.402,4.873,4.747v-15.5h-10.208l-0.546-1.176h10.754V8.367h-7.771l-0.588-1.134h8.359V0.344l4.369,0.63
	c0.462,0.084,0.798,0.336,0.798,0.672c0,0.42-0.42,0.588-1.471,1.008v4.579H469.427z"/>
<path fill="#FFFFFF" d="M507.927,0.554c0.504,0.042,1.008,0.294,1.008,0.63c0,0.504-0.504,0.672-1.638,1.134v4.495h6.805
	l2.395-2.856l3.822,2.982v1.008h-13.021v7.015h10.459l2.73-3.15l4.075,3.276v1.05h-16.425c0.084,0.042,0.294,0.252,0.294,0.378
	c0,0.378-0.378,0.546-1.092,0.924v8.275c0,1.05-0.084,2.017-1.093,2.772c-1.134,0.882-2.772,1.26-3.234,1.26
	c-0.798,0-0.798-0.378-0.924-1.638c-0.042-1.008-1.009-1.134-3.487-1.554V25.59h5.125v-9.452h-16.887l-0.504-1.176h7.604V3.326
	l4.2,0.504c0.378,0.042,1.009,0.21,1.009,0.672c0,0.504-0.421,0.672-1.597,1.092v9.368h6.175V0.092L507.927,0.554z M499.357,19.121
	c0.294,0.168,0.588,0.462,0.588,0.714c0,0.504-0.504,0.546-1.513,0.672c-3.318,4.159-6.469,6.931-11.09,9.914l-0.756-0.714
	c4.747-4.453,6.469-7.099,9.115-12.434L499.357,19.121z M517.084,25.968c0.252,0.21,0.294,0.546,0.294,0.714
	c0,0.546-0.798,0.546-0.882,0.546c-0.126,0-0.756-0.126-1.134-0.168c-2.395,2.143-6.218,5.587-13.695,8.149
	c-4.41,1.513-9.031,2.395-13.694,2.814l-0.168-0.84c4.579-0.925,9.032-2.269,13.232-4.285c7.352-3.528,10.67-7.729,12.561-10.082
	L517.084,25.968z M511.707,17.987c3.108,1.05,7.352,2.437,10.292,5.335c0.924,0.882,1.681,2.143,1.681,3.361
	c0,1.008-0.589,1.974-1.723,1.974c-0.966,0-1.555-0.84-2.772-2.604c-2.814-4.075-6.259-6.217-7.939-7.267L511.707,17.987z"/>
<path fill="#FFFFFF" d="M538.748,18.491c1.05,0,2.227-0.21,3.444-0.672c1.051-0.378,2.059-0.966,2.73-1.932
	c0.673-0.924,1.135-2.101,1.135-3.613c0-1.596-0.504-3.234-1.765-4.243c-0.672-0.588-1.554-0.966-2.772-0.966
	c-1.134,0-2.017,0.378-2.772,1.05c-0.714,0.672-1.26,1.638-1.639,2.814c-0.462,1.386-0.84,2.185-2.184,2.185
	c-0.967,0-1.471-0.756-1.471-2.017s0.966-2.982,2.688-4.117c1.387-0.924,3.15-1.596,5.503-1.596c2.311,0,4.159,0.504,5.587,1.428
	c1.765,1.218,2.814,3.192,2.814,5.629c0,1.849-0.756,3.571-2.227,4.747c-1.092,0.924-2.646,1.596-4.62,1.848v0.126
	c2.227,0.126,3.948,0.84,5.251,1.891c1.638,1.218,2.73,3.108,2.73,5.839c0,2.437-0.799,4.453-2.353,6.007
	c-1.555,1.639-3.781,2.688-7.31,2.688c-2.646,0-4.705-0.714-6.175-1.806c-1.597-1.176-2.479-2.73-2.479-4.075
	c0-1.302,0.546-2.016,1.596-2.016c0.673,0,1.177,0.294,1.639,1.092c0.378,0.672,0.798,1.639,1.471,2.521
	c0.798,1.428,1.932,2.604,4.074,2.604c1.429,0,2.856-0.546,3.865-1.68c0.924-1.092,1.554-2.772,1.554-5.125
	c0-1.596-0.378-2.982-1.176-4.159c-0.757-1.092-1.891-1.89-3.487-2.353c-1.05-0.336-2.226-0.546-3.654-0.546V18.491z"/>
<path fill="#FFFFFF" d="M583.086,34.034c1.47-3.612,1.849-8.023,2.101-15.836h-8.864c-1.302,7.519-2.73,15.962-16.929,20.121
	l-0.336-0.798c8.359-3.655,11.972-9.116,13.19-19.323h-6.133l-0.547-1.218h19.24l1.428-1.933l3.57,2.604
	c0.21,0.126,0.589,0.504,0.589,0.798c0,0.378-0.421,0.546-1.471,0.882c-0.168,4.117-0.588,13.358-2.479,16.467
	c-0.504,0.841-1.47,1.681-3.57,2.185c-0.294,0.042-1.303,0.252-1.807,0.252c-1.05,0-1.092-0.42-1.26-1.512
	c-0.168-1.261-0.883-1.387-4.201-1.807v-0.882H583.086z M575.021,2.528c0.42,0.168,0.756,0.546,0.756,0.84
	c0,0.63-0.84,0.798-2.143,1.05c-4.41,7.52-8.023,12.182-13.904,16.383l-0.63-0.672c4.705-5.335,7.771-9.536,11.216-19.534
	L575.021,2.528z M582.288,0.638c3.486,7.352,7.351,11.342,14.786,15.795l-0.294,0.756c-1.597-0.042-2.227,0.21-3.36,2.226
	c-5.167-4.075-9.326-8.401-11.889-18.399L582.288,0.638z"/>
<path fill="#FFFFFF" d="M28.31,65.288c0.728,0.057,1.568,0.505,1.568,1.064c0,0.84-1.064,1.288-2.296,1.848v5.376h14.28L43.598,71
	l5.656,4.425c0.84,0.672,1.12,1.344,1.12,1.735c0,0.672-0.672,1.177-1.848,1.177c-0.168,0-0.392,0-0.616-0.057l-2.016-0.336
	l-1.512,1.12c-1.064,0.84-2.072,1.624-3.08,2.352L39.79,82.48l-0.896-0.672c0.728-1.512,1.064-2.24,1.848-4.145l1.008-2.52H7.813
	v1.288c0,5.656-3.136,7.28-4.816,7.28c-1.792,0-2.912-1.232-2.912-2.576c0-1.12,0.448-1.513,3.416-4.088
	c1.568-1.4,2.072-3.192,2.408-6.16h1.232c0.168,0.952,0.28,1.344,0.504,2.688h14.448v-8.792L28.31,65.288z M25.286,78.841
	c0.616,0.168,1.12,0.56,1.12,0.951c0,0.841-0.952,1.009-2.352,1.232c-1.344,3.248-1.736,4.144-2.744,6.44h20.328l3.136-3.864
	l5.656,4.256v1.12h-12.6c-2.296,6.439-3.528,9.184-7.336,14.111c2.688,0.841,15.68,5.04,15.68,9.801c0,1.176-0.728,2.464-2.24,2.464
	c-0.336,0-0.896,0-2.52-1.513c-4.312-3.92-9.8-6.607-13.328-8.119c-1.68,1.624-3.528,3.359-7.504,5.264
	c-7.504,3.584-14.896,4.144-19.6,4.536l-0.28-1.288c4.48-0.784,15.624-2.8,23.072-10.08c-2.296-0.728-3.808-1.232-9.072-2.464
	l-0.896,1.792l-0.84,1.792l-4.928-1.456c3.584-7.112,4.592-9.184,7.112-14.84H1.317l-0.952-1.512h15.456l0.84-2.017
	c1.008-2.296,1.512-3.584,3.36-8.288L25.286,78.841z M18.397,93.904c-1.568,3.416-2.52,5.32-2.968,6.272
	c6.048,0.783,7.56,1.119,10.304,1.68c2.296-3.136,4.256-6.048,6.44-12.88H20.638L18.397,93.904z"/>
<path fill="#FFFFFF" d="M65.208,85.729c0.392,2.184,0.616,3.696,0.616,6.384c0,11.313-4.256,12.712-5.824,12.712
	c-1.68,0-2.408-1.399-2.408-2.855c0-1.345,0.224-1.624,2.912-4.872c0.728-0.896,2.128-3.864,2.8-6.16
	c0.56-2.072,0.616-3.472,0.616-5.264L65.208,85.729z M95.168,99.504l1.288,0.057c-0.056,0.728-0.168,4.144-0.168,4.872
	c0,3.136,0.504,3.92,2.576,4.76c-0.784,4.032-2.184,4.704-7.168,4.704H76.184c-4.032,0-4.704-2.353-4.704-5.04V78.505l5.824,0.951
	c0.392,0.057,1.344,0.28,1.344,0.952s-0.616,0.896-2.016,1.344v25.313c0,1.848,0.448,2.352,2.296,2.352h10.024
	c2.408,0,3.472-0.056,4.704-4.479L95.168,99.504z M74.168,66.24c2.688,0.393,7.056,1.064,10.92,3.248
	c0.56,0.336,4.144,2.464,4.144,5.656c0,1.68-0.952,3.248-2.632,3.248c-1.344,0-1.68-0.561-4.032-4.032
	c-0.784-1.176-2.52-2.912-4.144-4.312c-1.064-0.84-2.016-1.456-4.48-2.633L74.168,66.24z M96.344,84.16
	c2.968,1.736,5.88,3.473,8.512,6.721c0.952,1.119,3.416,4.479,3.416,7.504c0,1.567-0.672,4.088-2.8,4.088
	c-1.792,0-2.24-1.624-2.912-4.313c-2.128-8.176-4.368-10.527-6.944-13.216L96.344,84.16z"/>
<path fill="#FFFFFF" d="M120.564,66.801c4.032,0.224,5.768,0.279,8.288,2.239c0.728,0.616,1.68,1.513,1.68,2.353
	c0,0.392-0.056,0.56-0.672,1.568c-2.968,5.432-3.136,23.688-3.136,23.8c0,6.327,0.784,10.808,8.624,10.808
	c8.512,0,16.968-7.168,22.456-15.736l1.176,0.561c-2.576,5.376-4.648,9.464-9.184,13.552c-4.144,3.752-9.016,6.216-14.336,6.216
	c-3.416,0-6.944-1.063-9.128-3.136c-2.856-2.688-3.248-6.776-3.248-12.656c0-0.784,0-2.128,0.168-3.864l1.4-17.976l0.112-2.52
	c0.056-0.393,0.112-0.784,0.112-1.12c0-1.568-1.344-2.185-4.48-3.024L120.564,66.801z"/>
<path fill="#FFFFFF" d="M206.597,74.921c-1.4-0.112-2.52-0.112-2.856-0.112c-5.656,0-8.176,1.288-10.92,4.032
	c-4.48,4.424-7.224,10.359-7.224,16.632c0,3.976,1.288,8.456,7.84,10.92c2.408,0.896,4.704,1.231,6.776,1.231
	c0.28,0,1.736-0.224,2.016-0.224c0.952,0,2.632,1.96,2.632,3.36c0,1.344-0.504,2.128-2.968,2.128
	c-4.48,0-19.768-1.345-19.768-16.072c0-5.096,1.68-9.968,4.424-14.168c2.576-3.92,4.928-5.824,6.832-7.336l-2.184,0.392
	c-14.448,2.353-17.752,3.92-18.312,4.257c-1.4,0.896-1.736,1.119-2.24,1.119c-0.728,0-2.408-1.008-3.528-2.128
	c-2.016-2.071-2.688-3.808-3.304-5.432l1.176-0.504c0.784,1.063,2.072,2.912,4.704,2.912c0.392,0,0.84-0.057,2.408-0.336l7.728-1.4
	c5.936-1.008,16.184-2.296,19.544-2.632l3.584-0.336c0.952-0.112,2.632-0.28,3.416-0.616c0.28-0.168,1.12-0.504,1.344-0.504
	c1.512,0,4.536,2.912,4.536,4.088c0,0.784-0.728,1.064-1.4,1.064c-0.224,0-0.448-0.057-0.672-0.057L206.597,74.921z"/>
<path fill="#FFFFFF" d="M225.715,87.801l2.072-3.08l4.48,3.248c0.224,0.224,0.672,0.615,0.672,0.951
	c0,0.505-0.448,0.729-1.736,1.232V106c1.176,1.681,3.08,4.2,12.264,4.2h26.88v0.952c-1.512,0.784-1.96,1.288-2.408,3.472h-23.072
	c-8.736,0-12.32-3.527-14.84-7.336c-1.512,1.456-2.744,2.688-4.648,4.424l-1.96,1.792c-0.504,1.792-0.56,1.96-1.008,1.96
	c-0.168,0-0.616-0.224-0.84-0.615l-2.576-4.984c1.904-0.56,2.576-0.728,5.376-1.904l1.904-0.783V89.313h-6.44l-0.728-1.512H225.715z
	 M221.795,67.305c4.144,0.56,10.584,1.624,10.584,6.216c0,2.128-1.568,2.8-2.576,2.8c-1.344,0-2.128-1.063-2.856-2.352
	c-1.68-3.08-2.632-3.977-5.432-5.712L221.795,67.305z M262.619,76.656l4.536,2.912c0.448,0.28,0.952,0.672,0.952,1.064
	c0,0.504-0.504,0.728-1.904,1.288v22.455c0,0.673,0,2.521-2.072,3.416c-1.344,0.616-2.912,0.896-3.304,0.896
	c-0.728,0-0.728-0.28-0.896-1.624c-0.168-1.568-2.016-2.016-3.192-2.296v-1.064h4.76v-6.943h-8.12v9.632l-4.704,0.728V96.761h-7.784
	v10.92l-4.704,0.728v-31.64l5.096,2.576h9.128c-0.336-0.28-1.568-1.849-1.904-2.128c-2.688-2.576-4.928-3.584-6.832-4.424
	l0.056-0.841c6.496,0.504,8.12,1.064,10.528,2.408c2.128-1.848,2.632-2.352,5.04-4.647h-22.288l-0.728-1.568h23.912l1.96-2.016
	l5.264,3.416c0.28,0.168,0.504,0.504,0.504,0.951c0,0.784-0.56,0.784-3.024,0.784c-5.32,2.521-6.776,3.136-9.464,4.2
	c0.672,1.12,0.672,1.568,0.672,1.848c0,0.952-0.448,1.456-0.952,2.017h7.784L262.619,76.656z M248.675,86.849v-5.937h-7.784v5.937
	H248.675z M248.675,88.36h-7.784v6.832h7.784V88.36z M253.379,86.849h8.12v-5.937h-8.12V86.849z M253.379,95.192h8.12V88.36h-8.12
	V95.192z"/>
<path fill="#FFFFFF" d="M301.965,93.4c-0.616,0.56-1.624,1.512-2.464,2.296c1.792-0.784,3.528-1.568,5.768-1.568
	c5.376,0,5.768,3.809,5.936,5.488c0.112,1.176,0.336,6.272,0.672,7.224c0.56,1.568,2.52,1.568,3.584,1.568
	c1.904,0,4.592-0.112,6.384-0.56c0.168-0.057,1.96-0.448,1.96-0.448c0.952,0,3.024,1.848,3.024,3.304c0,0.784-0.56,1.176-2.072,1.4
	c-3.416,0.504-7.056,0.504-8.12,0.504c-6.496,0-9.296-0.672-9.632-6.72l-0.28-5.32c-0.112-2.464-0.728-4.312-3.416-4.312
	c-4.032,0-8.792,5.264-13.216,10.808c-1.232,1.512-3.024,3.976-4.256,5.432c-0.56,0.672-1.12,1.232-1.792,1.232
	c-1.4,0-2.408-2.464-2.408-3.696c0-0.784,0.112-0.896,1.512-2.128c3.64-3.248,5.376-5.096,21.224-21.952
	c1.008-1.063,2.296-2.352,4.424-4.536c-9.128,1.4-14.616,4.313-14.672,4.368c-1.344,0.952-1.456,1.064-1.904,1.064
	c-0.672,0-2.296-0.952-3.696-2.8c-1.12-1.456-1.344-2.856-1.512-4.48l1.12-0.448c0.28,0.784,1.008,2.856,3.584,2.856
	c0.504,0,1.288-0.112,1.848-0.225l3.024-0.56l9.016-1.792c1.68-0.28,3.528-0.616,4.648-1.008c0.28-0.112,1.512-0.784,1.736-0.784
	c0.952,0,4.48,3.136,4.48,3.976c0,0.28-0.112,0.337-1.12,0.729c-2.464,0.84-5.88,3.92-8.232,6.104L301.965,93.4z M294.517,66.017
	c1.904,1.568,3.248,2.52,7.056,2.52c2.464,0,3.864-0.336,6.216-0.896c0.56-0.168,1.176-0.28,1.512-0.28
	c1.064,0,3.024,2.464,3.024,3.416c0,0.784-0.672,0.784-2.464,0.896c-1.456,0.111-5.32,1.12-6.552,1.512
	c-2.016,0.616-4.312,1.736-6.16,2.632l-0.728-0.952c0.224-0.111,0.728-0.504,0.84-0.56l2.688-1.792
	c0.224-0.168,0.896-0.616,1.4-0.952c-3.864-0.112-5.152-1.064-7.672-4.928L294.517,66.017z"/>
<path fill="#FFFFFF" d="M348.4,89.425c5.88-2.744,10.528-3.584,14.112-3.584c8.848,0,13.72,4.928,13.72,12.151
	c0,9.856-8.624,14.616-18.648,14.616c-7.392,0-12.488-2.856-12.488-7.392c0-2.969,2.24-5.376,6.328-5.376
	c4.424,0,8.12,2.184,10.416,4.367c2.016,1.849,2.296,2.801,2.632,4.088c1.288-0.672,3.136-1.567,4.76-3.976
	c1.344-2.128,2.016-4.648,2.016-6.944c0-4.983-2.8-9.239-9.968-9.239c-2.24,0-12.096,0.728-20.216,9.575
	c-2.576,2.912-2.856,3.248-3.36,3.248c-1.288,0-2.464-2.184-2.464-3.64c0-0.56,0.168-0.952,0.84-1.456l1.456-1.063
	c2.072-1.456,13.888-12.32,22.904-22.345l-2.856,0.561c-2.688,0.504-7.84,1.512-9.52,2.8c-1.064,0.84-1.288,0.896-1.568,0.896
	c-0.896,0-2.464-1.456-3.248-2.465c-1.288-1.624-1.792-3.359-2.24-5.151l1.176-0.504c1.176,2.071,2.016,3.023,4.368,3.023
	c0.448,0,0.952-0.056,1.4-0.111l9.408-1.12l2.408-0.336c1.12-0.168,1.68-0.225,2.464-0.672c0.056,0,1.344-0.673,1.4-0.673
	c0.336,0,0.504,0.168,1.792,1.456c1.96,1.96,2.184,2.128,2.184,2.633c0,0.336-0.336,0.447-1.176,0.783
	c-0.784,0.225-1.344,0.561-2.408,1.4c-1.512,1.344-3.472,3.08-11.48,10.584L348.4,89.425z M350.36,102.809
	c-2.24,0-3.08,1.456-3.08,2.576c0,2.128,2.576,4.592,8.68,4.592c1.568,0,2.632-0.112,4.704-0.448
	C354.952,103.032,351.48,102.809,350.36,102.809z"/>
<path fill="#FFFFFF" d="M396.397,85.729c0.392,2.184,0.616,3.696,0.616,6.384c0,11.313-4.256,12.712-5.824,12.712
	c-1.68,0-2.408-1.399-2.408-2.855c0-1.345,0.224-1.624,2.912-4.872c0.728-0.896,2.128-3.864,2.8-6.16
	c0.56-2.072,0.616-3.472,0.616-5.264L396.397,85.729z M426.357,99.504l1.288,0.057c-0.057,0.728-0.168,4.144-0.168,4.872
	c0,3.136,0.504,3.92,2.576,4.76c-0.784,4.032-2.185,4.704-7.168,4.704h-15.512c-4.032,0-4.704-2.353-4.704-5.04V78.505l5.824,0.951
	c0.392,0.057,1.344,0.28,1.344,0.952s-0.616,0.896-2.016,1.344v25.313c0,1.848,0.448,2.352,2.296,2.352h10.024
	c2.408,0,3.472-0.056,4.705-4.479L426.357,99.504z M405.357,66.24c2.688,0.393,7.056,1.064,10.92,3.248
	c0.56,0.336,4.144,2.464,4.144,5.656c0,1.68-0.952,3.248-2.632,3.248c-1.344,0-1.68-0.561-4.032-4.032
	c-0.784-1.176-2.52-2.912-4.144-4.312c-1.064-0.84-2.016-1.456-4.48-2.633L405.357,66.24z M427.533,84.16
	c2.968,1.736,5.88,3.473,8.512,6.721c0.952,1.119,3.416,4.479,3.416,7.504c0,1.567-0.672,4.088-2.8,4.088
	c-1.792,0-2.24-1.624-2.912-4.313c-2.128-8.176-4.368-10.527-6.943-13.216L427.533,84.16z"/>
<path fill="#FFFFFF" d="M447.828,81.641h7.392V66.072l5.768,0.784c0.616,0.056,1.12,0.336,1.12,0.784c0,0.56-0.28,0.672-2.184,1.512
	v12.488h1.848l2.296-3.08l4.032,3.472v1.12h-8.176v18.704c3.08-0.952,4.144-1.344,7.168-2.408l0.448,1.064l-1.792,1.12
	c-3.864,2.352-5.769,3.416-10.584,5.823l-3.416,1.681c-0.504,1.512-0.561,1.68-1.009,1.68c-0.111,0-0.56-0.168-0.728-0.504
	l-2.296-5.208c3.64-0.729,4.312-0.896,7.504-1.792v-20.16h-6.664L447.828,81.641z M484.955,66.185
	c0.393,0.056,1.064,0.28,1.064,0.728c0,0.673-0.616,0.896-2.016,1.456V80.24l5.768-3.304l1.456-3.136l4.536,1.848
	c0.448,0.168,0.84,0.56,0.84,0.896c0,0.615-0.729,1.008-1.68,1.567v17.528c0,0.336-0.057,2.24-1.4,3.191
	c-1.176,0.784-3.304,1.456-4.088,1.456s-0.84-0.504-0.952-1.848c-0.112-1.512-0.504-1.568-3.752-2.184v-0.952h5.712V78.393
	l-6.439,3.696v21.56l-4.593,0.784V84.721l-5.487,3.191v19.769c0,1.288,0.447,1.848,1.848,1.848h14.672
	c0.952,0,2.688-0.056,3.696-3.584l1.512-5.04h1.232c-0.112,1.008-0.28,3.136-0.28,4.145c0,3.023,0.784,3.584,2.016,4.256
	c-0.56,2.743-1.624,4.535-5.487,4.535h-19.433c-2.855,0-4.479-1.399-4.479-4.424V90.601l-4.872,2.855l-1.4-1.12l6.272-3.64V70.44
	l5.656,0.616c0.447,0.056,1.119,0.392,1.119,0.784c0,0.56-0.447,0.728-2.071,1.399v12.769l5.487-3.137V65.513L484.955,66.185z"/>
<path fill="#FFFFFF" d="M532.808,80.129c0.952,0.336,1.4,0.392,1.849,0.392c0.111,0,0.728,0,1.399-0.112l2.017-0.168
	c5.04-0.504,7.111-1.288,7.336-1.399c1.12-0.729,1.231-0.784,1.567-0.784c0.952,0,3.921,1.68,3.921,3.248
	c0,0.952-1.345,1.176-2.912,1.399c-3.36,0.561-7.952,1.232-11.256,1.232c-1.624,0-1.961-0.056-3.977-1.232
	c-0.056,4.984,0,7.616,0.28,12.04l0.336,4.816c8.792,2.8,12.768,4.928,15.456,6.384c1.792,0.952,3.863,2.072,3.863,4.2
	c0,1.063-0.56,2.24-1.623,2.24c-0.616,0-0.896-0.168-3.305-1.624c-3.863-2.408-8.288-4.761-14.279-7.168
	c0.168,4.535,0.336,9.52-11.313,9.52c-6.72,0-12.264-2.576-12.264-7.616c0-1.063,0-7.672,11.928-7.672c3.192,0,5.656,0.448,7,0.672
	l-0.112-3.191c-0.056-2.688-0.279-9.408-0.279-13.216c0-9.576,0-10.641-0.616-11.872c-0.504-0.952-1.736-1.177-4.032-1.513
	l-0.056-1.344c0.784,0,1.848-0.056,2.576-0.056c4.424,0,7.951,2.016,7.951,3.191c0,0.28-0.56,1.624-0.672,1.904
	c-0.392,1.008-0.56,1.736-0.672,4.145L532.808,80.129z M520.376,101.017c-2.52,0-7.952,0.224-7.952,4.256
	c0,3.472,5.376,4.368,8.624,4.368c8.12,0,8.064-3.864,8.008-7.448C526.648,101.688,523.512,101.017,520.376,101.017z"/>
<path fill="#FFFFFF" d="M564.93,69.881c1.736,0.56,4.424,1.456,7.056,4.312c0.561,0.616,1.681,1.848,1.681,2.912
	c0,0.448-0.112,0.728-0.784,1.456c-2.296,2.576-3.36,8.68-3.36,11.928c0,5.769,2.185,9.632,4.145,11.984
	c1.567-2.128,2.016-2.801,2.632-3.752c1.12-1.736,6.16-9.408,7.168-10.977l0.896,0.729c-0.783,1.567-4.312,8.344-5.04,9.688
	c-0.615,1.232-2.575,5.04-2.575,6.889c0,0.504,0.56,2.688,0.56,3.191c0,1.456-1.008,2.128-1.792,2.128
	c-2.744,0-9.352-6.496-9.352-20.104c0-1.96,0.168-4.48,0.672-8.008l0.504-3.864c0.224-1.344,0.224-2.296,0.224-2.521
	c0-2.52-1.344-3.64-3.191-4.928L564.93,69.881z M593.489,74.584c3.809,2.017,14.616,7.729,14.616,24.92
	c0,2.24-0.392,4.984-3.023,4.984c-1.232,0-1.681-0.952-2.129-2.072c-1.063-2.632-3.079-2.8-9.352-3.304v-1.12
	c1.736-0.056,4.145-0.111,7.504-0.336l1.904-0.112c-0.225-12.936-6.776-18.871-10.136-21.951L593.489,74.584z"/>
<path fill="#FFFFFF" d="M659.698,80.24l2.855-3.64l5.265,3.92v1.231h-50.176l-0.784-1.512h11.312V67.921l5.937,0.56
	c0.336,0.056,1.063,0.168,1.063,0.672s-0.224,0.616-2.296,1.456v9.632h7V65.177l5.992,0.56c0.56,0.057,1.008,0.28,1.008,0.672
	c0,0.561-0.224,0.616-2.072,1.4v3.64h8.513l2.632-3.527l5.208,3.863v1.232h-16.353v7.224H659.698z M657.682,112.776h-31.136v2.072
	l-4.815,0.783V83.713l6.048,0.56c0.504,0.056,1.12,0.392,1.12,0.784c0,0.504-0.28,0.616-2.353,1.624v24.584h31.136v-27.44
	l5.769,0.393c0.28,0.056,1.008,0.168,1.008,0.672c0,0.56-0.448,0.784-1.904,1.399v28.057l-4.872,0.728V112.776z M650.122,94.185
	l2.408-3.024l4.312,3.584v0.952h-12.487v1.904c9.52,1.456,10.527,5.712,10.527,7.111c0,1.232-0.448,2.353-1.903,2.353
	c-1.064,0-1.96-0.84-2.297-1.4l-1.063-1.848c-1.68-2.856-3.864-4.145-5.264-4.984v10.696l-4.536,0.672V99.616
	c-2.688,2.744-7,6.608-12.152,9.24l-0.616-0.84c3.809-3.024,7.729-6.721,10.528-12.32h-9.52l-0.784-1.512h12.544V82.761l5.544,0.56
	c0.392,0.056,0.896,0.28,0.896,0.672c0,0.504-0.224,0.561-1.903,1.288v8.904H650.122z M630.97,83.992
	c2.297,0.784,6.553,2.185,6.553,6.048c0,1.4-0.784,2.744-2.185,2.744c-1.567,0-2.128-1.344-2.352-2.296l-0.336-1.792
	c-0.393-1.736-0.952-2.52-2.185-3.864L630.97,83.992z M654.154,85.841c0.279,0.224,0.504,0.504,0.504,0.728
	c0,0.561-0.616,0.616-1.848,0.729c-3.528,3.191-4.704,4.199-7.057,6.104l-0.56-1.064c3.023-4.703,3.752-6.552,4.815-9.071
	L654.154,85.841z"/>
<path fill="#FFFFFF" d="M701.217,69.209c0.224,0.224,0.504,0.672,0.504,1.008c0,0.392-0.448,0.504-0.784,0.504
	c-0.28,0-0.392-0.057-1.624-0.448c-2.744,0.84-3.584,1.12-6.496,1.848v10.248h2.128l2.408-3.416l4.48,3.864v1.12h-9.017v4.704
	c1.904,0.504,8.288,2.688,8.288,6.328c0,1.512-1.12,2.239-2.072,2.239c-1.063,0-1.287-0.279-2.855-3.023
	c-1.008-1.736-1.792-2.521-3.36-3.977v24.473l-4.704,0.783V95.305c-3.695,4.76-6.439,7.783-9.855,10.695l-0.729-0.672
	c5.713-8.512,7.448-12.936,10.416-21.392h-9.464l-0.672-1.568h10.304V73.24c-5.432,1.176-6.607,1.344-10.079,1.681l-0.393-0.952
	c2.072-0.616,4.256-1.288,9.912-3.752c5.208-2.185,7.56-3.752,9.855-5.208L701.217,69.209z M720.929,66.129
	c0.56,0.056,1.344,0.392,1.344,0.896c0,0.729-0.728,1.008-2.24,1.568v27.775l2.072-0.392l2.408-4.816l4.815,3.92l0.057,1.064
	l-9.353,1.736v16.8l-4.815,0.728V98.776l-16.016,3.024l-0.952-1.345l16.968-3.136V65.456L720.929,66.129z M703.121,69.545
	c8.008,1.792,9.464,5.264,9.464,7c0,1.567-0.784,2.968-2.353,2.968c-1.512,0-2.184-1.456-2.744-2.744
	c-1.848-3.92-3.584-5.376-4.703-6.328L703.121,69.545z M703.849,83.601c5.376,1.96,7.392,4.815,7.392,7.112
	c0,1.96-1.456,2.632-2.296,2.632c-1.512,0-2.128-1.681-2.744-3.528c-1.287-3.64-1.624-4.088-2.855-5.488L703.849,83.601z"/>
<path fill="#FFFFFF" d="M778.021,69.769l3.248-3.808l5.096,4.144v1.232h-41.104v38.304h34.216l3.527-4.032l5.433,4.256v1.288
	h-43.176v3.248l-4.872,0.84V66.801l5.6,2.968H778.021z M761.053,73.801c0.447,0.168,1.176,0.336,1.176,0.896
	c0,0.729-0.225,0.784-2.408,1.4c-0.504,1.063-0.728,1.399-1.4,2.688h14.057l2.688-3.472l4.928,3.92v1.12h-12.376
	c0,0.56-0.056,1.904-0.111,2.464l-0.057,2.408c-0.056,1.399-0.056,1.96-0.168,4.032h10.305l2.912-3.752l5.208,4.312v0.952h-18.593
	c-0.224,1.344-0.279,1.904-0.84,3.808c9.128,1.792,14.672,5.824,14.672,9.576c0,1.68-1.008,2.632-2.352,2.632
	c-1.176,0-2.24-1.063-2.576-1.512l-1.848-2.632c-3.192-4.424-6.328-5.88-8.4-6.832c-1.12,2.52-2.072,4.536-5.544,7.056
	c-4.704,3.528-9.184,4.48-11.536,4.928l-0.392-1.12c2.24-0.783,5.432-1.848,8.792-5.544c3.472-3.695,4.2-7.224,4.872-10.359h-14.112
	l-0.672-1.512h14.952c0.111-1.904,0.168-2.744,0.224-3.977v-2.576c0.056-0.279,0.056-2.128,0.112-2.352h-5.04
	c-2.968,4.983-3.864,6.104-5.88,8.231l-1.008-0.56c1.96-4.592,3.695-9.968,4.703-15.68L761.053,73.801z"/>
<path fill="#FFFFFF" d="M804.066,69.488v45.696l-4.703,0.672V65.345l4.815,2.632h5.432l1.736-2.521l4.704,3.416
	c0.448,0.337,0.728,0.784,0.728,1.009c0,0.672-1.287,0.951-2.071,1.119l-1.176,2.297c-3.248,6.159-3.641,6.832-5.376,9.743
	c3.247,2.633,5.039,4.593,6.943,9.128h24.416l2.912-3.527l4.983,3.92v1.176h-10.752v15.064c0,1.063,0.28,1.399,1.4,1.399h3.752
	c1.624,0,2.072-1.68,2.688-3.976l1.231-4.648h1.232c-0.225,2.072-0.336,3.977-0.336,4.704c0,3.08,0.896,3.528,2.407,4.088
	c-0.504,2.128-1.176,4.313-5.544,4.313h-8.008c-2.016,0-3.752,0-3.752-3.809V93.736h-4.368c-0.783,10.528-2.016,17.528-18.871,21.84
	l-0.336-1.12c3.808-1.512,9.184-3.64,12.151-10.304c1.568-3.64,1.736-7.224,1.904-10.416h-6.664
	c0.112,0.561,0.392,2.128,0.392,3.248c0,0.896-0.279,4.536-2.016,6.16c-0.84,0.728-2.521,1.792-4.424,1.792
	c-0.393,0-0.672,0-0.784-1.008c-0.112-1.288-0.448-2.633-3.976-3.248v-1.12h6.048c0.392-1.4,0.447-1.96,0.447-3.08
	c0-4.145-1.119-8.456-4.76-13.048c0.896-3.192,1.568-5.376,2.912-11.313l0.616-2.632H804.066z M818.963,70.776
	c0.28,1.064,0.392,1.456,0.672,2.688h7.616v-8.4l5.208,0.504c0.447,0.057,1.792,0.225,1.792,1.008c0,0.616-0.672,0.896-2.017,1.513
	v5.376h8.12l1.792-2.576l5.152,3.808c0.616,0.448,0.896,0.952,0.896,1.288c0,0.896-1.96,1.008-3.136,1.064
	c-0.336,0.224-0.896,0.615-1.063,0.783l-2.801,2.24c-0.392,0.28-1.12,0.84-1.68,1.288l-0.84-0.616c0-0.056,1.736-4.647,2.072-5.712
	h-20.944v1.008c0,3.416-1.736,5.824-3.808,5.824c-1.96,0-2.576-1.288-2.576-2.072c0-1.063,1.344-2.464,1.68-2.743
	c2.185-2.24,2.464-3.584,2.576-6.272H818.963z M833.019,82.872l2.8-3.416l4.929,3.752v1.232h-21.616l-0.616-1.568H833.019z"/>
<rect id="_x3C_スライス_x3E__1_" fill="none" width="850" height="116"/>
</svg>
