<?xml version="1.0" encoding="utf-8"?>
<!-- Generator: Adobe Illustrator 14.0.0, SVG Export Plug-In  -->
<!DOCTYPE svg PUBLIC "-//W3C//DTD SVG 1.1//EN" "http://www.w3.org/Graphics/SVG/1.1/DTD/svg11.dtd" [
	<!ENTITY ns_flows "http://ns.adobe.com/Flows/1.0/">
]>
<svg version="1.1"
	 xmlns="http://www.w3.org/2000/svg" xmlns:xlink="http://www.w3.org/1999/xlink" xmlns:a="http://ns.adobe.com/AdobeSVGViewerExtensions/3.0/"
	 x="0px" y="0px" width="878px" height="119px" viewBox="0 0 878 119" enable-background="new 0 0 878 119" xml:space="preserve">
<defs>
</defs>
<path fill="#FFFFFF" d="M262.699,13.5c-1.008,0-1.428,0.042-2.772,0.21v-2.604c1.344,0.21,1.806,0.252,2.772,0.252h19.743
	l-0.042-0.462c-0.042-1.638-0.084-2.814-0.084-4.663V3.838c0-0.546-0.042-1.05-0.084-1.554l-0.126-0.84l-0.042-0.378h5.293
	c-0.21,1.596-0.252,1.89-0.252,2.772v2.521c0,1.932,0,3.234,0.084,4.831v0.168h7.855c1.008,0,1.47-0.042,2.772-0.252v2.604
	l-0.462-0.042l-0.588-0.084c-0.462-0.042-1.008-0.084-1.722-0.084h-7.729l0.042,0.882c0.252,3.822,0.84,7.435,1.68,10.292
	c1.176,3.697,2.479,6.427,4.201,8.654c0.714,0.882,1.008,1.218,1.218,1.218c0.336,0,0.714-2.311,1.008-6.007l-0.084-2.227
	l2.437,0.756l-0.21,1.89v1.344c0,2.227-0.042,3.697-0.168,5.545c-0.252,2.688-1.26,4.032-3.024,4.032
	c-2.437,0-5.335-2.94-7.729-7.981c-2.352-4.789-3.612-10.46-4.117-18.399H262.699z M271.94,17.994c0-0.882-0.042-1.344-0.294-2.814
	h5.125c-0.21,1.68-0.252,1.933-0.252,2.814v4.537h3.276c0.966,0,1.597-0.042,2.772-0.21v2.563l-0.462-0.042l-0.588-0.084
	c-0.462-0.042-1.008-0.084-1.723-0.084h-3.276v8.359c1.89-0.252,3.402-0.462,6.133-0.924l1.639-0.462l0.504,2.227l-1.554,0.294
	c-5.839,1.765-12.854,3.487-19.87,4.789l-1.932,0.504l-1.512-5.209h2.1c1.26-0.084,1.638-0.084,2.059-0.126V21.901
	c0-0.588-0.042-1.05-0.084-1.596l-0.126-0.798l-0.042-0.42h4.999c-0.21,1.68-0.252,1.932-0.252,2.814v11.888l3.36-0.294V17.994z
	 M279.166,6.778c-1.302-0.168-1.596-0.21-2.688-0.21h-9.662c-1.008,0-1.428,0.042-2.772,0.21V4.174
	c1.344,0.21,1.806,0.252,2.772,0.252h9.662c1.008,0,1.512-0.042,2.688-0.252V6.778z M290.256,2.956
	c1.26,0.798,1.638,1.05,3.361,2.269l1.134,0.84l0.588,0.378l1.386,0.798l-3.613,3.529l-0.714-1.218
	c-1.008-1.764-1.723-2.772-3.445-5.125l-1.092-0.84l1.512-1.513L290.256,2.956z"/>
<path fill="#FFFFFF" d="M334.969,15.222c0.294,4.747,0.882,8.107,1.974,11.132c0.924-1.89,1.807-4.243,2.269-6.049l0.504-2.017
	l4.495,1.849l-1.008,1.638c-1.218,3.15-2.982,6.595-4.369,8.569c1.386,2.185,3.444,4.537,4.033,4.537
	c0.378,0,0.714-1.933,0.84-5.083l-0.042-2.395l2.269,0.63l-0.126,1.974c0.042,1.428,0.042,1.975,0.042,2.73
	c0,3.403-0.084,4.537-0.378,5.377c-0.42,1.218-1.218,1.849-2.311,1.849c-2.059,0-4.957-2.353-7.31-6.007
	c-2.1,2.101-4.789,4.117-7.477,5.587l-1.386,0.966l-1.26-1.848l1.554-0.84c0.63-0.42,1.302-0.966,1.975-1.596h-9.998
	c-1.47,0-2.016,0.042-3.192,0.168c0.168-1.176,0.21-1.47,0.21-2.94V20.683c0-1.218-0.042-1.512-0.21-3.276
	c1.092,0.168,1.68,0.21,3.066,0.21h11.006c0.336,0,0.462,0,0.672-0.042c-0.084-1.26-0.168-2.059-0.168-2.353h-16.005v6.301
	c0,7.603-1.554,12.686-5.335,17.391l-0.798,1.344l-2.016-1.218l1.008-1.302c1.807-3.823,2.563-8.569,2.563-16.005v-5.419
	c0-1.428-0.042-2.143-0.252-3.445c1.092,0.168,1.848,0.21,3.445,0.21h17.307l-0.042-0.336v-0.462l-0.252-1.848h4.663l-0.084,1.806
	c0,0.42,0,0.504,0.042,0.84h5.209l-0.378-0.63c-0.63-1.05-1.344-1.974-2.184-2.814l-1.092-0.798l1.554-1.554l0.966,0.756
	c1.68,0.798,2.353,1.092,3.57,1.764L344,10.475l-2.646,2.604h0.672c1.344,0,1.848-0.042,2.898-0.252v2.646
	c-1.134-0.21-1.47-0.252-2.898-0.252H334.969z M335.557,7.03c0,0.672,0.042,0.966,0.21,2.101h-4.999l0.042-0.42l0.084-0.336
	c0.042-0.504,0.084-0.882,0.084-1.344h-8.948v1.344c0,1.05,0.042,1.512,0.252,2.688h-5.208l0.042-0.168l0.084-0.798
	c0.084-0.462,0.126-1.008,0.126-1.722V7.03h-7.52c-1.008,0-1.428,0.042-2.772,0.21V4.678c1.302,0.168,1.848,0.21,2.772,0.21h7.52
	V3.754c0-0.504-0.042-0.966-0.084-1.47l-0.126-0.84l-0.042-0.378h5.208c-0.21,1.638-0.252,1.89-0.252,2.688v1.134h8.948v-1.05
	c0-1.05-0.084-1.639-0.294-2.688h5.125c-0.21,1.008-0.252,1.722-0.252,2.688v1.05h7.52c0.966,0,1.596-0.042,2.772-0.21V7.24
	l-0.462-0.042l-0.588-0.084c-0.462-0.042-1.008-0.084-1.722-0.084H335.557z M322.661,19.759h-2.521v3.024h2.521V19.759z
	 M326.441,28.37v-3.445h-6.301v3.445H326.441z M322.703,30.513h-2.563v3.57h2.563V30.513z M334.044,30.639
	c-1.47-3.193-2.395-6.595-2.982-10.838c-0.336-0.042-0.546-0.042-0.924-0.042h-3.823v3.024h1.386c1.134,0,1.597-0.042,2.604-0.168
	c-0.168,1.134-0.21,1.554-0.21,2.31v3.319c0,0.882,0.042,1.512,0.21,2.479l-0.252-0.042l-0.63-0.084
	c-0.462-0.042-1.008-0.084-1.723-0.084h-1.386v3.57h4.411c0.336,0,0.546,0,0.756-0.042c0.966-1.05,1.68-1.89,2.479-3.024l0.168-0.21
	L334.044,30.639z"/>
<path fill="#FFFFFF" d="M368.474,13.793c-1.092-0.126-1.512-0.168-2.521-0.168h-1.428V28.37c0.714-0.252,1.218-0.462,2.814-1.092
	l1.512-0.882l1.008,1.975l-1.554,0.756c-2.395,1.765-6.133,4.117-9.746,6.133l-1.638,1.092l-2.1-4.999l1.848-0.378
	c0.924-0.252,2.353-0.672,3.403-1.008V13.625h-1.765c-1.008,0-1.47,0.042-2.772,0.21v-2.604c1.596,0.21,1.891,0.252,2.772,0.252
	h1.765V4.972c0-0.588-0.042-1.05-0.084-1.597l-0.126-0.798l-0.042-0.42h4.999c-0.252,1.386-0.294,1.933-0.294,2.815v6.511h1.428
	c0.924,0,1.134-0.042,2.772-0.252v1.344c1.008,0.126,1.722,0.168,2.521,0.168h3.57v-0.168c-0.378-1.89-0.504-2.353-0.84-3.192
	L373.515,8.5l1.596-0.882h-2.772c-1.05,0-1.47,0.042-2.814,0.21V5.266c1.302,0.168,1.89,0.21,2.814,0.21h6.259v-1.68
	c0-0.966,0-1.008-0.168-2.73h4.957c-0.126,1.008-0.168,1.554-0.168,2.772v1.638h6.973c1.05,0,1.512-0.042,2.772-0.21v2.563
	c-1.428-0.168-1.638-0.21-2.772-0.21h-3.949l3.781,1.387l-1.344,1.134c-0.798,0.882-1.47,1.513-2.688,2.604h5.545
	c0.966,0,1.596-0.042,2.772-0.21v2.563l-0.462-0.042l-0.588-0.084c-0.462-0.042-1.008-0.084-1.722-0.084h-20.29
	c-1.008,0-1.428,0.042-2.772,0.21V13.793z M379.605,29c-0.63,5.629-4.579,9.284-11.804,10.964l-1.302,0.504l-1.05-2.101l1.722-0.378
	c4.747-1.722,7.561-4.873,7.981-8.99h-1.765c-1.176,0-1.596,0.042-2.604,0.168c0.126-0.966,0.168-1.26,0.168-2.604v-7.016
	c0-1.134-0.042-1.554-0.168-2.604c0.882,0.126,1.386,0.126,2.604,0.126h15.459c1.134,0,1.722-0.042,2.563-0.126
	c-0.126,0.84-0.168,1.428-0.168,2.604v7.016c0,1.134,0.042,1.638,0.168,2.604c-1.134-0.126-1.218-0.168-2.563-0.168h-2.604v5.671
	c0,0.966,0.294,1.134,2.143,1.134c2.1,0,3.234-0.168,3.486-0.546c0.294-0.378,0.63-2.058,0.588-3.108l-0.042-1.975l2.184,0.714
	l-0.084,1.512c0.042,1.302,0.042,2.143,0.042,2.982c0,3.655-0.882,4.159-7.225,4.159c-4.243,0-5.335-0.756-5.335-3.654V29H379.605z
	 M386.873,19.212h-11.678v2.604h11.678V19.212z M375.195,23.959v2.898h11.678v-2.898H375.195z M375.909,8.333
	c0.84,0.714,1.344,1.218,2.353,2.269l1.134,0.882l-3.024,1.26h7.015c0.672-1.386,1.344-3.066,1.596-4.117l0.168-1.008h-9.746
	L375.909,8.333z"/>
<path fill="#FFFFFF" d="M407.309,27.152l-0.084,1.554c0.126,2.017,0.168,3.066,0.168,4.663c0,0.672,0,1.176-0.042,2.016l0.084,1.68
	l-4.201-0.714l0.756-1.722c0.42-1.386,0.924-4.117,1.176-6.049v-1.596L407.309,27.152z M417.307,9.341h2.142
	c1.008,0,1.555-0.042,2.772-0.21v2.604l-0.21-0.042l-0.84-0.084c-0.504-0.084-1.05-0.126-1.723-0.126h-2.142v4.285h2.142
	c1.218,0,1.807-0.042,2.772-0.21v2.604c-1.302-0.21-1.596-0.252-2.772-0.252h-2.142v4.747h2.058c1.807,0,2.437-0.042,3.529-0.168
	v1.47c0,5.377-0.462,10.628-1.176,13.736c-0.378,1.68-1.092,2.353-2.479,2.353c-1.302,0-3.402-0.42-5.503-1.134l-2.142-0.378
	l-0.21-2.101c2.059,0.21,4.243,0.378,5.503,0.378c1.26,0,1.345-0.252,1.723-3.991l-0.504-1.26c-0.798-1.47-1.68-2.94-2.604-4.285
	l-0.714-0.84l1.68-1.176l0.63,0.966c0.882,0.84,1.344,1.26,1.848,1.849c0.084-1.302,0.084-1.891,0.084-3.277h-10.46h-0.504
	c-1.05,0-1.596,0.042-2.604,0.168c0.21-1.386,0.252-1.68,0.252-3.024V6.19c0-1.428-0.042-1.806-0.21-3.402
	c1.134,0.084,1.932,0.126,3.571,0.126h11.384c0.966,0,1.596-0.042,2.814-0.21v2.604l-0.21-0.042l-0.882-0.084
	c-0.546-0.084-1.05-0.126-1.722-0.126h-3.15V9.341z M408.864,34.419c0-1.974-0.042-2.94-0.294-6.007l-0.21-1.218l2.017-0.42
	l0.21,1.218c0.672,1.932,1.26,3.865,1.68,5.713l0.504,1.26l-4.033,1.134L408.864,34.419z M413.358,9.341V5.056h-3.445v4.285H413.358
	z M413.358,11.483h-3.445v4.285h3.445V11.483z M409.914,17.91v4.747h3.445V17.91H409.914z M413.694,33.411
	c-0.378-1.597-0.84-3.151-1.596-5.503l-0.546-1.05l1.89-0.798l0.42,1.008c1.008,1.512,2.143,3.445,2.898,4.915l0.84,1.218
	l-3.739,1.764L413.694,33.411z M438.899,2.914c1.554,0,2.184-0.042,3.486-0.168c-0.21,1.176-0.252,1.89-0.252,3.444v9.158
	c0,1.428,0.042,2.185,0.252,3.445c-1.47-0.168-1.638-0.168-3.486-0.168h-4.159c0.924,7.309,3.444,12.35,8.107,16.131l1.554,1.092
	l-3.697,4.327l-1.26-1.765c-4.243-4.957-6.469-11.3-6.973-19.785h-3.024c-0.168,8.527-1.638,14.45-5.167,20.542l-0.588,1.302
	l-2.143-1.092l0.882-1.344c1.932-5.713,2.604-11.216,2.604-21.003V6.19c0-1.722-0.042-2.058-0.252-3.444
	c1.218,0.126,1.807,0.168,3.445,0.168H438.899z M429.447,5.056v11.426h8.233V5.056H429.447z"/>
<path fill="#FFFFFF" d="M462.011,37.276c0,0.924,0.042,1.092,0.252,2.772h-4.957l0.042-0.21l0.084-0.84
	c0.084-0.546,0.126-1.05,0.126-1.722V23.119c-1.47,1.344-2.1,1.89-3.654,3.108l-1.134,1.05l-1.344-1.47l1.218-0.966
	c3.318-3.654,6.343-8.317,8.359-12.98l0.672-1.975l4.663,2.479l-1.176,1.638c-1.092,1.68-2.059,3.025-3.15,4.369V37.276z
	 M465.12,3.292l-1.344,1.554c-2.395,3.403-6.007,6.932-9.494,9.284l-1.092,0.924l-1.344-1.47l1.176-0.84
	c3.108-3.318,5.587-7.057,6.847-10.292l0.63-1.723L465.12,3.292z M479.906,24.799h5.755c1.009,0,1.554-0.042,2.772-0.21v2.563
	l-0.42-0.042c-0.967-0.126-1.344-0.168-2.353-0.168h-5.755v7.981c1.176,0.126,2.563,0.21,4.117,0.21c2.939,0,5.125-0.168,7.393-0.63
	l-0.966,4.705c-1.47,0.042-1.975,0.042-3.024,0.042c-6.217,0-9.746-0.546-12.309-1.848c-2.268-1.176-3.991-3.109-5.208-5.839
	c-1.176,2.814-2.688,5.167-4.705,7.394l-0.882,1.176l-1.722-1.344l1.05-1.092c2.227-3.991,3.444-8.654,3.823-14.199l0.042-2.184
	l4.873,0.882l-0.504,2.059c-0.294,1.806-0.546,2.814-1.008,4.411c1.092,2.395,2.437,3.907,4.369,4.957V18.499h-7.897
	c-1.008,0-1.428,0.042-2.772,0.21v-2.563c1.302,0.168,1.848,0.21,2.772,0.21h7.813V9.971h-5.419c-1.05,0-1.47,0.042-2.814,0.21
	V7.618c1.302,0.168,1.891,0.21,2.814,0.21h5.419V3.88c0-0.588-0.042-1.008-0.084-1.554l-0.126-0.798l-0.042-0.42h5.125
	c-0.21,1.68-0.252,1.932-0.252,2.772v3.949h5.797c1.009,0,1.554-0.042,2.814-0.21v2.563l-0.462-0.042l-0.588-0.084
	c-0.463-0.042-1.051-0.084-1.765-0.084h-5.797v6.385h8.569c1.008,0,1.555-0.042,2.772-0.21v2.563l-0.42-0.042
	c-0.966-0.126-1.345-0.168-2.353-0.168h-8.443V24.799z"/>
<path fill="#FFFFFF" d="M503.309,17.658c-1.051,0-1.471,0.042-2.814,0.21v-2.604c1.639,0.21,1.932,0.252,2.814,0.252h3.738V7.703
	c0-0.546-0.042-1.05-0.084-1.555l-0.126-0.84l-0.042-0.378h5.167c-0.21,1.597-0.252,1.891-0.252,2.773v7.813h5.797V3.838
	c0-0.546-0.126-1.47-0.294-2.772h5.167c-0.21,1.596-0.252,1.89-0.252,2.772v3.78h9.031c0.966,0,1.597-0.042,2.772-0.21v2.563
	l-0.462-0.042l-0.588-0.084c-0.462-0.042-1.009-0.084-1.723-0.084h-9.031v5.755h13.316c0.924,0,1.05-0.042,2.772-0.252v2.604
	l-0.463-0.042l-0.588-0.084c-0.461-0.042-1.008-0.084-1.722-0.084h-13.316v9.788c0,1.68-1.05,2.814-2.646,2.814
	c-1.093,0-3.403-0.462-6.134-1.176l-1.932-0.378l-0.252-2.142c1.723,0.294,4.033,0.504,5.293,0.504c0.798,0,1.05-0.294,1.05-1.134
	v-8.275H503.309z M513.727,21.019l-1.387,1.597c-2.184,2.688-5.166,5.419-8.443,7.729l-1.176,1.05l-1.513-1.638l1.302-1.008
	c2.059-2.142,4.033-5.209,5.461-8.317l0.757-1.932L513.727,21.019z M531.369,28.034l-1.471,1.134
	c-6.301,5.923-14.408,9.325-25.203,10.627l-1.766,0.378l-0.756-2.227l2.101-0.168c9.493-1.806,17.097-5.839,22.013-11.678
	l1.092-1.554L531.369,28.034z M528.639,19.422l1.219,0.798c3.024,1.974,5.209,3.528,6.848,4.873l1.554,1.05l-4.159,4.243
	l-0.924-1.764c-1.975-2.94-3.99-5.545-5.923-7.729l-1.261-1.05l1.471-1.513L528.639,19.422z"/>
<path fill="#FFFFFF" d="M546.725,6.652c3.066-2.185,6.763-3.277,11.047-3.277c6.764,0,10.922,2.899,10.922,7.604
	c0,4.159-2.646,7.015-7.519,8.065c3.15,0.588,4.831,1.344,6.343,2.814c1.597,1.47,2.395,3.529,2.395,6.049
	c0,6.133-4.621,9.83-12.309,9.83c-4.873,0-8.484-0.966-12.014-3.235l2.856-3.36c2.646,2.898,5.587,4.411,8.696,4.411
	c4.452,0,7.309-3.024,7.309-7.687c0-4.873-3.15-7.478-8.99-7.478c-1.428,0-2.855,0.126-4.116,0.378v-2.772
	c0.966,0.168,2.479,0.294,3.612,0.294c5.377,0,8.486-2.646,8.486-7.267c0-3.36-2.437-5.545-6.176-5.545
	c-2.939,0-5.881,1.722-8.023,4.663L546.725,6.652z"/>
<path fill="#FFFFFF" d="M586.2,17.574c0.798,0.126,1.261,0.126,2.017,0.126h18.398c1.849,0,2.27,0,3.277-0.084
	c-3.781-3.739-6.596-8.233-8.611-13.778l-0.841-1.639l2.227-0.924l0.63,1.638c3.066,5.923,7.268,10.334,12.729,13.526l2.1,0.882
	l-3.443,4.411l-1.681-1.428c-1.177-0.924-1.513-1.218-2.437-2.059v0.84c0,7.183-0.462,12.98-1.387,16.845
	c-0.588,2.562-1.638,3.654-3.612,3.654c-1.638,0-4.327-0.504-7.394-1.386l-2.268-0.42l-0.252-2.311
	c2.771,0.42,5.082,0.672,6.763,0.672c1.261,0,1.597-0.294,1.974-1.639c0.841-3.108,1.303-8.485,1.345-14.66h-8.149
	c-0.714,9.704-4.705,15.249-13.946,19.491l-1.513,0.882l-1.386-2.059l1.765-0.672c6.385-3.907,9.451-9.284,10.166-17.643h-4.453
	c-1.009,0-1.429,0.042-2.773,0.21v-2.017c-1.344,1.05-2.436,1.807-4.158,2.898l-1.26,1.05l-1.387-1.764l1.387-0.798
	c4.662-3.949,8.275-9.368,10.754-16.005l0.588-2.058l5.377,2.016l-1.176,1.765c-2.438,5.041-5.461,9.031-9.578,12.434H586.2z"/>
<path fill="#FFFFFF" d="M41.7,90.552c-1.68,5.88-4.312,10.864-7.728,14.784c4.76,1.792,9.24,3.808,13.272,5.936l2.632,0.952
	l-4.536,5.936l-1.96-1.456c-3.36-2.352-8.12-5.096-13.272-7.616c-5.04,3.696-13.048,6.328-23.464,7.616l-2.576,0.504l-1.232-3.08
	l2.856-0.224c7.672-1.176,14.672-3.92,19.04-7.336c-3.528-1.456-5.096-2.016-10.08-3.584l-5.768-0.84
	c2.52-4.368,5.04-9.016,6.272-11.592H4.404c-1.344,0-1.904,0.056-3.696,0.28v-3.416c1.736,0.224,2.464,0.28,3.696,0.28h12.152
	c1.288-2.8,2.24-5.04,3.136-7.504l0.784-2.8l6.664,1.904l-1.4,2.8c-1.008,2.24-1.904,4.088-2.576,5.6h25.144
	c1.288,0,2.128-0.056,3.696-0.28v3.416l-0.616-0.056l-0.784-0.112c-0.616-0.056-1.344-0.112-2.296-0.112H41.7z M9.108,76.16v5.208
	c0,1.288,0.056,1.512,0.336,3.752H2.332c0.336-2.072,0.392-2.408,0.392-3.752V77.84c0-2.184-0.056-2.912-0.392-4.76
	c1.624,0.168,2.632,0.224,4.704,0.224h15.848v-4.032c0-0.728-0.056-1.4-0.112-2.072l-0.168-1.12l-0.056-0.504h7.28
	c-0.28,2.128-0.336,2.52-0.336,3.696v4.032h16.24c2.072,0,2.912-0.056,4.648-0.224c-0.336,1.68-0.392,2.576-0.392,4.76v3.528
	c0,1.008,0.056,1.848,0.392,3.752h-7.112l0.056-0.28l0.112-1.12c0.112-0.728,0.168-1.4,0.168-2.352V76.16H9.108z M21.764,90.552
	c-0.896,1.848-3.024,5.88-5.152,9.912c4.984,0.952,8.68,1.848,11.592,2.8c2.912-3.08,5.544-8.064,6.776-12.712H21.764z"/>
<path fill="#FFFFFF" d="M71.033,85.344l-0.28,2.296c-0.336,6.888-1.456,14.784-2.8,20.608l-0.672,2.968l-7.616-2.912l1.456-2.352
	c2.632-5.712,4.76-12.32,6.048-18.984l0.224-2.464L71.033,85.344z M77.752,67.592c6.384,1.624,11.648,3.36,17.584,5.768l3.36,1.12
	l-4.424,7l-2.464-2.24c-6.664-4.592-11.256-7.168-15.512-8.736l-2.52-0.784l1.568-2.968L77.752,67.592z M99.816,100.856v1.736
	l0.056,1.512v3.024v2.8c-0.336,5.152-2.576,6.16-13.384,6.16c-9.52,0-11.088-1.008-11.088-7.168V82.936
	c0-1.176-0.056-1.792-0.392-3.752H82.4c-0.28,2.24-0.336,2.576-0.336,3.752v24.64c0,1.288,0.168,1.736,0.728,1.96
	c0.504,0.28,2.856,0.448,5.544,0.448c1.736,0,3.248-0.112,4.592-0.28l0.336-0.056l0.336-0.056c2.016-0.224,2.464-1.512,3.08-8.96
	l-0.056-3.64l3.416,1.12L99.816,100.856z M102.225,85.624c3.192,5.04,6.104,10.416,9.352,17.416l1.344,2.464l-7.784,3.696
	l-0.392-2.856c-1.568-7.392-3.472-14.056-5.544-19.096l-1.232-2.072l3.248-1.568L102.225,85.624z"/>
<path fill="#FFFFFF" d="M164.911,92.904c-0.448,0.728-0.728,1.288-0.952,1.848l-0.168,0.504l-0.84,2.352
	c-1.568,4.424-4.256,8.904-6.944,11.648c-3.752,3.808-8.4,5.656-14.112,5.656c-9.8,0-14.672-4.704-14.672-14.112
	c0-1.68,0.056-3.752,0.112-6.16c0.112-4.48,0.336-18.536,0.336-20.888c0-1.848-0.056-2.856-0.336-4.144h7
	c-0.336,1.624-0.392,2.24-0.392,4.76c0,3.64-0.056,4.816-0.28,22.568c-0.056,1.96-0.056,3.248-0.056,3.528
	c0,7,3.024,10.36,9.24,10.36c5.04,0,9.576-2.352,13.104-6.776c2.128-2.688,3.472-5.376,4.928-9.8
	c0.224-0.896,0.392-1.624,0.504-2.688L164.911,92.904z"/>
<path fill="#FFFFFF" d="M171.939,74.648c0.952,0.224,1.68,0.28,3.192,0.28l38.64-1.008c1.232-0.056,2.408-0.168,3.304-0.336v3.752
	c-0.896-0.112-1.456-0.168-2.072-0.168c-0.224,0-0.616,0-1.12,0.056c-3.248,0.112-6.72,0.84-10.08,2.24
	c-7.28,2.912-11.536,8.4-11.536,14.84c0,7.112,4.592,11.76,13.832,14c1.288,0.336,2.688,0.504,3.696,0.504l-2.184,6.832
	l-0.224-0.056l-0.728-0.224c-0.56-0.168-1.512-0.392-2.744-0.728c-5.768-1.792-8.96-3.528-11.816-6.552
	c-3.192-3.248-4.816-7.448-4.816-12.152c0-5.488,2.464-10.64,6.832-14.336c2.688-2.24,5.096-3.472,9.016-4.48l-28.056,0.84
	c-1.456,0.056-2.072,0.168-3.136,0.392V74.648z"/>
<path fill="#FFFFFF" d="M268.388,116.312c-2.24,0.056-4.48,0.112-6.552,0.112c-17.08,0-21.335-1.288-24.808-7.392
	c-2.072,2.688-4.088,4.816-6.384,6.888l-1.792,1.904l-4.088-5.544l2.352-1.008c2.016-0.952,4.368-2.296,6.328-3.64V88.704h-3.92
	c-1.344,0-1.96,0.056-3.696,0.28v-3.416c1.624,0.224,2.464,0.28,3.696,0.28h5.656c2.016,0,2.688,0,4.592-0.224
	c-0.28,1.848-0.336,2.632-0.336,4.928v16.52c2.744,3.192,6.048,4.032,15.68,4.032c9.296,0,19.152-0.448,23.856-1.064l-1.904,6.048
	c-1.12,0.056-1.344,0.056-3.584,0.112l-1.848,0.056L268.388,116.312z M231.036,67.48c2.352,1.456,4.984,3.416,7.896,5.712
	l2.128,1.512l-5.376,4.872l-1.344-2.296c-1.4-2.352-3.024-4.648-5.6-7.672l-1.68-1.456l2.24-2.016L231.036,67.48z M262.06,104.16
	c0,1.512,0.056,2.52,0.28,3.696h-6.104c0.224-1.4,0.224-1.512,0.224-3.696v-6.664h-6.832v7.56c0,1.288,0.056,1.512,0.336,3.752
	h-6.44l0.056-0.28l0.112-1.12c0.112-0.728,0.168-1.4,0.168-2.352V83.608v-0.616c0-1.4-0.056-2.408-0.336-4.032
	c1.68,0.168,2.576,0.224,4.648,0.224h11.48l-0.616-0.392c-1.904-1.12-3.192-1.904-6.44-3.696l-1.68-0.896l-2.128-0.728l1.624-2.352
	l1.568,0.784l1.288,0.392c2.52,0.84,3.248,1.064,5.488,1.848l0.952,0.336c1.456-1.008,3.248-2.52,4.536-3.808h-16.688
	c-1.344,0-1.904,0.056-3.696,0.28V67.48c1.792,0.28,2.408,0.336,3.696,0.336h18.816c3.472,0,5.6-0.056,7.728-0.224v2.184
	c-3.584,2.128-7.28,4.032-11.312,5.824c0.168,0.056,0.504,0.224,1.12,0.448l2.8,0.784l-2.744,2.352h6.832
	c2.072,0,3.024-0.056,4.648-0.224c-0.28,1.792-0.336,2.52-0.336,4.648v21.448c0,2.072-1.232,3.472-3.024,3.472
	c-1.4,0-3.248-0.336-5.936-1.064l-1.848-0.336l-0.448-2.8c1.456,0.224,3.024,0.392,4.312,0.392c0.952,0,1.232-0.28,1.232-1.4v-5.824
	h-7.336V104.16z M256.459,82.04h-6.832v4.816h6.832V82.04z M256.459,89.712h-6.832v4.928h6.832V89.712z M262.06,86.856h7.336V82.04
	h-7.336V86.856z M269.396,94.64v-4.928h-7.336v4.928H269.396z"/>
<path fill="#FFFFFF" d="M293.504,79.968c1.008,0.168,1.96,0.28,3.192,0.28l25.424-0.616c1.568,0,2.24-0.056,3.528-0.224l0.28,2.912
	c-0.504,0.392-0.784,0.672-1.792,1.68c-1.456,1.512-1.96,1.96-6.216,6.104c-2.912,2.856-4.368,4.312-5.712,5.656
	c1.624-0.784,2.856-1.064,4.536-1.064c2.24,0,3.92,0.84,4.816,2.52c0.784,1.456,0.784,1.512,0.784,7.224
	c0,3.08,0.168,4.088,0.84,4.704c0.728,0.672,2.184,0.952,4.76,0.952c3.248,0,6.328-0.392,9.072-1.176v6.048
	c-2.968,0.448-6.72,0.728-9.912,0.728c-4.592,0-7.336-0.672-8.904-2.128c-1.624-1.568-1.96-3.024-1.96-9.296
	c0-0.896,0-2.352,0.056-3.08v-0.504c0-1.904-0.616-2.744-2.128-2.744c-1.848,0-4.48,1.736-7.84,5.264
	c-4.928,5.04-10.472,11.368-11.424,12.936l-4.872-4.2c1.568-1.12,1.736-1.288,3.752-3.472c4.368-4.76,8.792-9.52,13.216-14.28
	c2.912-3.192,5.824-6.328,8.792-9.52l2.016-2.184L296.64,83.16c-1.176,0.056-2.128,0.168-3.136,0.336V79.968z M321.504,77.168
	c-3.36-2.184-12.32-5.88-16.688-6.832c-1.624-0.392-2.072-0.504-3.024-0.616l1.68-3.136c0.784,0.28,1.344,0.392,3.584,0.784
	c4.312,0.672,9.912,2.072,13.888,3.416l0.168,0.056l0.952,0.336c0.784,0.28,1.288,0.448,1.568,0.504
	c0.28,0.112,0.392,0.168,0.784,0.28L321.504,77.168z"/>
<path fill="#FFFFFF" d="M352.651,73.64c-0.896,0-1.456,0.056-3.136,0.392v-3.696c1.064,0.28,1.96,0.336,3.136,0.336h28.28v3.136
	l-18.872,14.224c2.128-0.952,5.88-1.568,9.408-1.568c10.192,0,17.024,5.376,17.024,13.328c0,9.632-7.896,15.736-20.44,15.736
	c-7.896,0-13.72-4.032-13.72-9.52c0-4.2,3.472-7.168,8.288-7.168c6.328,0,11.088,3.64,14.504,10.976
	c3.304-2.464,4.984-5.824,4.984-10.024c0-6.44-4.816-10.472-12.375-10.472c-5.208,0-10.248,1.568-14.336,4.424
	c-3.304,2.352-5.096,3.864-6.944,5.88l-0.112,0.112l-3.976-4.704c0.728-0.224,1.288-0.56,2.408-1.456l25.704-19.936H352.651z
	 M362.115,101.864c-2.968,0-4.816,1.568-4.816,4.144c0,3.752,4.536,6.608,10.584,6.608c1.456,0,3.024-0.168,4.144-0.504
	c0.112,0,0.112,0,0.28-0.056C369.787,105.504,366.147,101.864,362.115,101.864z"/>
<path fill="#FFFFFF" d="M410.925,85.344l-0.28,2.296c-0.336,6.888-1.456,14.784-2.8,20.608l-0.672,2.968l-7.616-2.912l1.456-2.352
	c2.632-5.712,4.76-12.32,6.048-18.984l0.224-2.464L410.925,85.344z M417.645,67.592c6.384,1.624,11.648,3.36,17.584,5.768l3.36,1.12
	l-4.424,7l-2.464-2.24c-6.664-4.592-11.256-7.168-15.512-8.736l-2.52-0.784l1.568-2.968L417.645,67.592z M439.708,100.856v1.736
	l0.056,1.512v3.024v2.8c-0.336,5.152-2.576,6.16-13.384,6.16c-9.52,0-11.088-1.008-11.088-7.168V82.936
	c0-1.176-0.056-1.792-0.392-3.752h7.392c-0.28,2.24-0.336,2.576-0.336,3.752v24.64c0,1.288,0.168,1.736,0.728,1.96
	c0.504,0.28,2.856,0.448,5.544,0.448c1.736,0,3.248-0.112,4.592-0.28l0.336-0.056l0.336-0.056c2.016-0.224,2.464-1.512,3.08-8.96
	l-0.056-3.64l3.416,1.12L439.708,100.856z M442.117,85.624c3.192,5.04,6.104,10.416,9.352,17.416l1.344,2.464l-7.784,3.696
	l-0.392-2.856c-1.568-7.392-3.472-14.056-5.544-19.096l-1.232-2.072l3.248-1.568L442.117,85.624z"/>
<path fill="#FFFFFF" d="M470.01,84.28h-3.08c-1.344,0-1.904,0.056-3.696,0.28v-3.416c1.736,0.224,2.464,0.28,3.696,0.28h3.08v-10.64
	c0-0.784-0.056-1.4-0.112-2.128l-0.168-1.064l-0.056-0.56h6.664c-0.28,2.24-0.336,2.576-0.336,3.752v10.64h2.632
	c1.4,0,2.016-0.056,3.696-0.28v3.416c-1.904-0.224-2.184-0.28-3.696-0.28h-2.632v17.584l2.856-1.008
	c0.728-0.28,0.952-0.392,2.016-0.784l1.904-1.064l1.12,2.744l-1.848,0.84c-4.929,3.248-10.024,6.216-14.84,8.624l-2.072,1.456
	l-2.8-6.832l2.464-0.448c2.24-0.616,3.136-0.896,5.208-1.512V84.28z M490.563,108.528c0,2.352,0.672,2.576,8.848,2.576
	c4.592,0,9.912-0.28,10.92-0.616c1.176-0.336,1.624-1.624,1.848-5.88l-0.111-2.632l3.023,1.008l-0.168,2.24
	c0.168,1.848,0.225,3.08,0.225,6.216c-0.28,4.48-1.904,5.04-15.121,5.04c-7.951,0-11.143-0.336-12.768-1.288
	c-1.568-0.952-2.296-2.576-2.296-5.264V87.472l-2.128,0.784l-2.744,1.12l-1.12-3.136l2.856-0.728l3.136-1.12V73.584
	c0-0.784-0.056-1.4-0.112-2.128l-0.168-1.064l-0.056-0.56h6.272c-0.28,2.24-0.336,2.52-0.336,3.752v8.792l5.039-1.792V69.888
	c0-0.784-0.056-1.344-0.111-2.072l-0.168-1.064l-0.057-0.56h6.217c-0.28,2.24-0.336,2.576-0.336,3.696v8.68l8.512-3.024h2.912
	c-0.112,1.68-0.168,2.464-0.168,3.752v19.6c0,2.016-0.952,3.192-2.576,3.192c-1.288,0-3.696-0.504-5.544-1.12l-1.736-0.336
	l-0.28-2.856c1.681,0.28,2.801,0.392,3.584,0.392c0.84,0,0.953-0.112,0.953-1.008V79.744l-5.656,2.016v19.824
	c0,1.288,0.056,1.512,0.336,3.752h-6.217l0.057-0.28l0.111-1.12c0.112-0.728,0.168-1.4,0.168-2.352V83.72l-5.039,1.792V108.528z"/>
<path fill="#FFFFFF" d="M553.243,98.056c4.592,1.4,9.296,3.36,15.903,6.664c1.849,0.896,2.072,1.008,2.688,1.232l-3.584,5.936
	c-2.743-2.856-9.688-7.224-15.008-9.52v2.464c0,7.056-4.088,10.472-12.544,10.472c-8.4,0-13.72-3.752-13.72-9.688
	c0-5.824,5.487-9.576,13.944-9.576c1.903,0,3.695,0.168,6.215,0.56V70.784c0-1.008-0.111-1.848-0.336-3.136h6.776
	c-0.224,1.176-0.336,2.184-0.336,3.136v8.848h14.112c0.951,0,1.848-0.112,3.136-0.336v3.64c-1.399-0.28-2.072-0.336-3.136-0.336
	h-14.112V98.056z M547.139,100.24c-2.855-0.728-5.319-1.064-7.615-1.064c-5.768,0-9.296,2.408-9.296,6.44
	c0,3.92,3.752,6.608,9.352,6.608c5.376,0,7.56-2.184,7.56-7.448V100.24z"/>
<path fill="#FFFFFF" d="M608.561,99.904c-0.561,0.784-1.008,1.68-1.345,2.968c-1.008,3.136-2.575,5.992-4.312,7.952
	c-1.68,1.904-3.248,2.688-5.208,2.688c-3.584,0-6.608-2.52-8.849-7.392c-2.631-5.712-3.695-12.936-3.695-24.864v-4.2
	c0-1.176-0.112-2.24-0.28-3.36l6.776,0.224c-0.225,1.12-0.336,2.576-0.336,3.808v3.976c0,10.248,0.783,16.296,2.744,20.944
	c1.455,3.472,3.135,5.208,4.983,5.208c1.399,0,2.632-1.064,4.312-3.808c1.345-2.184,1.961-3.808,2.24-5.936L608.561,99.904z
	 M624.8,104.944c0-1.12-0.056-2.016-0.28-3.528c-0.896-9.016-6.775-20.608-11.592-23.072l2.744-2.856
	c0.448,0.56,1.288,1.456,1.904,1.96c7.392,6.552,11.816,13.944,13.607,22.792c0.057,0.392,0.336,1.568,0.672,2.688L624.8,104.944z"
	/>
<path fill="#FFFFFF" d="M664.61,69.272c0-0.728-0.056-1.4-0.112-2.072l-0.168-1.12l-0.056-0.504h6.944
	c-0.28,2.128-0.336,2.52-0.336,3.696v2.408h11.703c1.288,0,2.129-0.056,3.696-0.28v3.416l-0.616-0.056l-0.783-0.112
	c-0.617-0.056-1.345-0.112-2.297-0.112h-11.703v5.712h18.088c1.344,0,2.071-0.056,3.695-0.28v3.416l-0.56-0.056
	c-1.288-0.168-1.792-0.224-3.136-0.224h-44.353c-1.344,0-1.96,0.056-3.696,0.28v-3.416c1.625,0.224,2.465,0.28,3.696,0.28h6.104
	v-6.832c0-0.784-0.057-1.4-0.112-2.128l-0.168-1.064l-0.056-0.56h6.943c-0.279,2.24-0.336,2.576-0.336,3.752v6.832h7.616V69.272z
	 M682.866,88.536c0-0.728-0.056-1.4-0.112-2.072l-0.168-1.12l-0.056-0.504h6.944c-0.28,2.128-0.336,2.52-0.336,3.696v23.24v0.616
	v0.448c0,1.288,0.111,2.296,0.336,3.864c-1.625-0.168-1.793-0.168-4.592-0.168h-36.289h-0.84c-1.623,0-2.352,0-3.808,0.168
	c0.336-1.792,0.392-2.688,0.392-4.928V88.704c0-1.176-0.056-1.736-0.392-3.696h6.944c-0.28,2.184-0.336,2.52-0.336,3.696v24.976
	h32.312V88.536z M655.707,98.112c-1.4,0-1.961,0.056-3.752,0.28v-3.416c1.735,0.224,2.52,0.28,3.752,0.28h8.063v-6.944
	c0-0.784-0.056-1.4-0.112-2.128l-0.168-1.064l-0.056-0.56h6.384c-0.28,2.24-0.336,2.576-0.336,3.752v6.944h8.512
	c1.288,0,2.128-0.056,3.696-0.28v3.416l-0.616-0.056l-0.784-0.112c-0.616-0.056-1.344-0.112-2.296-0.112h-6.775
	c2.463,2.688,5.543,4.928,8.959,6.496l2.072,0.728l-3.527,5.376l-1.793-1.624c-2.912-2.24-5.543-5.32-7.447-8.736v8.12
	c0,1.288,0.056,1.512,0.336,3.696h-6.384l0.056-0.28l0.112-1.12c0.112-0.672,0.168-1.344,0.168-2.296v-5.712
	c-2.744,2.856-6.16,5.6-9.296,7.336l-1.624,1.344l-1.736-2.408l1.904-1.008c3.024-2.632,5.88-6.216,8.063-9.912H655.707z
	 M656.435,86.408l0.84,0.728c1.903,1.624,2.688,2.352,3.976,3.64l1.4,0.896l-5.096,3.528l-0.561-1.904
	c-0.896-1.904-1.624-3.36-2.744-5.152l-0.896-1.008l2.353-1.68L656.435,86.408z M680.738,88.256l-1.792,1.512
	c-1.063,1.288-3.08,3.08-4.647,4.088l-0.953,1.008l-2.016-1.568l0.896-1.12c0.896-1.512,1.791-3.528,2.408-5.32l0.392-1.68
	L680.738,88.256z"/>
<path fill="#FFFFFF" d="M718.152,88.536c2.24,1.96,5.711,5.152,8.008,7.392l1.736,1.456l-4.929,4.368l-0.896-2.24
	c-1.008-2.184-2.129-4.256-3.92-7.168v21.504c0,1.232,0.056,1.456,0.336,3.696h-6.328l0.056-0.28l0.112-1.12
	c0.111-0.728,0.168-1.4,0.168-2.296V96.32c-2.072,4.816-4.313,8.904-6.776,12.488l-1.008,1.96l-2.521-1.736l1.345-1.624
	c3.192-5.88,5.823-13.384,7.672-21.896h-4.2c-1.4,0-1.96,0.056-3.752,0.28v-3.416c1.736,0.224,2.52,0.28,3.752,0.28h5.488V74.76
	c-2.576,0.448-4.032,0.616-6.328,0.896l-2.072,0.448l-1.119-2.8l2.575-0.336c5.712-1.456,10.696-3.36,13.944-5.32l2.184-1.456
	l4.76,5.544l-2.968,0.728c-2.52,0.672-3.696,0.952-5.319,1.232v8.96h4.144c1.344,0,2.071-0.056,3.696-0.28v3.416l-0.561-0.056
	c-1.287-0.168-1.792-0.224-3.136-0.224h-4.144V88.536z M748.336,113.848c0,1.232,0.056,1.456,0.336,3.696h-6.721l0.057-0.28
	l0.111-1.12c0.113-0.728,0.168-1.4,0.168-2.296v-12.32l-13.551,2.744l-2.912,0.784l-0.729-3.248l2.912-0.448l14.279-2.856v-28
	c0-0.784-0.055-1.4-0.111-2.128l-0.168-1.064l-0.057-0.56h6.721c-0.28,2.24-0.336,2.576-0.336,3.752v26.824l3.808-0.784l2.8-0.952
	l0.561,3.36l-2.801,0.448l-4.367,0.896V113.848z M730.527,85.176c2.912,1.792,5.041,3.248,7.28,4.928l2.185,1.176l-4.48,5.32
	l-1.288-2.24c-1.063-1.568-2.239-3.024-4.424-5.6l-1.12-1.4l-1.624-1.456l1.849-2.184L730.527,85.176z M731.424,71.736
	c3.248,2.016,5.152,3.36,7.448,5.152l2.071,1.176l-4.479,5.264l-1.288-2.184c-2.016-2.744-3.752-4.984-5.6-7.112l-1.568-1.456
	l1.792-2.128L731.424,71.736z"/>
<path fill="#FFFFFF" d="M773.284,112.056h37.743c1.345,0,2.072-0.056,3.753-0.28v3.416l-0.616-0.056l-0.784-0.112
	c-0.616-0.056-1.4-0.112-2.353-0.112h-39.871h-0.784c-1.399,0-2.24,0.056-3.864,0.224c0.28-1.624,0.336-2.576,0.336-4.704V74.088
	v-0.616c0-1.4-0.056-2.408-0.336-4.144c1.68,0.168,2.576,0.224,4.648,0.224h38.304c1.344,0,2.072-0.056,3.696-0.28v3.416
	l-0.561-0.056c-1.288-0.168-1.792-0.224-3.136-0.224h-36.176V112.056z M797.084,93.744c2.464,4.704,7.168,8.4,12.768,10.08
	l2.8,0.672l-3.695,5.936l-2.128-1.288c-5.712-2.8-9.8-7.224-11.816-12.992c-1.96,6.272-7.783,11.088-16.52,13.608l-1.904,0.84
	l-1.4-2.632l2.353-0.672c6.44-2.632,10.752-7.504,12.096-13.552H779.22c-1.344,0-1.96,0.056-3.696,0.28V90.72
	c1.625,0.224,2.465,0.28,3.696,0.28h10.808v-8.568h-5.151c-1.904,2.408-3.64,4.2-5.712,5.88l-1.512,1.68l-2.185-1.904l1.513-1.568
	c1.848-2.408,4.031-7.056,5.096-10.864l0.56-2.576l6.888,1.96l-1.399,2.352c-0.504,0.952-0.672,1.232-1.288,2.184h18.144
	c1.288,0,2.128-0.056,3.696-0.28v3.416l-0.616-0.056l-0.784-0.112c-0.615-0.056-1.344-0.112-2.296-0.112h-8.736V91h12.041
	c1.288,0,2.128-0.056,3.695-0.28v3.304l-0.615-0.056l-0.784-0.112c-0.616-0.056-1.345-0.112-2.296-0.112H797.084z"/>
<path fill="#FFFFFF" d="M832.258,113.848c0,1.232,0.056,1.456,0.336,3.696h-6.384l0.111-0.728l0.057-0.672
	c0.111-0.84,0.168-1.344,0.168-2.296V72.8c0-2.24-0.057-2.688-0.336-4.592c1.68,0.168,2.575,0.224,4.647,0.224h7.561
	c3.191,0,4.256,0,6.159-0.168v2.128c-2.239,5.6-4.76,10.472-7.783,15.288c5.04,4.144,7.504,8.904,7.504,14.56
	c0,4.592-1.736,7.616-4.424,7.616c-1.345,0-3.641-0.56-5.824-1.456l-1.792-0.392V113.848z M832.258,71.288v32.144
	c1.176,0.224,3.359,0.392,4.424,0.392c1.568,0,2.128-1.12,2.128-4.088c0-4.984-1.456-9.128-4.76-13.72
	c1.567-4.48,2.8-9.296,3.808-14.728H832.258z M866.922,109.984c0,1.232,0.336,1.4,2.855,1.4c2.464,0,3.36-0.224,3.64-0.896
	c0.28-0.56,0.616-3.36,0.616-4.872v-2.8l2.968,0.84l-0.111,2.296c0.168,4.256,0.224,5.096,0.224,5.712
	c0,4.256-1.399,5.096-8.512,5.096c-5.88,0-7.336-1.008-7.336-5.096V95.536h-3.584c-0.056,11.2-3.809,16.968-13.776,21.392
	l-1.792,1.12l-1.792-2.632l2.128-0.84c6.385-3.696,9.128-9.296,9.296-19.04h-3.863c-1.345,0-2.017,0.056-3.752,0.336V92.4
	c1.735,0.224,2.52,0.28,3.752,0.28h24.695c1.288,0,2.128-0.056,3.696-0.28v3.472c-2.016-0.28-2.184-0.336-3.696-0.336h-5.655
	V109.984z M850.401,76.272v4.144c0,0.952,0.057,1.456,0.28,3.36h-6.384l0.056-0.616c0.168-1.344,0.224-1.736,0.224-2.744v-3.024
	v-0.784c0-1.512-0.056-2.072-0.224-3.36c1.176,0.168,1.848,0.168,4.088,0.168h8.288v-4.144c0-1.176-0.056-1.736-0.392-3.696h6.943
	c-0.28,2.128-0.336,2.52-0.336,3.696v4.144h8.904c2.184,0,2.855,0,4.088-0.168c-0.224,1.344-0.224,1.904-0.224,4.144v3.024
	c0,1.12,0.056,1.568,0.336,3.36h-6.553c0.28-1.68,0.336-2.128,0.336-3.36v-4.144H850.401z M867.762,86.072l-0.784-0.112
	c-0.616-0.056-1.344-0.112-2.296-0.112h-9.24c-1.344,0-1.904,0.056-3.64,0.28v-3.416c1.624,0.224,2.408,0.28,3.64,0.28h9.24
	c1.288,0,2.128-0.056,3.696-0.28v3.416L867.762,86.072z"/>
<rect id="_x3C_スライス_x3E__1_" fill="none" width="878" height="119"/>
</svg>
