<?xml version="1.0" encoding="utf-8"?>
<!-- Generator: Adobe Illustrator 14.0.0, SVG Export Plug-In  -->
<!DOCTYPE svg PUBLIC "-//W3C//DTD SVG 1.1//EN" "http://www.w3.org/Graphics/SVG/1.1/DTD/svg11.dtd" [
	<!ENTITY ns_flows "http://ns.adobe.com/Flows/1.0/">
]>
<svg version="1.1"
	 xmlns="http://www.w3.org/2000/svg" xmlns:xlink="http://www.w3.org/1999/xlink" xmlns:a="http://ns.adobe.com/AdobeSVGViewerExtensions/3.0/"
	 x="0px" y="0px" width="29px" height="43px" viewBox="0 0 29 43" enable-background="new 0 0 29 43" xml:space="preserve">
<defs>
</defs>
<path fill="#FFFFFF" d="M21.546,43H0.788l-0.523-0.78c1.499-4.08,3.525-7.74,6.767-12.181c2.611-3.24,5.396-5.76,9.769-9.121
	c3.899-3.06,6.305-5.82,7.036-9.96c0.529-3,0.179-5.101-0.968-6.42c-0.949-1.08-2.223-1.68-4.323-1.68
	c-1.92,0-3.445,0.48-4.868,1.74c-1.15,1.08-2.043,2.4-2.903,4.56c-0.737,1.8-1.422,2.28-2.622,2.28c-1.021,0-1.603-0.78-1.285-2.581
	c0.317-1.8,1.94-4.2,4.397-5.88c1.972-1.32,4.602-2.28,7.842-2.28c3.18,0,5.551,0.84,7.196,2.4c1.794,1.74,2.626,4.5,2.002,8.041
	c-0.729,4.14-3.902,7.5-6.989,10.38c-3.568,2.88-6.851,5.161-9.667,7.861c-3.217,2.94-5.822,6.48-7.438,10.2h12.659
	c3.42,0,3.956-0.66,5.939-5.1l1.698,0.24L21.546,43z"/>
<rect id="_x3C_スライス_x3E__1_" fill="none" width="29" height="43"/>
</svg>
