<?xml version="1.0" encoding="utf-8"?>
<!-- Generator: Adobe Illustrator 14.0.0, SVG Export Plug-In  -->
<!DOCTYPE svg PUBLIC "-//W3C//DTD SVG 1.1//EN" "http://www.w3.org/Graphics/SVG/1.1/DTD/svg11.dtd" [
	<!ENTITY ns_flows "http://ns.adobe.com/Flows/1.0/">
]>
<svg version="1.1"
	 xmlns="http://www.w3.org/2000/svg" xmlns:xlink="http://www.w3.org/1999/xlink" xmlns:a="http://ns.adobe.com/AdobeSVGViewerExtensions/3.0/"
	 x="0px" y="0px" width="28px" height="44px" viewBox="0 0 28 44" enable-background="new 0 0 28 44" xml:space="preserve">
<defs>
</defs>
<path fill="#FFFFFF" d="M11.294,19.479c1.439,0,3.232-0.3,5.039-1.021c1.546-0.6,3.074-1.439,4.277-2.82
	c1.193-1.32,2.089-3,2.48-5.22c0.402-2.28,0.116-4.74-1.49-6.18c-0.883-0.78-1.977-1.38-3.657-1.38s-3.106,0.6-4.355,1.561
	c-1.188,0.96-2.152,2.34-2.939,4.08c-0.808,1.86-1.538,2.94-3.038,2.94c-1.021,0-1.603-0.78-1.285-2.58
	c0.317-1.8,1.941-4.2,4.397-5.88c1.972-1.32,4.602-2.28,7.842-2.28c2.64,0,4.863,0.66,6.44,1.92c2.094,1.74,2.977,4.561,2.352,8.101
	c-0.476,2.7-2,5.22-4.276,6.9c-1.663,1.26-3.921,2.16-6.385,2.52l-0.032,0.181c2.789,0.18,4.888,1.2,6.385,2.58
	c1.854,1.74,2.937,4.44,2.218,8.521c-0.614,3.48-2.191,6.301-4.442,8.521c-2.463,2.4-5.667,3.9-10.167,3.9
	c-3.48,0-5.94-1.02-7.596-2.52c-1.814-1.62-2.623-3.84-2.305-5.64c0.307-1.74,1.115-2.58,2.375-2.58c0.84,0,1.306,0.42,1.655,1.5
	c1.864,5.76,3.072,7.08,6.372,7.08c2.1,0,4.217-0.78,6.013-2.46c1.655-1.56,2.939-4.08,3.553-7.561c0.392-2.22,0.261-4.2-0.572-5.94
	c-0.834-1.74-2.093-2.76-4.186-3.48c-1.356-0.48-2.972-0.84-5.012-0.84L11.294,19.479z"/>
<rect id="_x3C_スライス_x3E__2_" fill="none" width="28" height="44"/>
</svg>
