<?xml version="1.0" encoding="utf-8"?>
<!-- Generator: Adobe Illustrator 14.0.0, SVG Export Plug-In  -->
<!DOCTYPE svg PUBLIC "-//W3C//DTD SVG 1.1//EN" "http://www.w3.org/Graphics/SVG/1.1/DTD/svg11.dtd" [
	<!ENTITY ns_flows "http://ns.adobe.com/Flows/1.0/">
]>
<svg version="1.1"
	 xmlns="http://www.w3.org/2000/svg" xmlns:xlink="http://www.w3.org/1999/xlink" xmlns:a="http://ns.adobe.com/AdobeSVGViewerExtensions/3.0/"
	 x="0px" y="0px" width="574px" height="68px" viewBox="0 0 574 68" enable-background="new 0 0 574 68" xml:space="preserve">
<defs>
</defs>
<path fill="#333333" d="M5.975,20.382h18.879l0.433-2.272l2.116,0.16c0.756,0.064,0.899,0.16,0.837,0.512
	c-0.062,0.353-0.158,0.353-1.201,0.641l-0.169,0.96h4.288l1.588-1.568l2.078,1.824l-0.113,0.641h-7.999l-1.163,6.594
	c-0.146,0.832-0.234,0.96-0.358,1.12c-0.205,0.256-0.651,0.608-0.956,0.704l-1.112,0.32c-0.171,0.063-0.604,0.159-0.795,0.159
	c-0.128,0-0.219-0.031-0.271-0.096c-0.053-0.063-0.085-0.607-0.086-0.96c-0.008-0.32-0.812-0.479-1.339-0.576l-1.522-0.256
	l0.107-0.608h4.352l1.129-6.401H6.233L5.975,20.382z M10.101,6.235l-0.29-0.896h12.031l0.677-3.842l2.547,0.256
	c0.564,0.064,0.697,0.225,0.651,0.481c-0.011,0.063-0.055,0.128-0.098,0.191c-0.15,0.128-0.284,0.16-1.364,0.48l-0.429,2.433h8.768
	l1.733-1.665l2.274,1.985L36.5,6.235H23.668l-0.474,2.688h6.783l0.875-1.152l1.7,1.249c0.397,0.288,0.508,0.385,0.475,0.576
	c-0.012,0.064-0.082,0.096-0.087,0.128c-0.113,0.096-0.22,0.16-1.024,0.544l-1.4,7.938l-2.028,0.256l0.203-1.152H12.884
	l-0.208,1.184l-2.008,0.32l1.97-11.171l2.206,1.28h6.367l0.474-2.688H10.101z M12.657,22.047c2.761,0.672,4.183,2.592,3.951,3.904
	c-0.129,0.736-0.832,1.089-1.28,1.089c-0.352,0-0.653-0.288-0.751-0.641l-0.264-0.864c-0.104-0.319-0.772-1.792-1.954-3.073
	L12.657,22.047z M13.567,13.437l-0.525,2.977h6.848l0.525-2.977H13.567z M13.725,12.54h6.848l0.48-2.721h-6.848L13.725,12.54z
	 M21.874,16.413h6.976l0.525-2.977h-6.976L21.874,16.413z M23.037,9.819l-0.474,2.689l6.97,0.031l0.48-2.721H23.037z"/>
<path fill="#333333" d="M40.154,29.856c0.113-0.097,0.238-0.256,0.313-0.319l1.18-1.249c0.824-0.864,2.573-2.978,3.771-5.602
	c0.708-1.473,1.046-2.849,1.351-4.577l2.726-15.46l1.919,1.089h16.863l0.886-1.217l1.969,1.537c0.058,0.032,0.339,0.256,0.299,0.479
	c-0.045,0.256-0.179,0.288-1.143,0.673l-3.956,22.437c-0.282,1.601-2.861,2.433-3.309,2.433c-0.288,0-0.373-0.063-0.362-0.479
	c0.072-0.96,0.027-1.249-0.973-1.377l-1.651-0.256l0.096-0.544l4.101-0.032l1.467-8.321h-7.808l-1.8,10.21l-2.093,0.257
	l1.845-10.467h-7.231c-0.408,1.408-1.216,4.353-3.534,6.978c-0.437,0.479-2.733,2.977-4.58,4.192L40.154,29.856z M48.832,18.206
	h7.167l1.151-6.529h-7.199L48.832,18.206z M51.193,4.635l-1.057,6.177h7.167l1.057-6.177H51.193z M58.021,18.174h7.872l1.146-6.497
	h-7.872L58.021,18.174z M59.324,10.78h7.872l1.115-6.146h-7.903L59.324,10.78z"/>
<path fill="#333333" d="M90.858,26.783c3.089-0.64,5.27-1.76,6.262-2.305c3.544-1.952,5.844-4.832,6.595-9.09
	c1.247-7.073-3.997-9.09-8.157-9.09c-0.672,0-0.997,0.032-1.36,0.096c0.599,0.961,0.949,1.696,0.751,2.817
	c-0.626,3.553-8.433,16.611-11.152,16.611c-0.928,0-4.858-2.209-3.819-8.098c1.445-8.193,9.379-12.548,16.099-12.548
	c6.399,0,10.67,3.906,9.491,10.596c-0.943,5.346-3.841,7.81-6.335,9.25c-2.595,1.473-5.562,2.145-8.384,2.368L90.858,26.783z
	 M81.845,16.926c-0.762,4.321,1.484,6.466,2.251,6.466c0.704,0,2.882-2.913,3.639-3.938c4.053-5.569,5.719-10.114,5.86-10.915
	c0.164-0.928-0.239-1.728-0.38-2.017C87.662,7.163,82.771,11.677,81.845,16.926z"/>
<path fill="#333333" d="M112.057,28.735c9.326-5.889,11.981-12.419,13.91-17.731c-1.723,0.16-5.002,0.608-5.727,1.088
	c-0.72,0.448-0.794,0.513-0.955,0.513c-0.288,0-0.713-0.672-0.854-0.961l-0.539-1.12c-0.293-0.512-0.563-1.344-0.755-1.888
	l0.633-0.32c0.619,1.024,1.161,1.76,2.985,1.76c1.344,0,4.242-0.287,5.679-0.447c0.071-0.224,0.286-0.896,0.351-1.089l0.576-2.176
	c0.034-0.192,0.234-0.961,0.33-1.505c0.091-0.513,0.311-1.761-1.755-2.209l0.241-0.64c1.487,0.096,2.483,0.256,3.503,0.64
	c0.478,0.192,1.466,0.576,1.387,1.024c-0.017,0.097-0.034,0.192-0.242,0.289c-0.108,0.063-0.691,0.287-0.831,0.352l-1.51,5.121
	l2.535-0.224l4.126-0.353l1.687-0.128l1.183-1.089l1.534,1.28c0.249,0.225,0.577,0.545,0.538,0.769
	c-0.062,0.352-0.489,0.416-1.147,0.513l-0.365,1.344c-0.89,3.233-1.067,3.873-2.266,7.586c-0.852,2.656-1.356,4.065-2.258,5.729
	c-1.546,2.785-4.216,3.586-4.919,3.586c-0.32,0-0.368-0.097-0.317-0.384l0.112-0.992c0.007-0.225-0.379-0.576-0.542-0.737
	l-3.055-2.815l0.378-0.513l3.299,1.792c0.558,0.288,1.088,0.545,1.728,0.545c1.344,0,1.903-1.537,3.024-4.449
	c0.794-2.145,2.243-6.914,3.222-11.011c-1.483,0.063-6.133,0.479-8.882,0.832c-2.085,5.473-3.316,8.642-7.332,12.547
	c-2.046,1.984-5.006,4.257-8.416,5.985L112.057,28.735z"/>
<path fill="#333333" d="M153.917,15.613c-0.079,0.447-0.417,2.721-0.507,3.232c-0.079,0.448-0.331,0.608-0.491,0.608
	c-0.128,0-1.56-0.769-1.419-1.568c0.022-0.128,0.182-0.673,0.242-0.832c0.143-0.448,0.295-1.313,0.38-1.793l0.84-5.665
	c0.164-0.929-0.8-1.633-1.14-1.889l0.266-0.416c0.617,0.128,1.048,0.224,3.521,1.44l6.953-0.416c0.124-0.704,0.632-3.585,0.61-4.001
	c-0.036-0.704-0.306-0.992-1.804-1.568l0.308-0.48c1.495-0.128,4.686,0.832,4.573,1.473c-0.028,0.16-0.228,0.384-0.539,0.512
	c-0.482,0.192-0.519,0.224-0.626,0.833c-0.18,1.024-0.383,2.176-0.533,3.2l7.826-0.288l0.943-0.991l2.297,1.855
	c0.084,0.063,0.365,0.288,0.32,0.545c-0.045,0.256-0.521,0.415-1.335,0.671c-4.029,9.059-7.359,16.517-21.24,19.205l-0.059-0.576
	c1.792-0.545,6.418-1.921,10.675-5.377c5.859-4.737,8.454-13.828,8.548-14.18c-7.17,0.192-10.232,0.32-17.585,0.833
	c-0.128,0.543-0.392,1.855-0.477,2.336L153.917,15.613z"/>
<path fill="#333333" d="M209.754,10.876c-3.343,3.713-6.853,7.65-15.081,12.579c-1.61,0.959-4.229,2.208-5.886,3.072
	c-1.308,0.704-1.485,0.8-1.763,1.473c-0.114,0.288-0.303,0.448-0.495,0.448c-0.736,0-2.925-2.465-3.324-4.193l0.408-0.32
	c0.357,0.513,0.942,1.376,2.061,1.376c2.4,0,9.597-4.16,11.351-5.216c6.706-4.098,10.604-7.875,12.311-9.571L209.754,10.876z
	 M187.802,4.538c1.677,0.288,8.49,1.569,7.926,4.77c-0.09,0.512-0.49,1.152-1.066,1.152c-0.256,0-0.464-0.097-1.032-0.864
	c-0.1-0.16-1.858-2.528-6.014-4.546L187.802,4.538z"/>
<path fill="#333333" d="M228.986,12.829c-0.529,0.096-1.646,0.255-3.42,0.703c-1.909,0.48-2.455,0.673-2.767,0.993
	c-0.544,0.543-0.62,0.607-0.812,0.607c-0.512,0-1.936-1.729-2.46-3.648l0.504-0.32c0.499,0.8,0.99,1.28,2.014,1.28
	c0.64,0,1.361-0.097,1.628-0.16l1.448-0.224l3.819-0.608c0.032,0,0.331-0.064,0.395-0.064c0.057-0.32,0.258-1.28,0.303-1.535
	l0.645-3.297c0.405-2.113,0.04-2.945-1.696-3.266l0.331-0.607c0.475,0.031,1.455,0.095,2.618,0.576l0.898,0.352
	c0.415,0.191,1.089,0.544,1.021,0.928c-0.022,0.128-0.109,0.256-0.19,0.353c-0.812,0.607-0.817,0.641-1.141,2.113l-0.692,3.2
	c-0.022,0.128-0.173,0.8-0.19,0.896l12.167-1.857l1.103-0.992l1.824,1.633c0.138,0.128,0.55,0.512,0.488,0.863
	c-0.028,0.161-0.153,0.32-0.415,0.354l-1.083,0.159c-0.294,0.032-0.838,0.576-1.101,0.801c-1.228,1.151-6.035,5.186-9.076,7.01
	l-0.284-0.385c2.23-1.76,5.898-5.505,8.057-8.13c-3.038,0.353-9.089,1.28-11.974,1.856c-0.335,1.537-0.776,3.681-1.168,5.538
	l-0.6,3.04c-0.929,4.545-1.065,5.313,5.079,5.313c1.472,0,5.947-0.16,7.284-0.48c0.133-0.031,0.755-0.288,0.883-0.288
	c0.224,0,1.557,1.152,1.455,1.729c-0.107,0.608-1.302,0.672-1.692,0.704l-2.134,0.128c-1.905,0.097-4.343,0.128-5.078,0.128
	c-7.52,0-8.738-0.896-7.931-5.473c0.09-0.513,0.303-1.537,0.406-2.305L228.986,12.829z"/>
<path fill="#333333" d="M260.544,8.443c0.477-2.528,0.184-3.041-1.074-3.713l0.379-0.512c2.271,0.736,3.747,1.792,3.648,2.176
	c-0.022,0.128-0.498,0.641-0.805,0.928c-0.112,0.097-0.197,0.576-0.226,0.737l-0.507,2.336l-1.724,9.41
	c-0.022,0.128-0.079,0.448-0.334,0.448c-0.192,0-1.612-1.024-1.487-1.728c0,0,0.022-0.128,0.078-0.257
	c0.386-1.28,0.435-1.377,0.599-2.305L260.544,8.443z M260.197,28.735c7.032-1.952,9.188-4.929,10.334-7.073
	c1.206-2.305,2.23-8.29,2.617-10.851l0.661-4.289c0.295-1.856,0.203-2.784-1.381-3.425l0.353-0.544
	c0.5,0.064,1.251,0.16,2.979,1.248c0.747,0.481,1.183,0.736,1.121,1.089c-0.006,0.031-0.043,0.064-0.087,0.128
	c-0.043,0.064-0.533,0.479-0.802,0.736c-0.112,0.096-0.186,0.512-0.208,0.64l-1.619,9.538c-0.869,4.93-1.955,7.459-4.851,9.73
	c-2.381,1.889-5.88,3.041-9.085,3.617L260.197,28.735z"/>
<path fill="#333333" d="M313.666,10.876c-3.343,3.713-6.853,7.65-15.081,12.579c-1.61,0.959-4.229,2.208-5.886,3.072
	c-1.308,0.704-1.485,0.8-1.763,1.473c-0.114,0.288-0.303,0.448-0.495,0.448c-0.736,0-2.925-2.465-3.324-4.193l0.408-0.32
	c0.357,0.513,0.942,1.376,2.061,1.376c2.4,0,9.597-4.16,11.351-5.216c6.706-4.098,10.604-7.875,12.311-9.571L313.666,10.876z
	 M291.713,4.538c1.677,0.288,8.49,1.569,7.926,4.77c-0.09,0.512-0.49,1.152-1.066,1.152c-0.256,0-0.464-0.097-1.032-0.864
	c-0.1-0.16-1.858-2.528-6.014-4.546L291.713,4.538z"/>
<path fill="#333333" d="M320.234,19.006c5.986-4.737,10.492-12.322,10.763-13.859c0.226-1.28-0.817-1.536-1.424-1.729l0.346-0.512
	c1.029,0.16,1.619,0.256,3.035,1.12c0.779,0.48,1.409,0.896,1.341,1.28c-0.028,0.16-0.274,0.288-0.375,0.319
	c-0.729,0.32-0.831,0.353-0.998,0.576c-0.038,0.033-1.203,1.921-1.614,2.626c1.844,0.063,4.086-0.129,6.024-0.417l2.195-0.288
	c1.383-0.225,1.479-0.225,2.319-0.991l1.953,1.439c0.541,0.385,0.576,0.544,0.553,0.672c-0.017,0.097-0.065,0.192-0.167,0.225
	c-0.113,0.096-0.208,0.096-1.053,0.352c-5.018,8.674-7.907,11.811-10.84,14.115c-4.605,3.617-11.165,5.249-12.804,5.474
	l-0.064-0.544c3-0.864,8.213-2.849,12.562-6.817c4.729-4.321,8.282-11.043,8.981-12.835c-1.862,0.224-7.441,0.831-8.945,0.831
	c-0.576,0-0.853-0.063-1.407-0.19c-3.161,4.319-6.013,6.881-10.082,9.633L320.234,19.006z M344.354,6.331
	c-0.404-0.608-0.858-1.12-2.418-2.433l0.292-0.384c1.958,0.512,2.786,0.896,3.733,1.696c0.417,0.352,0.951,0.96,0.821,1.696
	c-0.096,0.543-0.527,0.991-1.007,0.991c-0.288,0-0.478-0.191-0.584-0.319L344.354,6.331z M346.945,3.802
	c-0.639-0.735-1.825-1.632-2.847-2.367l0.271-0.448c4.913,0.991,5.158,2.688,5.056,3.264s-0.67,0.896-1.086,0.896
	c-0.128,0-0.347-0.032-0.558-0.288L346.945,3.802z"/>
<path fill="#333333" d="M351.534,28.288c6.032-3.905,8.802-8.002,10.443-16.58l0.45-2.368c0.48-2.721,0.053-3.201-1.338-3.842
	l0.239-0.448c2.04,0.225,4.188,1.473,4.103,1.954c-0.022,0.128-0.061,0.159-0.7,0.703l-0.619,2.784
	c-1.644,7.874-2.811,13.22-12.358,18.373L351.534,28.288z M370.757,6.011c0.26-1.473,0.014-1.889-1.447-2.496l0.352-0.545
	c1.712,0.097,4.241,1.537,4.128,2.177c-0.028,0.16-0.167,0.224-0.375,0.32c-0.66,0.288-0.688,0.448-0.823,1.217l-3.342,17.859
	c3.235-2.017,8.455-6.209,13.355-11.139l0.424,0.32c-2.91,3.616-6.952,7.489-7.528,8.033c-2.497,2.369-3.992,3.586-6.776,5.762
	c-0.248,0.864-0.265,0.96-0.521,0.96c-0.128,0-0.277-0.063-0.355-0.159l-1.847-2.049l1.228-0.608L370.757,6.011z"/>
<path fill="#333333" d="M397.217,16.509c-0.421,0.032-1.169,0.097-1.576,0.225c-0.235,0.064-1.049,0.32-1.24,0.32
	c-0.48,0-1.47-1.28-1.84-3.905l0.552-0.224c1.041,2.08,1.745,2.08,2.961,2.08c1.472,0,3.586-0.192,3.842-0.192
	c1.788-0.159,3.751-0.224,5.522-0.287l8.236-0.257c0.262-0.032,1.605-0.032,1.931-0.063c0.39-0.033,0.561-0.097,0.771-0.192
	c0.139-0.063,0.762-0.512,0.921-0.512c0.064,0,0.705,0.543,0.763,0.576c1.301,1.152,1.47,1.28,1.402,1.664
	c-0.051,0.288-0.339,0.288-0.436,0.288h-0.224c-1.263-0.097-1.417-0.128-2.729-0.128l-1.978-0.033
	c-4.437-0.063-8.773,0.033-11.628,0.257L397.217,16.509z"/>
<path fill="#333333" d="M442.982,14.877c5.676,4.833,7.278,9.537,6.872,11.843c-0.231,1.312-0.892,1.792-1.372,1.792
	c-0.736,0-0.801-0.544-0.898-1.439c-0.194-1.441-0.283-2.21-0.463-2.817c-6.299,1.248-7.678,1.44-16.981,2.849
	c-1.282,0.192-1.95,0.352-2.235,0.513c-0.176,0.095-0.813,0.8-1.004,0.8c-0.225,0-0.297-0.128-0.976-1.185
	c-0.677-1.056-0.965-1.601-1.259-3.2l0.45-0.192c0.235,0.48,0.68,1.408,1.686,1.505c0.251,0.031,1.568,0,1.856,0
	c2.708-4.289,6.408-10.755,6.463-10.883l2.92-5.313c0.19-0.353,1.086-1.984,1.289-3.137c0.147-0.833-0.42-1.248-1.241-1.856
	l0.367-0.447c1.962,0.671,4.201,2.304,4.094,2.912c-0.045,0.256-0.147,0.288-1.052,0.703c-0.069,0.033-0.243,0.289-0.291,0.385
	l-0.802,1.28c-3.506,5.729-8.644,13.636-10.616,16.292l3.187-0.288l9.988-1.12c2.414-0.257,3.134-0.352,3.925-0.479
	c-1.097-3.586-3.152-6.627-4.422-8.131L442.982,14.877z"/>
<path fill="#333333" d="M481.667,5.274c0.192,0,0.946-0.097,1.497-0.319c0.24-0.097,0.83-0.354,1.055-0.354
	c0.639,0,1.895,1.409,1.765,2.146c-0.051,0.288-0.388,0.385-0.548,0.385c-0.416,0-1.039-0.097-1.135-0.097
	c-0.777-0.128-2.153-0.128-2.378-0.128c-3.008,0-4.844,0.256-6.893,1.888c-2.38,1.889-5.768,5.313-6.592,9.986
	c-1.089,6.178,4.604,7.459,7.261,7.459c0.16,0,0.982-0.129,1.015-0.129c0.479,0,1.224,0.864,1.094,1.6
	c-0.13,0.737-0.962,0.737-1.218,0.737c-4.096,0-11.237-1.601-9.962-8.835c0.446-2.528,1.675-4.96,3.312-7.169
	c1.999-2.625,3.884-4.064,5.11-5.025c-2.974,0.352-9.681,1.185-12.464,2.272c-0.208,0.097-1.147,0.704-1.371,0.704
	c-0.097,0-1.884-0.384-2.677-3.873l0.605-0.352c0.573,0.928,1.051,1.664,2.587,1.664c0.192,0,0.864,0,1.885-0.16l4.438-0.671
	c2.729-0.417,5.352-0.769,8.452-1.121L481.667,5.274z M477.57,10.363c1.775,0.641,3.733,2.241,3.451,3.842
	c-0.102,0.576-0.594,1.184-1.169,1.184c-0.353,0-0.598-0.063-0.893-1.473c-0.26-1.248-1.356-2.656-1.745-3.169L477.57,10.363z
	 M481.272,8.604c2.951,0.864,4.001,2.528,3.781,3.777c-0.079,0.448-0.393,0.959-0.937,0.959c-0.352,0-0.604-0.031-1.144-1.504
	c-0.228-0.704-0.819-1.696-2.03-2.816L481.272,8.604z"/>
<path fill="#333333" d="M491.6,25.792c-0.258-1.985-1.604-2.882-2.292-3.33l0.275-0.479c0.617,0.128,2.156,0.479,3.157,1.152
	c1.728,1.089,2.243,2.881,2.023,4.129c-0.227,1.28-1.407,1.633-1.855,1.633c-0.769,0-1.054-0.737-1.094-1.057L491.6,25.792z"/>
<path fill="#333333" d="M0.755,50.891L0.53,49.994h13.599l1.981-11.233l2.584,0.224c0.122,0.032,0.59,0.097,0.528,0.448
	c-0.051,0.288-0.324,0.384-1.18,0.704l-1.738,9.857h9.088l1.945-2.144l2.552,2.4l-0.113,0.64H16.146l-2.878,16.324l-2.227,0.288
	l2.929-16.612H0.755z"/>
<path fill="#333333" d="M50.528,52.428c-1.467,3.969-2.961,7.905-6.532,10.915c-2.629,2.208-5.737,3.68-8.924,4.512l-0.186-0.576
	c4.338-1.376,7.929-4.32,10.583-8.481c1.246-1.984,2.317-5.153,2.659-6.369h-5.216l-0.258-0.896h15.071l1.217-1.28l1.862,1.601
	c0.143,0.097,0.385,0.353,0.357,0.512c-0.051,0.288-0.515,0.385-1.152,0.544c-1.68,7.17-2.657,11.074-4.431,13.156
	c-0.939,1.151-3.471,1.535-4.11,1.535c-0.16,0-0.353,0-0.464-0.096c-0.052-0.063-0.062-0.736-0.058-1.12
	c-0.025-0.225-0.642-0.353-0.828-0.384l-2.249-0.32l0.102-0.576h5.664c0.556-0.608,1.218-1.28,2.134-3.937
	c0.956-2.882,1.636-5.826,2.117-8.738H50.528z M37.289,53.836c2.27-1.984,3.631-3.169,6.185-6.401
	c3.089-3.904,4.078-5.89,5.258-8.226l2.858,1.216c0.207,0.096,0.455,0.32,0.41,0.575c-0.062,0.353-0.356,0.385-1.777,0.641
	c-3.308,4.61-5.815,7.938-12.437,12.644L37.289,53.836z M57.819,39.209c0.508,2.016,1.094,4.321,3.357,7.457
	c1.457,2.08,3.322,3.841,5.511,5.218l-0.282,0.512c-1.327-0.096-1.719,0.128-2.734,0.992c-4.387-4.16-5.826-7.97-6.429-13.987
	L57.819,39.209z"/>
<path fill="#333333" d="M79.483,50.987c1.205-2.112,1.444-2.561,1.873-3.36c-0.784,0.095-1.869,0.256-3.116,0.256
	c-1.889,0-2.234-0.576-2.916-2.881l0.568-0.32c0.749,1.377,1.396,1.697,2.613,1.697c1.151,0,2.893-0.257,3.748-0.385
	c0.331-0.608,0.771-1.473,1.064-2.049l0.658-1.376c0.11-0.256,0.273-0.64,0.318-0.896c0.13-0.736-0.424-0.864-1.86-1.248
	l0.235-0.608c3.71,0.192,4.571,1.12,4.521,1.408c-0.017,0.096-0.492,0.608-0.61,0.736c-0.497,0.64-1.368,1.952-2.313,3.681
	c1.48-0.224,2.903-0.672,3.208-0.769c0.203-0.063,1.045-0.479,1.236-0.479c0.353,0,1.322,0.672,1.22,1.248
	c-0.074,0.417-0.577,0.545-1.474,0.737c-2.069,0.479-2.502,0.575-4.206,0.8l-1.052,0.159l-8.104,14.02
	c-0.19,0.352-1.097,2.049-1.319,2.4c-0.321,0.544-0.514,0.736-0.738,0.736c-0.479,0-1.046-0.96-0.917-1.696
	c0.067-0.384,0.364-0.8,0.613-1.12c2.518-3.394,4.265-6.401,5.008-7.714L79.483,50.987z M97.594,49.899
	c-0.423-0.32-0.965-0.513-1.574-0.513c-0.928,0-1.742,0.448-2.275,0.928c-0.71,0.576-1.007,1.537-1.143,2.306
	c-0.293,1.664-0.195,4.736-0.134,7.298c0.451,0.159,6.382,2.272,5.966,4.448c-0.062,0.353-0.397,0.801-0.813,0.801
	c-0.384,0-1.071-0.641-1.266-0.801c-0.38-0.385-2.256-1.728-3.949-2.465c-0.025,0.32-0.038,0.576-0.094,0.896
	c-0.142,0.801-0.502,1.76-1.18,2.336c-1.194,0.961-3.981,1.345-5.357,1.345c-0.928,0-5.438-0.191-4.822-3.681
	c0.22-1.248,1.509-3.841,6.117-3.841c0.352,0,1.855,0,3.702,0.416c-0.021-3.328-0.03-5.089,0.229-6.562
	c0.367-2.08,1.258-2.784,2.593-3.456c1.302-0.673,1.998-0.801,2.564-0.929c-1.502-1.281-3.598-1.921-4.975-2.272l0.262-0.576
	c5.262,0.096,8.883,2.433,8.51,4.545c-0.102,0.576-0.61,0.736-0.833,0.736c-0.097,0-0.283-0.032-0.367-0.097L97.594,49.899z
	 M86.385,60.302c-1.952,0-3.979,0.607-4.295,2.4c-0.4,2.272,2.735,2.272,3.6,2.272c0.735,0,2.122-0.063,3.446-0.673
	c0.418-0.192,1.186-0.735,1.423-2.08c0.062-0.352,0.088-0.864,0.118-1.217C89.89,60.75,88.689,60.302,86.385,60.302z"/>
<path fill="#333333" d="M108.532,67.439l2.049-11.619l1.929,1.216h4l0.927-1.088l1.686,1.152c0.396,0.288,0.379,0.384,0.363,0.48
	c-0.057,0.32-0.469,0.479-1.052,0.703l-1.27,7.203l-1.971,0.287l0.243-1.376h-4.512l-0.485,2.752L108.532,67.439z M111.137,53.932
	l-0.258-0.896h6.048l1.347-1.472l1.551,1.728l-0.113,0.641H111.137z M111.22,46.026l-0.194-0.896h9.056l1.486-1.536l1.816,1.855
	l-0.102,0.577H111.22z M112.063,57.933l-0.982,5.569h4.512l0.982-5.569H112.063z M111.869,49.963l-0.29-0.896h6.08l1.271-1.408
	l1.52,1.729l-0.102,0.576H111.869z M113.21,41.993l-0.321-0.896h6.495l1.311-1.439l1.501,1.824l-0.09,0.512H113.21z M116.721,67.087
	c4.574-2.529,7.118-4.802,8.953-11.938l2.219,0.479c0.123,0.032,0.521,0.128,0.477,0.384c-0.04,0.225-0.141,0.257-1.024,0.545
	c-0.963,2.561-1.461,3.938-2.866,5.729c-1.955,2.562-4.382,4.162-7.518,5.25L116.721,67.087z M122.103,56.524l2.065-11.715
	l1.804,1.024h5.151c1.231-1.537,2.986-4.77,3.863-6.658l1.998,1.186c0.351,0.191,0.812,0.479,0.772,0.703
	c-0.051,0.288-0.255,0.353-0.548,0.384l-1.035,0.064l-4.218,4.321h3.296l0.864-1.089l1.583,1.186
	c0.149,0.063,0.429,0.287,0.389,0.512c-0.034,0.191-0.103,0.224-0.885,0.479l-1.49,8.45l-1.976,0.319l0.152-0.863h-2.911l0.92,0.225
	c0.218,0.031,0.772,0.159,0.71,0.511c-0.045,0.257-0.147,0.289-1.041,0.641l-1.496,8.482c-0.084,0.48,0.332,0.48,0.619,0.48h1.92
	c0.96,0,1.57-1.281,1.837-1.889l1.18-2.881h0.513l-0.615,3.488c-0.135,0.769-0.078,0.801,0.973,1.377
	c-0.791,1.76-2.422,1.76-3.35,1.76h-4.063c-1.024,0-1.183-0.735-1.019-1.664l1.857-10.53h-5.663l-0.237,1.345L122.103,56.524z
	 M125.687,46.73l-1.27,7.201h9.631l1.27-7.201H125.687z M125.663,39.785c3.848,1.407,3.815,3.584,3.725,4.097
	c-0.112,0.64-0.656,1.184-1.2,1.184c-0.384,0-0.591-0.096-0.9-1.792c-0.162-0.896-0.678-1.601-1.864-3.04L125.663,39.785z"/>
<path fill="#333333" d="M146.664,60.59l3.458-19.973l2.116,1.248h5.439l1.037-1.345l2.071,1.504c0.26,0.161,0.369,0.448,0.352,0.545
	c-0.051,0.288-0.521,0.416-1.26,0.608l-2.793,15.844l-2.098,0.287l0.237-1.345h-6.111l-0.412,2.338L146.664,60.59z M150.51,50.027
	l-1.242,7.042h6.111l1.242-7.042H150.51z M162.93,55.628c-0.397,1.345-1.373,4.705-4.788,7.554c-2.78,2.337-6.604,4.065-8.065,4.545
	l-0.154-0.576c7.432-3.68,10.379-7.329,11.705-14.851l2.247-12.739l2.321,1.536h6.816l1.106-1.376l1.736,1.408
	c0.058,0.032,0.529,0.447,0.483,0.704c-0.045,0.256-0.419,0.384-1.27,0.673l-3.866,22.469c-0.119,0.672-0.444,1.248-0.922,1.6
	c-0.64,0.545-2.25,0.961-2.538,0.961s-0.355-0.16-0.325-0.513c0.081-0.64,0.127-1.088-1.319-1.407l-1.634-0.353l0.134-0.576
	l4.453-0.032l1.656-9.026H162.93z M151.792,42.762l-1.129,6.401h6.111l1.097-6.401H151.792z M164.361,48.779l-0.609,3.456
	l-0.353,1.632l-0.158,0.896h7.584l1.087-5.984H164.361z M164.508,47.946h7.583l1.049-5.953h-7.583L164.508,47.946z"/>
<path fill="#333333" d="M192.523,40.425c0.677-0.032,1.253-0.032,1.478-0.032c2.655,0,3.463,0.864,3.401,1.217
	c-0.04,0.224-0.083,0.287-0.498,0.832c-0.466,0.641-1.284,4.192-1.47,5.249c-0.384,2.176-0.401,3.361,0.233,3.938
	c0.407-0.128,1.669-0.576,2.521-0.865l3.08-0.96l1.466-0.512c0.204-0.063,1.327-0.448,1.428-0.48
	c0.349-0.159,0.938-0.416,1.034-0.416c0.32,0,1.764,1.248,1.663,1.824c-0.045,0.257-0.356,0.385-0.585,0.416l-2.163,0.289
	c-1.736,0.224-7.444,1.567-10.837,2.849c-5.138,1.919-7.088,3.904-7.489,6.177c-0.7,3.969,4.036,3.969,9.603,3.969
	c0.8,0,2.24,0,3.083-0.064l2.294-0.128c0.651-0.063,1.884-0.159,2.447-0.447c0.107-0.063,0.601-0.32,0.792-0.32
	c0.384,0,1.567,1.088,1.466,1.664c-0.073,0.417-0.613,0.576-0.97,0.608c-2.768,0.448-6.368,0.544-8.32,0.544
	c-2.656,0-6.868-0.063-9.202-0.8c-1.366-0.417-3.16-1.856-2.658-4.705c0.796-4.514,6.348-6.786,10.148-8.193
	c-0.829-0.929-1.291-1.569-0.625-5.346c0.096-0.544,0.664-3.041,0.766-3.617c0.311-1.761-0.697-1.856-2.211-1.984L192.523,40.425z"
	/>
<path fill="#333333" d="M221.511,54.7c-0.702,0.896-1.858,2.369-2.112,3.809c-0.739,4.193,5.276,4.193,8.093,4.193
	c3.743,0,6.936-0.32,7.54-0.48l1.481-0.416c0.096,0,0.197-0.032,0.293-0.032c0.512,0,1.438,1.28,1.37,1.665
	c-0.096,0.543-1.237,0.671-1.371,0.704c-0.625,0.096-4.544,0.544-8.448,0.544c-3.232,0-5.129-0.129-6.895-0.641
	c-2.377-0.672-3.739-2.561-3.355-4.737c0.096-0.543,0.488-2.592,2.907-5.057L221.511,54.7z M226.469,49.259
	c0.881-0.641,2.202-1.601,4.74-3.104c0.139-0.064,1.42-0.8,1.42-0.8s-0.752,0.095-0.817,0.095c-0.715,0.064-2.753,0.192-4.769,0.192
	c-3.296,0-4.222-0.192-5.5-3.104l0.473-0.32c0.934,1.057,1.44,1.632,4.768,1.632c4.384,0,8.208-0.639,8.807-0.767
	c0.197-0.033,1.145-0.32,1.368-0.32c0.544,0,1.644,1.023,1.525,1.696c-0.062,0.352-0.48,0.544-1.431,0.672
	c-0.982,0.128-5.695,1.632-10.226,4.641L226.469,49.259z M238.005,39.913c1.244,0.384,4.892,1.472,4.468,3.872
	c-0.135,0.769-0.576,1.088-0.959,1.088c-0.448,0-0.594-0.256-0.757-0.607c-0.87-2.145-2.278-3.232-3.093-3.873L238.005,39.913z
	 M241.433,37.896c0.925,0.191,2.219,0.479,3.257,1.12c0.812,0.479,1.599,1.28,1.413,2.336c-0.102,0.577-0.486,1.12-0.998,1.12
	c-0.32,0-0.32,0-0.876-1.024c-0.986-1.663-1.749-2.239-3.047-3.04L241.433,37.896z"/>
<path fill="#333333" d="M280.788,57.518h-6.751c-0.319,0.352-0.355,0.384-0.431,0.446l-1.014,1.217
	c-1.159,1.313-2.462,2.528-3.922,3.553c0.064,0,0.303,0.097,0.335,0.097l2.612,0.608c2.187,0.479,4.271,1.729,4.863,2.177
	c0.254,0.191,0.73,0.576,0.606,1.279c-0.09,0.512-0.52,0.769-1.031,0.769c-0.416,0-0.682-0.128-2.978-1.44
	c-1.082-0.576-4.19-1.824-6.345-2.305c-2.521,1.408-5.259,2.24-7.958,2.849c-2.158,0.448-4.807,0.769-8.417,0.736l-0.148-0.608
	c7.971-0.384,12.996-2.752,14.328-3.585c-0.703-0.191-1.288-0.319-5.456-1.184l-1.417,1.504l-1.843-0.8
	c1.742-1.536,3.773-3.617,5.064-5.313h-8.415l-0.263-0.865h9.407c0.777-0.961,2.009-2.688,2.73-3.873h-5.92l-0.208,1.185
	l-2.131,0.288l1.676-9.507l1.766,1.058h4.319l0.66-3.745h-9.023l-0.262-0.865h23.998l1.729-1.824l2.312,1.952l-0.13,0.737h-9.983
	l-0.66,3.745h4.607l0.928-1.089l1.696,1.089c0.371,0.256,0.444,0.384,0.416,0.543c-0.045,0.257-0.179,0.288-1.168,0.641
	l-1.109,6.657l-2.11,0.353l0.214-1.217h-10.048l0.883,0.801c0.027,0.031,0.163,0.159,0.129,0.352
	c-0.062,0.353-0.158,0.353-1.225,0.417c-0.633,0.863-0.838,1.12-1.782,2.304h12.767l1.863-1.855l2.375,1.952L280.788,57.518z
	 M259.466,46.697l-0.92,5.218h4.224l0.92-5.218H259.466z M263.157,57.518c-0.167,0.223-0.453,0.575-0.571,0.703l-1.166,1.345
	c-1.083,1.248-1.208,1.408-1.79,1.984l6.546,0.8c2.018-1.28,3.667-3.008,5.171-4.832H263.157z M265.674,46.697l-0.92,5.218h4.544
	l0.92-5.218H265.674z M265.832,45.803h4.544l0.66-3.745h-4.544L265.832,45.803z M272.329,46.697l-0.92,5.218h4.704l0.92-5.218
	H272.329z"/>
<path fill="#333333" d="M288.757,66.543l-0.322-0.896h13.184l0.694-3.938h-9.855l-0.151-0.959h10.176l0.615-3.489h-11.296
	l-0.193-0.896h21.822L315.1,54.7l2.306,1.984l-0.102,0.576h-12.096l-0.621,3.521h6.592l1.675-1.696l2.466,1.984l-0.107,0.608H304.43
	l-0.7,3.969h9.279l2.078-1.984l2.475,2.112l-0.135,0.769H288.757z M292.182,42.762h6.752l0.671-3.81l2.713,0.224
	c0.191,0,0.628,0.064,0.566,0.417c-0.045,0.256-0.184,0.32-1.517,0.8l-0.353,2.369h3.615l1.669-1.665l2.291,1.889l-0.119,0.672
	h-11.264l-1.089,6.178c-0.09,0.513-0.005,0.576,0.507,0.576l7.002,0.031c0.544,0,0.59,0.097,0.706,0.353
	c0.215,0.416,0.265,0.672,0.22,0.929c-0.045,0.256-0.142,0.448-0.783,0.448h-8.287c-1.76,0-1.638-1.057-1.537-1.633l1.213-6.882
	h-2.879L292.182,42.762z M309.693,48.523c-0.814,1.535-2.565,4.929-8.464,7.168l-0.239-0.639c4.91-2.625,6.008-4.674,6.918-6.754
	c1.287-2.944,2.111-5.985,2.552-9.026l1.727,1.28h6.016l0.799-1.088l1.717,1.152c0.059,0.031,0.318,0.191,0.273,0.447
	c-0.045,0.256-0.147,0.288-1.03,0.576c-0.461,1.89-0.867,3.649-1.652,5.922c-0.543,1.632-1.493,4.289-2.497,5.634
	c-1.054,1.439-3.484,1.792-3.644,1.792c-0.288,0-0.411-0.032-0.292-0.704c0.028-0.16,0.102-0.576-0.009-0.673
	c-0.1-0.159-1.899-0.479-2.336-0.544l0.119-0.672l4.651-0.064c0.813-1.344,1.415-2.944,1.696-3.808H309.693z M310.14,47.627h6.239
	l0.751-2.625h-5.983L310.14,47.627z M311.464,44.105h5.984l0.627-2.657h-5.887L311.464,44.105z"/>
<path fill="#333333" d="M327.619,54.797l-0.226-0.896h13.535l0.576-3.266h-9.983l-0.226-0.896h10.367l0.407-2.304l-1.431,1.217
	l-0.413-0.385c2.515-2.464,4.745-5.313,6.557-9.058l2.247,0.863c0.239,0.097,0.462,0.289,0.422,0.513s-0.478,0.352-0.548,0.384
	l-0.973,0.256l-0.924,1.248h6.624l1.59-1.76l2.257,2.08l-0.096,0.545h-8.224c1.466,1.12,2.18,1.792,1.971,2.977
	c-0.175,0.992-0.964,1.472-1.54,1.472s-0.833-0.352-0.834-1.44c0.01-2.049-0.465-2.625-0.865-3.072h-1.504
	c-1.322,1.505-1.909,2.112-3.183,3.169l1.31,0.191c0.25,0.032,0.484,0.16,0.433,0.448c-0.039,0.225-0.141,0.256-1.008,0.64
	l-0.356,2.017h6.367l1.729-1.632l2.145,1.984l-0.096,0.544h-10.303l-0.576,3.266h9.247l1.901-1.889l2.316,2.112l-0.119,0.673h-7.328
	c0.499,0.256,0.617,0.318,0.577,0.543c-0.011,0.064-0.023,0.129-0.099,0.192c-0.082,0.096-0.739,0.384-0.949,0.479l-0.344,1.952
	h2.912l1.733-1.663l2.058,1.76l-0.141,0.8h-6.751l-1.174,6.658c-0.135,0.769-0.506,1.056-1.107,1.376s-1.372,0.704-2.012,0.704
	c-0.448,0-0.479-0.192-0.4-0.64c0.061-0.704-0.139-1.024-1.379-1.248l-1.826-0.353l0.096-0.544l4.73,0.032l1.087-5.986h-17.982
	l-0.194-0.896h18.303l0.591-3.167H327.619z M328.065,49.546c2.138-2.144,4.523-4.608,6.718-9.794l0.393-0.96l2.642,0.993
	c0.212,0.063,0.382,0.191,0.348,0.384c-0.045,0.256-0.211,0.288-1.445,0.576c-0.574,0.896-0.667,1.056-1.056,1.633h4.96l1.475-1.473
	l1.743,1.729l-0.113,0.64h-6.815c1.822,1.28,1.897,2.849,1.79,3.457c-0.068,0.384-0.423,1.312-1.351,1.312
	c-0.385,0-0.633-0.224-0.652-0.479l0.062-1.984c-0.006-1.057-0.463-1.729-0.874-2.305h-0.863c-2.338,2.913-4.143,4.802-6.544,6.626
	L328.065,49.546z M334.321,59.245c1.529,0.768,3.996,2.016,3.612,4.193c-0.107,0.607-0.664,1.408-1.336,1.408
	c-0.416,0-0.61-0.353-0.714-0.673l-0.486-1.952c-0.304-1.185-1.009-2.08-1.458-2.624L334.321,59.245z"/>
<path fill="#333333" d="M368.766,60.622c-0.031,0-0.214,0.128-0.327,0.224c-0.333,0.256-1.156,0.928-1.412,0.928
	c-0.416,0-2.564-1.248-2.191-3.361c0.04-0.224,0.094-0.352,0.16-0.543l0.55-0.032c0.073,0.672,0.207,1.729,1.039,1.729
	c0.672,0,1.583-0.448,2.039-0.672l5.635-3.105c0.276-1.567,0.44-2.497,0.976-4.993l0.474-2.144
	c-0.229,0.031-0.261,0.031-0.389,0.031c-0.587,0.063-3.413,0.48-4.021,0.48c-0.641,0-0.868-0.16-1.105-0.448
	c-0.77-0.896-0.925-1.825-1.031-2.497l0.563-0.287c0.67,1.279,1.045,1.696,2.005,1.696c1.439,0,2.898-0.289,4.362-0.609l0.858-3.776
	c0.448-2.177,0.267-2.241-1.839-2.816l0.279-0.673c3.3,0.161,4.675,1.248,4.613,1.601c-0.006,0.032-0.049,0.096-0.055,0.129
	l-0.637,0.896c-0.378,0.512-0.99,2.528-1.392,4.256c0.166-0.031,0.3-0.064,0.433-0.096c0.701-0.159,2.235-0.512,2.782-0.896
	c0.8-0.544,0.875-0.607,1.099-0.607c0.512,0,1.581,0.832,1.479,1.408c-0.062,0.352-0.832,0.544-1.259,0.608l-1.749,0.479
	l-2.876,0.704c-0.063,0-0.299,0.064-0.4,0.097c-0.475,1.6-0.967,4.032-1.5,6.689c3.657-1.505,6.372-2.562,9.443-2.562
	c4.192,0,6.732,2.656,6.071,6.401c-0.576,3.266-3.593,5.858-7.369,5.858c-2.688,0-4.848-1.537-6.288-2.625l0.41-0.513
	c0.324,0.161,0.382,0.192,0.472,0.225l1.704,0.864c1.087,0.545,2.281,0.673,3.177,0.673c2.56,0,5.418-1.697,5.96-4.77
	c0.525-2.977-1.604-5.058-4.452-5.058c-1.92,0-5.537,0.736-9.322,2.785c-0.036,0.384-0.709,4.385-0.808,5.121
	c-0.051,0.287-0.177,1.729-0.233,2.049c-0.288,1.632-1.898,2.784-2.379,2.784c-0.063,0-0.16,0-0.207-0.097
	c-0.147-0.256-0.362-1.216-0.454-1.601c-0.093-0.384-0.27-0.832-1.097-1.76L368.766,60.622z M374.031,57.261
	c-0.948,0.479-1.667,0.928-4.534,2.849l3.398,3.233L374.031,57.261z M389.342,47.914c0.242-0.096,0.418-0.192,0.446-0.352
	c0.04-0.225-0.899-1.793-3.881-3.394l0.384-0.544c4.99,1.281,7,4.578,6.797,5.73c-0.04,0.224-0.336,0.639-0.721,0.639
	c-0.224,0-0.998-0.512-1.205-0.607c-0.239-0.096-0.819-0.256-1.491-0.256c-1.12,0-2.354,0.287-2.953,0.415l-0.059-0.575
	L389.342,47.914z"/>
<path fill="#333333" d="M401.419,55.18c4.493-5.152,8.012-11.683,9.775-16.419l2.806,0.96c0.394,0.128,0.468,0.256,0.434,0.448
	c-0.034,0.192-0.179,0.288-0.483,0.384l-1.055,0.353l-1.144,1.952c-1.784,3.04-2.125,3.521-3.142,4.929
	c1.105,0.448,1.222,0.513,1.16,0.865c-0.051,0.287-0.153,0.319-1.099,0.607L405.5,67.247l-2.116,0.384l2.946-16.707l-0.917,1.024
	c-1.283,1.472-1.79,1.983-3.576,3.584L401.419,55.18z M411.235,46.697h11.358l1.735-1.855l2.213,2.145l-0.107,0.607h-14.879
	L411.235,46.697z M411.27,62.83l2.274-12.899l2.153,1.217h4.672l1.176-1.409l1.832,1.409c0.117,0.063,0.593,0.447,0.56,0.64
	c-0.04,0.225-0.206,0.256-1.457,0.641l-1.484,8.418l-2.186,0.415l0.282-1.6h-5.119l-0.479,2.721L411.27,62.83z M413.918,41.097
	h15.871l1.17-1.376l1.794,1.44c0.084,0.063,0.45,0.352,0.399,0.64s-0.152,0.32-1.253,0.577l-3.911,22.18
	c-0.175,0.993-0.373,1.569-0.877,1.89c-0.397,0.255-1.551,0.992-2.576,0.992c-0.447,0-0.434-0.257-0.421-0.513
	c0.057-0.863-0.092-0.928-1.551-1.184l-1.799-0.32l0.102-0.576h4.927l4.029-22.854h-15.519L413.918,41.097z M414.131,58.766h5.119
	l1.185-6.723h-5.119L414.131,58.766z"/>
<path fill="#333333" d="M444.741,45.706c0.066-0.192,0.111-0.448,0.15-0.672c0.203-1.152-0.016-1.729-1.333-2.785l0.416-0.544
	c2.09,0.673,3.823,2.816,3.653,3.777c-0.028,0.159-0.066,0.191-0.479,0.544c-0.559,0.448-2.294,3.392-2.904,6.85
	c-0.395,2.239-0.493,6.433,1.433,8.033l7.151-8.802l0.391,0.32l-4.993,7.266c-0.383,0.544-1.211,1.792-1.302,2.305
	c-0.022,0.128-0.051,0.287-0.041,0.416l0.038,1.057c0.008,0.319-0.254,0.896-0.798,0.896c-1.344,0-2.362-2.209-2.519-2.593
	c-1.29-2.849-1.173-6.594-0.666-9.474c0.153-0.864,0.342-1.761,0.646-2.754L444.741,45.706z M463.402,57.646
	c0.028-0.161,0.123-0.513,0.151-0.673c0.417-2.368-0.149-4.961-0.605-6.369c-0.926-2.913-2.336-4.353-3.339-5.377l0.448-0.545
	c1.638,1.057,2.888,2.497,3.879,4.129c2.468,3.969,1.702,8.866,1.6,9.442c-0.084,0.479-0.446,2.528-1.598,2.528
	c-0.032,0-0.448,0-0.595-0.256l-0.518-1.056c-0.288-0.545-1.679-0.641-2.244-0.704l-2.249-0.129l0.107-0.608L463.402,57.646z"/>
<path fill="#333333" d="M499.567,55.276c-1.303,1.76-3.015,4.032-5.864,6.401c-2.618,2.145-6.3,3.969-10.012,3.969
	c-0.896,0-3.742-0.192-4.696-2.4c-0.636-1.473-0.546-3.072,0.023-6.306c0.361-2.049,1.242-5.953,1.707-7.682
	c0.512-2.177,1.439-5.985,1.569-6.722c0.181-1.024-0.082-1.537-2.243-1.792l0.246-0.673c0.522-0.063,0.683-0.063,0.972-0.063
	c2.559,0,4.11,1.184,3.986,1.888c-0.04,0.225-0.769,1.089-0.903,1.313c-1.229,2.432-3.136,10.338-3.938,14.883
	c-0.457,2.593-0.815,5.537,3.761,5.537c1.566,0,4.27-0.448,7.08-2.049c3.947-2.239,5.909-4.48,7.829-6.656L499.567,55.276z"/>
<path fill="#333333" d="M521.683,46.986c-1.483,0.064-2.966,0.128-5.11,0.128c-3.807,0-4.832,0-5.543-3.041l0.536-0.319
	c0.84,1.408,1.034,1.76,5.417,1.76c1.279,0,3.308-0.064,4.982-0.128c0.017-0.096,0.088-0.32,0.1-0.384l0.271-1.536
	c0.473-2.497,0.257-2.721-1.88-2.945l0.081-0.64c0.816-0.096,1.04-0.096,1.297-0.096c1.728,0,3.599,0.64,3.485,1.279
	c-0.04,0.225-0.619,1.152-0.69,1.377c-0.176,0.448-0.525,1.889-0.752,2.816c1.584-0.096,2.753-0.192,3.57-0.288l3.113-0.416
	c0.357-0.032,1.084-0.16,1.4-0.32c0.176-0.096,0.707-0.385,0.835-0.385c0.512,0,1.54,1.249,1.483,1.569
	c-0.028,0.16-0.152,0.32-0.655,0.448c-0.604,0.16-5.237,0.672-8.733,0.896l-1.393,0.097c-0.52,2.4-0.599,2.849-0.916,4.833
	c0.128,0,0.779-0.063,0.875-0.063l3.972-0.385c0.262-0.032,1.232-0.096,1.822-0.353c0.24-0.096,0.792-0.319,1.016-0.319
	c0.096,0,0.213,0.063,0.304,0.096l0.724,0.608c0.144,0.097,0.529,0.448,0.479,0.736c-0.039,0.224-0.254,0.352-0.794,0.512
	c-1.311,0.353-6.902,0.673-8.711,0.768l-0.91,5.89c2.75,0.737,4.969,1.761,7.473,3.169c1.368,0.769,2.314,1.568,2.157,2.465
	c-0.085,0.48-0.478,0.896-0.926,0.896c-0.288,0-0.718-0.288-0.77-0.353c-0.207-0.096-0.991-0.736-1.192-0.864
	c-3.275-2.112-4.433-2.624-6.925-3.553c-0.323,2.017-0.392,2.401-0.631,2.849c-1.064,2.049-4.734,2.177-5.951,2.177
	c-2.623,0-4.354-0.704-4.857-1.12c-0.979-0.801-0.941-1.921-0.835-2.528c0.661-3.745,6.111-3.81,7.199-3.81
	c1.792,0,2.932,0.257,3.549,0.385l0.895-5.441c-0.544,0-2.437,0.031-3.589,0.031s-3.637-0.063-4.485-0.512
	c-0.668-0.385-0.946-1.344-0.771-2.337c0.085-0.479,0.226-0.735,0.372-1.024l0.591,0.097c-0.321,1.824,0.064,2.177,4.735,2.177
	c1.088,0,2.342-0.032,3.441-0.097L521.683,46.986z M515.27,59.949c-1.12,0-4.818,0.288-5.19,2.4
	c-0.322,1.824,2.347,2.113,4.139,2.113c0.384,0,2.335,0,3.751-0.769c0.96-0.544,1.092-1.473,1.402-3.233
	C517.733,59.949,515.429,59.949,515.27,59.949z"/>
<path fill="#333333" d="M560.004,45.706c-3.838,0.353-6.797,0.8-8.352,1.088c-0.128,0-3.388,0.704-3.388,0.704
	c-0.134,0.032-0.719,0.448-0.847,0.448c-0.576,0-1.777-0.992-2.585-3.488l0.537-0.32c0.603,1.12,1.256,1.408,2.728,1.408
	c0.96,0,2.625-0.191,2.919-0.225l3.198-0.352c1.799-0.225,4.009-0.416,5.994-0.608l0.339-1.92c0.333-1.889,0.028-2.336-2.309-2.881
	l0.102-0.576c3.35,0.063,5.284,1.249,5.199,1.729c-0.022,0.128-0.528,0.64-0.614,0.769c-0.239,0.448-0.65,1.504-0.838,2.752
	l5.721-0.32c0.383,0,2.357-0.128,2.528-0.192c0.21-0.096,1.216-0.543,1.312-0.543c0.225,0,0.453,0.16,0.617,0.319l0.728,0.769
	c0.105,0.128,0.761,0.769,0.682,1.217c-0.062,0.352-0.399,0.448-0.623,0.448c-0.353,0-0.874-0.128-0.938-0.128
	c-0.553-0.129-1.636-0.161-1.918-0.192l-2.953-0.128c-0.82-0.064-1.685-0.064-2.484-0.064c-1.408,0-2.315,0.064-2.966,0.128
	l-0.965,5.473c0.177,0.448,0.348,0.93,0.397,1.729c0.046,0.832-0.023,1.952-0.328,3.681c-1.214,6.881-4.198,8.93-11.086,10.786
	l-0.116-0.608c6.117-2.208,7.798-4.48,8.84-8.578c-0.457,0.417-1.604,1.473-3.523,1.473c-2.271,0-4.341-1.696-3.781-4.865
	c0.395-2.24,2.318-5.345,5.742-5.345c1.248,0,1.979,0.384,2.421,0.608L560.004,45.706z M557.001,50.219
	c-2.208,0-3.45,2.145-3.795,4.097c-0.575,3.266,1.407,4.002,2.526,4.002c1.92,0,3.093-1.568,3.499-3.873
	c0.254-1.44,0.013-2.433-0.152-2.944C559.011,51.339,558.505,50.219,557.001,50.219z"/>
<rect id="_x3C_スライス_x3E__1_" fill="none" width="574" height="68"/>
</svg>
