<?xml version="1.0" encoding="utf-8"?>
<!-- Generator: Adobe Illustrator 14.0.0, SVG Export Plug-In  -->
<!DOCTYPE svg PUBLIC "-//W3C//DTD SVG 1.1//EN" "http://www.w3.org/Graphics/SVG/1.1/DTD/svg11.dtd" [
	<!ENTITY ns_flows "http://ns.adobe.com/Flows/1.0/">
]>
<svg version="1.1"
	 xmlns="http://www.w3.org/2000/svg" xmlns:xlink="http://www.w3.org/1999/xlink" xmlns:a="http://ns.adobe.com/AdobeSVGViewerExtensions/3.0/"
	 x="0px" y="0px" width="395px" height="68px" viewBox="-0.056 -0.41 395 68" enable-background="new -0.056 -0.41 395 68"
	 xml:space="preserve">
<defs>
</defs>
<path fill="#333333" d="M7.999,5.503v9.055c0,2.848-0.608,5.664-1.824,8.255c-1.568,3.264-3.904,5.088-5.792,6.56l-0.32-0.48
	c2.784-2.944,5.535-5.792,5.792-13.759l-3.328,2.56c-0.192,0.416-0.48,1.088-0.576,1.184c-0.064,0.064-0.16,0.064-0.192,0.064
	c-0.064,0-0.16,0-0.384-0.32L0,16.511c0.384-0.16,1.216-0.448,1.503-0.576l2.176-0.928c0.768-0.32,1.792-0.768,2.24-0.992V3.007
	l2.176,1.6h7.679l-0.032-4.543l2.624,0.288c0.32,0.032,0.608,0.16,0.608,0.448c0,0.352-0.256,0.448-1.056,0.736v3.072h6.943
	l1.472-2.24l2.848,2.304v0.832H7.999z M1.28,4.511c2.112,1.44,3.488,3.456,3.488,4.768c0,0.832-0.736,1.536-1.344,1.536
	S2.592,9.887,2.56,9.695l-0.416-1.92c-0.128-0.64-0.512-1.472-1.216-2.848L1.28,4.511z M9.471,8.095L9.087,7.199h13.471l1.184-1.248
	l2.24,2.112c0.032,0.032,0.288,0.256,0.288,0.48c0,0.384-0.096,0.384-1.056,0.416l-1.76,0.576c-2.016,0.64-2.4,0.768-4.288,1.344
	c0.736,0.608,0.96,1.024,0.96,1.568c0,0.192-0.032,0.416-0.096,0.64h4l0.736-1.28l2.336,1.344c0.16,0.096,0.32,0.256,0.32,0.416
	c0,0.256-0.256,0.352-1.088,0.64v11.775c0,1.12-0.096,1.76-1.024,2.24c-0.352,0.192-1.12,0.576-1.6,0.576
	c-0.416,0-0.416-0.16-0.416-0.896c0-0.608-0.16-0.64-0.64-0.768l-1.44-0.32v-0.64h3.136v-3.712h-5.248v5.472l-1.888,0.352v-5.824
	h-4.992v6.016l-2.112,0.32l0.064-16.991l2.368,1.28h5.248c-0.736-1.216-1.408-1.888-4.352-3.104V9.439
	c2.304,0.192,3.744,0.672,4.896,1.088c1.184-0.608,2.016-1.12,3.647-2.432H9.471z M12.223,13.951v3.424h4.992v-3.424H12.223z
	 M12.223,18.271v3.296h4.992v-3.296H12.223z M19.103,13.951v3.424h5.248v-3.424H19.103z M19.103,18.271v3.296h5.248v-3.296H19.103z"
	/>
<path fill="#333333" d="M50.898,26.526c5.312-2.72,6.208-7.231,6.495-8.832c-3.104-1.312-6.56-1.984-9.215-2.176
	c-0.128,0.256-0.16,0.288-0.16,0.32l-1.248,2.368c-0.32,0.576-1.536,2.624-3.136,4.096c-0.352,0.32-1.6,1.344-3.136,1.344
	c-1.536,0-2.816-0.992-2.816-2.944c0-2.528,2.24-6.047,9.503-6.463c0.352-0.8,0.512-1.12,0.608-1.44l1.984-5.439
	c0.448-1.312,0.672-2.176,0.8-2.816c-0.704,0.096-4.768,0.8-6.047,1.568c-0.096,0.064-0.608,0.512-0.736,0.512
	c-0.416,0-0.672-0.384-1.216-1.12c-0.896-1.248-1.184-2.016-1.375-2.848l0.48-0.224c1.024,1.504,1.568,1.888,2.496,1.888
	c0.608,0,1.792-0.16,2.208-0.256l4.288-0.704c0.064-0.128,0.32-0.512,0.576-0.512c0.288,0,0.832,0.352,1.248,0.64
	c1.088,0.704,1.216,0.768,1.216,1.056c0,0.192-0.096,0.224-0.544,0.352c-0.288,0.064-0.576,0.704-0.736,1.088l-3.52,8l-0.16,0.32
	c3.712,0.32,4.768,0.544,8.959,1.696c0.288-1.568,0.384-4.288,0.384-4.704c0-1.248-0.672-1.632-1.952-2.048l0.16-0.576
	c0.512,0.064,1.632,0.192,2.368,0.576l1.344,0.704c0.096,0.064,0.64,0.352,0.64,0.64c0,0.064-0.384,0.736-0.448,0.832
	c-0.16,0.224-0.192,0.704-0.224,0.96l-0.48,3.744c0,0.032-0.032,0.416-0.032,0.48c1.888,0.704,3.456,1.44,4.192,1.856
	c1.088,0.576,1.792,1.088,1.792,1.856c0,0.416-0.192,0.864-0.672,0.864c-0.416,0-1.216-0.512-1.696-0.768
	c-1.056-0.672-2.784-1.504-4-1.983c-0.48,2.144-1.12,4.735-4.192,7.007c-1.952,1.408-5.056,2.56-6.208,2.912l-0.288-0.512
	c0.224-0.128,0.256-0.16,0.32-0.192L50.898,26.526z M38.931,20.574c0,1.472,1.152,1.824,1.664,1.824
	c1.536,0,2.912-1.696,3.296-2.144c1.44-1.792,2.24-3.584,2.784-4.832C42.322,15.455,38.931,17.918,38.931,20.574z"/>
<path fill="#333333" d="M87.957,25.374c2.976-0.64,4.959-1.76,5.855-2.304c3.2-1.952,4.992-4.832,4.992-9.087
	c0-7.072-5.6-9.087-9.759-9.087c-0.672,0-0.992,0.032-1.344,0.096c0.768,0.96,1.248,1.696,1.248,2.816
	c0,3.552-5.503,16.607-8.223,16.607c-0.928,0-5.248-2.208-5.248-8.096c0-8.191,7.167-12.543,13.887-12.543
	c6.399,0,11.359,3.904,11.359,10.591c0,5.344-2.464,7.808-4.704,9.248c-2.336,1.472-5.184,2.144-7.968,2.368L87.957,25.374z
	 M77.206,15.519c0,4.32,2.624,6.464,3.392,6.464c0.704,0,2.368-2.912,2.944-3.936c3.072-5.567,3.936-10.111,3.936-10.911
	c0-0.928-0.544-1.728-0.736-2.016C81.301,5.759,77.206,10.271,77.206,15.519z"/>
<path fill="#333333" d="M110.953,17.535c2.688-3.392,4.448-5.856,6.432-12.511l2.656,1.024c0.064,0.032,0.48,0.192,0.48,0.512
	c0,0.384-0.288,0.448-1.44,0.704c-2.912,5.919-5.216,8.479-7.583,10.783L110.953,17.535z M112.329,28.094l1.856-0.576
	c10.399-3.231,14.239-7.199,19.167-14.271l1.728,1.536c0.352,0.288,0.448,0.48,0.448,0.64c0,0.352-0.128,0.352-1.312,0.48
	c-5.631,7.199-9.343,9.887-20.126,12.511l-1.6,0.384L112.329,28.094z M119.433,17.535l4.384-0.032V0.256l2.56,0.128
	c0.448,0.032,0.832,0.224,0.832,0.448c0,0.256-0.352,0.416-0.48,0.48l-0.896,0.352v16.479c0,0.768-0.288,1.12-1.216,1.568
	c-0.544,0.256-1.44,0.576-1.696,0.576c-0.16,0-0.192-0.256-0.224-0.416c-0.16-1.056-0.576-1.28-1.216-1.408l-2.08-0.352
	L119.433,17.535z M129.928,5.151c1.952,0.832,5.503,3.424,7.072,5.375c1.792,2.176,2.048,2.848,2.048,3.648
	c0,0.896-0.48,1.408-1.056,1.408c-0.32,0-0.608-0.128-0.928-0.672c-0.128-0.224-0.704-1.408-0.864-1.664
	c-2.624-4.447-4.768-6.208-6.56-7.679L129.928,5.151z"/>
<path fill="#333333" d="M152.217,12.159c0.832-2.112,0.992-2.56,1.28-3.359c-0.768,0.096-1.824,0.256-3.072,0.256
	c-1.888,0-2.336-0.576-3.424-2.88l0.512-0.32c0.992,1.376,1.696,1.696,2.912,1.696c1.152,0,2.848-0.256,3.68-0.384
	c0.224-0.608,0.512-1.472,0.704-2.048l0.416-1.376c0.064-0.256,0.16-0.64,0.16-0.896c0-0.736-0.576-0.864-2.08-1.248l0.128-0.608
	c3.744,0.192,4.768,1.12,4.768,1.408c0,0.096-0.384,0.608-0.48,0.736c-0.384,0.64-1.024,1.952-1.664,3.68
	c1.439-0.224,2.784-0.672,3.072-0.768c0.192-0.064,0.96-0.48,1.152-0.48c0.352,0,1.44,0.672,1.44,1.248
	c0,0.416-0.48,0.544-1.344,0.736c-1.984,0.48-2.4,0.576-4.063,0.8l-1.024,0.16l-5.632,14.015c-0.128,0.352-0.736,2.048-0.896,2.399
	c-0.224,0.544-0.384,0.736-0.608,0.736c-0.48,0-1.216-0.96-1.216-1.696c0-0.384,0.224-0.8,0.416-1.12
	c1.92-3.392,3.136-6.399,3.648-7.711L152.217,12.159z M170.135,11.071c-0.48-0.32-1.056-0.512-1.664-0.512
	c-0.928,0-1.664,0.448-2.112,0.928c-0.608,0.576-0.736,1.536-0.736,2.304c0,1.664,0.64,4.735,1.152,7.295
	c0.479,0.16,6.783,2.271,6.751,4.447c0,0.352-0.256,0.8-0.672,0.8c-0.384,0-1.184-0.64-1.408-0.8
	c-0.448-0.384-2.56-1.728-4.384-2.463c0.032,0.32,0.064,0.576,0.064,0.896c0,0.8-0.192,1.76-0.768,2.336
	c-1.024,0.96-3.744,1.344-5.12,1.344c-0.928,0-5.472-0.192-5.472-3.68c0-1.248,0.832-3.839,5.439-3.839c0.352,0,1.856,0,3.776,0.416
	c-0.608-3.328-0.928-5.088-0.928-6.56c0-2.08,0.768-2.784,1.984-3.456c1.184-0.672,1.856-0.8,2.4-0.928
	c-1.728-1.28-3.936-1.92-5.375-2.272l0.16-0.576c5.279,0.096,9.311,2.432,9.311,4.543c0,0.576-0.48,0.736-0.704,0.736
	c-0.096,0-0.288-0.032-0.384-0.096L170.135,11.071z M160.76,21.47c-1.952,0-3.872,0.608-3.872,2.4c0,2.272,3.136,2.272,4,2.272
	c0.736,0,2.112-0.064,3.328-0.672c0.384-0.192,1.056-0.736,1.056-2.08c0-0.352-0.064-0.864-0.096-1.216
	C164.344,21.918,163.064,21.47,160.76,21.47z"/>
<path fill="#333333" d="M185.187,6.879c0.032-0.192,0.032-0.448,0.032-0.672c0-1.152-0.32-1.728-1.824-2.784l0.32-0.544
	c2.208,0.672,4.319,2.816,4.319,3.776c0,0.16-0.032,0.192-0.384,0.544c-0.48,0.448-1.696,3.392-1.696,6.848
	c0,2.24,0.64,6.432,2.848,8.031l5.6-8.799l0.448,0.32l-3.712,7.264c-0.288,0.544-0.896,1.792-0.896,2.304
	c0,0.128,0,0.288,0.032,0.416l0.224,1.056c0.064,0.32-0.096,0.896-0.64,0.896c-1.344,0-2.752-2.208-2.976-2.592
	c-1.792-2.848-2.336-6.591-2.336-9.471c0-0.864,0.032-1.76,0.16-2.752L185.187,6.879z M205.953,18.814
	c0-0.16,0.032-0.512,0.032-0.672c0-2.368-1.024-4.96-1.728-6.368c-1.44-2.912-3.104-4.352-4.288-5.375l0.352-0.544
	c1.824,1.056,3.328,2.496,4.608,4.127c3.167,3.968,3.264,8.863,3.264,9.439c0,0.48,0,2.528-1.152,2.528c-0.032,0-0.448,0-0.64-0.256
	l-0.704-1.056c-0.384-0.544-1.792-0.64-2.368-0.704l-2.271-0.128v-0.608L205.953,18.814z"/>
<path fill="#333333" d="M218.432,19.103h3.072l6.624-16.063l0.512,0.256l-4.928,15.807c-0.32,1.024-0.608,2.24-0.608,2.848
	c0,0.096,0,0.32,0.064,0.576l0.736,3.423c0.032,0.128,0.032,0.256,0.032,0.384c0,0.48,0,2.24-1.408,2.24
	c-1.056,0-1.632-1.216-1.504-2.048l0.384-1.984c0.064-0.32,0.096-0.672,0.096-1.12c0-2.815-1.568-3.328-3.104-3.647L218.432,19.103z
	 M218.848,7.807c2.271,0.64,4.543,2.336,4.543,3.968c0,0.608-0.384,1.12-0.928,1.12c-0.16,0-0.64-0.032-0.928-0.608l-0.672-1.312
	c-0.352-0.736-1.408-2.24-2.304-2.656L218.848,7.807z M221.151,0.928c2.112,0.672,4.928,1.536,4.928,3.52
	c0,0.48-0.256,1.184-1.024,1.184c-0.416,0-0.736-0.224-0.928-0.512l-0.992-1.664c-0.512-0.832-1.568-1.632-2.208-2.08L221.151,0.928
	z M238.622,5.759c2.912,1.344,4.896,2.88,5.631,3.488c1.856,1.568,2.752,3.36,2.752,4.224c0,0.512-0.384,1.056-1.024,1.056
	c-0.544,0-0.896-0.416-0.96-0.544l-1.024-1.792c-0.032-0.064-0.192-0.288-0.256-0.384c-5.632,0.768-7.231,0.959-11.551,1.375
	l-3.52,0.32c-0.192,0.608-0.256,0.768-0.544,0.768c-0.16,0-0.288-0.064-0.48-0.479l-1.056-2.304l4.128-0.064
	c2.24-4.896,2.912-6.783,4.288-11.135l2.72,0.928c0.128,0.064,0.48,0.224,0.48,0.512c0,0.32-0.128,0.32-1.248,0.576
	c-2.208,4-2.88,5.151-5.375,9.119l11.583-0.48c-1.76-2.24-2.624-3.04-4.863-4.704L238.622,5.759z M229.375,28.862V15.359l2.24,1.472
	h9.919l0.832-1.408l2.24,1.568c0.16,0.096,0.288,0.256,0.288,0.48c0,0.288-0.096,0.32-1.056,0.608v10.079l-2.048,0.192v-1.952
	h-10.399v2.176L229.375,28.862z M231.391,17.727v7.775h10.399v-7.775H231.391z"/>
<path fill="#333333" d="M257.76,17.15c-0.064,0.832-0.096,1.248-0.48,1.248c-0.192,0-0.352-0.128-0.64-0.64l-0.96-1.792l4.704-2.048
	V2.848l2.624,1.056h6.976V0l2.496,0.128c0.096,0,0.832,0.032,0.832,0.48c0,0.32-0.128,0.384-1.216,0.864v2.432h7.711l1.536-1.888
	l3.104,2.08l-0.032,0.704h-21.918v7.872c0,2.88-0.096,3.616-0.256,4.864c2.976-2.112,5.216-5.056,7.071-8.224h-5.664l-0.416-0.896
	h6.496c0.448-0.928,0.8-1.632,1.408-3.36l2.304,0.736c0.608,0.192,0.768,0.32,0.768,0.544c0,0.384-0.544,0.512-1.344,0.736
	l-0.672,1.344h8.063l1.376-1.664l2.688,1.792l-0.032,0.768h-9.695c1.344,1.248,2.272,1.952,3.296,2.656l2.944-2.56l1.568,0.992
	c0.512,0.32,0.544,0.448,0.544,0.608c0,0.288-0.128,0.288-1.312,0.32l-3.04,1.088c1.44,0.832,3.296,1.855,5.888,2.56v0.48
	c-1.024,0.224-1.568,0.512-2.112,1.408c-0.864-0.352-1.472-0.8-3.2-2.048v6.56l-1.888,0.192l-0.032-0.704h-3.232v4.992
	c0,0.832-0.096,1.248-0.32,1.504c-0.704,0.832-2.24,1.312-2.528,1.312c-0.224,0-0.256-0.416-0.256-0.544
	c-0.064-0.8-0.064-0.928-0.992-1.12l-1.792-0.416v-0.512h3.936l-0.032-5.216h-4.096v0.8l-1.984,0.192v-6.08
	c-1.6,1.376-2.048,1.664-3.84,2.72c-0.864,2.784-1.984,5.951-5.632,9.567l-0.48-0.48c1.76-2.176,4.16-6.271,4.352-11.455
	l0.032-1.472L257.76,17.15z M256.096,5.439c1.472,0.768,3.392,3.136,3.392,4.768c0,0.576-0.448,1.408-1.152,1.408
	c-0.544,0-0.864-0.48-0.928-0.992l-0.192-1.344c-0.224-1.6-1.024-2.848-1.504-3.552L256.096,5.439z M260.191,28.318
	c0.128-0.096,0.32-0.256,0.384-0.32l1.696-1.408c1.6-1.344,2.879-3.2,3.616-4.224l1.952,0.864c0.736,0.288,0.768,0.448,0.768,0.64
	c0,0.448-0.608,0.48-1.6,0.544c-2.016,2.144-4.864,3.68-6.56,4.32L260.191,28.318z M263.583,10.015
	c1.76,0.576,3.04,0.992,3.04,2.112c0,0.864-0.704,1.216-0.96,1.216c-0.352,0-0.64-0.32-0.768-0.608l-0.416-0.992
	c-0.16-0.416-0.768-0.96-1.12-1.312L263.583,10.015z M267.935,14.814v2.24h9.343v-2.24H267.935z M267.935,17.918v2.048h9.343v-2.048
	H267.935z M271.615,9.311c-1.184,1.952-1.728,2.656-3.616,4.608h9.087l0.256-0.576c-1.76-1.568-2.656-2.592-3.68-4.032H271.615z
	 M276.094,22.59c2.592,0.448,7.392,2.943,7.392,4.896c0,0.576-0.416,1.248-1.024,1.248c-0.512,0-0.672-0.192-1.984-1.952
	c-1.472-1.952-3.136-2.88-4.64-3.744L276.094,22.59z"/>
<path fill="#333333" d="M312.891,25.15c0.416,0,1.248-0.064,1.6-0.256c0.192-0.064,0.608-0.288,0.768-0.288
	c0.544,0,1.696,1.248,1.696,1.76c0,0.384-0.576,0.448-0.704,0.448c-1.856,0.224-5.695,0.32-7.231,0.32
	c-3.424,0-5.952-0.16-7.679-0.992c-1.024-0.48-2.144-1.696-2.144-3.584c0-3.168,3.456-5.087,8-6.943
	c-0.096-1.44-0.192-3.36-2.368-3.36c-4,0-7.711,5.056-7.808,5.216c-0.064,0.128-0.672,1.248-1.12,1.248
	c-0.576,0-0.96-1.152-0.96-1.632c0-0.224,0-0.48,0.768-1.088c1.152-0.928,5.312-5.792,6.943-8.416
	c-0.48,0.032-1.248,0.064-1.696,0.096L299.1,7.775c-1.984,0.096-2.528-0.192-3.648-2.848l0.512-0.256
	c0.704,1.056,1.184,1.6,3.392,1.6c0.96,0,3.616-0.224,4.448-0.288c0.896-1.248,1.728-2.72,1.728-3.2
	c0-0.608-0.608-0.736-2.016-0.992l0.096-0.736c2.496,0.128,4.768,0.768,4.768,1.6c0,0.224-0.48,0.704-0.768,0.992
	c-0.256,0.256-0.384,0.448-1.664,2.08c0.48-0.064,1.12-0.16,1.728-0.256l2.592-0.448c0.416-0.096,1.184-0.224,1.472-0.416
	c0.192-0.096,0.576-0.352,0.704-0.352c0.448,0,1.728,0.864,1.728,1.408c0,0.448-0.96,0.608-1.088,0.64
	c-1.856,0.32-4.064,0.608-8.319,1.12c-0.768,0.992-1.536,1.984-2.592,3.424l-1.312,1.76c0.832-0.416,2.656-1.344,4.64-1.344
	c3.008,0,3.264,2.24,3.456,3.744c0.288-0.096,0.896-0.32,1.088-0.384l5.408-2.08c0.16-0.064,1.024-0.416,1.024-0.928
	c0-0.288-0.288-0.512-0.928-0.992l0.416-0.544c0.416,0.256,0.96,0.544,1.504,1.056c0.928,0.832,1.536,2.048,1.536,2.56
	c0,0.512-0.448,0.512-1.248,0.512c-0.448,0-1.408,0.192-1.856,0.288l-2.784,0.64c-1.44,0.32-2.912,0.768-4.032,1.088
	c0.032,0.224,0.032,0.608,0.032,0.672l0.096,2.304c0.064,1.536-0.096,2.592-1.184,2.592c-0.768,0-0.832-0.704-0.832-1.12
	l0.064-2.656v-1.152c-3.328,1.376-6.72,2.816-6.72,5.472c0,3.04,4.896,3.04,7.424,3.04c0.448,0,1.12,0,2.144-0.064L312.891,25.15z"
	/>
<path fill="#333333" d="M4.768,50.159c0.096,1.088,0.192,1.952,0.192,3.168c0,5.087-1.632,7.456-3.168,7.456
	c-0.8,0-1.12-0.64-1.12-1.152c0-0.512,0.128-0.704,0.832-1.472c0.64-0.704,1.12-1.696,1.344-2.112
	c1.312-2.816,1.312-4.512,1.344-5.888H4.768z M22.814,58.446l-0.256,3.936c-0.032,0.768,0.352,1.152,1.248,1.6
	c-0.48,1.664-1.632,1.952-3.136,1.952h-8.512c-3.104,0-3.392-0.352-3.392-2.496V45.839l2.752,0.544
	c0.544,0.128,0.704,0.256,0.704,0.512c0,0.352-0.288,0.448-1.152,0.768l-0.064,15.455c0,0.48,0,0.832,1.152,0.864l1.376,0.064
	l5.216-0.032c1.408-0.032,1.664-0.32,1.888-0.736c0.256-0.48,0.672-1.664,0.928-2.496l0.672-2.336H22.814z M10.079,38.64
	c3.872,1.056,5.087,1.664,6.463,2.688c0.512,0.384,1.76,1.504,1.76,2.751c0,0.8-0.64,1.344-1.088,1.344
	c-0.352,0-0.576-0.288-0.672-0.352c-0.256-0.32-1.504-1.984-1.824-2.336c-1.44-1.472-2.88-2.56-4.736-3.488L10.079,38.64z
	 M22.718,49.103c6.624,4.191,6.624,7.967,6.624,8.255c0,0.928-0.544,1.76-1.312,1.76c-0.576,0-0.736-0.544-1.024-1.504
	c-1.376-4.479-2.816-6.144-4.608-8.127L22.718,49.103z"/>
<path fill="#333333" d="M48.703,61.646c0.192,0.128,0.512,0.288,0.704,0.288c0.224,0,0.416-0.128,0.576-0.448
	c1.824-3.2,2.912-8.607,2.912-11.231c0-1.824-0.8-3.168-3.04-3.168c-0.384,0-1.344,0.064-2.72,0.32
	c-0.992,2.208-3.232,7.423-4.928,11.231c-0.64,1.44-1.344,3.008-1.824,4.384c-0.608,1.632-0.8,1.792-1.056,1.792
	c-0.544,0-1.344-1.28-1.344-1.728c0-0.096,0.032-0.192,0.064-0.256c0.064-0.128,0.416-0.704,0.512-0.832
	c2.368-4.096,5.472-11.423,6.56-13.983c-0.8,0.256-2.272,0.736-3.456,1.376c-0.16,0.128-0.992,0.768-1.216,0.768
	c-0.288,0-0.832-0.416-1.088-0.64c-1.216-1.024-1.632-2.624-1.76-3.232l0.576-0.224c0.512,0.928,0.992,1.792,1.952,1.792
	c0.384,0,0.448,0,4.384-1.024c0.224-0.064,0.96-0.256,1.184-0.32c1.375-3.104,1.728-4.064,1.728-4.736
	c0-0.864-0.64-1.472-2.335-2.048l0.192-0.608c3.36,0.512,4.928,1.856,4.928,2.336c0,0.192-0.192,0.384-0.448,0.608
	c-0.224,0.224-0.448,0.672-0.64,1.088l-1.248,2.528c-0.032,0.064-0.16,0.384-0.192,0.48c0.704-0.128,1.184-0.192,1.888-0.192
	c4.16,0,5.023,2.528,5.023,4.896c0,4.928-1.984,9.792-2.751,11.423c-0.64,1.44-1.92,3.072-2.816,3.072
	c-0.352,0-0.704-0.32-0.768-0.736l-0.256-1.376c-0.096-0.608-0.896-1.376-1.568-1.92l-1.92-1.664l0.352-0.48L48.703,61.646z
	 M62.59,55.438c-0.192-2.816-1.984-5.824-2.496-6.655c-1.568-2.464-2.816-3.36-4.16-4.288l0.352-0.608
	c0.928,0.48,2.144,1.12,3.487,2.4c4.64,4.32,5.12,9.887,5.12,10.527c0,0.288-0.032,1.568-0.96,1.568c-0.096,0-0.288,0-0.416-0.192
	l-0.544-0.768c-0.416-0.608-1.408-0.8-2.048-0.864l-2.112-0.256v-0.576L62.59,55.438z M58.462,40.879
	c0.992,0.32,2.144,0.704,3.072,1.28c1.472,0.928,1.824,1.952,1.824,2.592c0,0.704-0.448,0.96-0.768,0.96
	c-0.224,0-0.48-0.032-1.024-1.024c-0.512-0.928-1.632-2.08-3.36-3.392L58.462,40.879z M60.67,38.479
	c4.864,0.832,5.376,2.784,5.376,3.584c0,0.672-0.48,0.928-0.832,0.928c-0.512,0-1.28-1.152-1.376-1.28
	c-0.736-1.12-1.632-1.76-3.36-2.848L60.67,38.479z"/>
<path fill="#333333" d="M80.399,62.926c0.096,0.608-0.32,0.832-0.64,0.832c-1.024,0-1.76-1.824-1.856-2.112
	c-0.896-2.304-1.312-4.416-1.312-7.456c0-2.144,0.256-4.543,0.608-6.783c0.128-0.608,0.8-3.68,0.8-4.384
	c0-1.216-0.736-1.792-1.792-2.528l0.256-0.512c2.176,0.64,4.256,2.816,4.256,3.392c0,0.224-0.128,0.416-0.384,0.736
	C78.447,46.351,78,51.855,78,53.967c0,1.632,0.032,3.328,0.832,4.799l4.16-7.52l0.512,0.256c-1.248,2.815-2.144,5.023-2.592,6.144
	c-0.192,0.544-0.928,2.464-0.768,3.616L80.399,62.926z M88.75,48.559c-2.304,0.16-3.072-0.192-4.255-3.008l0.48-0.256
	c1.184,1.6,1.76,1.76,3.104,1.76c1.44,0,4.544-0.192,6.24-0.48l-0.032-3.52c-0.064-2.399-0.288-3.04-2.624-3.52l0.128-0.608
	c2.72-0.096,5.087,1.056,4.832,1.76l-0.352,1.024c-0.128,0.32-0.128,0.928-0.128,1.088l-0.032,3.52c0.064,0,0.288-0.032,0.352-0.032
	l1.76-0.256c0.352-0.064,1.216-0.192,1.472-0.384c0.16-0.128,0.672-0.48,0.768-0.48c0.288,0,1.92,0.864,1.92,1.472
	c0,0.288-0.256,0.416-0.448,0.48c-0.32,0.128-4.896,0.672-5.824,0.8c0,1.248,0.032,3.2,0.032,4.384l0.064,3.68
	c0.064,3.328,0,7.551-8.671,10.591l-0.224-0.64c1.344-0.544,3.264-1.728,4.512-2.976c2.528-2.528,2.528-5.919,2.528-8.191v-6.624
	c-0.736,0.064-2.464,0.224-3.072,0.256L88.75,48.559z"/>
<path fill="#333333" d="M133.083,41.936c0.32-0.032,1.472-0.192,2.144-0.384c0.096,0,0.928-0.256,1.28-0.256
	c0.768,0,2.016,1.44,2.016,1.984c0,0.384-0.448,0.384-0.64,0.384c-0.512,0-2.976-0.16-3.52-0.16c-3.616,0-4.96,0.576-6.271,1.792
	c-2.048,1.855-4.672,5.695-4.672,10.111c0,1.664,0.352,3.68,1.728,5.055c2.336,2.336,6.175,2.528,6.527,2.528
	c0.192,0,1.152-0.16,1.216-0.16c0.448,0,1.312,0.768,1.312,1.472c0,0.576-0.704,0.832-1.44,0.832
	c-5.279,0-10.943-2.592-10.943-8.735c0-2.912,0.96-5.728,2.463-8.224c1.12-1.824,2.208-2.912,3.584-4.255
	c-1.92,0.256-2.944,0.384-4.384,0.64c-0.8,0.128-4.671,0.992-5.567,1.12c-0.288,0.032-1.568,0.256-2.112,0.672
	c-0.32,0.224-0.896,0.672-1.12,0.672c-0.64,0-1.664-1.12-1.92-1.408c-1.024-1.088-1.28-1.824-1.504-2.592l0.608-0.256
	c0.32,0.512,1.024,1.696,2.784,1.696c0.768,0,2.24-0.256,3.04-0.416c4.096-0.768,6.976-1.088,11.455-1.632L133.083,41.936z"/>
<path fill="#333333" d="M150.803,44.879c0.032-0.192,0.032-0.448,0.032-0.672c0-1.152-0.32-1.728-1.824-2.784l0.32-0.544
	c2.208,0.672,4.319,2.816,4.319,3.776c0,0.16-0.032,0.192-0.384,0.544c-0.48,0.448-1.696,3.392-1.696,6.848
	c0,2.24,0.64,6.432,2.848,8.031l5.6-8.799l0.448,0.32l-3.712,7.264c-0.288,0.544-0.896,1.792-0.896,2.304
	c0,0.128,0,0.288,0.032,0.416l0.224,1.056c0.064,0.32-0.096,0.896-0.64,0.896c-1.344,0-2.752-2.208-2.976-2.592
	c-1.792-2.848-2.336-6.591-2.336-9.471c0-0.864,0.032-1.76,0.16-2.752L150.803,44.879z M171.569,56.814
	c0-0.16,0.032-0.512,0.032-0.672c0-2.368-1.024-4.96-1.728-6.368c-1.44-2.912-3.104-4.352-4.288-5.375l0.352-0.544
	c1.824,1.056,3.328,2.496,4.608,4.127c3.167,3.968,3.264,8.863,3.264,9.439c0,0.48,0,2.528-1.152,2.528c-0.032,0-0.448,0-0.64-0.256
	l-0.704-1.056c-0.384-0.544-1.792-0.64-2.368-0.704l-2.271-0.128v-0.608L171.569,56.814z"/>
<path fill="#333333" d="M191.926,52.367c1.312-0.64,4.799-2.336,8.799-2.336c6.239,0,7.615,4.32,7.615,6.784
	c0,4.288-3.552,8.095-10.623,8.095c-5.44,0-6.848-2.4-6.848-3.968c0-1.952,2.08-2.751,3.648-2.751c3.488,0,6.815,2.688,7.455,4.607
	c0.672-0.288,1.632-0.736,2.528-1.728c0.96-1.056,1.792-2.816,1.792-4.672c0-1.632-1.024-5.28-6.208-5.28
	c-4.448,0-10.655,3.2-12.895,6.528c-0.128,0.16-0.512,0.672-0.832,0.672c-0.32,0-1.152-1.088-1.152-1.728
	c0-0.224,0.256-0.448,0.672-0.704c1.312-0.8,9.12-8.352,14.111-13.663c-1.375,0.16-2.144,0.256-3.295,0.448
	c-0.608,0.128-3.52,0.672-4.544,1.344c-0.128,0.064-0.608,0.576-0.768,0.576c-0.32,0-2.24-1.408-2.944-4.032l0.48-0.224
	c0.928,1.28,1.568,1.696,2.56,1.696c0.576,0,2.08-0.192,2.72-0.256l5.568-0.672c0.192-0.032,0.544-0.064,0.672-0.16
	c0.704-0.448,0.768-0.48,0.928-0.48c0.32,0,1.856,1.376,1.856,1.888c0,0.192-0.096,0.192-0.832,0.448
	c-0.416,0.128-3.808,3.2-4.063,3.456L191.926,52.367z M193.781,59.566c-1.28,0-1.792,0.896-1.792,1.568
	c0,1.375,1.855,2.624,5.248,2.624c1.248,0,2.048-0.192,2.784-0.352C199.381,62.222,196.821,59.566,193.781,59.566z"/>
<path fill="#333333" d="M217.363,46.735h7.04v-7.04l2.688,0.288c0.416,0.064,0.608,0.128,0.608,0.32
	c0,0.128-0.128,0.224-0.448,0.416l-0.896,0.448v5.536h4.608v-8.575l2.4,0.224c0.512,0.064,0.832,0.16,0.832,0.416
	c0,0.256-0.096,0.288-1.152,0.64v2.272h5.504l1.28-1.76l2.656,1.952v0.704h-9.439v4.128l9.471-0.032l1.28-1.855l2.88,2.144v0.576
	l-28.862,0.096L217.363,46.735z M220.723,66.83V48.815l2.751,0.192c0.416,0.032,0.736,0.192,0.736,0.416
	c0,0.256-0.128,0.32-1.376,0.928V64.27h18.303V48.815l2.464,0.128c0.16,0,0.672,0.032,0.672,0.448c0,0.256-0.096,0.288-1.056,0.64
	v16.063l-2.08,0.32v-1.248h-18.303v1.375L220.723,66.83z M223.41,54.67h7.552v-6.335l2.304,0.192
	c0.544,0.064,0.704,0.16,0.704,0.416c0,0.224-0.096,0.288-1.056,0.672v5.056h3.808l1.152-1.664l2.24,1.92v0.64h-7.2v1.024
	c4.448,0.896,6.208,2.752,6.208,4.128c0,0.48-0.352,0.992-0.896,0.992c-0.288,0-0.512-0.128-0.768-0.384
	c-0.16-0.16-0.896-1.088-1.056-1.28c-1.76-1.888-2.528-2.272-3.488-2.784v5.952l-1.952,0.544v-6.56
	c-3.136,3.52-6.144,5.216-6.88,5.536l-0.352-0.48c3.808-3.008,4.992-4.896,5.951-6.688h-5.792L223.41,54.67z M225.778,48.975
	c2.335,0.896,3.456,2.336,3.456,3.488c0,0.64-0.416,1.28-1.056,1.28c-0.32,0-0.768-0.256-0.832-0.544l-0.736-2.176
	c-0.192-0.64-0.8-1.28-1.12-1.6L225.778,48.975z M233.906,53.455c1.6-2.624,1.952-3.52,2.463-4.896l1.824,1.024
	c0.48,0.256,0.576,0.352,0.576,0.576c0,0.288-0.128,0.32-1.12,0.416l-3.328,3.232L233.906,53.455z"/>
<path fill="#333333" d="M256.713,66.734l-0.128-27.198l2.4,1.536l19.167-0.064l1.728-1.983l2.816,2.24v0.544l-24.094,0.128
	l0.192,21.598h20.318l1.696-2.08l3.008,2.208v0.704h-25.054v2.016L256.713,66.734z M260.617,52.975l-0.416-0.896h9.055l0.256-5.151
	h-3.392c-1.12,2.016-1.504,2.656-3.008,4.704l-0.544-0.16c1.824-4.607,2.112-5.792,2.72-8.767l2.784,0.736
	c0.224,0.064,0.416,0.192,0.416,0.384c0,0.288-0.128,0.32-1.248,0.64l-0.736,1.568h8.223l1.248-1.76l2.688,2.016v0.64h-6.944
	c-0.096,2.016-0.128,2.72-0.288,5.151l6.559-0.032l1.408-1.952l2.848,2.336v0.544h-10.975c-0.096,0.896-0.16,1.184-0.352,2.08
	c4.479,1.024,8.479,3.359,8.479,5.759c0,0.8-0.704,1.056-0.992,1.056c-0.544,0-1.792-1.568-2.335-2.208
	c0-0.032-1.792-2.24-5.408-3.968c-0.512,1.088-1.312,2.784-4.064,4.576c-1.568,1.024-3.04,1.536-5.215,2.208l-0.192-0.512
	c7.039-3.104,7.583-6.559,7.935-8.991H260.617z"/>
<path fill="#333333" d="M298.489,55.566c-2.688,1.28-4.704,2.112-7.392,2.976l-0.288-0.544c3.808-1.632,5.088-2.336,7.68-3.904
	v-2.144l1.952,0.992c2.624-1.6,3.296-2.112,5.376-3.776h-14.463l-0.416-0.896h12.127v-4.704h-8.704l-0.384-0.896h9.087v-4.64
	l2.72,0.16c0.16,0,0.608,0.064,0.608,0.448c0,0.32-0.096,0.384-1.152,0.8v3.232h3.52l1.376-1.568l2.336,1.664
	c1.28-1.568,1.6-2.048,2.624-3.488l2.56,1.824c0.064,0.032,0.352,0.224,0.352,0.48s-0.192,0.352-0.576,0.352h-0.032l-0.928-0.032
	l-2.624,2.688c-1.984,2.08-2.56,2.56-3.872,3.68h5.407l1.664-1.92l3.008,2.144v0.672h-11.199c-3.008,2.304-3.647,2.72-5.792,4.032
	h8.927l0.672-1.28l2.208,1.152c0.512,0.256,0.544,0.448,0.544,0.608c0,0.32-0.096,0.352-1.056,0.704v11.391l-2.144,0.224v-1.6
	h-11.647v2.176l-2.08,0.192V55.566z M300.568,58.222h11.647v-4.191H301.4l-0.832,0.416V58.222z M300.568,63.502h11.647v-4.384
	h-11.647V63.502z M305.24,48.271H307c2.272-1.984,3.168-2.848,4.736-4.704h-6.496V48.271z"/>
<path fill="#333333" d="M351.08,41.872c0.191,0,0.928-0.096,1.439-0.32c0.225-0.096,0.769-0.352,0.992-0.352
	c0.64,0,2.144,1.408,2.144,2.144c0,0.288-0.319,0.384-0.479,0.384c-0.416,0-1.056-0.096-1.152-0.096
	c-0.8-0.128-2.176-0.128-2.399-0.128c-3.008,0-4.8,0.256-6.56,1.888c-2.048,1.888-4.832,5.312-4.832,9.983
	c0,6.176,5.92,7.456,8.576,7.456c0.159,0,0.959-0.128,0.991-0.128c0.48,0,1.376,0.864,1.376,1.6s-0.832,0.736-1.088,0.736
	c-4.096,0-11.519-1.6-11.519-8.831c0-2.528,0.8-4.96,2.048-7.167c1.535-2.624,3.167-4.064,4.224-5.024
	c-2.912,0.352-9.472,1.184-12.063,2.272c-0.192,0.096-1.024,0.704-1.248,0.704c-0.096,0-1.952-0.384-3.359-3.872l0.544-0.352
	c0.735,0.928,1.344,1.664,2.88,1.664c0.191,0,0.863,0,1.855-0.16l4.319-0.672c2.656-0.416,5.216-0.768,8.256-1.12L351.08,41.872z
	 M347.879,46.959c1.888,0.64,4.128,2.24,4.128,3.84c0,0.576-0.384,1.184-0.96,1.184c-0.352,0-0.607-0.064-1.151-1.472
	c-0.48-1.248-1.824-2.656-2.305-3.167L347.879,46.959z M351.271,45.199c3.104,0.864,4.448,2.528,4.448,3.776
	c0,0.448-0.224,0.96-0.768,0.96c-0.353,0-0.608-0.032-1.408-1.504c-0.353-0.704-1.12-1.696-2.528-2.816L351.271,45.199z"/>
<path fill="#333333" d="M380.571,44.879c-3.775,0.352-6.655,0.8-8.159,1.088c-0.128,0-3.264,0.704-3.264,0.704
	c-0.128,0.032-0.64,0.448-0.768,0.448c-0.576,0-1.952-0.992-3.2-3.488l0.48-0.32c0.8,1.12,1.504,1.408,2.976,1.408
	c0.96,0,2.592-0.192,2.88-0.224l3.136-0.352c1.76-0.224,3.936-0.416,5.888-0.608v-1.919c0-1.888-0.384-2.336-2.816-2.88V38.16
	c3.36,0.064,5.504,1.248,5.504,1.728c0,0.128-0.416,0.64-0.479,0.768c-0.16,0.448-0.385,1.504-0.353,2.751l5.664-0.32
	c0.384,0,2.336-0.128,2.495-0.192c0.192-0.096,1.12-0.544,1.216-0.544c0.225,0,0.48,0.16,0.673,0.32l0.863,0.768
	c0.128,0.128,0.896,0.768,0.896,1.216c0,0.352-0.32,0.448-0.544,0.448c-0.353,0-0.896-0.128-0.96-0.128
	c-0.576-0.128-1.664-0.16-1.952-0.192l-2.976-0.128c-0.832-0.064-1.696-0.064-2.496-0.064c-1.408,0-2.304,0.064-2.943,0.128v5.472
	c0.256,0.448,0.512,0.928,0.703,1.728c0.192,0.832,0.32,1.952,0.32,3.68c0,6.879-2.624,8.927-9.184,10.783l-0.224-0.608
	c5.728-2.208,7.008-4.48,7.327-8.576c-0.384,0.416-1.344,1.472-3.264,1.472c-2.271,0-4.64-1.696-4.64-4.864
	c0-2.24,1.376-5.344,4.8-5.344c1.248,0,2.048,0.384,2.528,0.608L380.571,44.879z M378.364,49.391c-2.208,0-3.072,2.144-3.072,4.096
	c0,3.264,2.112,4,3.231,4c1.92,0,2.816-1.568,2.816-3.872c0-1.44-0.416-2.432-0.672-2.944
	C380.571,50.511,379.868,49.391,378.364,49.391z"/>
</svg>
