<svg xmlns="http://www.w3.org/2000/svg" width="112.284" height="119.678" viewBox="0 0 112.284 119.678">
  <g id="認証制度" transform="translate(56.518 60.21)">
    <g id="グループ_1041" data-name="グループ 1041" transform="translate(-53.876 -57.568)">
      <ellipse id="楕円形_21" data-name="楕円形 21" cx="53.5" cy="53.808" rx="53.5" ry="53.808" fill="none" stroke="#728e4d" stroke-miterlimit="10" stroke-width="5.284"/>
      <g id="グループ_1036" data-name="グループ 1036" transform="translate(23.334 22.623)">
        <g id="グループ_1035" data-name="グループ 1035" transform="translate(0 0)">
          <path id="パス_694" data-name="パス 694" d="M18.747,15.787a3.166,3.166,0,0,1,1.747.8,1.484,1.484,0,0,1,.605,1.041c0,.421-.2.537-.689.605a14.842,14.842,0,0,0-2.048.419c-3.728,1.127-5.089,2.3-5.089,3.662,0,.906.773,1.494,2.3,1.494a17.772,17.772,0,0,0,2.771-.167c.285-.052.47-.084.721-.152a3.165,3.165,0,0,1,.689-.118c1.159,0,1.713.472,1.713,1.058,0,.5-.32.706-.923.824a15.784,15.784,0,0,1-2.739.167c-.453,0-.938,0-1.393-.017-2.619-.1-4.13-1.174-4.13-2.973,0-1.292.94-2.737,3-3.795a9.846,9.846,0,0,1-.185-1.191c-.052-.453-.1-1.277-.251-3.593-.052-.672-.2-.822-.47-.923a1.728,1.728,0,0,0-.64-.118l-.067-.185A1.908,1.908,0,0,1,14.8,12.11a2.253,2.253,0,0,1,1.511.6c.453.352.539.64.539.856a1.262,1.262,0,0,1-.167.571,2.256,2.256,0,0,0-.219.923c-.017.3-.034.689-.034,1.125,0,.64.034,1.361.067,1.865.824-.354,1.545-.655,2.065-.94.354-.187.455-.285.455-.386a.706.706,0,0,0-.1-.32,2.752,2.752,0,0,0-.268-.4Z" transform="translate(-12.284 -11.421)" fill="#234646"/>
          <path id="パス_695" data-name="パス 695" d="M19.939,26.463c2.822-1.226,4.954-3.426,4.954-6.347,0-2.05-.756-2.5-1.479-2.5a2.826,2.826,0,0,0-2.048,1.024,8.889,8.889,0,0,0-.706.908c-.167.268-.352.421-.569.421a1.18,1.18,0,0,1-.874-.455,2.1,2.1,0,0,1-.588-1.341,3.484,3.484,0,0,1,.773-1.833,10.968,10.968,0,0,1,2.619-2.181A2.711,2.711,0,0,1,20.259,11.9l.167-.116c.689.839,1.528,1.09,3.426,1.243,1.075.082,1.578.569,1.578,1.258,0,.4-.285.657-.807.657-.468,0-1.191-.12-1.543-.12a3.294,3.294,0,0,0-1.462.421,4.315,4.315,0,0,0-1.511,1.326,1.773,1.773,0,0,0-.369.957c0,.285.152.369.32.369a1.482,1.482,0,0,0,.6-.234,5.5,5.5,0,0,1,2.771-1.009c1.915,0,3.258,1.444,3.258,3.627,0,3.711-2.855,5.741-6.649,6.413Z" transform="translate(-5.009 -11.789)" fill="#234646"/>
          <path id="パス_696" data-name="パス 696" d="M27.428,12.316a2.035,2.035,0,0,1,1.226-.519,3.586,3.586,0,0,1,1.292.283c.337.152.487.354.487.605a1.336,1.336,0,0,1-.067.436,1.224,1.224,0,0,0-.032.288,1.944,1.944,0,0,0,.015.285,5.95,5.95,0,0,0,.135.7,5.693,5.693,0,0,0,.923-.436,2.457,2.457,0,0,0,.571-.4c.1-.1.3-.185.79-.185.554,0,.889.285.889.687,0,.236-.133.438-.5.64a18.14,18.14,0,0,1-2.318.992c.185.62.438,1.359.689,1.964a12.273,12.273,0,0,0,1.427-.64,3.587,3.587,0,0,0,.605-.419,1.536,1.536,0,0,1,1.007-.369c.537,0,.856.3.856.706,0,.3-.2.554-.655.771-.554.268-1.6.723-2.719,1.142a10.883,10.883,0,0,0,1.644,2.335,1.855,1.855,0,0,1,.436,1.191c0,.738-.283.957-.637.957a1.309,1.309,0,0,1-.79-.369,5.718,5.718,0,0,0-3.524-1.092c-1.681,0-2.569.556-2.569,1.361,0,.908,1.041,1.612,3.157,1.612.369,0,.721-.017.938-.034.152-.017.47-.067.59-.067.788,0,1.46.4,1.46,1.024,0,.721-.605.841-1.747.841-3.541,0-5.389-1.277-5.389-3.024,0-1.545,1.545-2.468,3.861-2.468a16.485,16.485,0,0,1,2.571.15c-.4-.7-.706-1.258-1.075-2.03a13.99,13.99,0,0,1-3.292.605c-1.341,0-1.627-.5-1.627-1.092a1.892,1.892,0,0,1,.687-1.275A11.292,11.292,0,0,1,28.3,16.229a5.113,5.113,0,0,1-1.292.185c-.185,0-.369-.017-.556-.034a2.939,2.939,0,0,1-1.947-1.191l.15-.2a3.194,3.194,0,0,0,1.58.369,11.323,11.323,0,0,0,3.106-.539c-.167-.485-.352-1.056-.537-1.578-.17-.453-.371-.687-1.243-.687h-.1Zm.3,4.986c-.453.455-.672.756-.672.974s.15.352.588.352a11.584,11.584,0,0,0,2.872-.588c-.253-.652-.5-1.307-.756-2.013A8.133,8.133,0,0,0,27.731,17.3Z" transform="translate(1.728 -11.78)" fill="#234646"/>
          <path id="パス_697" data-name="パス 697" d="M33.346,13.864a1.928,1.928,0,0,1,.874-.268,3.444,3.444,0,0,1,1.226.32c.436.185.586.384.586.569a1.176,1.176,0,0,1-.165.487,4.274,4.274,0,0,0-.1,1.412c0,.082.034.1.1.1a4.453,4.453,0,0,0,1.543-.318,2.82,2.82,0,0,1,.992-.4c.738,0,1.108.3,1.108.655a.661.661,0,0,1-.62.689,13.481,13.481,0,0,1-2.217.318,1.88,1.88,0,0,1-.891-.268c.086,1.681.17,3.209.219,4.046a10.391,10.391,0,0,1,3,1.11c.588.335.874.738.874,1.125a.648.648,0,0,1-.672.689,1.275,1.275,0,0,1-.839-.421A7.341,7.341,0,0,0,36,22.31c.017,1.427-.856,2.065-2.485,2.065-1.226,0-2.316-.5-2.316-1.663,0-1.041,1.309-1.61,2.535-1.61.487,0,.839.015,1.058.015-.067-1.494-.167-3.441-.268-5.473-.034-.738-.084-1.024-.236-1.191a1.264,1.264,0,0,0-.906-.337ZM31.8,22.645c0,.386.386.773,1.277.773,1.344,0,1.678-.537,1.7-1.326a6.193,6.193,0,0,0-1.578-.2C32.49,21.889,31.8,22.108,31.8,22.645Z" transform="translate(9.398 -9.718)" fill="#234646"/>
          <path id="パス_698" data-name="パス 698" d="M38.681,26.463c2.82-1.226,4.954-3.426,4.954-6.347,0-2.05-.756-2.5-1.479-2.5a2.822,2.822,0,0,0-2.048,1.024,8.308,8.308,0,0,0-.706.908c-.167.268-.352.421-.571.421a1.18,1.18,0,0,1-.871-.455,2.085,2.085,0,0,1-.588-1.341,3.484,3.484,0,0,1,.773-1.833,10.878,10.878,0,0,1,2.619-2.181A2.711,2.711,0,0,1,39,11.9l.167-.116c.687.839,1.528,1.09,3.426,1.243,1.075.082,1.578.569,1.578,1.258,0,.4-.285.657-.807.657-.468,0-1.191-.12-1.543-.12a3.294,3.294,0,0,0-1.462.421,4.315,4.315,0,0,0-1.511,1.326,1.773,1.773,0,0,0-.369.957c0,.285.15.369.32.369a1.482,1.482,0,0,0,.6-.234,5.5,5.5,0,0,1,2.771-1.009c1.915,0,3.258,1.444,3.258,3.627,0,3.711-2.855,5.741-6.649,6.413Z" transform="translate(16.475 -11.789)" fill="#234646"/>
          <path id="パス_699" data-name="パス 699" d="M21.748,23.365A13.253,13.253,0,0,0,28.3,26.3l-.052.251a2.414,2.414,0,0,0-1.277,1.092c-.133.253-.217.369-.335.369A.993.993,0,0,1,26.3,27.9a10.473,10.473,0,0,1-4.752-4.115c.015,2.653.116,3.359.116,3.913,0,.436-.586.721-1.359.721-.337,0-.522-.152-.522-.421,0-.5.052-1.108.069-3.089a14.5,14.5,0,0,1-3.8,2.636c1.848.2,2.151.32,2.151.519,0,.219-.152.3-.522.5v1.125h.522c.318-.4.586-.756.957-1.159,1.376,1.159,1.444,1.26,1.444,1.429,0,.116-.086.2-.253.2h-2.67v.923c1.528.2,2.385.94,2.385,1.7a.816.816,0,0,1-.856.874.751.751,0,0,1-.738-.64,2.956,2.956,0,0,0-.79-1.528c.034,2.687.1,3.763.1,4.25,0,.419-.586.7-1.326.7-.318,0-.5-.15-.5-.4,0-.455.067-1.378.1-3.393a11.179,11.179,0,0,1-3.273,3.056l-.15-.2a16.613,16.613,0,0,0,3.089-5.338H14.681l-1.595.082v-.637l1.595.084h1.393c0-.7-.017-1.41-.067-2.114a18.14,18.14,0,0,1-2.7,1.058l-.082-.236A17.269,17.269,0,0,0,18.9,23.365H15.252l-1.678.086v-.64l1.678.084h4.617c0-.687-.032-1.393-.084-2.015,2.067.2,2.385.32,2.385.539s-.152.318-.62.519V22.9h3.307a8.661,8.661,0,0,1,1.157-1.511c1.865,1.311,2.05,1.58,2.05,1.747,0,.15-.1.234-.268.234Zm.5,6.8-1.41.082v-.637l1.41.084h.874c0-.94-.017-1.56-.067-2.131,1.9.2,2.2.3,2.2.5,0,.219-.15.3-.519.5v1.125h1.007c.337-.4.706-.871,1.092-1.292,1.528,1.208,1.7,1.393,1.7,1.563,0,.116-.084.2-.251.2H24.957A10.423,10.423,0,0,0,28.9,33.994l-.049.251a3.292,3.292,0,0,0-1.412.738c-.167.152-.268.236-.367.236s-.17-.084-.32-.236a10.051,10.051,0,0,1-2.015-4.314c.017,3.29.1,4.533.1,5.072,0,.419-.588.7-1.326.7-.32,0-.5-.15-.5-.4,0-.487.069-1.462.1-3.627A11.618,11.618,0,0,1,19.13,35.2l-.135-.2a14.468,14.468,0,0,0,3.846-4.834Z" transform="translate(-11.884 -1.368)" fill="#234646"/>
          <path id="パス_700" data-name="パス 700" d="M21.133,26.478a1.685,1.685,0,0,0,1.09.62,4.455,4.455,0,0,0,1.848-.689c2.87-1.477,4.331-1.9,6.3-1.9,2.855,0,4.887,1.681,4.887,4.132,0,2.569-1.915,3.812-3.544,4.5a19.792,19.792,0,0,1-6.347,1.294l-.017-.3a17.326,17.326,0,0,0,5.81-2.367c1.462-1.024,2.2-2.1,2.2-3.492a2.7,2.7,0,0,0-3-2.855c-1.681,0-3.526.788-5.827,2.535a4.93,4.93,0,0,0-.891.756.9.9,0,0,1-.7.3c-.738,0-1.663-.925-1.964-1.713a2.531,2.531,0,0,1-.086-.723ZM32.3,22.263a4.637,4.637,0,0,1,2.114.706A1.336,1.336,0,0,1,35,23.992a.666.666,0,0,1-.687.738c-.337,0-.539-.234-.773-.706A4.1,4.1,0,0,0,32.2,22.5Zm1.595-1.226a4.407,4.407,0,0,1,2.1.588,1.288,1.288,0,0,1,.672,1.108.649.649,0,0,1-.689.672c-.234,0-.453-.1-.7-.605a3.54,3.54,0,0,0-1.462-1.526Z" transform="translate(-2.43 -1.188)" fill="#234646"/>
          <path id="パス_701" data-name="パス 701" d="M33.55,21.217a2.826,2.826,0,0,1,2.2,1.007c.47.47.605.773.605,1.058a.758.758,0,0,1-.4.605,6.339,6.339,0,0,0-.79.453c-.771.571-1.09.839-1.831,1.462-.972.8-1.459,1.258-1.88,1.627a.977.977,0,0,0-.4.706c0,.268.236.47.79.906.957.756,1.865,1.5,2.67,2.217a10.174,10.174,0,0,1,1.964,2.148,2,2,0,0,1,.337,1.026,1.058,1.058,0,0,1-1.024,1.14c-.421,0-.605-.2-.856-.655a17.967,17.967,0,0,0-3.241-4.282c-.487-.47-.94-.854-1.444-1.309a1.3,1.3,0,0,1-.519-1.056,1.706,1.706,0,0,1,.569-1.228c1.243-1.309,2.335-2.518,3.292-3.726a2.293,2.293,0,0,0,.588-1.024c0-.219-.32-.573-.723-.841Z" transform="translate(7.707 -0.981)" fill="#234646"/>
          <path id="パス_702" data-name="パス 702" d="M36.077,21.021a3.6,3.6,0,0,1,1.479,1.208,1.523,1.523,0,0,1,.318.874,2.407,2.407,0,0,1-.234.891,14.673,14.673,0,0,0-.839,3.391c-.034.537-.017.839-.017,1.075l.067.017A24.765,24.765,0,0,1,38.614,24.4c.47-.8,1.024-1.393,1.779-1.393,1.629,0,2.82,2.015,2.82,5.256,0,4-1.745,6.649-6.48,7.774l-.1-.268c3.863-1.814,4.887-4.518,4.887-8.212,0-2.6-.62-3.76-1.41-3.76-.436,0-.923.637-1.344,1.595a14.517,14.517,0,0,0-1.041,3.207,7.754,7.754,0,0,0-.167,1.127c0,.47.118.955.118,1.309,0,.5-.2.822-.64.822a.9.9,0,0,1-.738-.386,5.5,5.5,0,0,1-.689-3.172,22.445,22.445,0,0,1,.571-4.3,10.96,10.96,0,0,0,.219-1.444,1.979,1.979,0,0,0-.118-.721,3.632,3.632,0,0,0-.352-.605Z" transform="translate(14.452 -1.206)" fill="#234646"/>
        </g>
      </g>
      <g id="グループ_1038" data-name="グループ 1038" transform="translate(16.956 63.005)">
        <g id="グループ_1037" data-name="グループ 1037" transform="translate(0 0)">
          <path id="パス_703" data-name="パス 703" d="M9.306,41.617A12.243,12.243,0,0,0,12.933,39.7c1.17.627,1.35.771,1.35.94s-.228.217-.457.217c-.06,0-.133-.013-.206-.013a12.252,12.252,0,0,1-4.278.929Zm6.46-9.787a.332.332,0,0,1-.193.277v1.073H18.61a9.146,9.146,0,0,1,.844-.94c1.23.964,1.253,1.047,1.253,1.133s-.071.144-.191.144H10.572l-1.206.06v-.457l1.206.06h3.7v-1.35h-2.9l-1.2.06V31.43l1.2.06h6.209a8.9,8.9,0,0,1,.794-.854c1.12.794,1.243.964,1.243,1.047s-.073.146-.193.146Zm1.687,2.687c.243-.554.386-.65.53-.65s.326.06.773.41c.421.337.481.47.481.59,0,.144-.144.277-.434.421v.543c0,2.46.084,3.314.084,3.556,0,.373-.494.543-1.037.543-.2,0-.324-.086-.324-.316H12.38v.036c0,.253-.373.507-1.013.507-.217,0-.337-.107-.337-.313,0-.29.071-1.144.071-4.061,0-.916-.011-1.17-.034-1.809a5.43,5.43,0,0,1,1.554.543Zm-4.917.337-.157.18v1.05h5.147v-1.23ZM12.38,36.42v1.23h5.147V36.42Zm0,1.567v1.29h5.147v-1.29Zm3.374,1.88a10.539,10.539,0,0,1,3.2.386c.59.2.974.494.974.916a.635.635,0,0,1-.7.661,1.565,1.565,0,0,1-.893-.431,6.8,6.8,0,0,0-2.627-1.363Z" transform="translate(-9.306 -30.61)" fill="#234646"/>
          <path id="パス_704" data-name="パス 704" d="M20.407,34.386h-3.75l-.1.133V41c0,.243-.3.483-.856.483a.271.271,0,0,1-.311-.3c0-.277.06-1.18.06-5.748,0-.856-.013-1.3-.049-1.857a4.926,4.926,0,0,1,1.337.47h1.013V32.676h-1.41l-1.2.06v-.457l1.2.058h1.41v-.361c0-.423-.024-.831-.06-1.29,1.47.109,1.713.206,1.713.386,0,.157-.086.206-.423.35v.914h1c.253-.3.483-.564.76-.88,1.146.833,1.217.942,1.217,1.062,0,.084-.06.157-.193.157H18.984v1.374h1.363c.2-.494.3-.567.421-.567.144,0,.24.036.6.326s.47.421.47.541c0,.157-.06.219-.35.339v.794c0,3.063.073,4.11.073,4.761a1.043,1.043,0,0,1-1.133,1.146c-.23,0-.253-.024-.3-.24a1.028,1.028,0,0,0-.818-.856l.011-.18a5.989,5.989,0,0,0,.749.047c.264,0,.337-.047.337-.337v-1.3a.17.17,0,0,1-.146.058h-1.4c.011,1.543.049,2.076.049,2.352,0,.251-.326.434-.833.434-.217,0-.313-.073-.313-.253,0-.313.024-.929.036-2.533H17.55l-.736.062v-.459l.736.06H17.8v-1.3H17.6l-.771.06v-.459l.771.062h.82a16.606,16.606,0,0,0,.446-2.037c1.144.288,1.217.361,1.217.494s-.073.193-.4.251a8.564,8.564,0,0,1-.929,1.292h.386a7.851,7.851,0,0,1,.507-.6,4.692,4.692,0,0,1,.76.7Zm-3.52.24c.82.255,1.266.713,1.266,1.23a.527.527,0,0,1-.543.567.4.4,0,0,1-.446-.408,2.129,2.129,0,0,0-.386-1.243Zm3.52,2.279a.2.2,0,0,1-.133.036H19.091a.276.276,0,0,1-.228.277v1.024h.24a7.747,7.747,0,0,1,.519-.65,4.737,4.737,0,0,1,.783.771Zm6.061,3.844a2.157,2.157,0,0,0-1.013.434c-.12.1-.191.159-.24.159-.071,0-.12-.073-.191-.217a11.576,11.576,0,0,1-.929-4.979,10.845,10.845,0,0,1-.676,3.086,4.82,4.82,0,0,1-2.241,2.518l-.133-.12a5.767,5.767,0,0,0,1.5-2.747,15.659,15.659,0,0,0,.4-3.81H22.8l-.9.062v-.459l.9.06h.144v-1.41c0-.964-.024-2.194-.047-2.6,1.53.17,1.723.24,1.723.41s-.133.24-.446.373v2.58c0,.23,0,.446-.011.65h.361c.23-.3.4-.541.676-.844,1.06.831,1.133.916,1.133,1.037,0,.084-.06.144-.182.144h-1.94a9.4,9.4,0,0,0,2.327,5.51ZM24.6,31.759c1.06.264,1.507.76,1.507,1.314a.65.65,0,0,1-.627.676.474.474,0,0,1-.53-.507,2.122,2.122,0,0,0-.459-1.339Z" transform="translate(-2.618 -30.553)" fill="#234646"/>
          <path id="パス_705" data-name="パス 705" d="M23.947,32.958c.217-.266.41-.494.71-.807,1.062.831,1.123.9,1.123,1.011,0,.073-.073.133-.193.133h-3.82l-.916.06V32.9l.916.06ZM23.563,37.7c.191-.459.324-.58.444-.58.146,0,.266.026.674.326.376.277.41.4.41.507,0,.133-.131.253-.361.361v.41c0,1.073.06,1.749.06,1.953,0,.363-.337.567-.807.567a.316.316,0,0,1-.363-.35v-.363H22.333v.689c0,.228-.29.444-.856.444-.193,0-.29-.094-.29-.277,0-.2.036-1.133.036-2.867,0-.554-.013-.856-.036-1.326A5.62,5.62,0,0,1,22.5,37.7ZM23.5,31.428c.217-.266.434-.494.676-.747,1.024.794,1.037.854,1.037.951,0,.073-.073.133-.193.133H22.271l-.914.06v-.457l.914.06Zm-.034,3.05a8.172,8.172,0,0,1,.648-.723c1.013.758,1.062.831,1.062.927,0,.073-.073.133-.193.133H22.271l-.914.06v-.459l.914.062Zm-.086,1.554a7.9,7.9,0,0,1,.652-.723c1.011.76,1.058.833,1.058.929,0,.071-.071.131-.193.131H22.271l-.914.06v-.457l.914.06Zm-.88,2-.167.193v1.964h1.288V38.032Zm3.423-.1a2.659,2.659,0,0,1,.517,1.58c0,.794-.384,1.277-.9,1.277a.528.528,0,0,1-.577-.567c0-.217.073-.4.384-.747a1.41,1.41,0,0,0,.436-1,4.1,4.1,0,0,0-.036-.507Zm4.314-6.473c.182-.481.313-.6.446-.6.193,0,.326.06.723.373.363.277.507.446.507.6,0,.2-.12.288-.421.421a18.625,18.625,0,0,1-.326,3.037,1.7,1.7,0,0,1-1.6,1.509.824.824,0,0,1-.157.011c-.18,0-.206-.073-.29-.337a1.308,1.308,0,0,0-.987-.8l.024-.18c.386.036.736.06,1.024.06.434,0,.64-.146.736-.53a17.754,17.754,0,0,0,.361-3.23H29.141c-.011.157-.071.24-.264.29a6.514,6.514,0,0,1-.29,1.23,1.8,1.8,0,0,1,.266.131c.53.3.758.64.758.977,0,.386-.228.6-.494.6-.217,0-.386-.06-.663-.41-.084-.109-.193-.217-.3-.337a5.831,5.831,0,0,1-2.8,2.481l-.12-.155a6.76,6.76,0,0,0,2.024-3.05,5.77,5.77,0,0,0-1.288-.687l.058-.159a7.722,7.722,0,0,1,1.412.206c.084-.373.131-.747.193-1.12H27.1L26,31.861V31.4l1.108.058Zm.049,7.74a7.8,7.8,0,0,0-.06.94c0,.264.444.277.444.6,0,.444-.337.82-2.157.82-1.567,0-1.771-.182-1.771-.82,0-.386.036-.843.036-1.953,0-.567-.013-.844-.024-1.12,1.3.12,1.554.217,1.554.348,0,.146-.084.206-.373.326V40.2c0,.24.144.3.577.3.687,0,.989-.084,1.183-.421a4.03,4.03,0,0,0,.408-.9Zm-2.339-2.423c1.266.24,1.882.953,1.882,1.64,0,.457-.253.734-.616.734a.59.59,0,0,1-.6-.577,2.728,2.728,0,0,0-.771-1.651Zm2.29.723a3.9,3.9,0,0,1,1.616,1.326,1.736,1.736,0,0,1,.29.953.7.7,0,0,1-.689.783.627.627,0,0,1-.625-.629,4.713,4.713,0,0,0-.725-2.314Z" transform="translate(3.927 -30.559)" fill="#234646"/>
          <path id="パス_706" data-name="パス 706" d="M29.859,32.958c.217-.266.446-.517.747-.833,1.17.856,1.206.929,1.206,1.037,0,.073-.073.133-.193.133H27.532l-.916.06V32.9l.916.06Zm-.3,4.713c.206-.459.363-.616.494-.616.159,0,.339.06.725.363s.444.41.444.517c0,.146-.084.253-.386.4v.457c0,.916.049,1.517.049,1.8,0,.3-.337.517-.891.517-.253,0-.363-.084-.363-.324v-.4h-1.41v.736c0,.24-.313.481-.927.481-.206,0-.316-.094-.316-.3,0-.144.039-.773.039-2.531,0-.783-.013-1.206-.039-1.663a7.566,7.566,0,0,1,1.436.567Zm-.251-6.209a10.445,10.445,0,0,1,.721-.781c1.05.794,1.11.891,1.11.987,0,.073-.073.133-.193.133H28l-.916.06V31.4l.916.058Zm-.013,2.979a9.69,9.69,0,0,1,.723-.783c1.047.794,1.11.891,1.11.987,0,.073-.073.133-.193.133h-2.88l-.916.06v-.457l.916.06Zm-.013,1.638A10.467,10.467,0,0,1,30,35.3c1.05.8,1.11.893,1.11.989,0,.073-.073.133-.193.133H28.052l-.916.06v-.457l.916.058Zm-.891,1.93-.17.2v1.833h1.41V38.009Zm5.881-5.87H32.763l-1.144.06v-.457l1.144.06h2.99c.253-.339.53-.65.807-.964,1.157.9,1.23,1.024,1.23,1.144,0,.086-.06.157-.193.157H35.74a.352.352,0,0,1-.193.266v3.567h.243c.217-.277.494-.614.734-.88,1.026.807,1.1.916,1.1,1.073,0,.084-.06.144-.18.144H35.547v4.327h.23c.253-.337.556-.7.831-1,1.17.9,1.266,1.037,1.266,1.193a.151.151,0,0,1-.167.144H31.932l-.807.062v-.459l.807.06h.157V36.358c0-.82-.026-1.4-.06-1.893,1.517.144,1.771.24,1.771.4s-.109.243-.459.386v5.387h.929Z" transform="translate(10.537 -30.559)" fill="#234646"/>
          <path id="パス_707" data-name="パス 707" d="M37.239,36.622c.243-.567.339-.627.5-.627s.29.06.723.373c.41.313.47.423.47.556,0,.157-.1.277-.41.408v.543c0,1.41.047,1.869.047,2.146a1.064,1.064,0,0,1-1.18,1.11c-.217,0-.243-.026-.29-.255a1.081,1.081,0,0,0-.734-.844c.011.856.024,1.183.024,1.279,0,.3-.423.481-1,.481-.217,0-.326-.084-.326-.264,0-.313.036-1.363.049-4.57h-.8l-.17.193v3.5c0,.277-.361.457-.914.457-.23,0-.326-.084-.326-.264,0-.363.036-1.339.036-3.363,0-.494,0-.9-.036-1.35a5.586,5.586,0,0,1,1.47.494h.736c0-.47.011-.94.011-1.41h-1.53l-1.206.06v-.457l1.206.06h1.53V33.2h-1.3a7.1,7.1,0,0,1-1.11,1.434l-.157-.084a15.825,15.825,0,0,0,.773-3.664c1.457.313,1.627.446,1.627.577,0,.182-.133.279-.5.339A8.061,8.061,0,0,1,34,32.862h1.12v-.446c0-.771,0-1.277-.036-1.734,1.6.144,1.713.228,1.713.373,0,.131-.084.24-.47.373v1.434h.554c.253-.313.483-.59.783-.9,1.11.9,1.157.987,1.157,1.1,0,.084-.071.144-.191.144h-2.3v1.676h.831a11.783,11.783,0,0,1,.82-.94c1.17.94,1.219,1.024,1.219,1.133,0,.084-.073.144-.193.144H36.325c0,.47.011.94.011,1.41Zm-.9.337c0,.953.013,1.917.026,2.87.373.036.541.049.65.049.217,0,.3-.073.3-.363V36.959Zm4.376-3.1c0,3.34.073,4.653.073,5.1,0,.324-.4.541-.977.541-.253,0-.386-.12-.386-.311,0-.485.084-1.859.084-5.366,0-.951-.024-1.53-.06-2.024,1.5.144,1.736.24,1.736.4s-.12.243-.47.386Zm-.507,6.34a8.169,8.169,0,0,0,1.013.073c.457,0,.53-.073.53-.53V33.078c0-1.024-.024-1.627-.06-2.144,1.567.144,1.831.251,1.831.421s-.144.266-.517.41v1.4c0,5.3.107,6.57.107,7.293s-.47,1.29-1.494,1.29c-.217,0-.253-.024-.3-.253a1.324,1.324,0,0,0-1.123-1.11Z" transform="translate(17.147 -30.559)" fill="#234646"/>
          <path id="パス_708" data-name="パス 708" d="M42.221,34.084c0-.481-.011-.9-.036-1.277,1.447.12,1.593.2,1.593.337s-.073.217-.35.339v.6h1.82c-.013-.519-.024-.927-.047-1.277,1.421.12,1.627.2,1.627.337s-.062.217-.35.339v.6H47.2c.243-.313.519-.627.82-.964,1.133.82,1.316,1.024,1.316,1.146,0,.084-.06.155-.193.155H46.477c.011.532.058,1.326.058,1.689,0,.313-.371.494-.964.494-.2,0-.324-.109-.324-.266v-.264h-1.82v.337c0,.277-.41.459-.927.459-.206,0-.326-.109-.326-.266,0-.3.047-1.11.047-2.183H40.353v.193c0,3.617-.687,5.57-2.206,7.027L38,41.534c.736-1.556,1.073-3.327,1.073-6.894,0-1.882-.036-2.436-.073-3.039a6.418,6.418,0,0,1,1.554.532h2.88v-.326c0-.423-.024-.783-.058-1.183,1.494.146,1.831.243,1.831.4s-.12.24-.47.384v.725h2.627c.243-.316.517-.629.82-.966,1.133.82,1.314,1.024,1.314,1.146,0,.084-.06.157-.193.157h-8.8l-.157.157v1.457Zm-.107,3.567-1.206.062v-.459l1.206.06h3.831c.279-.4.412-.494.543-.494.17,0,.3.024.687.326.436.337.543.5.543.614,0,.17-.12.266-.554.386A6.575,6.575,0,0,1,45.717,39.8a12.291,12.291,0,0,0,3.627.577l-.036.182a1.617,1.617,0,0,0-.771.867c-.1.24-.144.313-.3.313a.98.98,0,0,1-.18-.013,8.109,8.109,0,0,1-3.421-1.191,11.419,11.419,0,0,1-4.846,1.288l-.049-.167A10.82,10.82,0,0,0,43.85,39.9a6.686,6.686,0,0,1-1.556-2.254Zm.541,0a5.66,5.66,0,0,0,1.93,1.653,8.691,8.691,0,0,0,.94-1.05c.146-.193.277-.4.41-.6Zm.773-3.23v1.316h1.82V34.421Z" transform="translate(23.59 -30.624)" fill="#234646"/>
        </g>
      </g>
      <g id="グループ_1040" data-name="グループ 1040" transform="translate(45.363 78.688)">
        <g id="グループ_1039" data-name="グループ 1039">
          <path id="パス_709" data-name="パス 709" d="M23.812,39.719c0-.74-.019-1.221-.052-1.64,1.284.124,1.481.2,1.481.335s-.092.2-.384.324v1.816h.135c.146-.23.281-.429.481-.689.73.689.771.783.771.867,0,.06-.06.114-.165.114H24.857c.009.7.009,1.4.009,2.1.316-.064.618-.127.9-.2l.062.146a10.951,10.951,0,0,1-.949.586c.019,1.878.062,2.659.062,3,0,.513-.335.889-1.075.972a.787.787,0,0,1-.135.009c-.159,0-.189-.062-.251-.292a1.093,1.093,0,0,0-.762-.74l.011-.157a5.911,5.911,0,0,0,.668.052c.354,0,.416-.041.416-.408v-1.94a5.886,5.886,0,0,1-.552.219c-.054.27-.116.335-.24.335-.105,0-.208-.124-.47-1.2.427-.052.846-.114,1.262-.176V40.846h-.438l-.792.054v-.4l.792.054h.438Zm6.066,3.245c.208-.438.333-.511.438-.511.127,0,.24.041.637.324.449.322.492.416.492.543,0,.157-.148.26-.459.3a7.093,7.093,0,0,1-1.4,1.846,8.7,8.7,0,0,0,2.913.908l-.032.159a1.318,1.318,0,0,0-.835.678c-.084.165-.135.24-.24.24a1.227,1.227,0,0,1-.187-.043,6.046,6.046,0,0,1-2.391-1.3,8.606,8.606,0,0,1-3.923,1.462l-.054-.146a9.014,9.014,0,0,0,3.393-1.932A6.014,6.014,0,0,1,27.4,44.1a6.623,6.623,0,0,1-.27-.835l-.919.043v-.4l1.043.052Zm1.148-1.618c.208-.438.313-.5.408-.5.124,0,.238.073.541.3.459.354.513.427.513.554,0,.146-.148.281-.564.313a6.847,6.847,0,0,1-.97.595l-.127-.094a5.416,5.416,0,0,0,.243-.876H26.924v.124c0,.573-.335.94-.764.94-.322,0-.5-.178-.5-.419a.741.741,0,0,1,.292-.584,1.184,1.184,0,0,0,.4-.929c0-.052-.011-.105-.011-.157l.146-.052a2.167,2.167,0,0,1,.386.781h2.986a19.591,19.591,0,0,0,.794-2.086c1.189.438,1.253.532,1.253.657s-.127.208-.459.251a8.987,8.987,0,0,1-1.159,1.178Zm-2.694-1.972c-.489.032-.949.054-1.44.064.878.249,1.253.7,1.253,1.157a.55.55,0,0,1-.607.605c-.228,0-.406-.187-.416-.5a1.862,1.862,0,0,0-.354-1.148l.1-.114c-.354.009-.719.009-1.095.009l-.021-.157A25.29,25.29,0,0,0,31.1,37.955c.865.689.949.816.949.94s-.073.167-.27.167a2.144,2.144,0,0,1-.324-.032c-.927.146-1.878.26-2.859.324.751.251,1.1.71,1.1,1.157a.55.55,0,0,1-.575.616c-.292,0-.408-.176-.427-.5a2,2,0,0,0-.4-1.211Zm-.938,3.883a4.6,4.6,0,0,0,1.367,1.67,6.682,6.682,0,0,0,.74-1.043c.114-.2.219-.406.324-.627Z" transform="translate(-22.55 -37.923)" fill="#234646"/>
          <path id="パス_710" data-name="パス 710" d="M33.869,41.876c.178-.481.324-.616.438-.616.167,0,.324.062.659.313.386.292.481.438.481.543,0,.135-.084.238-.386.354-.011.47-.043.992-.094,1.5h.511c.262-.324.459-.562.762-.876,1.054.835,1.105.927,1.105,1.043,0,.073-.06.124-.165.124H34.933a13.318,13.318,0,0,1-.249,1.556A2.146,2.146,0,0,1,32.407,47.6c-.165,0-.2-.054-.281-.292-.157-.459-.479-.71-1.17-.91l.021-.157c.564.054,1.013.084,1.472.084a.935.935,0,0,0,1.075-.8,10.414,10.414,0,0,0,.219-1.253H28.6l-1,.052v-.395l1,.052h5.186c.075-.595.105-1.2.127-1.805H30.759l-.124.47c-.064.23-.346.376-.751.376-.449,0-.575-.127-.575-.408A46.454,46.454,0,0,0,30.6,37.94c1.389.262,1.545.376,1.545.543,0,.116-.124.23-.5.335l-.24.886H34.8a9.741,9.741,0,0,1,.751-.886c1.18.9,1.221.94,1.221,1.054,0,.073-.062.127-.167.127H31.332l-.5,1.878Z" transform="translate(-16.764 -37.94)" fill="#234646"/>
        </g>
      </g>
      <g id="パス_711" data-name="パス 711" transform="translate(37.088 33.23)" fill="#365b3a" stroke-miterlimit="10">
        <path d="M 52.66975402832031 81.05607604980469 L 51.65182495117188 81.05607604980469 L 35.93215179443359 81.05607604980469 L 34.94568252563477 81.05607604980469 L 34.91472244262695 80.07008361816406 L 34.29657363891602 60.3818359375 L 34.28494262695312 60.01119613647461 L 34.51444244384766 59.71991348266602 L 46.01230239868164 45.1270637512207 C 46.53710174560547 44.46162414550781 47.32362365722656 44.08018493652344 48.17048263549805 44.08018493652344 L 49.15565490722656 44.08018493652344 C 49.89561462402344 44.08018493652344 50.57736206054688 44.45062637329102 50.97933197021484 45.07111358642578 C 51.38078308105469 45.6907958984375 51.44029235839844 46.4630241394043 51.13850402832031 47.13682556152344 L 48.00215148925781 54.16508865356445 L 58.56393051147461 45.75194931030273 L 61.29776382446289 32.2520751953125 C 61.51465225219727 31.17533493041992 62.47140502929688 30.39307594299316 63.57250213623047 30.39307594299316 L 65.07923126220703 30.39307594299316 C 66.28836059570312 30.39307594299316 67.28153991699219 31.30000495910645 67.38945007324219 32.50265502929688 L 69.62574005126953 56.86780548095703 L 69.67066955566406 57.35736465454102 L 69.315185546875 57.69692611694336 L 52.66975402832031 73.59667205810547 L 52.66975402832031 80.03814697265625 L 52.66975402832031 81.05607604980469 Z" stroke="none"/>
        <path d="M 51.65182113647461 80.03815460205078 L 51.65182113647461 73.16130065917969 L 68.61207580566406 56.96084213256836 L 66.37559509277344 32.59363174438477 C 66.31551361083984 31.92397499084473 65.75316619873047 31.41100883483887 65.07923126220703 31.41100883483887 L 63.572509765625 31.41100883483887 C 62.95222091674805 31.41100883483887 62.41778945922852 31.84670829772949 62.29544448852539 32.45412063598633 L 59.48805618286133 46.31723022460938 L 45.37167739868164 57.56182098388672 L 50.20949935913086 46.72072982788086 C 50.55075454711914 45.95878601074219 49.99271011352539 45.09811019897461 49.15565490722656 45.09811019897461 L 48.17048645019531 45.09811019897461 C 47.64034271240234 45.09811019897461 47.14025497436523 45.34065246582031 46.81186676025391 45.75704193115234 L 35.31401062011719 60.34989547729492 L 35.93215560913086 80.03815460205078 L 51.65182113647461 80.03815460205078 M 53.68767547607422 82.07400512695312 L 33.95922088623047 82.07400512695312 L 33.25588607788086 59.6724853515625 L 45.21274185180664 44.49707412719727 C 45.93209838867188 43.58495330810547 47.00994491577148 43.06225204467773 48.17048645019531 43.06225204467773 L 49.15565490722656 43.06225204467773 C 50.24213027954102 43.06225204467773 51.24325561523438 43.60631942749023 51.83363342285156 44.51763153076172 C 52.42351150512695 45.42815399169922 52.51093292236328 46.56282043457031 52.06750869750977 47.55288696289062 L 50.63261413574219 50.76835250854492 L 57.63981628417969 45.18667221069336 L 60.30008697509766 32.05004119873047 C 60.61209869384766 30.50098609924316 61.98853302001953 29.37515258789062 63.572509765625 29.37515258789062 L 65.07923126220703 29.37515258789062 C 65.91403198242188 29.37515258789062 66.7132568359375 29.68482971191406 67.32966613769531 30.24715232849121 C 67.94731903076172 30.81059646606445 68.32862091064453 31.57931900024414 68.40331268310547 32.41168594360352 L 70.72927856445312 57.75387573242188 L 53.68767547607422 74.03202819824219 L 53.68767547607422 82.07400512695312 Z" stroke="none" fill="#e1eaeb"/>
      </g>
      <g id="パス_712" data-name="パス 712" transform="translate(-0.255 34.155)" fill="#365b3a" stroke-miterlimit="10">
        <path d="M 35.74839782714844 81.86305236816406 L 34.76192855834961 81.86305236816406 L 19.04224967956543 81.86305236816406 L 18.02431869506836 81.86305236816406 L 18.02431869506836 80.84512329101562 L 18.02431869506836 74.40366363525391 L 1.378889083862305 58.50393295288086 L 1.023439049720764 58.16440200805664 L 1.068329095840454 57.67489242553711 L 3.302649021148682 33.30982208251953 C 3.414129018783569 32.10665130615234 4.407208919525146 31.2000732421875 5.612709045410156 31.2000732421875 L 7.121569156646729 31.2000732421875 C 8.218628883361816 31.2000732421875 9.17509937286377 31.98183250427246 9.395829200744629 33.05891418457031 L 12.12805652618408 46.56109619140625 L 22.69103240966797 54.97390747070312 L 19.55293846130371 47.94485092163086 C 19.25223922729492 47.26734161376953 19.31371879577637 46.49428176879883 19.71648979187012 45.87487411499023 C 20.11862945556641 45.25641250610352 20.79892921447754 44.88718414306641 21.53627967834473 44.88718414306641 L 22.52358818054199 44.88718414306641 C 23.35735893249512 44.88718414306641 24.16340827941895 45.27859115600586 24.67975997924805 45.93421173095703 L 36.17963027954102 60.5290412902832 L 36.40913772583008 60.82033157348633 L 36.39751052856445 61.19099426269531 L 35.77935791015625 80.8770751953125 L 35.74839782714844 81.86305236816406 Z" stroke="none"/>
        <path d="M 34.76192855834961 80.84513092041016 L 35.38008499145508 61.15904998779297 L 23.88007164001465 46.56404113769531 C 23.5538272857666 46.14979553222656 23.05158424377441 45.90511703491211 22.52359390258789 45.90511703491211 L 21.53628349304199 45.90511703491211 C 20.70136070251465 45.90511703491211 20.1433162689209 46.76578521728516 20.4824390411377 47.52988433837891 L 25.32239532470703 58.37096405029297 L 11.20387268066406 47.12637329101562 L 8.398628234863281 33.26326370239258 C 8.274139404296875 32.65586090087891 7.741861343383789 32.21799468994141 7.121572494506836 32.21799468994141 L 5.612705707550049 32.21799468994141 C 4.940905570983887 32.21799468994141 4.378572463989258 32.73098373413086 4.316328048706055 33.40278625488281 L 2.082005739212036 57.76785278320312 L 19.04224967956543 73.96829986572266 L 19.04224967956543 80.84513092041016 L 34.76192855834961 80.84513092041016 M 36.73485946655273 82.8809814453125 L 17.00639533996582 82.8809814453125 L 17.00639533996582 74.83902740478516 L -0.03511650860309601 58.56095123291016 L 2.288983583450317 33.21687316894531 C 2.366105794906616 32.38446426391602 2.74743914604187 31.61748504638672 3.362916707992554 31.05529594421387 C 3.979350090026855 30.49222946166992 4.77833890914917 30.1821403503418 5.612705707550049 30.1821403503418 L 7.121572494506836 30.1821403503418 C 8.699816703796387 30.1821403503418 10.07566165924072 31.3060302734375 10.39302825927734 32.85450744628906 L 10.39403915405273 32.8594856262207 L 13.05221843719482 45.99581909179688 L 20.05966377258301 51.57684707641602 L 18.62343978881836 48.35982894897461 C 18.18153953552246 47.36417388916016 18.27181625366211 46.22930908203125 18.86310577392578 45.31997299194336 C 19.45378303527832 44.41158676147461 20.45309448242188 43.8692626953125 21.53628349304199 43.8692626953125 L 22.52359390258789 43.8692626953125 C 23.66672706604004 43.8692626953125 24.7717170715332 44.4057731628418 25.47946166992188 45.30441665649414 L 37.43821716308594 60.48162841796875 L 36.73485946655273 82.8809814453125 Z" stroke="none" fill="#e1eaeb"/>
      </g>
    </g>
  </g>
</svg>
