<svg xmlns="http://www.w3.org/2000/svg" width="267" height="278.036" viewBox="0 0 267 278.036">
  <g id="グループ_1041" data-name="グループ 1041" transform="translate(8 8)">
    <path id="パス_2674" data-name="パス 2674" d="M125.5,0A125.385,125.385,0,1,1,0,125.385,125.443,125.443,0,0,1,125.5,0Z" fill="none" stroke="#728e4d" stroke-width="16"/>
    <g id="グループ_1036" data-name="グループ 1036" transform="translate(55.135 52.691)">
      <g id="グループ_1035" data-name="グループ 1035" transform="translate(0 0)">
        <path id="パス_694" data-name="パス 694" d="M27.364,20.689a7.386,7.386,0,0,1,4.077,1.878A3.462,3.462,0,0,1,32.853,25c0,.982-.471,1.252-1.608,1.412a34.633,34.633,0,0,0-4.778.977c-8.7,2.629-11.875,5.369-11.875,8.544,0,2.113,1.8,3.486,5.369,3.486a41.468,41.468,0,0,0,6.466-.391c.666-.12,1.1-.2,1.683-.356a7.384,7.384,0,0,1,1.608-.275c2.7,0,4,1.1,4,2.469,0,1.177-.746,1.648-2.154,1.923a36.83,36.83,0,0,1-6.391.391c-1.057,0-2.189,0-3.25-.04C15.81,42.9,12.284,40.4,12.284,36.2c0-3.015,2.194-6.385,7.012-8.855a22.973,22.973,0,0,1-.431-2.78c-.12-1.057-.235-2.98-.586-8.384-.12-1.568-.471-1.918-1.1-2.154a4.032,4.032,0,0,0-1.492-.275l-.155-.431a4.453,4.453,0,0,1,2.624-1.212,5.256,5.256,0,0,1,3.526,1.407c1.057.821,1.257,1.492,1.257,2a2.944,2.944,0,0,1-.391,1.332A5.265,5.265,0,0,0,22.04,19c-.04.706-.08,1.608-.08,2.624,0,1.492.08,3.175.155,4.352,1.923-.826,3.606-1.528,4.818-2.194.826-.436,1.062-.666,1.062-.9a1.647,1.647,0,0,0-.235-.746,6.422,6.422,0,0,0-.626-.942Z" transform="translate(-12.284 -10.502)" fill="#365b3a"/>
        <path id="パス_695" data-name="パス 695" d="M21.685,46.03c6.586-2.86,11.559-7.993,11.559-14.809,0-4.783-1.763-5.84-3.451-5.84a6.594,6.594,0,0,0-4.778,2.389,20.742,20.742,0,0,0-1.648,2.118c-.391.626-.821.982-1.327.982A2.754,2.754,0,0,1,20,29.809a4.891,4.891,0,0,1-1.372-3.13,8.13,8.13,0,0,1,1.8-4.277,25.593,25.593,0,0,1,6.11-5.088c-2.624-1.332-3.6-2.509-4.112-5.254l.391-.27c1.608,1.958,3.566,2.544,7.993,2.9,2.509.19,3.681,1.327,3.681,2.935,0,.942-.666,1.533-1.883,1.533-1.092,0-2.78-.28-3.6-.28a7.686,7.686,0,0,0-3.411.982,10.068,10.068,0,0,0-3.526,3.1,4.138,4.138,0,0,0-.861,2.234c0,.666.356.861.746.861a3.457,3.457,0,0,0,1.407-.546c2.434-1.492,4.507-2.354,6.466-2.354,4.467,0,7.6,3.371,7.6,8.464,0,8.659-6.661,13.4-15.515,14.965Z" transform="translate(13.152 -11.789)" fill="#365b3a"/>
        <path id="パス_696" data-name="パス 696" d="M31.323,13.009a4.749,4.749,0,0,1,2.86-1.212,8.368,8.368,0,0,1,3.015.661c.786.356,1.137.826,1.137,1.412a3.117,3.117,0,0,1-.155,1.017,2.855,2.855,0,0,0-.075.671,4.536,4.536,0,0,0,.035.666,13.882,13.882,0,0,0,.316,1.643,13.285,13.285,0,0,0,2.154-1.017,5.733,5.733,0,0,0,1.332-.942c.235-.235.706-.431,1.843-.431,1.292,0,2.073.666,2.073,1.6,0,.551-.311,1.022-1.172,1.492a42.328,42.328,0,0,1-5.409,2.314c.431,1.447,1.022,3.17,1.608,4.583a28.636,28.636,0,0,0,3.33-1.492A8.37,8.37,0,0,0,45.627,23a3.583,3.583,0,0,1,2.349-.861c1.252,0,2,.7,2,1.648,0,.7-.471,1.292-1.527,1.8-1.292.626-3.726,1.688-6.345,2.664A25.394,25.394,0,0,0,45.937,33.7a4.328,4.328,0,0,1,1.017,2.78c0,1.723-.661,2.234-1.487,2.234a3.054,3.054,0,0,1-1.843-.861A13.343,13.343,0,0,0,35.4,35.3c-3.921,0-5.995,1.3-5.995,3.175,0,2.118,2.429,3.761,7.367,3.761.861,0,1.683-.04,2.189-.08.356-.04,1.1-.155,1.377-.155,1.838,0,3.406.942,3.406,2.389,0,1.683-1.412,1.963-4.077,1.963-8.264,0-12.576-2.98-12.576-7.057,0-3.606,3.606-5.759,9.01-5.759a38.466,38.466,0,0,1,6,.351c-.942-1.643-1.648-2.935-2.509-4.738a32.645,32.645,0,0,1-7.683,1.412c-3.13,0-3.8-1.177-3.8-2.549a4.415,4.415,0,0,1,1.6-2.975,26.349,26.349,0,0,1,3.646-2.9,11.931,11.931,0,0,1-3.015.431c-.431,0-.861-.04-1.3-.08a6.857,6.857,0,0,1-4.542-2.78l.351-.471a7.454,7.454,0,0,0,3.686.861,26.421,26.421,0,0,0,7.247-1.257c-.391-1.132-.821-2.464-1.252-3.681-.4-1.057-.866-1.6-2.9-1.6H31.4Zm.706,11.634c-1.057,1.062-1.568,1.763-1.568,2.274s.351.821,1.372.821a27.031,27.031,0,0,0,6.7-1.372c-.591-1.523-1.177-3.05-1.763-4.7A18.977,18.977,0,0,0,32.029,24.643Z" transform="translate(36.709 -11.757)" fill="#365b3a"/>
        <path id="パス_697" data-name="パス 697" d="M36.211,14.222A4.5,4.5,0,0,1,38.25,13.6a8.036,8.036,0,0,1,2.86.746c1.017.431,1.367.9,1.367,1.327a2.743,2.743,0,0,1-.386,1.137c-.16.356-.24,1.022-.24,3.3,0,.19.08.23.24.23a10.391,10.391,0,0,0,3.6-.741,6.579,6.579,0,0,1,2.314-.942c1.723,0,2.584.706,2.584,1.528a1.543,1.543,0,0,1-1.447,1.608,31.457,31.457,0,0,1-5.173.741,4.388,4.388,0,0,1-2.078-.626c.2,3.921.4,7.487.511,9.441a24.247,24.247,0,0,1,7.011,2.589c1.372.781,2.038,1.723,2.038,2.624a1.512,1.512,0,0,1-1.568,1.608,2.976,2.976,0,0,1-1.958-.982,17.13,17.13,0,0,0-5.524-3.25c.04,3.33-2,4.818-5.8,4.818-2.86,0-5.4-1.177-5.4-3.881,0-2.429,3.055-3.756,5.915-3.756,1.137,0,1.958.035,2.469.035-.155-3.486-.391-8.028-.626-12.771-.08-1.723-.2-2.389-.551-2.78a2.95,2.95,0,0,0-2.113-.786ZM32.605,34.711c0,.9.9,1.8,2.98,1.8,3.135,0,3.916-1.252,3.957-3.1a14.451,14.451,0,0,0-3.681-.471C34.213,32.948,32.605,33.459,32.605,34.711Z" transform="translate(63.528 -4.546)" fill="#365b3a"/>
        <path id="パス_698" data-name="パス 698" d="M40.427,46.03c6.581-2.86,11.559-7.993,11.559-14.809,0-4.783-1.763-5.84-3.451-5.84a6.585,6.585,0,0,0-4.778,2.389,19.388,19.388,0,0,0-1.648,2.118c-.391.626-.821.982-1.332.982a2.753,2.753,0,0,1-2.033-1.062,4.865,4.865,0,0,1-1.372-3.13,8.13,8.13,0,0,1,1.8-4.277,25.381,25.381,0,0,1,6.11-5.088c-2.624-1.332-3.6-2.509-4.112-5.254l.391-.27c1.6,1.958,3.566,2.544,7.993,2.9,2.509.19,3.681,1.327,3.681,2.935,0,.942-.666,1.533-1.883,1.533-1.092,0-2.78-.28-3.6-.28a7.686,7.686,0,0,0-3.411.982,10.068,10.068,0,0,0-3.526,3.1,4.138,4.138,0,0,0-.861,2.234c0,.666.351.861.746.861A3.457,3.457,0,0,0,42.11,25.5c2.434-1.492,4.507-2.354,6.466-2.354,4.467,0,7.6,3.371,7.6,8.464,0,8.659-6.661,13.4-15.515,14.965Z" transform="translate(88.274 -11.789)" fill="#365b3a"/>
        <path id="パス_699" data-name="パス 699" d="M33.9,26.68c3.646,3.371,8.544,5.449,15.285,6.856l-.12.586a5.633,5.633,0,0,0-2.98,2.549c-.311.591-.506.861-.781.861a2.318,2.318,0,0,1-.781-.27,24.437,24.437,0,0,1-11.088-9.6c.035,6.19.27,7.838.27,9.13,0,1.017-1.367,1.683-3.17,1.683-.786,0-1.217-.356-1.217-.982,0-1.172.12-2.584.16-7.207a33.835,33.835,0,0,1-8.86,6.15c4.312.471,5.018.746,5.018,1.212,0,.511-.356.711-1.217,1.177v2.624h1.217c.741-.937,1.367-1.763,2.234-2.7,3.21,2.7,3.371,2.94,3.371,3.335,0,.27-.2.471-.591.471h-6.23V44.7c3.566.471,5.564,2.194,5.564,3.957a1.9,1.9,0,0,1-2,2.038,1.752,1.752,0,0,1-1.723-1.492,6.9,6.9,0,0,0-1.843-3.566c.08,6.27.235,8.779.235,9.916,0,.977-1.367,1.643-3.1,1.643-.741,0-1.172-.351-1.172-.937,0-1.062.155-3.215.23-7.918a26.086,26.086,0,0,1-7.638,7.132l-.351-.471A38.765,38.765,0,0,0,19.84,42.551H17.411l-3.721.19V41.253l3.721.2h3.25c0-1.643-.04-3.29-.155-4.933a42.328,42.328,0,0,1-6.31,2.469l-.19-.551A40.3,40.3,0,0,0,27.247,26.68h-8.5l-3.916.2V25.387l3.916.2H29.516c0-1.6-.075-3.25-.2-4.7,4.823.471,5.564.746,5.564,1.257s-.356.741-1.447,1.212v2.234h7.718a20.21,20.21,0,0,1,2.7-3.526c4.352,3.06,4.783,3.686,4.783,4.077,0,.351-.235.546-.626.546ZM35.08,42.551l-3.29.19V41.253l3.29.2h2.038c0-2.194-.04-3.641-.155-4.973,4.427.471,5.128.706,5.128,1.172,0,.511-.351.711-1.212,1.177v2.624h2.349c.786-.937,1.648-2.033,2.549-3.015,3.566,2.82,3.956,3.25,3.956,3.646,0,.27-.2.471-.586.471H41.39A24.32,24.32,0,0,0,50.6,51.48l-.115.586a7.682,7.682,0,0,0-3.3,1.723c-.391.356-.626.551-.856.551-.2,0-.4-.2-.746-.551a23.452,23.452,0,0,1-4.7-10.067c.04,7.678.235,10.577.235,11.834,0,.977-1.372,1.643-3.1,1.643-.746,0-1.177-.351-1.177-.937,0-1.137.16-3.411.235-8.464a27.108,27.108,0,0,1-9.285,6.5l-.316-.471a33.759,33.759,0,0,0,8.975-11.279Z" transform="translate(-10.885 24.65)" fill="#365b3a"/>
        <path id="パス_700" data-name="パス 700" d="M21.471,33.733a3.933,3.933,0,0,0,2.544,1.447c.666,0,1.648-.235,4.312-1.608,6.7-3.446,10.107-4.427,14.689-4.427,6.661,0,11.4,3.921,11.4,9.641,0,5.995-4.467,8.895-8.269,10.5A46.182,46.182,0,0,1,31.342,52.3L31.3,51.6a40.428,40.428,0,0,0,13.557-5.524c3.411-2.389,5.133-4.9,5.133-8.148,0-4.192-2.664-6.661-7.012-6.661-3.921,0-8.229,1.838-13.6,5.915a11.5,11.5,0,0,0-2.078,1.763,2.088,2.088,0,0,1-1.643.706c-1.723,0-3.881-2.159-4.583-4a5.906,5.906,0,0,1-.2-1.688ZM47.524,23.9a10.819,10.819,0,0,1,4.933,1.648,3.118,3.118,0,0,1,1.372,2.389,1.554,1.554,0,0,1-1.6,1.723c-.786,0-1.257-.546-1.8-1.648a9.574,9.574,0,0,0-3.135-3.561Zm3.721-2.86a10.283,10.283,0,0,1,4.9,1.372,3.006,3.006,0,0,1,1.568,2.584A1.514,1.514,0,0,1,56.1,26.561c-.546,0-1.057-.235-1.643-1.412a8.259,8.259,0,0,0-3.411-3.561Z" transform="translate(22.171 25.279)" fill="#365b3a"/>
        <path id="パス_701" data-name="パス 701" d="M38.653,21.217a6.593,6.593,0,0,1,5.133,2.349c1.1,1.1,1.412,1.8,1.412,2.469a1.77,1.77,0,0,1-.942,1.412A14.79,14.79,0,0,0,42.414,28.5c-1.8,1.332-2.544,1.958-4.272,3.411-2.269,1.878-3.406,2.935-4.387,3.8a2.28,2.28,0,0,0-.942,1.648c0,.626.551,1.1,1.843,2.113,2.234,1.763,4.352,3.491,6.23,5.174a23.74,23.74,0,0,1,4.583,5.013,4.664,4.664,0,0,1,.786,2.394,2.47,2.47,0,0,1-2.389,2.659c-.982,0-1.412-.471-2-1.528a41.925,41.925,0,0,0-7.562-9.991c-1.137-1.1-2.194-1.993-3.371-3.055a3.032,3.032,0,0,1-1.212-2.464,3.98,3.98,0,0,1,1.327-2.865c2.9-3.055,5.449-5.875,7.683-8.694a5.349,5.349,0,0,0,1.372-2.389c0-.511-.746-1.337-1.688-1.963Z" transform="translate(57.615 26.001)" fill="#365b3a"/>
        <path id="パス_702" data-name="パス 702" d="M36.7,21.021a8.394,8.394,0,0,1,3.451,2.82,3.554,3.554,0,0,1,.741,2.038,5.616,5.616,0,0,1-.546,2.078,34.237,34.237,0,0,0-1.958,7.913c-.08,1.252-.04,1.958-.04,2.509l.155.04a57.788,57.788,0,0,1,4.117-9.526c1.1-1.878,2.389-3.25,4.152-3.25,3.8,0,6.581,4.7,6.581,12.265,0,9.325-4.072,15.515-15.12,18.14L38,55.423c9.015-4.232,11.4-10.542,11.4-19.161,0-6.07-1.447-8.774-3.29-8.774-1.017,0-2.154,1.487-3.135,3.721a33.874,33.874,0,0,0-2.429,7.482,18.094,18.094,0,0,0-.391,2.629c0,1.1.275,2.229.275,3.055,0,1.172-.471,1.918-1.492,1.918a2.1,2.1,0,0,1-1.723-.9c-1.292-1.878-1.608-4.347-1.608-7.4a52.373,52.373,0,0,1,1.332-10.031,25.573,25.573,0,0,0,.511-3.371,4.619,4.619,0,0,0-.275-1.683,8.475,8.475,0,0,0-.821-1.412Z" transform="translate(81.2 25.215)" fill="#365b3a"/>
      </g>
    </g>
    <g id="グループ_1038" data-name="グループ 1038" transform="translate(40.228 146.808)">
      <g id="グループ_1037" data-name="グループ 1037" transform="translate(0 0)">
        <path id="パス_703" data-name="パス 703" d="M9.306,56.258a28.567,28.567,0,0,0,8.464-4.472c2.729,1.462,3.15,1.8,3.15,2.194,0,.421-.531.506-1.067.506-.14,0-.311-.03-.481-.03a28.59,28.59,0,0,1-9.981,2.169ZM24.381,33.421a.774.774,0,0,1-.451.646v2.5h7.087a21.34,21.34,0,0,1,1.968-2.194c2.87,2.249,2.925,2.444,2.925,2.644s-.165.336-.446.336h-23.2l-2.815.14V36.431l2.815.14H20.89v-3.15H14.114l-2.81.14V32.489l2.81.14H28.6a20.76,20.76,0,0,1,1.853-1.993c2.614,1.853,2.9,2.249,2.9,2.444s-.17.341-.451.341Zm3.936,6.27c.566-1.292.9-1.517,1.237-1.517.366,0,.761.14,1.8.957.982.786,1.122,1.1,1.122,1.377,0,.336-.336.646-1.012.982v1.267c0,5.739.2,7.733.2,8.3,0,.871-1.152,1.267-2.419,1.267-.476,0-.756-.2-.756-.736H16.478v.085c0,.591-.871,1.182-2.364,1.182-.506,0-.786-.25-.786-.731,0-.676.165-2.669.165-9.476,0-2.139-.025-2.73-.08-4.222,2.389.651,3.29.987,3.626,1.267Zm-11.474.786-.366.421v2.449h12.01v-2.87Zm-.366,3.656V47h12.01v-2.87Zm0,3.656V50.8h12.01v-3.01Zm7.873,4.387a24.591,24.591,0,0,1,7.457.9c1.377.476,2.274,1.152,2.274,2.138a1.481,1.481,0,0,1-1.628,1.543,3.652,3.652,0,0,1-2.083-1.007,15.868,15.868,0,0,0-6.13-3.18Z" transform="translate(-9.306 -30.576)" fill="#365b3a"/>
        <path id="パス_704" data-name="パス 704" d="M27.43,39.32H18.681l-.225.311v15.13c0,.566-.7,1.127-2,1.127a.632.632,0,0,1-.726-.706c0-.646.14-2.754.14-13.412,0-2-.03-3.04-.115-4.332a11.494,11.494,0,0,1,3.12,1.1H21.24V35.329H17.95l-2.81.14V34.4l2.81.135h3.29V33.7c0-.987-.055-1.938-.14-3.01,3.431.255,4,.481,4,.9,0,.366-.2.481-.987.816v2.133h2.334c.591-.7,1.127-1.317,1.773-2.053,2.674,1.943,2.84,2.2,2.84,2.479,0,.2-.14.366-.451.366h-6.5v3.205h3.18c.476-1.152.7-1.322.982-1.322.336,0,.561.085,1.407.761.871.7,1.1.982,1.1,1.262,0,.366-.14.511-.816.791v1.853c0,7.147.17,9.591.17,11.108a2.433,2.433,0,0,1-2.644,2.674c-.536,0-.591-.055-.706-.561a2.4,2.4,0,0,0-1.908-2l.025-.421a13.974,13.974,0,0,0,1.748.11c.616,0,.786-.11.786-.786V48.971a.4.4,0,0,1-.341.135h-3.26c.025,3.6.115,4.843.115,5.489,0,.586-.761,1.012-1.943,1.012-.506,0-.731-.17-.731-.591,0-.731.055-2.169.085-5.91h-.591l-1.718.145V48.18l1.718.14h.591V45.285h-.481l-1.8.14V44.353l1.8.145h1.913a38.749,38.749,0,0,0,1.042-4.753c2.669.671,2.84.841,2.84,1.152s-.17.451-.927.586A19.984,19.984,0,0,1,23.574,44.5h.9a18.317,18.317,0,0,1,1.182-1.407,10.949,10.949,0,0,1,1.773,1.633Zm-8.213.561c1.913.6,2.955,1.663,2.955,2.87A1.23,1.23,0,0,1,20.9,44.073a.937.937,0,0,1-1.042-.952,4.967,4.967,0,0,0-.9-2.9ZM27.43,45.2a.46.46,0,0,1-.311.085H24.36a.643.643,0,0,1-.531.646V48.32h.561A18.078,18.078,0,0,1,25.6,46.8a11.053,11.053,0,0,1,1.828,1.8Zm14.143,8.97a5.033,5.033,0,0,0-2.364,1.012c-.28.225-.446.371-.561.371-.165,0-.28-.17-.446-.506-1.382-2.7-2-6.135-2.169-11.619a25.305,25.305,0,0,1-1.578,7.2A11.248,11.248,0,0,1,29.228,56.5l-.311-.28a13.456,13.456,0,0,0,3.491-6.411,36.538,36.538,0,0,0,.927-8.89h-.311l-2.108.145V40l2.108.14h.336v-3.29c0-2.249-.055-5.118-.11-6.075,3.571.4,4.022.561,4.022.957,0,.366-.311.561-1.042.871v6.02c0,.536,0,1.042-.025,1.517h.841c.536-.7.932-1.262,1.578-1.968,2.474,1.938,2.644,2.139,2.644,2.419,0,.2-.14.336-.426.336H36.315c.536,5.429,2.76,10.127,5.429,12.856ZM37.216,33.19c2.474.616,3.516,1.773,3.516,3.065a1.518,1.518,0,0,1-1.462,1.578,1.107,1.107,0,0,1-1.237-1.182,4.951,4.951,0,0,0-1.072-3.125Z" transform="translate(14.078 -30.375)" fill="#365b3a"/>
        <path id="パス_705" data-name="パス 705" d="M28.077,35.995c.506-.621.957-1.152,1.658-1.883,2.479,1.938,2.619,2.108,2.619,2.359,0,.17-.17.311-.451.311H22.989l-2.139.14V35.855l2.139.14Zm-.9,11.053c.446-1.072.756-1.352,1.037-1.352.341,0,.621.06,1.573.761.876.646.957.932.957,1.182,0,.311-.306.591-.841.841v.957c0,2.5.14,4.082.14,4.557,0,.846-.786,1.322-1.883,1.322a.738.738,0,0,1-.846-.816v-.846h-3v1.608c0,.531-.676,1.037-2,1.037-.451,0-.676-.22-.676-.646,0-.476.085-2.644.085-6.691,0-1.292-.03-2-.085-3.1A13.114,13.114,0,0,1,24.7,47.048Zm-.145-14.624c.506-.621,1.012-1.152,1.578-1.743C31,32.534,31.032,32.674,31.032,32.9c0,.17-.17.311-.451.311H24.165l-2.133.14V32.284l2.133.14Zm-.08,7.117a19.068,19.068,0,0,1,1.512-1.688c2.364,1.768,2.479,1.938,2.479,2.164,0,.17-.17.311-.451.311h-6.33l-2.133.14V39.4l2.133.145Zm-.2,3.626a18.432,18.432,0,0,1,1.522-1.688c2.359,1.773,2.469,1.943,2.469,2.169,0,.165-.165.306-.451.306h-6.13l-2.133.14V43.026l2.133.14ZM24.7,47.834l-.391.451v4.583h3V47.834Zm7.988-.225A6.2,6.2,0,0,1,33.9,51.295c0,1.853-.9,2.98-2.108,2.98a1.233,1.233,0,0,1-1.347-1.322c0-.506.17-.927.9-1.743a3.29,3.29,0,0,0,1.017-2.334,9.561,9.561,0,0,0-.085-1.182ZM42.756,32.5c.426-1.122.731-1.4,1.042-1.4.451,0,.761.14,1.688.871.846.646,1.182,1.042,1.182,1.407,0,.476-.28.671-.982.982a43.458,43.458,0,0,1-.761,7.087,3.961,3.961,0,0,1-3.741,3.521,1.922,1.922,0,0,1-.366.025c-.421,0-.481-.17-.676-.786a3.053,3.053,0,0,0-2.3-1.858l.055-.421c.9.085,1.718.14,2.389.14,1.012,0,1.492-.341,1.718-1.237a41.427,41.427,0,0,0,.841-7.537H40.2c-.025.366-.165.561-.616.676a15.2,15.2,0,0,1-.676,2.87,4.207,4.207,0,0,1,.621.305c1.237.706,1.768,1.492,1.768,2.279,0,.9-.531,1.407-1.152,1.407-.506,0-.9-.14-1.548-.957-.2-.255-.451-.506-.7-.786a13.606,13.606,0,0,1-6.526,5.789l-.28-.361A15.773,15.773,0,0,0,35.81,37.4a13.463,13.463,0,0,0-3-1.6l.135-.371a18.018,18.018,0,0,1,3.3.481c.2-.871.306-1.743.451-2.614H35.444l-2.584.14V32.369l2.584.135Zm.115,18.06a18.19,18.19,0,0,0-.14,2.194c0,.616,1.037.646,1.037,1.407,0,1.037-.786,1.913-5.033,1.913-3.656,0-4.132-.426-4.132-1.913,0-.9.085-1.968.085-4.557,0-1.322-.03-1.968-.055-2.614,3.035.28,3.626.506,3.626.811,0,.341-.2.481-.871.761V52.9c0,.561.336.7,1.347.7,1.6,0,2.309-.2,2.76-.982a9.4,9.4,0,0,0,.952-2.108Zm-5.459-5.654c2.955.561,4.392,2.224,4.392,3.826,0,1.067-.591,1.713-1.437,1.713A1.376,1.376,0,0,1,38.96,49.1a6.366,6.366,0,0,0-1.8-3.851ZM42.756,46.6a9.1,9.1,0,0,1,3.771,3.1,4.052,4.052,0,0,1,.676,2.224A1.621,1.621,0,0,1,45.6,53.744a1.464,1.464,0,0,1-1.457-1.467,11,11,0,0,0-1.693-5.4Z" transform="translate(36.965 -30.396)" fill="#365b3a"/>
        <path id="パス_706" data-name="パス 706" d="M34.183,35.995c.506-.621,1.042-1.207,1.743-1.943,2.729,2,2.815,2.169,2.815,2.419,0,.17-.17.311-.451.311H28.755l-2.139.14V35.855l2.139.14Zm-.706,11c.481-1.072.846-1.437,1.152-1.437.371,0,.791.14,1.693.846s1.037.957,1.037,1.207c0,.341-.2.591-.9.932v1.067c0,2.139.115,3.541.115,4.192,0,.7-.786,1.207-2.078,1.207-.591,0-.846-.2-.846-.756v-.932h-3.29v1.718c0,.561-.731,1.122-2.164,1.122-.481,0-.736-.22-.736-.7,0-.336.09-1.8.09-5.9,0-1.828-.03-2.815-.09-3.881a17.656,17.656,0,0,1,3.35,1.322ZM32.891,32.5a24.369,24.369,0,0,1,1.683-1.823c2.449,1.853,2.589,2.078,2.589,2.3,0,.17-.17.31-.451.31H29.851l-2.139.14V32.369l2.139.135Zm-.03,6.951a22.61,22.61,0,0,1,1.688-1.828c2.444,1.853,2.589,2.078,2.589,2.3,0,.17-.17.311-.451.311H29.967l-2.139.14V39.315l2.139.14Zm-.03,3.821a24.425,24.425,0,0,1,1.688-1.828c2.449,1.858,2.589,2.083,2.589,2.309,0,.17-.17.311-.451.311H29.967l-2.139.14V43.141l2.139.135Zm-2.078,4.5-.4.476v4.277h3.29V47.779Zm13.723-13.7H40.96l-2.669.14V33.155l2.669.14h6.976c.591-.791,1.237-1.517,1.883-2.249,2.7,2.108,2.87,2.389,2.87,2.669,0,.2-.14.366-.451.366H47.906a.822.822,0,0,1-.451.621v8.324h.566c.506-.646,1.152-1.432,1.713-2.053,2.394,1.883,2.559,2.139,2.559,2.5,0,.2-.14.336-.421.336H47.455v10.1h.536c.591-.786,1.3-1.633,1.938-2.334,2.729,2.108,2.955,2.419,2.955,2.785a.352.352,0,0,1-.391.336H39.021l-1.883.145V53.769l1.883.14h.366V43.928c0-1.913-.06-3.265-.14-4.417,3.541.336,4.132.561,4.132.927,0,.4-.255.566-1.072.9V53.909h2.169Z" transform="translate(60.076 -30.396)" fill="#365b3a"/>
        <path id="パス_707" data-name="パス 707" d="M43.716,44.544c.566-1.322.791-1.462,1.157-1.462.391,0,.676.14,1.688.871.957.731,1.1.987,1.1,1.3,0,.366-.225.646-.957.952v1.267c0,3.29.11,4.362.11,5.008a2.483,2.483,0,0,1-2.755,2.589c-.506,0-.566-.06-.676-.6A2.522,2.522,0,0,0,41.667,52.5c.025,2,.055,2.76.055,2.985,0,.7-.987,1.122-2.334,1.122-.506,0-.761-.2-.761-.616,0-.731.085-3.18.115-10.663H36.884l-.4.451v8.158c0,.646-.841,1.067-2.134,1.067-.536,0-.761-.2-.761-.616,0-.846.085-3.125.085-7.848,0-1.152,0-2.108-.085-3.15a13.035,13.035,0,0,1,3.431,1.152h1.718c0-1.1.025-2.194.025-3.29H35.2l-2.815.14V40.327l2.815.14h3.571V36.556H35.733A16.577,16.577,0,0,1,33.143,39.9l-.366-.2a36.926,36.926,0,0,0,1.8-8.549c3.4.731,3.8,1.042,3.8,1.347,0,.426-.311.651-1.157.791a18.809,18.809,0,0,1-1.067,2.474h2.614V34.728c0-1.8,0-2.98-.085-4.047,3.741.336,4,.531,4,.871,0,.305-.2.561-1.1.871v3.346h1.292c.591-.731,1.127-1.377,1.828-2.108,2.589,2.108,2.7,2.3,2.7,2.559,0,.2-.165.336-.446.336H41.582v3.911H43.52a27.5,27.5,0,0,1,1.913-2.194c2.729,2.194,2.845,2.389,2.845,2.644,0,.2-.17.336-.451.336H41.582c0,1.1.025,2.194.025,3.29Zm-2.108.786c0,2.224.03,4.472.06,6.7.871.085,1.262.115,1.518.115.506,0,.7-.17.7-.846V45.33ZM51.819,38.1c0,7.793.17,10.858.17,11.9,0,.756-.932,1.262-2.279,1.262-.591,0-.9-.28-.9-.726,0-1.132.2-4.337.2-12.521,0-2.219-.055-3.571-.14-4.723,3.491.336,4.052.561,4.052.927,0,.4-.28.566-1.1.9ZM50.637,52.9a19.061,19.061,0,0,0,2.364.17c1.067,0,1.237-.17,1.237-1.237V36.275c0-2.389-.055-3.8-.14-5,3.656.336,4.272.586,4.272.982,0,.421-.336.621-1.207.957v3.26c0,12.375.25,15.33.25,17.018,0,1.713-1.1,3.01-3.486,3.01-.506,0-.591-.055-.7-.591a3.09,3.09,0,0,0-2.619-2.589Z" transform="translate(83.188 -30.396)" fill="#365b3a"/>
        <path id="パス_708" data-name="パス 708" d="M47.844,38.7c0-1.122-.025-2.108-.085-2.98,3.376.28,3.716.476,3.716.786,0,.341-.17.506-.816.791v1.4h4.247c-.03-1.212-.055-2.164-.11-2.98,3.315.28,3.8.476,3.8.786,0,.341-.145.506-.816.791v1.4h1.683c.566-.731,1.212-1.462,1.913-2.249,2.644,1.913,3.07,2.389,3.07,2.674,0,.2-.14.361-.451.361H57.776c.025,1.242.135,3.1.135,3.941,0,.731-.866,1.152-2.249,1.152-.476,0-.756-.255-.756-.621V43.34H50.659v.786c0,.646-.957,1.072-2.164,1.072-.481,0-.761-.255-.761-.621,0-.7.11-2.589.11-5.093H43.487v.451c0,8.439-1.6,13-5.148,16.4L38,56.081c1.718-3.631,2.5-7.763,2.5-16.086,0-4.392-.085-5.684-.17-7.092a14.975,14.975,0,0,1,3.626,1.242h6.721v-.761c0-.987-.055-1.828-.135-2.76,3.486.341,4.272.566,4.272.932,0,.391-.28.561-1.1.9v1.693h6.13c.566-.736,1.207-1.467,1.913-2.254,2.644,1.913,3.065,2.389,3.065,2.674,0,.2-.14.366-.451.366H43.853l-.366.366v3.4Zm-.25,8.324-2.815.145V46.094l2.815.14h8.94c.651-.927.962-1.152,1.267-1.152.4,0,.706.055,1.6.761,1.017.786,1.267,1.177,1.267,1.432,0,.4-.28.621-1.292.9A15.342,15.342,0,0,1,56,52.029a28.681,28.681,0,0,0,8.464,1.347l-.085.426a3.773,3.773,0,0,0-1.8,2.023c-.225.561-.336.731-.706.731a2.286,2.286,0,0,1-.421-.03,18.923,18.923,0,0,1-7.983-2.78,26.644,26.644,0,0,1-11.309,3l-.115-.391a25.248,25.248,0,0,0,9.6-4.082,15.6,15.6,0,0,1-3.631-5.259Zm1.262,0a13.206,13.206,0,0,0,4.5,3.856,20.279,20.279,0,0,0,2.194-2.449c.341-.451.646-.927.957-1.407Zm1.8-7.537v3.07h4.247v-3.07Z" transform="translate(105.718 -30.624)" fill="#365b3a"/>
      </g>
    </g>
    <g id="グループ_1040" data-name="グループ 1040" transform="translate(106.546 183.357)">
      <g id="グループ_1039" data-name="グループ 1039">
        <path id="パス_709" data-name="パス 709" d="M25.495,42.072c0-1.728-.045-2.85-.12-3.826,2.995.29,3.456.466,3.456.781s-.215.461-.9.756V44.02h.316c.341-.536.656-1,1.122-1.608,1.7,1.608,1.8,1.828,1.8,2.023,0,.14-.14.265-.386.265h-2.85c.02,1.633.02,3.265.02,4.9.736-.15,1.442-.3,2.1-.466l.145.341a25.552,25.552,0,0,1-2.214,1.367c.045,4.382.145,6.205.145,7.012,0,1.2-.781,2.073-2.509,2.269a1.835,1.835,0,0,1-.316.02c-.371,0-.441-.145-.586-.681a2.55,2.55,0,0,0-1.778-1.728l.025-.366a13.793,13.793,0,0,0,1.558.12c.826,0,.972-.1.972-.952V52.008a13.734,13.734,0,0,1-1.287.511c-.125.631-.27.781-.561.781-.245,0-.486-.29-1.1-2.8,1-.12,1.973-.265,2.945-.411V44.7H24.473l-1.848.125v-.932l1.848.125h1.022Zm14.153,7.572c.486-1.022.776-1.192,1.022-1.192.3,0,.561.1,1.487.756,1.047.751,1.147.972,1.147,1.267,0,.366-.346.606-1.072.706a16.55,16.55,0,0,1-3.265,4.307,20.292,20.292,0,0,0,6.8,2.118l-.075.371A3.075,3.075,0,0,0,43.74,59.56c-.2.386-.316.561-.561.561a2.864,2.864,0,0,1-.436-.1,14.107,14.107,0,0,1-5.579-3.045,20.081,20.081,0,0,1-9.155,3.411l-.125-.341A21.034,21.034,0,0,0,35.8,55.539a14.033,14.033,0,0,1-1.928-3.24,15.456,15.456,0,0,1-.631-1.948l-2.144.1v-.927l2.434.12Zm2.679-3.776c.486-1.022.731-1.167.952-1.167.29,0,.556.17,1.262.706,1.072.826,1.2,1,1.2,1.292,0,.341-.346.656-1.317.731a15.976,15.976,0,0,1-2.264,1.387l-.3-.22a12.638,12.638,0,0,0,.566-2.043H32.757v.29c0,1.337-.781,2.194-1.783,2.194-.751,0-1.167-.416-1.167-.977a1.73,1.73,0,0,1,.681-1.362,2.764,2.764,0,0,0,.927-2.169c0-.12-.025-.245-.025-.366l.341-.12a5.056,5.056,0,0,1,.9,1.823H39.6A45.712,45.712,0,0,0,41.451,41c2.775,1.022,2.925,1.242,2.925,1.533,0,.27-.3.486-1.072.586a20.969,20.969,0,0,1-2.7,2.75Zm-6.285-4.6c-1.142.075-2.214.125-3.361.15,2.048.581,2.925,1.628,2.925,2.7a1.284,1.284,0,0,1-1.417,1.412c-.531,0-.947-.436-.972-1.167a4.344,4.344,0,0,0-.826-2.679l.24-.265c-.826.02-1.678.02-2.554.02l-.05-.366A59.011,59.011,0,0,0,42.5,37.955c2.018,1.608,2.214,1.9,2.214,2.194,0,.265-.17.391-.631.391a5,5,0,0,1-.756-.075c-2.164.341-4.382.606-6.671.756,1.753.586,2.559,1.658,2.559,2.7a1.283,1.283,0,0,1-1.342,1.437c-.681,0-.952-.411-1-1.167a4.675,4.675,0,0,0-.932-2.825Zm-2.189,9.06a10.722,10.722,0,0,0,3.19,3.9,15.591,15.591,0,0,0,1.728-2.434c.265-.461.511-.947.756-1.462Z" transform="translate(-22.55 -37.88)" fill="#365b3a"/>
        <path id="パス_710" data-name="パス 710" d="M42.231,47.125c.416-1.122.756-1.437,1.022-1.437.391,0,.756.145,1.538.731.9.681,1.122,1.022,1.122,1.267,0,.316-.2.556-.9.826-.025,1.1-.1,2.314-.22,3.506h1.192c.611-.756,1.072-1.312,1.778-2.043,2.459,1.948,2.579,2.164,2.579,2.434,0,.17-.14.29-.386.29H44.715a31.076,31.076,0,0,1-.581,3.631,5.009,5.009,0,0,1-5.314,4.142c-.386,0-.461-.125-.656-.681-.366-1.072-1.117-1.658-2.729-2.123l.05-.366c1.317.125,2.364.2,3.436.2a2.183,2.183,0,0,0,2.509-1.873,24.3,24.3,0,0,0,.511-2.925h-12l-2.339.12V51.9l2.339.12h12.1c.175-1.387.245-2.8.3-4.212H34.974l-.29,1.1c-.15.536-.806.876-1.753.876-1.047,0-1.342-.3-1.342-.952a108.4,108.4,0,0,0,3.02-10.888c3.24.611,3.606.876,3.606,1.267,0,.27-.29.536-1.167.781l-.561,2.068H44.4a22.729,22.729,0,0,1,1.753-2.068C48.907,42.082,49,42.182,49,42.447c0,.17-.145.3-.391.3h-12.3l-1.167,4.382Z" transform="translate(-2.32 -37.94)" fill="#365b3a"/>
      </g>
    </g>
    <g id="パス_711" data-name="パス 711" transform="translate(134.955 119.081)" fill="#365b3a" stroke-miterlimit="10">
      <path d="M 74.45454406738281 145.8953857421875 L 73.43662261962891 145.8953857421875 L 36.75638961791992 145.8953857421875 L 35.76992797851562 145.8953857421875 L 35.73895645141602 144.9094085693359 L 34.29658889770508 98.96889495849609 L 34.28495788574219 98.59825134277344 L 34.51446533203125 98.30696868896484 L 61.34352493286133 64.25601959228516 C 62.30866622924805 63.03221893310547 63.7554817199707 62.33053970336914 65.31327819824219 62.33053970336914 L 67.61206817626953 62.33053970336914 C 68.87660217285156 62.33053970336914 70.04154205322266 62.96338653564453 70.72826385498047 64.02339935302734 C 71.41378784179688 65.08157348632812 71.51540374755859 66.40021514892578 71.00009918212891 67.55077362060547 L 61.41302490234375 89.03450775146484 L 90.79753875732422 65.62786865234375 L 97.27472686767578 33.64297103881836 C 97.65396118164062 31.76028060913086 99.32686614990234 30.39307975769043 101.252311706543 30.39307975769043 L 104.7680969238281 30.39307975769043 C 105.7830963134766 30.39307975769043 106.7546157836914 30.76941871643066 107.5037231445312 31.45278739929199 C 108.2534637451172 32.13672637939453 108.7162628173828 33.06961822509766 108.8068923950195 34.07958602905273 L 114.0252990722656 90.93589782714844 L 114.0702362060547 91.42543029785156 L 113.7147445678711 91.76499938964844 L 74.45454406738281 129.2664184570312 L 74.45454406738281 144.8774719238281 L 74.45454406738281 145.8953857421875 Z" stroke="none"/>
      <path d="M 73.43662261962891 144.8774566650391 L 73.43662261962891 128.8310546875 L 113.0116195678711 91.02891540527344 L 107.7930374145508 34.17055511474609 C 107.6528396606445 32.60795211791992 106.3406600952148 31.41101455688477 104.7680969238281 31.41101455688477 L 101.2522964477539 31.41101455688477 C 99.80493927001953 31.41101455688477 98.55789947509766 32.42767333984375 98.27239990234375 33.84501266479492 L 91.72165679931641 66.19315338134766 L 58.78255844116211 92.43125152587891 L 70.07109832763672 67.13469696044922 C 70.86737823486328 65.35675048828125 69.56526184082031 63.34845352172852 67.612060546875 63.34845352172852 L 65.31327819824219 63.34845352172852 C 64.07625579833984 63.34845352172852 62.90933990478516 63.91441345214844 62.1430778503418 64.88601684570312 L 35.31401824951172 98.93695068359375 L 36.75639724731445 144.8774566650391 L 73.43662261962891 144.8774566650391 M 75.47248077392578 146.9133148193359 L 34.7834587097168 146.9133148193359 L 33.25589752197266 98.25955200195312 L 60.54396057128906 63.62605285644531 C 61.70367813110352 62.15555191040039 63.44181823730469 61.31259536743164 65.31327819824219 61.31259536743164 L 67.612060546875 61.31259536743164 C 69.22312164306641 61.31259536743164 70.70742034912109 62.11907196044922 71.58255767822266 63.46991348266602 C 72.45649719238281 64.81893157958984 72.5860595703125 66.50001525878906 71.92911529541016 67.96683502197266 L 64.04349517822266 85.63778686523438 L 89.8734130859375 65.06260681152344 L 96.27703857421875 33.44093322753906 C 96.75141906738281 31.08593368530273 98.84400177001953 29.37515449523926 101.2522964477539 29.37515449523926 L 104.7680969238281 29.37515449523926 C 106.0375213623047 29.37515449523926 107.2527008056641 29.84593391418457 108.1897583007812 30.70075416564941 C 109.1280822753906 31.55673408508301 109.7073211669922 32.72439193725586 109.8207397460938 33.98861312866211 L 115.1288223266602 91.82195281982422 L 75.47248077392578 129.7017822265625 L 75.47248077392578 146.9133148193359 Z" stroke="none" fill="#e1eaeb"/>
    </g>
    <g id="パス_712" data-name="パス 712" transform="translate(2.18 122.316)" fill="#365b3a" stroke-miterlimit="10">
      <path d="M 79.32373046875 146.7023315429688 L 78.33727264404297 146.7023315429688 L 41.65700912475586 146.7023315429688 L 40.63908767700195 146.7023315429688 L 40.63908767700195 145.6844024658203 L 40.63908767700195 130.0734100341797 L 1.378901243209839 92.57205200195312 L 1.023439645767212 92.23252868652344 L 1.068331956863403 91.74301910400391 L 6.281885623931885 34.88961791992188 C 6.375624179840088 33.87792587280273 6.839516639709473 32.94469451904297 7.588162899017334 32.2608642578125 C 8.337070465087891 31.57680320739746 9.307455062866211 31.2000789642334 10.32053184509277 31.2000789642334 L 13.84131622314453 31.2000789642334 C 15.75954723358154 31.2000789642334 17.43214797973633 32.56797027587891 17.81840896606445 34.4526481628418 L 24.29113960266113 66.43990325927734 L 53.67969512939453 89.84619903564453 L 44.0880241394043 68.36167907714844 C 43.57465362548828 67.20498657226562 43.67971801757812 65.88355255126953 44.36814880371094 64.82483673095703 C 45.05513381958008 63.76832580566406 46.2171630859375 63.1375732421875 47.4765625 63.1375732421875 L 49.78034591674805 63.1375732421875 C 51.31339263916016 63.1375732421875 52.79559326171875 63.8574333190918 53.74525451660156 65.06318664550781 L 80.57920837402344 99.11895751953125 L 80.8087158203125 99.41024780273438 L 80.79708862304688 99.78090667724609 L 79.35469818115234 145.7163543701172 L 79.32373046875 146.7023315429688 Z" stroke="none"/>
      <path d="M 78.33726501464844 145.6844024658203 L 79.77964782714844 99.74896240234375 L 52.94556427001953 65.69302368164062 C 52.18430328369141 64.7264404296875 51.01238250732422 64.15547943115234 49.78034591674805 64.15547943115234 L 47.4765625 64.15547943115234 C 45.52836608886719 64.15547943115234 44.22622299194336 66.16378021240234 45.01752471923828 67.94672393798828 L 56.31106567382812 93.24326324462891 L 23.36696434020996 67.00516510009766 L 16.82120513916016 34.65702056884766 C 16.53072357177734 33.23970413208008 15.28870391845703 32.21800231933594 13.84132385253906 32.21800231933594 L 10.32054424285889 32.21800231933594 C 8.752964019775391 32.21800231933594 7.440804481506348 33.41500091552734 7.2955641746521 34.98258209228516 L 2.082004308700562 91.83596038818359 L 41.65700531005859 129.6380462646484 L 41.65700531005859 145.6844024658203 L 78.33726501464844 145.6844024658203 M 80.31020355224609 147.7202606201172 L 39.62114334106445 147.7202606201172 L 39.62114334106445 130.5087738037109 L -0.03511571884155273 92.62905883789062 L 5.268224239349365 34.79666137695312 C 5.385464191436768 33.53118133544922 5.965504169464111 32.36436080932617 6.901664257049561 31.5092830657959 C 7.83860445022583 30.65346145629883 9.052783966064453 30.18214225769043 10.32054424285889 30.18214225769043 L 13.84132385253906 30.18214225769043 C 15.00994396209717 30.18214225769043 16.15150451660156 30.59034156799316 17.05572509765625 31.33152198791504 C 17.95642471313477 32.06984329223633 18.58142471313477 33.1057014465332 18.81560516357422 34.24826049804688 L 18.81662368774414 34.25324249267578 L 25.2153205871582 65.87461090087891 L 51.0483283996582 86.44913482666016 L 43.15852355957031 68.77666473388672 C 42.50394439697266 67.30181884765625 42.6378059387207 65.61858367919922 43.51478576660156 64.26992034912109 C 44.39028549194336 62.92348098754883 45.87134552001953 62.11962127685547 47.4765625 62.11962127685547 L 49.78034591674805 62.11962127685547 C 51.62274551391602 62.11962127685547 53.40390396118164 62.98458099365234 54.54494476318359 64.43338012695312 L 81.83776092529297 99.07154083251953 L 80.31020355224609 147.7202606201172 Z" stroke="none" fill="#e1eaeb"/>
    </g>
  </g>
</svg>
