<svg xmlns="http://www.w3.org/2000/svg" width="146.149" height="108.666" viewBox="0 0 146.149 108.666">
  <g id="グループ_1026" data-name="グループ 1026" transform="translate(0.575 0.666)">
    <g id="グループ_1025" data-name="グループ 1025" transform="translate(15.268 83.975)">
      <path id="パス_673" data-name="パス 673" d="M29.1,36.832H20.024L16.673,60.857h15.78Z" transform="translate(-16.673 -36.832)" fill="#abbb94"/>
      <path id="パス_674" data-name="パス 674" d="M37.438,36.832H28.361L25.009,60.857h15.78Z" transform="translate(-0.344 -36.832)" fill="#abbb94"/>
      <path id="パス_675" data-name="パス 675" d="M45.774,36.832H36.7L33.346,60.857h15.78Z" transform="translate(16.365 -36.832)" fill="#abbb94"/>
      <path id="パス_676" data-name="パス 676" d="M54.111,36.832H45.034L41.682,60.857h15.78Z" transform="translate(32.694 -36.832)" fill="#abbb94"/>
      <path id="パス_677" data-name="パス 677" d="M62.447,36.832H53.37L50.019,60.857H65.8Z" transform="translate(49.024 -36.832)" fill="#abbb94"/>
    </g>
    <g id="グループ_4267" data-name="グループ 4267" transform="translate(96.235)">
      <g id="グループ_4534" data-name="グループ 4534" transform="translate(0 0)">
        <path id="合体_2" data-name="合体 2" d="M46.712,81.55H2.048l3.465-15.7L0,58.056l10.193-22.2-4.68-6.167L15.8,14.674l-3.288-4.208L24.382,0,36.257,10.465,32.97,14.674,43.251,29.687l-4.68,6.167,10.193,22.2-5.513,7.793,3.464,15.7Z" fill="#728e4d" stroke="rgba(0,0,0,0)" stroke-miterlimit="10" stroke-width="1"/>
      </g>
    </g>
    <g id="グループ_4827" data-name="グループ 4827" transform="translate(72.089)">
      <g id="グループ_4534-2" data-name="グループ 4534" transform="translate(0 0)">
        <path id="合体_2-2" data-name="合体 2" d="M46.712,81.55H2.048l3.465-15.7L0,58.056l10.193-22.2-4.68-6.167L15.8,14.674l-3.288-4.208L24.382,0,36.257,10.465,32.97,14.674,43.251,29.687l-4.68,6.167,10.193,22.2-5.513,7.793,3.464,15.7Z" fill="#365b3a" stroke="rgba(0,0,0,0)" stroke-miterlimit="10" stroke-width="1"/>
      </g>
    </g>
    <g id="グループ_4825" data-name="グループ 4825" transform="translate(48.294 0.001)">
      <g id="グループ_4534-3" data-name="グループ 4534" transform="translate(0 0)">
        <path id="合体_2-3" data-name="合体 2" d="M46.712,81.55H2.048l3.465-15.7L0,58.056l10.193-22.2-4.68-6.167L15.8,14.674l-3.288-4.208L24.382,0,36.257,10.465,32.97,14.674,43.251,29.687l-4.68,6.167,10.193,22.2-5.513,7.793,3.464,15.7Z" fill="#728e4d" stroke="rgba(0,0,0,0)" stroke-miterlimit="10" stroke-width="1"/>
      </g>
    </g>
    <g id="グループ_4828" data-name="グループ 4828" transform="translate(21.946 0.001)">
      <g id="グループ_4534-4" data-name="グループ 4534" transform="translate(0 0)">
        <path id="合体_2-4" data-name="合体 2" d="M46.712,81.55H2.048l3.465-15.7L0,58.056l10.193-22.2-4.68-6.167L15.8,14.674l-3.288-4.208L24.382,0,36.257,10.465,32.97,14.674,43.251,29.687l-4.68,6.167,10.193,22.2-5.513,7.793,3.464,15.7Z" fill="#365b3a" stroke="rgba(0,0,0,0)" stroke-miterlimit="10" stroke-width="1"/>
      </g>
    </g>
    <g id="グループ_4826" data-name="グループ 4826" transform="translate(0 0.001)">
      <g id="グループ_4534-5" data-name="グループ 4534" transform="translate(0 0)">
        <path id="合体_2-5" data-name="合体 2" d="M46.712,81.55H2.048l3.465-15.7L0,58.056l10.193-22.2-4.68-6.167L15.8,14.674l-3.288-4.208L24.382,0,36.257,10.465,32.97,14.674,43.251,29.687l-4.68,6.167,10.193,22.2-5.513,7.793,3.464,15.7Z" fill="#728e4d" stroke="rgba(0,0,0,0)" stroke-miterlimit="10" stroke-width="1"/>
      </g>
    </g>
  </g>
</svg>
