<svg id="アートワーク_110" data-name="アートワーク 110" xmlns="http://www.w3.org/2000/svg" width="153" height="107.506" viewBox="0 0 153 107.506">
  <g id="グループ_1026" data-name="グループ 1026" transform="translate(0 0)">
    <path id="パス_662" data-name="パス 662" d="M27,0,16.595,20.641,22,19.088,9.652,41.6l6.339-1.519L3.457,66.077l6.527-.8L0,83.207H27" transform="translate(0 0)" fill="#365b3a"/>
    <path id="パス_663" data-name="パス 663" d="M11.083,0,21.49,20.641l-5.4-1.553L28.433,41.6l-6.339-1.519L34.628,66.077l-6.527-.8,9.985,17.935h-27" transform="translate(15.18)" fill="#365b3a"/>
    <path id="パス_664" data-name="パス 664" d="M35.339,0,24.931,20.641l5.4-1.553L17.989,41.6l6.339-1.519L11.794,66.077l6.527-.8L8.336,83.207h27" transform="translate(11.623 0)" fill="#728e4d"/>
    <path id="パス_665" data-name="パス 665" d="M19.419,0,29.827,20.641l-5.4-1.553L36.769,41.6l-6.339-1.519L42.964,66.077l-6.527-.8,9.985,17.935h-27" transform="translate(26.74)" fill="#728e4d"/>
    <path id="パス_666" data-name="パス 666" d="M43.676,0,33.268,20.641l5.4-1.553L26.325,41.6l6.339-1.519L20.13,66.077l6.527-.8L16.673,83.207h27" transform="translate(23.013 0)" fill="#365b3a"/>
    <path id="パス_667" data-name="パス 667" d="M27.756,0,38.163,20.641l-5.4-1.553L45.106,41.6l-6.339-1.519L51.3,66.077l-6.527-.8,9.985,17.935h-27" transform="translate(38.193)" fill="#365b3a"/>
    <path id="パス_668" data-name="パス 668" d="M52.012,0,41.6,20.641l5.4-1.553L34.662,41.6,41,40.084,28.467,66.077l6.527-.8L25.009,83.207h27" transform="translate(34.693 0)" fill="#728e4d"/>
    <path id="パス_669" data-name="パス 669" d="M36.092,0,46.5,20.641l-5.4-1.553L53.442,41.6,47.1,40.084,59.637,66.077l-6.527-.8,9.985,17.935h-27" transform="translate(49.873)" fill="#728e4d"/>
    <path id="パス_670" data-name="パス 670" d="M60.349,0,49.941,20.641l5.4-1.553L43,41.6l6.339-1.519L36.8,66.077l6.527-.8L33.346,83.207h27" transform="translate(46.372 0)" fill="#365b3a"/>
    <path id="パス_671" data-name="パス 671" d="M44.429,0,54.836,20.641l-5.4-1.553L61.779,41.6,55.44,40.084,67.974,66.077l-6.527-.8,9.985,17.935h-27" transform="translate(61.257)" fill="#365b3a"/>
    <path id="パス_678" data-name="パス 678" d="M68.685,0,58.277,20.641l5.4-1.553L51.335,41.6l6.339-1.519L45.14,66.077l6.527-.8L41.682,83.207h27" transform="translate(58.052 0)" fill="#728e4d"/>
    <path id="パス_679" data-name="パス 679" d="M52.765,0,63.173,20.641l-5.4-1.553L70.115,41.6l-6.339-1.519L76.31,66.077l-6.527-.8,9.985,17.935h-27" transform="translate(73.232)" fill="#728e4d"/>
    <g id="グループ_1025" data-name="グループ 1025" transform="translate(19.96 85.33)">
      <path id="パス_672" data-name="パス 672" d="M19.808,36.832H11.43L8.337,59.007H22.9Z" transform="translate(-8.337 -36.832)" fill="#abbb94"/>
      <path id="パス_673" data-name="パス 673" d="M28.144,36.832H19.766L16.673,59.007H31.238Z" transform="translate(3.267 -36.832)" fill="#abbb94"/>
      <path id="パス_674" data-name="パス 674" d="M36.481,36.832H28.1L25.009,59.007H39.574Z" transform="translate(14.87 -36.832)" fill="#abbb94"/>
      <path id="パス_675" data-name="パス 675" d="M44.817,36.832H36.439L33.346,59.007H47.911Z" transform="translate(26.473 -36.832)" fill="#abbb94"/>
      <path id="パス_676" data-name="パス 676" d="M53.154,36.832H44.776L41.682,59.007H56.247Z" transform="translate(38.076 -36.832)" fill="#abbb94"/>
      <path id="パス_677" data-name="パス 677" d="M61.49,36.832H53.112L50.019,59.007H64.584Z" transform="translate(49.68 -36.832)" fill="#abbb94"/>
    </g>
  </g>
</svg>
