<svg xmlns="http://www.w3.org/2000/svg" width="156.156" height="105" viewBox="0 0 156.156 105">
  <g id="アートワーク_109" data-name="アートワーク 109" transform="translate(0 0)">
    <g id="グループ_1033" data-name="グループ 1033">
      <g id="グループ_1027" data-name="グループ 1027" transform="translate(98.779 3.831)">
        <path id="パス_680" data-name="パス 680" d="M60.31,33.127H51.639l-3.2,22.953H63.512Z" transform="translate(-27.287 45.09)" fill="#abbb94"/>
        <path id="パス_681" data-name="パス 681" d="M89.922,36.373a17.591,17.591,0,0,0,1.3-17.588,14.384,14.384,0,0,0-9.74-8.19,11.344,11.344,0,0,0-3.8-7.5C74.975.544,71.273,0,68.739,0S62.5.544,59.8,3.095a11.335,11.335,0,0,0-3.806,7.5,14.389,14.389,0,0,0-9.74,8.19,17.6,17.6,0,0,0,1.3,17.588s-8.075,5.258-7.47,15.321c1.084,18.087,16.992,17.277,16.992,17.277a14.527,14.527,0,0,0,3.185,3.052,16.155,16.155,0,0,0,16.955,0A14.527,14.527,0,0,0,80.4,68.972s15.911.81,16.995-17.277C98,41.631,89.922,36.373,89.922,36.373Z" transform="translate(-40.05 0)" fill="#365b3a"/>
      </g>
      <g id="グループ_1028" data-name="グループ 1028" transform="translate(78.579)">
        <path id="パス_682" data-name="パス 682" d="M52.3,33.127H43.629l-3.2,22.953H55.5Z" transform="translate(-19.277 48.921)" fill="#abbb94"/>
        <path id="パス_683" data-name="パス 683" d="M81.912,38.245s5.851-7.817,1.3-18.493a14.554,14.554,0,0,0-9.74-8.612,12.13,12.13,0,0,0-3.8-7.887A12.64,12.64,0,0,0,60.729,0a12.636,12.636,0,0,0-8.943,3.254,12.132,12.132,0,0,0-3.806,7.887,14.559,14.559,0,0,0-9.739,8.612c-4.547,10.676,1.3,18.493,1.3,18.493a19.009,19.009,0,0,0-7.47,16.11c1.084,19.018,16.995,18.166,16.995,18.166A15.008,15.008,0,0,0,69.2,75.731a14.915,14.915,0,0,0,3.185-3.21s15.911.851,16.995-18.166A19.015,19.015,0,0,0,81.912,38.245Z" transform="translate(-32.04 0)" fill="#728e4d"/>
      </g>
      <g id="グループ_1029" data-name="グループ 1029" transform="translate(59.268)">
        <path id="パス_684" data-name="パス 684" d="M44.29,33.127H35.619l-3.2,22.953H47.492Z" transform="translate(-11.267 48.921)" fill="#abbb94"/>
        <path id="パス_685" data-name="パス 685" d="M73.9,38.245s5.851-7.817,1.3-18.493a14.554,14.554,0,0,0-9.74-8.612,12.13,12.13,0,0,0-3.8-7.887A12.64,12.64,0,0,0,52.719,0a12.64,12.64,0,0,0-8.943,3.254,12.132,12.132,0,0,0-3.806,7.887,14.559,14.559,0,0,0-9.74,8.612c-4.547,10.676,1.3,18.493,1.3,18.493a19.009,19.009,0,0,0-7.47,16.11c1.084,19.018,16.995,18.166,16.995,18.166a15.008,15.008,0,0,0,20.137,3.21,14.915,14.915,0,0,0,3.185-3.21s15.911.851,16.995-18.166A19.015,19.015,0,0,0,73.9,38.245Z" transform="translate(-24.03 0)" fill="#365b3a"/>
      </g>
      <g id="グループ_1030" data-name="グループ 1030" transform="translate(39.512 1.086)">
        <path id="パス_686" data-name="パス 686" d="M36.28,33.127H27.609l-3.2,22.953H39.482Z" transform="translate(-3.256 47.835)" fill="#abbb94"/>
        <path id="パス_687" data-name="パス 687" d="M65.892,37.715a18.783,18.783,0,0,0,1.3-18.236,14.5,14.5,0,0,0-9.74-8.492,11.9,11.9,0,0,0-3.8-7.777C50.945.564,47.243,0,44.709,0s-6.237.564-8.943,3.209a11.9,11.9,0,0,0-3.806,7.777,14.507,14.507,0,0,0-9.74,8.492,18.791,18.791,0,0,0,1.3,18.236A18.679,18.679,0,0,0,16.053,53.6c1.084,18.754,16.995,17.914,16.995,17.914a14.733,14.733,0,0,0,3.185,3.165,15.663,15.663,0,0,0,16.952,0,14.8,14.8,0,0,0,3.185-3.165S72.28,72.355,73.365,53.6A18.685,18.685,0,0,0,65.892,37.715Z" transform="translate(-16.02 0)" fill="#728e4d"/>
      </g>
      <g id="グループ_1031" data-name="グループ 1031" transform="translate(20.2 1.086)">
        <path id="パス_688" data-name="パス 688" d="M28.27,33.127H19.6L16.4,56.079H31.472Z" transform="translate(4.754 47.835)" fill="#abbb94"/>
        <path id="パス_689" data-name="パス 689" d="M57.882,37.715a18.783,18.783,0,0,0,1.3-18.236,14.5,14.5,0,0,0-9.737-8.492,11.913,11.913,0,0,0-3.806-7.777C42.935.564,39.233,0,36.7,0s-6.237.564-8.943,3.209a11.9,11.9,0,0,0-3.806,7.777,14.507,14.507,0,0,0-9.74,8.492,18.791,18.791,0,0,0,1.3,18.236A18.679,18.679,0,0,0,8.043,53.6C9.127,72.355,25.038,71.515,25.038,71.515a14.733,14.733,0,0,0,3.185,3.165,15.663,15.663,0,0,0,16.952,0,14.8,14.8,0,0,0,3.185-3.165S64.27,72.355,65.355,53.6A18.685,18.685,0,0,0,57.882,37.715Z" transform="translate(-8.01 0)" fill="#365b3a"/>
      </g>
      <g id="グループ_1032" data-name="グループ 1032" transform="translate(0 3.58)">
        <path id="パス_690" data-name="パス 690" d="M20.26,33.127H11.589l-3.2,22.953H23.462Z" transform="translate(12.764 45.341)" fill="#abbb94"/>
        <path id="パス_691" data-name="パス 691" d="M49.872,36.5a17.7,17.7,0,0,0,1.3-17.647,14.4,14.4,0,0,0-9.737-8.218,11.4,11.4,0,0,0-3.806-7.526C34.925.545,31.223,0,28.689,0s-6.237.545-8.943,3.105a11.386,11.386,0,0,0-3.806,7.526A14.4,14.4,0,0,0,6.2,18.849,17.7,17.7,0,0,0,7.5,36.5S-.573,41.771.033,51.869C1.117,70.017,17.027,69.2,17.027,69.2a14.485,14.485,0,0,0,3.185,3.063,15.428,15.428,0,0,0,8.476,2.411,15.434,15.434,0,0,0,8.476-2.411A14.551,14.551,0,0,0,40.35,69.2s15.911.812,16.995-17.335C57.948,41.771,49.872,36.5,49.872,36.5Z" transform="translate(0 0)" fill="#728e4d"/>
      </g>
    </g>
  </g>
</svg>
