<svg id="グループ_1042" data-name="グループ 1042" xmlns="http://www.w3.org/2000/svg" width="118" height="114" viewBox="0 0 118 114">
  <path id="パス_713" data-name="パス 713" d="M68.758,24.843c-.3-5.947-.86-10.436-4.177-12.414-3.857-2.3-11.148-4.2-11.148-4.2a8.863,8.863,0,0,1-6.044,1.963A8.866,8.866,0,0,1,41.342,8.23s-7.288,1.9-11.145,4.2c-3.32,1.979-3.875,6.468-4.18,12.414-.265,5.186-1.231,47.4-1.231,47.4h8.359L35.4,85.894H59.376l2.255-13.65h8.359S69.026,30.029,68.758,24.843Z" transform="translate(29.472 10.245)" fill="#abbb94"/>
  <path id="パス_714" data-name="パス 714" d="M52.536,24.843c-.3-5.947-.862-10.436-4.18-12.414-3.857-2.3-11.145-4.2-11.145-4.2a8.872,8.872,0,0,1-6.047,1.963A8.872,8.872,0,0,1,25.118,8.23s-7.288,1.9-11.145,4.2c-3.32,1.979-3.875,6.468-4.18,12.414-.265,5.186-1.231,47.4-1.231,47.4h8.359l2.255,13.65H43.152l2.255-13.65h8.359S52.8,30.029,52.536,24.843Z" transform="translate(10.181 10.245)" fill="#abbb94"/>
  <ellipse id="楕円形_24" data-name="楕円形 24" cx="7.684" cy="8.825" rx="7.684" ry="8.825" transform="translate(51.419 18.134)" fill="#376e6d"/>
  <path id="パス_715" data-name="パス 715" d="M60.731,33.154c-.3-6.007-.86-10.542-4.177-12.541-3.859-2.321-11.148-4.241-11.148-4.241a8.815,8.815,0,0,1-6.047,1.983,8.813,8.813,0,0,1-6.044-1.983s-7.288,1.92-11.148,4.241c-3.317,2-3.872,6.534-4.177,12.541-.268,5.239-1.233,47.884-1.233,47.884h8.359l2.258,13.787H51.347l2.258-13.787h8.357S61,38.393,60.731,33.154Z" transform="translate(19.925 19.175)" fill="#728e4d"/>
  <ellipse id="楕円形_25" data-name="楕円形 25" cx="7.684" cy="8.825" rx="7.684" ry="8.825" transform="translate(14.736 18.134)" fill="#376e6d"/>
  <path id="パス_716" data-name="パス 716" d="M43.974,33.154c-.3-6.007-.86-10.542-4.18-12.541-3.857-2.321-11.145-4.241-11.145-4.241A8.822,8.822,0,0,1,22.6,18.355a8.822,8.822,0,0,1-6.047-1.983S9.267,18.292,5.41,20.613c-3.32,2-3.875,6.534-4.18,12.541C.965,38.393,0,81.038,0,81.038H8.359l2.255,13.787H34.59l2.255-13.787H45.2S44.24,38.393,43.974,33.154Z" transform="translate(0 19.175)" fill="#728e4d"/>
  <ellipse id="楕円形_26" data-name="楕円形 26" cx="7.684" cy="8.825" rx="7.684" ry="8.825" transform="translate(87.531 18.134)" fill="#376e6d"/>
  <path id="パス_717" data-name="パス 717" d="M77.228,33.154c-.3-6.007-.86-10.542-4.18-12.541C69.192,18.292,61.9,16.372,61.9,16.372a8.815,8.815,0,0,1-6.047,1.983,8.813,8.813,0,0,1-6.044-1.983s-7.291,1.92-11.148,4.241c-3.317,2-3.872,6.534-4.177,12.541-.268,5.239-1.233,47.884-1.233,47.884h8.359l2.258,13.787H67.844L70.1,81.038h8.359S77.494,38.393,77.228,33.154Z" transform="translate(39.541 19.175)" fill="#728e4d"/>
  <path id="パス_1388" data-name="パス 1388" d="M-2-1H27L25.094,12.673H0Z" transform="translate(10 101.327)" fill="#365b3a"/>
  <path id="パス_1389" data-name="パス 1389" d="M-2-1H27L24.7,12.673H0Z" transform="translate(46.418 101.327)" fill="#365b3a"/>
  <path id="パス_1390" data-name="パス 1390" d="M-2-1H27L25.142,12.673H0Z" transform="translate(82.836 101.327)" fill="#365b3a"/>
  <g id="アートワーク_106" data-name="アートワーク 106" transform="translate(14.431 0)">
    <g id="グループ_1042-2" data-name="グループ 1042">
      <ellipse id="楕円形_22" data-name="楕円形 22" cx="7.809" cy="8.969" rx="7.809" ry="8.969" transform="translate(55.266)" fill="#abbb94"/>
      <ellipse id="楕円形_23" data-name="楕円形 23" cx="7.809" cy="8.969" rx="7.809" ry="8.969" transform="translate(19.091)" fill="#abbb94"/>
      <path id="パス_1391" data-name="パス 1391" d="M7.809,0c4.313,0,7.809,4.015,7.809,8.969s-3.5,8.969-7.809,8.969S0,13.922,0,8.969,3.5,0,7.809,0Z" transform="translate(37.365 18.154)" fill="#365b3a"/>
      <ellipse id="楕円形_25-2" data-name="楕円形 25" cx="7.809" cy="8.969" rx="7.809" ry="8.969" transform="translate(0 18.154)" fill="#365b3a"/>
      <ellipse id="楕円形_26-2" data-name="楕円形 26" cx="7.809" cy="8.969" rx="7.809" ry="8.969" transform="translate(73.148 18.154)" fill="#365b3a"/>
    </g>
  </g>
</svg>
