<svg id="アートワーク_108" data-name="アートワーク 108" xmlns="http://www.w3.org/2000/svg" width="126" height="96.244" viewBox="0 0 126 96.244">
  <g id="グループ_1034" data-name="グループ 1034" transform="translate(0 0)">
    <path id="パス_692" data-name="パス 692" d="M125.019,47.712c-1.588-4.837-7.528-11.666-15.7-11.213,0,0-.911-14.652-11.17-22.1-9.446-6.859-20.331-2.98-20.331-2.98S72.933-.674,53.715.03c-19.106.7-30.8,14.986-30.308,22.278,0,0-19.31,1.539-22.96,24.121S16.384,74.416,27.636,74.175s62.379.251,72.072.251C121.861,74.427,128.812,59.265,125.019,47.712Z" transform="translate(0 0)" fill="#abbb94"/>
    <ellipse id="楕円形_19" data-name="楕円形 19" cx="8.643" cy="8.643" rx="8.643" ry="8.643" transform="translate(87.308 67.737)" fill="#abbb94" stroke="#ebede2" stroke-miterlimit="10" stroke-width="1.776"/>
    <circle id="楕円形_20" data-name="楕円形 20" cx="5.004" cy="5.004" r="5.004" transform="translate(83.544 85.991)" fill="#abbb94" stroke="#e1eaeb" stroke-miterlimit="10" stroke-width="0.488"/>
    <path id="パス_693" data-name="パス 693" d="M42.446,4.813a23.5,23.5,0,0,0-7.759,5.149,15.815,15.815,0,0,0-3.6,5.725" transform="translate(36.183 5.874)" fill="#abbb94" stroke="#ebede2" stroke-miterlimit="10" stroke-width="1.776"/>
  </g>
</svg>
