<?xml version="1.0" encoding="utf-8"?>
<!-- Generator: Adobe Illustrator 26.0.1, SVG Export Plug-In . SVG Version: 6.00 Build 0)  -->
<svg version="1.1" xmlns="http://www.w3.org/2000/svg" xmlns:xlink="http://www.w3.org/1999/xlink" x="0px" y="0px"
	 viewBox="0 0 194.098 52.346" style="enable-background:new 0 0 194.098 52.346;" xml:space="preserve">
<style type="text/css">
	.st0{fill:#4D4C4D;}
	.st1{fill:#FFFFFF;}
	.st2{fill:#AAAAAA;}
	.st3{fill:#D1D1D2;}
	.st4{fill:#888988;}
	.st5{fill:#E2ECCC;}
	.st6{fill:#608233;}
	.st7{fill:#89B829;}
	.st8{fill:#AEC947;}
	.st9{fill:#4A642F;}
	.st10{fill:#F5CECC;}
	.st11{fill:#912039;}
	.st12{fill:#D5124B;}
	.st13{fill:#E28086;}
	.st14{fill:#72162B;}
	.st15{fill:#B7B9D2;}
	.st16{fill:#1C2D59;}
	.st17{fill:#2A559C;}
	.st18{fill:#152040;}
	.st19{fill:#182448;}
	.st20{fill:#F1E4C5;}
	.st21{fill:#CB9C2E;}
	.st22{fill:#E6AE41;}
	.st23{fill:#6C5425;}
	.st24{fill:#8C6A27;}
	.st25{fill:#C5D1E8;}
	.st26{fill:#0E62A9;}
	.st27{fill:#397BB7;}
	.st28{fill:#003757;}
	.st29{fill:#00487B;}
	.st30{fill:#211714;}
	.st31{fill:#003B87;}
</style>
<g id="レイヤー_1">
</g>
<g id="レイヤー_2">
	<path class="st0" d="M115.702,4.797c0.729,0,2.265,0.013,2.588,0.013h3.076c0.825,0,1.776,0,2.619-0.013v0.9
		c-0.626-0.012-1.92-0.012-2.588-0.012h-3.075c-1.817,0-2.044,0-2.62,0.012V4.797z"/>
	<path class="st0" d="M53.794,0.423c0.22,0.636,0.789,1.495,1.387,1.973L54.815,2.95c-0.623-0.387-1.283-1.012-1.7-1.552
		c-0.75,0.906-1.45,1.523-2.369,2.118l-0.359-0.554c1.059-0.824,1.63-1.729,1.894-2.539H53.794z M55.234,0.769h5.156v0.584h-3.855
		v1.932h3.637c-0.074,2.495-0.532,3.685-1.37,4.743c0.647,0.903,1.431,1.355,1.755,1.533l-0.44,0.466
		c-0.75-0.352-1.303-0.731-1.92-1.366c-0.793,0.71-1.452,1.094-2.306,1.432l-0.449-0.43c0.449-0.244,1.409-0.745,2.215-1.722
		c-0.597-0.948-0.965-2.622-0.984-3.591l1.183-0.303c0,0.783,0.101,1.952,0.406,2.892c0.404-0.907,0.5-2.15,0.509-3.079h-2.235
		v0.668c0,2.984-0.78,4.33-2.094,5.574l-0.512-0.365c0.178-0.208,0.374-0.441,0.637-0.939l-1.013,0.731
		c-0.032-0.273-0.063-0.43-0.104-0.709c-1.587,0.727-1.765,0.815-2.359,1.052c-0.053,0.038-0.138,0.126-0.223,0.126
		c-0.069,0-0.069,0-0.079-0.021l-0.38-0.991c0.137-0.021,0.294-0.033,0.659-0.117v-5.5h1.305V3.035c0-0.105-0.021-0.554-0.031-0.68
		l1.264,0.024c0.041,0,0.054,0.082,0.054,0.103c0,0.032-0.032,0.144-0.043,0.199v0.689h1.055v3.464h-2.287v1.712
		c0.26-0.074,0.731-0.195,0.94-0.271c-0.169-0.615-0.261-0.837-0.375-1.082l0.456-0.337c0.471,0.542,1.025,1.357,1.242,1.776
		c0.47-1.026,0.587-2.389,0.587-3.802V0.769z M52.384,4.776h1.073V3.942h-1.073V4.776z M53.457,5.36h-1.073v0.888h1.073V5.36z"/>
	<path class="st0" d="M62.62,9.361v0.487h-1.45V0.989h8.85v8.859h-1.452V9.361H62.62z M64.863,1.575H62.62V4.83h2.243V1.575z
		 M64.863,5.405H62.62v3.37h2.243V5.405z M68.569,1.575h-2.243V4.83h2.243V1.575z M66.327,8.775h2.243v-3.37h-2.243V8.775z"/>
	<path class="st0" d="M70.794,5.194c0.565-0.324,1.834-1.055,2.495-3.339c0.051-0.178,0.206-0.732,0.259-1.222l1.525,0.388
		c0.074,0.021,0.178,0.038,0.178,0.082c0,0.042-0.093,0.176-0.103,0.208c-0.167,0.437-0.251,0.69-0.429,1.037h2.17
		c0.323,0,1.034,0,1.647-0.044l0.61,0.573c-0.409,1.703-0.628,2.589-1.349,3.719c-1.753,2.734-4.642,3.045-6.261,3.203L71.327,9.14
		c1.45-0.174,5.416-0.658,6.085-6.128h-3.06c-0.794,1.222-1.564,2.006-3.152,2.747L70.794,5.194z M78.485,0.423
		c0.451,0.387,0.792,0.786,1.128,1.262l-0.677,0.439c-0.209-0.439-0.596-1.029-0.941-1.385L78.485,0.423z M79.523-0.004
		c0.154,0.113,0.636,0.503,1.073,1.106L79.938,1.52c-0.21-0.335-0.543-0.833-0.909-1.211L79.523-0.004z"/>
	<path class="st0" d="M83.324,4.433c0,1.056-0.189,2.41-0.731,3.28c-0.772,1.206-1.898,1.721-2.472,1.97l-0.39-0.554
		c1.692-1.076,2.134-2.518,2.134-4.653V2.22c0-0.144-0.013-1.149-0.024-1.252l1.378,0.091c0.061,0.012,0.178,0.036,0.178,0.126
		c0,0.047-0.062,0.22-0.075,0.276V4.433z M84.326,2.077c0-0.17,0-0.891-0.031-1.146l1.432,0.111c0.052,0,0.177,0.009,0.177,0.071
		c0,0.052-0.075,0.261-0.075,0.316v6.009c1.627-0.727,2.306-1.722,2.768-2.731l0.543,0.385c-0.274,0.699-1.037,2.666-3.142,3.894
		c-0.138,0.072-0.813,0.406-0.972,0.478l-0.763-0.803c0.053-0.468,0.063-0.844,0.063-1.648V2.077z"/>
	<path class="st0" d="M89.618,4.797c0.732,0,2.265,0.013,2.588,0.013h3.079c0.824,0,1.774,0,2.618-0.013v0.9
		c-0.626-0.012-1.919-0.012-2.59-0.012H92.24c-1.818,0-2.047,0-2.622,0.012V4.797z"/>
	<path class="st0" d="M98.199,8.891c2.462-0.573,5.145-1.91,5.919-6.57l-4.167,0.026c-0.981,0-1.4,0.008-1.816,0.031V1.654
		c0.595,0.024,1.198,0.024,1.798,0.024l3.963-0.012c0.565,0,1.002-0.012,1.201-0.017l0.71,0.707
		c-0.396,1.577-0.646,2.534-1.512,3.802c-1.689,2.465-4.372,3.069-5.719,3.383L98.199,8.891z M106.486-0.026
		c0.585,0,1.065,0.484,1.065,1.076c0,0.604-0.49,1.087-1.065,1.087c-0.584,0-1.066-0.472-1.066-1.087
		C105.42,0.458,105.892-0.026,106.486-0.026 M106.486,0.527c-0.294,0-0.526,0.242-0.526,0.523c0,0.295,0.231,0.532,0.526,0.532
		c0.282,0,0.509-0.238,0.509-0.532C106.994,0.778,106.768,0.527,106.486,0.527"/>
	<path class="st0" d="M106.414,7.784c1.366-1.22,1.909-2.278,2.318-3.248l0.647,0.281c-0.19,0.764-0.563,2.287-1.763,4.02
		L106.414,7.784z M110.285,1.896c0-0.125-0.007-0.722-0.018-1.022l1.315,0.072c0.093,0.01,0.294,0.022,0.294,0.095
		c0,0.054-0.074,0.291-0.074,0.345v1.507h1.523c0.294,0,0.959,0,1.817-0.034v0.729c-0.408-0.024-0.816-0.032-1.786-0.032h-1.554
		V8.39c0,1.074-0.501,1.273-1.088,1.273c-0.29,0-1.033-0.053-2.046-0.454l0.199-0.664c0.291,0.125,0.658,0.252,0.983,0.252
		c0.325,0,0.435-0.127,0.435-0.479v-4.76h-1.671c-0.873,0-1.283,0.009-1.709,0.032V2.861c0.47,0.016,0.865,0.034,1.709,0.034h1.671
		V1.896z M114.202,8.743c-0.355-1.323-0.963-2.829-1.67-3.926l0.607-0.397c0.434,0.495,1.249,1.391,2.431,3.352L114.202,8.743z"/>
	<path class="st0" d="M127.208,4.433c0,1.056-0.187,2.41-0.728,3.28c-0.774,1.206-1.902,1.721-2.476,1.97l-0.39-0.554
		c1.69-1.076,2.133-2.518,2.133-4.653V2.22c0-0.144-0.013-1.149-0.021-1.252l1.379,0.091c0.061,0.012,0.177,0.036,0.177,0.126
		c0,0.047-0.061,0.22-0.075,0.276V4.433z M128.208,2.077c0-0.17,0-0.891-0.029-1.146l1.434,0.111c0.05,0,0.172,0.009,0.172,0.071
		c0,0.052-0.071,0.261-0.071,0.316v6.009c1.628-0.727,2.306-1.722,2.768-2.731l0.54,0.385c-0.27,0.699-1.034,2.666-3.142,3.894
		c-0.139,0.072-0.813,0.406-0.969,0.478l-0.761-0.803c0.049-0.468,0.057-0.844,0.057-1.648V2.077z"/>
	<path class="st0" d="M134.002,9.14c2.484-0.479,2.935-2.027,2.852-4.604h-2.066c-0.18,0-0.964,0-1.673,0.029v-0.73
		c0.709,0.024,1.054,0.038,1.673,0.038h5.581c0.868,0,1.272-0.014,1.674-0.038v0.73c-0.619-0.029-1.3-0.029-1.653-0.029h-1.929
		c0,0.531,0.009,2.004-0.356,2.8c-0.846,1.859-2.715,2.243-3.811,2.463L134.002,9.14z M136.236,1.971
		c-0.772,0-1.357,0.017-1.772,0.031V1.27c0.437,0.022,1.012,0.029,1.762,0.029h2.444c0.711,0,1.388-0.021,1.732-0.029v0.731
		c-0.503-0.024-1.056-0.031-1.692-0.031H136.236z M141.216,2.285c-0.104-0.296-0.387-0.962-0.729-1.497l0.509-0.239
		c0.384,0.451,0.682,0.889,0.93,1.422L141.216,2.285z M142.249,1.855c-0.154-0.45-0.408-0.94-0.689-1.328l0.522-0.26
		c0.365,0.387,0.647,0.774,0.896,1.233L142.249,1.855z"/>
	<path class="st0" d="M141.45,6.415c2.16-0.666,3.883-1.618,5.506-4.008l1.041,0.66c0.04,0.026,0.147,0.091,0.147,0.146
		c0,0.031-0.179,0.155-0.208,0.186c-1.058,1.02-1.17,1.149-1.8,1.608v3.849c0,0.252,0,0.88,0.013,1.132h-1.23
		c0.01-0.223,0.01-0.827,0.01-1.132V5.735c-0.908,0.461-1.68,0.774-3.279,1.14L141.45,6.415z"/>
	<path class="st0" d="M148.322,8.107c3.61-0.407,6.023-1.65,8.067-4.814l0.534,0.398c-0.345,0.699-0.963,1.93-2.201,3.123
		c-1.069,1.01-2.328,1.794-3.72,2.278c-0.284,0.089-1.67,0.508-1.98,0.614L148.322,8.107z M151.624,3.642
		c-0.488-0.649-1.224-1.599-2.81-2.349l0.32-0.561c1.451,0.34,2.49,0.829,3.602,1.677L151.624,3.642z"/>
	<path class="st0" d="M156.768,5.194c0.562-0.324,1.835-1.055,2.491-3.339c0.053-0.178,0.213-0.732,0.264-1.222l1.524,0.388
		c0.073,0.021,0.176,0.038,0.176,0.082c0,0.042-0.093,0.176-0.103,0.208c-0.168,0.437-0.251,0.69-0.428,1.037h2.171
		c0.324,0,1.034,0,1.649-0.044l0.604,0.573c-0.408,1.703-0.625,2.589-1.346,3.719c-1.754,2.734-4.644,3.045-6.259,3.203
		l-0.213-0.658c1.452-0.174,5.417-0.658,6.085-6.128h-3.056c-0.797,1.222-1.567,2.006-3.152,2.747L156.768,5.194z M164.459,0.423
		c0.449,0.387,0.794,0.786,1.129,1.262l-0.681,0.439c-0.21-0.439-0.595-1.029-0.937-1.385L164.459,0.423z M165.493-0.004
		c0.158,0.113,0.637,0.503,1.078,1.106l-0.662,0.417c-0.205-0.335-0.539-0.833-0.906-1.211L165.493-0.004z"/>
	<path class="st0" d="M173.335,9.14c-0.84-1.382-1.723-2.182-2.401-2.742c-1.359,1.483-2.704,2.158-4.989,2.846l-0.281-0.636
		c0.856-0.218,2.224-0.784,3.364-1.861c1.436-1.376,2.054-3.245,2.409-4.488l-3.133,0.026c-0.384,0-1.421,0.029-1.816,0.037
		l-0.011-0.727c0.679,0.028,1.084,0.041,1.814,0.028l2.852-0.017c0.147,0,1.274-0.01,1.649-0.044l0.51,0.557
		c-0.052,0.103-0.449,1.064-0.53,1.261c-0.343,0.815-0.908,1.902-1.335,2.413c0.456,0.261,2.105,1.222,3.2,2.433L173.335,9.14z"/>
	<polygon class="st1" points="21.222,28.629 32.515,35.154 32.515,22.113 	"/>
	<polygon class="st2" points="32.515,28.629 36.627,28.629 32.515,22.113 	"/>
	<polygon class="st3" points="32.515,22.113 36.627,28.629 36.627,19.731 	"/>
	<polygon class="st1" points="36.627,28.629 41.759,28.629 36.627,19.731 	"/>
	<polygon class="st3" points="36.627,19.731 41.759,28.629 41.759,16.771 	"/>
	<polygon class="st3" points="32.515,28.629 36.627,28.629 32.515,35.154 	"/>
	<polygon class="st1" points="32.515,35.154 36.627,28.629 36.627,37.52 	"/>
	<polygon class="st4" points="36.627,28.629 41.759,28.629 36.627,37.52 	"/>
	<polygon class="st3" points="36.627,37.52 41.759,28.63 41.759,40.49 	"/>
	<polygon class="st5" points="21.222,28.629 32.515,22.113 21.222,15.588 	"/>
	<polygon class="st6" points="26.869,18.851 28.923,15.288 21.222,15.588 	"/>
	<polygon class="st7" points="21.222,15.589 28.923,15.288 21.222,10.849 	"/>
	<polygon class="st8" points="28.923,15.288 31.489,10.841 21.222,10.849 	"/>
	<polygon class="st7" points="21.222,10.849 31.489,10.841 21.222,4.915 	"/>
	<polygon class="st7" points="26.869,18.851 28.923,15.288 32.515,22.113 	"/>
	<polygon class="st8" points="32.515,22.113 28.923,15.288 36.627,19.731 	"/>
	<polygon class="st9" points="28.923,15.288 31.489,10.841 36.627,19.732 	"/>
	<polygon class="st7" points="36.627,19.731 31.489,10.841 41.759,16.768 	"/>
	<polygon class="st10" points="21.222,28.629 21.222,41.672 32.515,35.154 	"/>
	<polygon class="st11" points="26.869,38.412 28.923,41.967 32.515,35.154 	"/>
	<polygon class="st12" points="32.515,35.154 28.923,41.967 36.627,37.52 	"/>
	<polygon class="st13" points="28.923,41.967 31.489,46.422 36.627,37.52 	"/>
	<polygon class="st12" points="36.627,37.52 31.489,46.422 41.759,40.499 	"/>
	<polygon class="st12" points="26.869,38.412 28.923,41.967 21.222,41.673 	"/>
	<polygon class="st13" points="21.222,41.673 28.923,41.967 21.222,46.422 	"/>
	<polygon class="st14" points="28.923,41.967 31.489,46.422 21.222,46.422 	"/>
	<polygon class="st12" points="21.222,46.422 31.489,46.422 21.222,52.346 	"/>
	<polygon class="st15" points="21.222,28.629 9.924,35.154 9.924,22.113 	"/>
	<polygon class="st16" points="9.924,28.629 5.817,28.629 9.924,22.113 	"/>
	<polygon class="st17" points="9.924,22.113 5.817,28.629 5.817,19.731 	"/>
	<polygon class="st18" points="5.817,28.629 0.675,28.629 5.817,19.731 	"/>
	<polygon class="st16" points="5.817,19.731 0.675,28.629 0.675,16.771 	"/>
	<polygon class="st19" points="9.924,28.629 5.817,28.629 9.924,35.154 	"/>
	<polygon class="st16" points="9.924,35.154 5.817,28.629 5.817,37.52 	"/>
	<polygon class="st17" points="5.817,28.629 0.675,28.629 5.817,37.52 	"/>
	<polygon class="st16" points="5.817,37.52 0.675,28.63 0.675,40.49 	"/>
	<polygon class="st20" points="21.222,28.629 9.924,22.113 21.222,15.588 	"/>
	<polygon class="st21" points="15.566,18.851 13.517,15.288 21.222,15.588 	"/>
	<polygon class="st22" points="21.222,15.589 13.517,15.288 21.222,10.849 	"/>
	<polygon class="st23" points="13.517,15.288 10.953,10.841 21.222,10.849 	"/>
	<polygon class="st21" points="21.222,10.849 10.953,10.841 21.222,4.915 	"/>
	<polygon class="st24" points="15.566,18.851 13.517,15.288 9.924,22.113 	"/>
	<polygon class="st21" points="9.924,22.113 13.517,15.288 5.817,19.731 	"/>
	<polygon class="st22" points="13.517,15.288 10.953,10.841 5.817,19.732 	"/>
	<polygon class="st21" points="5.817,19.731 10.953,10.841 0.675,16.768 	"/>
	<polygon class="st25" points="21.222,28.629 21.222,41.672 9.924,35.154 	"/>
	<polygon class="st26" points="15.566,38.412 13.517,41.967 9.924,35.154 	"/>
	<polygon class="st27" points="9.924,35.154 13.517,41.967 5.817,37.52 	"/>
	<polygon class="st28" points="13.517,41.967 10.953,46.422 5.817,37.52 	"/>
	<polygon class="st26" points="5.817,37.52 10.953,46.422 0.675,40.499 	"/>
	<polygon class="st29" points="15.566,38.412 13.517,41.967 21.222,41.673 	"/>
	<polygon class="st26" points="21.222,41.673 13.517,41.967 21.222,46.422 	"/>
	<polygon class="st27" points="13.517,41.967 10.953,46.422 21.222,46.422 	"/>
	<polygon class="st26" points="21.222,46.422 10.953,46.422 21.222,52.346 	"/>
	<path class="st30" d="M17.644,21.653v0.226c-0.391,0.024-0.712,0.08-0.948,0.168c-0.24,0.082-0.458,0.234-0.645,0.426
		c-0.265,0.271-0.431,0.649-0.485,1.136c-0.047,0.358-0.065,0.771-0.065,1.247v7.52c0,0.575,0.025,1.015,0.074,1.343
		c0.061,0.327,0.149,0.59,0.272,0.781c0.173,0.279,0.405,0.477,0.686,0.612c0.277,0.14,0.65,0.214,1.112,0.239v0.238h-6.524v-0.238
		c0.387-0.015,0.704-0.074,0.951-0.169c0.245-0.091,0.462-0.232,0.637-0.421c0.22-0.22,0.364-0.487,0.435-0.826
		c0.081-0.332,0.115-0.852,0.115-1.559v-7.52c0-0.706-0.035-1.224-0.115-1.555c-0.071-0.332-0.216-0.612-0.435-0.828
		c-0.175-0.193-0.392-0.345-0.643-0.426c-0.243-0.088-0.56-0.145-0.945-0.168v-0.226H17.644z"/>
	<path class="st30" d="M29.945,21.653l0.116,4.439l-0.231,0.019c-0.47-1.517-1.076-2.634-1.804-3.377
		c-0.734-0.738-1.627-1.101-2.666-1.101c-0.814,0-1.515,0.16-2.09,0.489c-0.579,0.327-1.129,0.864-1.628,1.608
		c-1.023,1.516-1.531,3.255-1.531,5.215c0,0.928,0.12,1.803,0.363,2.639c0.25,0.822,0.611,1.555,1.072,2.186
		c0.913,1.224,2.035,1.839,3.344,1.839c0.518,0,1.005-0.107,1.461-0.323c0.455-0.23,0.828-0.524,1.123-0.906
		c0.406-0.528,0.6-1.162,0.6-1.889c0-0.672-0.18-1.161-0.547-1.458c-0.362-0.304-0.962-0.447-1.8-0.447v-0.24h6.514v0.24
		c-0.6,0.049-1.013,0.131-1.258,0.246c-0.244,0.109-0.419,0.309-0.538,0.579c-0.131,0.296-0.192,0.888-0.192,1.781
		c0,0.253,0.014,0.632,0.043,1.146l0.017,0.238c-0.253-0.096-0.451-0.145-0.579-0.145c-0.138,0-0.338,0.082-0.563,0.238
		c-0.593,0.407-1.283,0.722-2.066,0.939c-0.787,0.219-1.607,0.33-2.479,0.33c-1.197,0-2.28-0.205-3.242-0.614
		c-0.967-0.41-1.749-1-2.344-1.766c-0.456-0.561-0.796-1.243-1.041-2.038c-0.239-0.791-0.362-1.618-0.362-2.512
		c0-1.214,0.217-2.352,0.656-3.398c0.436-1.042,1.047-1.919,1.833-2.594c0.648-0.557,1.4-0.982,2.238-1.274
		c0.843-0.306,1.737-0.456,2.678-0.456c0.547,0,1.05,0.055,1.509,0.164c0.475,0.102,0.974,0.261,1.498,0.495l0.598,0.281
		c0.15,0.055,0.287,0.086,0.402,0.086c0.28,0,0.484-0.226,0.631-0.658H29.945z"/>
	<path class="st31" d="M57.314,17.07V15.53h1.747v1.539h2.467v1.735h-2.467v1.16h2.663v1.747h-2.162
		c0.892,1.576,1.869,2.272,2.382,2.614l-0.721,2.065c-0.953-0.745-1.661-1.747-2.162-2.834v3.53h-1.747v-3.812
		c-0.55,1.185-1.344,2.248-2.309,3.139l-1.075-1.722c1.405-0.904,2.138-1.93,2.736-2.981h-2.137c0.269,0.342,0.379,0.452,0.55,0.611
		l-1.051,1.392c-0.513-0.965-0.574-1.21-0.696-1.71v5.082h-1.686v-4.618c-0.415,1.405-0.867,2.102-1.148,2.516l-0.574-2.406
		c0.721-0.904,1.051-1.613,1.588-3.348h-1.356v-1.686h1.49V15.53h1.686v2.016h1.16v0.745c0.587-1.136,0.733-2.162,0.782-2.541
		l1.638,0.159c-0.049,0.305-0.11,0.611-0.232,1.16H57.314z M55.396,19.965l-1.001-0.733h-1.063v0.537
		c0.232,0.562,0.659,1.234,1.16,1.894v-1.698H55.396z M57.314,19.965v-1.16h-1.16c-0.244,0.587-0.501,1.001-0.611,1.16H57.314z"/>
	<path class="st31" d="M62.922,24.913c0.073-0.012,2.052-0.146,2.271-0.171V21.81h-1.942v-1.771h5.717v1.771h-1.906v2.785
		c1.368-0.146,1.918-0.244,2.333-0.317l0.025,1.735c-1.381,0.281-1.967,0.342-6.304,0.818L62.922,24.913z M73.391,17.204h1.16v1.772
		h-3.408c0.073,1.173,0.207,3.359,0.904,4.96c0.073,0.183,0.342,0.818,0.648,0.818c0.329,0,0.989-0.843,1.283-1.661l0.769,1.942
		c-0.196,0.55-0.806,2.077-2.015,2.077c-0.562,0-1.149-0.318-1.479-0.684c-1.771-1.931-1.906-5.449-1.979-7.452h-6.255v-1.772h6.194
		c-0.012-0.196-0.061-1.612-0.061-1.698h1.955v1.698h1.197c-0.318-0.464-0.562-0.831-0.892-1.136l1.576-0.635
		c0.183,0.134,0.342,0.244,1.173,1.429L73.391,17.204z"/>
	<path class="st31" d="M52.709,33.406c-0.965,0.587-1.405,0.77-1.857,0.941l-0.929-1.857c2.981-1.173,4.252-2.199,4.972-3.213h2.174
		c0.526,0.623,1.771,2.004,4.91,3.189l-0.953,1.844c-0.366-0.159-0.953-0.415-1.82-0.941v0.745h-6.499V33.406z M59.733,41.054
		c-0.122-0.232-0.256-0.489-0.489-0.855c-2.076,0.293-6.23,0.464-8.428,0.525l-0.294-1.893c0.061,0.012,1.612,0.012,1.783,0.012
		c0.098-0.196,0.501-1.014,0.856-2.113h-2.725V34.97h11.019v1.759h-2.529c0.55,0.599,1.368,1.49,2.565,3.409L59.733,41.054z
		 M57.876,32.479c-1.062-0.794-1.587-1.381-1.905-1.723c-0.294,0.379-0.77,0.892-1.881,1.723H57.876z M58.634,36.729h-3.433
		c-0.44,1.026-0.587,1.344-0.965,2.113c1.441-0.012,2.761-0.012,3.982-0.134c-0.513-0.684-0.782-1.002-1.026-1.295L58.634,36.729z"
		/>
	<path class="st31" d="M66.416,40.944h-1.857v-4.068c-0.501,0.428-0.941,0.733-1.295,0.978l-0.464-2.162
		c1.368-0.819,2.492-2.138,2.895-2.932h-2.676v-1.711h1.54v-1.674h1.857v1.674h1.246v1.711c-0.183,0.452-0.379,0.903-0.977,1.771
		c0.672,0.733,1.234,1.063,1.674,1.307l-0.916,1.747c-0.257-0.244-0.587-0.55-1.026-1.173V40.944z M70.043,29.376h1.906v3.029h2.382
		v1.881h-2.382v4.472h2.565v1.857h-7.269v-1.857h2.798v-4.472h-2.199v-1.881h2.199V29.376z"/>
	<path class="st31" d="M107.844,20.55H96.15v1.34h9.942v10.726h-7.355c3.878,3.119,7.93,4.405,9.567,4.843l-2.068,3.392
		c-3.017-1.121-7.068-3.584-10.086-6.812v7.196h-3.505v-7.141c-1.896,2.299-5.401,4.952-10.171,6.895l-2.068-3.338
		c6.292-2.162,8.504-4.05,9.682-5.035H82.79V21.89h9.855v-1.34H80.894v-3.037h11.751V15.46h3.505v2.052h11.694V20.55z
		 M86.152,26.103h6.493v-1.669h-6.493V26.103z M86.152,30.098h6.493v-1.669h-6.493V30.098z M96.15,26.103h6.551v-1.669H96.15V26.103
		z M96.15,30.098h6.551v-1.669H96.15V30.098z"/>
	<path class="st31" d="M109.339,37.349c4.568-2.08,6.895-3.666,9.855-6.731h-8.619v-3.092h10.745v-3.311h3.476v3.311h10.86v3.092
		h-8.619c3.361,3.694,6.924,5.39,9.855,6.594l-2.155,3.065c-3.936-1.806-7.327-4.515-9.941-7.853v8.892h-3.476v-8.646
		c-0.517,0.629-3.908,4.815-9.797,7.77L109.339,37.349z M114.166,20.303c-0.69-1.396-1.005-1.915-2.184-3.503l3.247-1.204
		c0.287,0.328,1.897,2.408,2.557,4.132l-1.551,0.575h5.545c-0.402-1.095-1.436-2.873-2.385-4.105l3.275-1.094
		c0.977,1.258,1.609,2.243,2.615,4.405l-2.327,0.794h5.287c1.034-1.669,2.068-3.858,2.528-4.898l3.764,1.067
		c-0.862,1.56-1.265,2.162-2.414,3.831h3.85v6.238h-3.534v-3.229h-18.733v3.229h-3.476v-6.238H114.166z"/>
	<path class="st31" d="M140.656,28.73c-0.66,0.821-1.12,1.286-1.723,1.861l-1.207-4.542c2.27-2.435,4.137-6.676,4.626-10.616
		l3.562,0.356c-0.114,1.122-0.402,3.447-1.753,6.868v18.579h-3.505V28.73z M155.97,20.549c-2.212-1.697-4.252-2.709-5.114-3.146
		l2.93-2.326c1.437,0.629,3.936,1.942,5.603,3.393l-2.413,2.079h7.786v3.229h-7.471v4.734h6.436v3.229h-6.436v5.445h8.074v3.229
		h-19.768v-3.229h8.045V31.74h-6.407v-3.229h6.407v-4.734h-7.355v-3.229H155.97z"/>
	<path class="st31" d="M176.801,26.624c-2.672,0.246-3.965,0.355-5.229,0.438l-0.862-2.682h-2.873v-6.786h10.86v-2.217h3.706v2.217
		h10.889v6.786h-3.563v-3.639h-18.359v3.065c5.574-0.219,11.119-0.849,16.434-2.463l1.868,2.982
		c-3.764,1.095-7.269,1.615-9.194,1.888v2.873l13.389-1.34l0.23,3.174l-13.619,1.395v4.214c0,0.848,0.144,1.067,1.121,1.067h6.206
		c1.063,0,1.264-0.575,1.35-0.821c0.115-0.328,0.201-2.846,0.201-3.365l3.706,0.821c-0.172,4.104-0.287,6.621-3.218,6.621h-10.401
		c-0.459,0-2.643,0-2.643-2.161v-6.02l-9.51,0.958l-0.258-3.201l9.768-0.985V26.624z"/>
</g>
</svg>
