<svg id="アートワーク_110" data-name="アートワーク 110" xmlns="http://www.w3.org/2000/svg" width="153" height="107" viewBox="0 0 153 107">
  <g id="グループ_1026" data-name="グループ 1026" transform="translate(0 0)">
    <path id="パス_662" data-name="パス 662" d="M27,0,16.595,20.589,22,19.04,9.652,41.5l6.339-1.515L3.457,65.912l6.527-.8L0,83H27" transform="translate(0 0)" fill="#284e35"/>
    <path id="パス_663" data-name="パス 663" d="M11.083,0,21.49,20.589l-5.4-1.549L28.433,41.5l-6.339-1.515L34.628,65.912l-6.527-.8L38.085,83h-27" transform="translate(15.18)" fill="#284e35"/>
    <path id="パス_664" data-name="パス 664" d="M35.339,0,24.931,20.589l5.4-1.549L17.989,41.5l6.339-1.515L11.794,65.912l6.527-.8L8.336,83h27" transform="translate(11.623 0)" fill="#4c7c50"/>
    <path id="パス_665" data-name="パス 665" d="M19.419,0,29.827,20.589l-5.4-1.549L36.769,41.5l-6.339-1.515L42.964,65.912l-6.527-.8L46.422,83h-27" transform="translate(26.74)" fill="#4c7c50"/>
    <path id="パス_666" data-name="パス 666" d="M43.676,0,33.268,20.589l5.4-1.549L26.325,41.5l6.339-1.515L20.13,65.912l6.527-.8L16.673,83h27" transform="translate(23.013 0)" fill="#284e35"/>
    <path id="パス_667" data-name="パス 667" d="M27.756,0,38.163,20.589l-5.4-1.549L45.106,41.5l-6.339-1.515L51.3,65.912l-6.527-.8L54.758,83h-27" transform="translate(38.193)" fill="#284e35"/>
    <path id="パス_668" data-name="パス 668" d="M52.012,0,41.6,20.589l5.4-1.549L34.662,41.5,41,39.985,28.467,65.912l6.527-.8L25.009,83h27" transform="translate(34.693 0)" fill="#4c7c50"/>
    <path id="パス_669" data-name="パス 669" d="M36.092,0,46.5,20.589,41.1,19.04,53.442,41.5,47.1,39.985,59.637,65.912l-6.527-.8L63.095,83h-27" transform="translate(49.873)" fill="#4c7c50"/>
    <path id="パス_670" data-name="パス 670" d="M60.349,0,49.941,20.589l5.4-1.549L43,41.5l6.339-1.515L36.8,65.912l6.527-.8L33.346,83h27" transform="translate(46.372 0)" fill="#284e35"/>
    <path id="パス_671" data-name="パス 671" d="M44.429,0,54.836,20.589l-5.4-1.549L61.779,41.5,55.44,39.985,67.974,65.912l-6.527-.8L71.431,83h-27" transform="translate(61.257)" fill="#284e35"/>
    <path id="パス_678" data-name="パス 678" d="M68.685,0,58.277,20.589l5.4-1.549L51.335,41.5l6.339-1.515L45.14,65.912l6.527-.8L41.682,83h27" transform="translate(58.052 0)" fill="#4c7c50"/>
    <path id="パス_679" data-name="パス 679" d="M52.765,0,63.173,20.589l-5.4-1.549L70.115,41.5l-6.339-1.515L76.31,65.912l-6.527-.8L79.768,83h-27" transform="translate(73.232)" fill="#4c7c50"/>
    <g id="グループ_1025" data-name="グループ 1025" transform="translate(19 85)">
      <path id="パス_672" data-name="パス 672" d="M19.808,36.832H11.43l-3.093,22H22.9Z" transform="translate(-8.337 -36.832)" fill="#94b196"/>
      <path id="パス_673" data-name="パス 673" d="M28.144,36.832H19.766l-3.093,22H31.238Z" transform="translate(3.214 -36.832)" fill="#94b196"/>
      <path id="パス_674" data-name="パス 674" d="M36.481,36.832H28.1l-3.093,22H39.574Z" transform="translate(14.765 -36.832)" fill="#94b196"/>
      <path id="パス_675" data-name="パス 675" d="M44.817,36.832H36.439l-3.093,22H47.911Z" transform="translate(26.315 -36.832)" fill="#94b196"/>
      <path id="パス_676" data-name="パス 676" d="M53.154,36.832H44.776l-3.093,22H56.247Z" transform="translate(37.866 -36.832)" fill="#94b196"/>
      <path id="パス_677" data-name="パス 677" d="M61.49,36.832H53.112l-3.093,22H64.584Z" transform="translate(49.416 -36.832)" fill="#94b196"/>
    </g>
  </g>
</svg>
