<svg xmlns="http://www.w3.org/2000/svg" width="145.673" height="154.281" viewBox="0 0 145.673 154.281">
  <g id="認証制度" transform="translate(56.876 60.568)">
    <g id="グループ_1041" data-name="グループ 1041" transform="translate(-53.876 -57.568)">
      <path id="パス_2674" data-name="パス 2674" d="M69.837,0A69.837,69.837,0,1,1,0,69.837,69.837,69.837,0,0,1,69.837,0Z" fill="none" stroke="#689da2" stroke-width="6"/>
      <g id="グループ_1036" data-name="グループ 1036" transform="translate(30.752 29.374)">
        <g id="グループ_1035" data-name="グループ 1035" transform="translate(0 0)">
          <path id="パス_694" data-name="パス 694" d="M20.661,16.876a4.1,4.1,0,0,1,2.265,1.043,1.923,1.923,0,0,1,.785,1.349c0,.545-.262.7-.893.785a19.239,19.239,0,0,0-2.654.543c-4.833,1.461-6.6,2.983-6.6,4.746,0,1.174,1,1.936,2.983,1.936a23.036,23.036,0,0,0,3.592-.217c.37-.067.609-.109.935-.2a4.1,4.1,0,0,1,.893-.153c1.5,0,2.22.612,2.22,1.372,0,.654-.415.915-1.2,1.068a20.46,20.46,0,0,1-3.55.217c-.587,0-1.216,0-1.806-.022-3.394-.131-5.353-1.522-5.353-3.853,0-1.675,1.219-3.547,3.9-4.919a12.762,12.762,0,0,1-.239-1.544c-.067-.587-.131-1.655-.326-4.657-.067-.871-.262-1.066-.609-1.2a2.24,2.24,0,0,0-.829-.153l-.086-.239a2.474,2.474,0,0,1,1.458-.673,2.92,2.92,0,0,1,1.959.782c.587.456.7.829.7,1.11a1.636,1.636,0,0,1-.217.74,2.925,2.925,0,0,0-.284,1.2c-.022.392-.045.893-.045,1.458,0,.829.045,1.764.086,2.418,1.068-.459,2-.849,2.676-1.219.459-.242.59-.37.59-.5a.915.915,0,0,0-.131-.415,3.567,3.567,0,0,0-.348-.523Z" transform="translate(-12.284 -11.217)" fill="#1e3c3c"/>
          <path id="パス_695" data-name="パス 695" d="M20.327,30.811c3.659-1.589,6.421-4.44,6.421-8.227,0-2.657-.979-3.244-1.917-3.244a3.663,3.663,0,0,0-2.654,1.327,11.523,11.523,0,0,0-.915,1.177c-.217.348-.456.545-.737.545a1.53,1.53,0,0,1-1.132-.59,2.717,2.717,0,0,1-.762-1.739,4.516,4.516,0,0,1,1-2.376,14.217,14.217,0,0,1,3.394-2.827,3.514,3.514,0,0,1-2.284-2.919l.217-.15c.893,1.088,1.981,1.413,4.44,1.611,1.394.106,2.045.737,2.045,1.63,0,.523-.37.851-1.046.851-.607,0-1.544-.156-2-.156a4.27,4.27,0,0,0-1.895.545,5.593,5.593,0,0,0-1.959,1.719,2.3,2.3,0,0,0-.479,1.241c0,.37.2.479.415.479a1.921,1.921,0,0,0,.782-.3A7.127,7.127,0,0,1,24.854,18.1c2.482,0,4.223,1.872,4.223,4.7,0,4.81-3.7,7.442-8.619,8.313Z" transform="translate(-0.974 -11.789)" fill="#1e3c3c"/>
          <path id="パス_696" data-name="パス 696" d="M28.294,12.47a2.638,2.638,0,0,1,1.589-.673,4.649,4.649,0,0,1,1.675.367c.437.2.632.459.632.785a1.732,1.732,0,0,1-.086.565,1.586,1.586,0,0,0-.042.373,2.52,2.52,0,0,0,.019.37,7.712,7.712,0,0,0,.175.913,7.38,7.38,0,0,0,1.2-.565,3.185,3.185,0,0,0,.74-.523c.131-.131.392-.239,1.024-.239.718,0,1.152.37,1.152.89,0,.306-.172.568-.651.829a23.514,23.514,0,0,1-3,1.285c.239.8.568,1.761.893,2.546a15.909,15.909,0,0,0,1.85-.829,4.65,4.65,0,0,0,.785-.543,1.991,1.991,0,0,1,1.3-.479c.7,0,1.11.39,1.11.915,0,.39-.262.718-.849,1-.718.348-2.07.938-3.525,1.48a14.107,14.107,0,0,0,2.131,3.027,2.4,2.4,0,0,1,.565,1.544c0,.957-.367,1.241-.826,1.241a1.7,1.7,0,0,1-1.024-.479,7.412,7.412,0,0,0-4.568-1.416c-2.178,0-3.33.721-3.33,1.764,0,1.177,1.349,2.089,4.093,2.089.479,0,.935-.022,1.216-.045.2-.022.609-.086.765-.086,1.021,0,1.892.523,1.892,1.327,0,.935-.785,1.091-2.265,1.091-4.591,0-6.986-1.655-6.986-3.92,0-2,2-3.2,5.005-3.2a21.369,21.369,0,0,1,3.333.195c-.523-.913-.915-1.63-1.394-2.632a18.135,18.135,0,0,1-4.268.785c-1.739,0-2.109-.654-2.109-1.416a2.453,2.453,0,0,1,.89-1.653,14.638,14.638,0,0,1,2.025-1.611,6.628,6.628,0,0,1-1.675.239c-.239,0-.479-.022-.721-.045a3.809,3.809,0,0,1-2.523-1.544l.195-.262a4.141,4.141,0,0,0,2.048.479,14.677,14.677,0,0,0,4.026-.7c-.217-.629-.456-1.369-.7-2.045-.22-.587-.481-.89-1.611-.89h-.131Zm.392,6.463c-.587.59-.871.979-.871,1.263s.195.456.762.456A15.016,15.016,0,0,0,32.3,19.89c-.328-.846-.654-1.694-.979-2.61A10.542,10.542,0,0,0,28.686,18.933Z" transform="translate(9.5 -11.775)" fill="#1e3c3c"/>
          <path id="パス_697" data-name="パス 697" d="M33.983,13.944a2.5,2.5,0,0,1,1.132-.348,4.464,4.464,0,0,1,1.589.415c.565.239.76.5.76.737a1.524,1.524,0,0,1-.214.632,5.54,5.54,0,0,0-.134,1.831c0,.106.045.128.134.128a5.773,5.773,0,0,0,2-.412,3.655,3.655,0,0,1,1.285-.523c.957,0,1.436.392,1.436.849a.857.857,0,0,1-.8.893,17.475,17.475,0,0,1-2.874.412,2.437,2.437,0,0,1-1.155-.348c.111,2.178.22,4.159.284,5.244a13.47,13.47,0,0,1,3.9,1.438c.762.434,1.132.957,1.132,1.458a.84.84,0,0,1-.871.893A1.653,1.653,0,0,1,40.49,26.7a9.516,9.516,0,0,0-3.069-1.806c.022,1.85-1.11,2.676-3.222,2.676-1.589,0-3-.654-3-2.156,0-1.349,1.7-2.087,3.286-2.087.632,0,1.088.019,1.372.019-.086-1.936-.217-4.46-.348-7.095-.045-.957-.109-1.327-.306-1.544a1.639,1.639,0,0,0-1.174-.437Zm-2,11.382c0,.5.5,1,1.655,1,1.742,0,2.176-.7,2.2-1.719a8.028,8.028,0,0,0-2.045-.262C32.873,24.346,31.98,24.63,31.98,25.326Z" transform="translate(21.424 -8.569)" fill="#1e3c3c"/>
          <path id="パス_698" data-name="パス 698" d="M39.069,30.811c3.656-1.589,6.421-4.44,6.421-8.227,0-2.657-.979-3.244-1.917-3.244a3.658,3.658,0,0,0-2.654,1.327A10.77,10.77,0,0,0,40,21.844c-.217.348-.456.545-.74.545a1.529,1.529,0,0,1-1.13-.59,2.7,2.7,0,0,1-.762-1.739,4.516,4.516,0,0,1,1-2.376,14.1,14.1,0,0,1,3.394-2.827,3.514,3.514,0,0,1-2.284-2.919l.217-.15c.89,1.088,1.981,1.413,4.44,1.611,1.394.106,2.045.737,2.045,1.63,0,.523-.37.851-1.046.851-.607,0-1.544-.156-2-.156a4.269,4.269,0,0,0-1.895.545,5.593,5.593,0,0,0-1.959,1.719,2.3,2.3,0,0,0-.479,1.241c0,.37.195.479.415.479a1.921,1.921,0,0,0,.782-.3A7.127,7.127,0,0,1,43.6,18.1c2.482,0,4.223,1.872,4.223,4.7,0,4.81-3.7,7.442-8.619,8.313Z" transform="translate(32.427 -11.789)" fill="#1e3c3c"/>
          <path id="パス_699" data-name="パス 699" d="M24.449,24.1c2.025,1.872,4.746,3.027,8.491,3.809l-.067.326a3.129,3.129,0,0,0-1.655,1.416c-.172.328-.281.479-.434.479a1.288,1.288,0,0,1-.434-.15,13.575,13.575,0,0,1-6.16-5.333c.019,3.439.15,4.354.15,5.072,0,.565-.76.935-1.761.935-.437,0-.676-.2-.676-.545,0-.651.067-1.436.089-4a18.8,18.8,0,0,1-4.922,3.417c2.4.262,2.788.415,2.788.673,0,.284-.2.4-.676.654v1.458h.676c.412-.52.76-.979,1.241-1.5,1.783,1.5,1.872,1.633,1.872,1.853,0,.15-.111.262-.328.262H19.182v1.2c1.981.262,3.091,1.219,3.091,2.2a1.057,1.057,0,0,1-1.11,1.132.973.973,0,0,1-.957-.829,3.831,3.831,0,0,0-1.024-1.981c.045,3.483.131,4.877.131,5.509,0,.543-.76.913-1.719.913-.412,0-.651-.195-.651-.52,0-.59.086-1.786.128-4.4A14.491,14.491,0,0,1,12.828,40.1l-.195-.262a21.535,21.535,0,0,0,4-6.919H15.287l-2.067.106V32.2l2.067.109h1.806c0-.913-.022-1.828-.086-2.74A23.514,23.514,0,0,1,13.5,30.938l-.106-.306a22.386,22.386,0,0,0,7.356-6.53H16.027l-2.176.111v-.829l2.176.109h5.984c0-.89-.042-1.806-.109-2.612,2.679.262,3.091.415,3.091.7s-.2.412-.8.673v1.241h4.287a11.227,11.227,0,0,1,1.5-1.959c2.418,1.7,2.657,2.048,2.657,2.265,0,.195-.131.3-.348.3Zm.654,8.817-1.828.106V32.2l1.828.109h1.132c0-1.219-.022-2.023-.086-2.763,2.459.262,2.849.392,2.849.651,0,.284-.195.4-.673.654v1.458h1.3c.437-.52.915-1.13,1.416-1.675,1.981,1.566,2.2,1.806,2.2,2.025,0,.15-.109.262-.326.262h-4.31a13.51,13.51,0,0,0,5.114,4.961l-.064.326a4.267,4.267,0,0,0-1.831.957c-.217.2-.348.306-.476.306-.111,0-.22-.108-.415-.306a13.028,13.028,0,0,1-2.612-5.592c.022,4.265.131,5.876.131,6.574,0,.543-.762.913-1.719.913-.415,0-.654-.195-.654-.52,0-.632.089-1.895.131-4.7a15.059,15.059,0,0,1-5.158,3.611l-.175-.262a18.754,18.754,0,0,0,4.986-6.265Z" transform="translate(-11.662 4.413)" fill="#1e3c3c"/>
          <path id="パス_700" data-name="パス 700" d="M21.208,28.09a2.185,2.185,0,0,0,1.413.8,5.775,5.775,0,0,0,2.4-.893c3.72-1.914,5.614-2.459,8.16-2.459,3.7,0,6.335,2.178,6.335,5.356,0,3.33-2.482,4.941-4.593,5.831a25.655,25.655,0,0,1-8.227,1.678l-.022-.392A22.459,22.459,0,0,0,34.2,34.945c1.895-1.327,2.852-2.721,2.852-4.527,0-2.329-1.48-3.7-3.9-3.7-2.178,0-4.571,1.021-7.554,3.286a6.391,6.391,0,0,0-1.155.979,1.16,1.16,0,0,1-.913.392c-.957,0-2.156-1.2-2.546-2.22a3.281,3.281,0,0,1-.111-.938Zm14.473-5.464a6.01,6.01,0,0,1,2.74.915,1.732,1.732,0,0,1,.762,1.327.863.863,0,0,1-.89.957c-.437,0-.7-.3-1-.915a5.319,5.319,0,0,0-1.742-1.978Zm2.067-1.589a5.712,5.712,0,0,1,2.721.762,1.67,1.67,0,0,1,.871,1.436.841.841,0,0,1-.893.871c-.3,0-.587-.131-.913-.785a4.588,4.588,0,0,0-1.895-1.978Z" transform="translate(3.036 4.693)" fill="#1e3c3c"/>
          <path id="パス_701" data-name="パス 701" d="M34.684,21.217a3.663,3.663,0,0,1,2.852,1.3c.609.609.785,1,.785,1.372a.983.983,0,0,1-.523.785,8.216,8.216,0,0,0-1.024.587c-1,.74-1.413,1.088-2.373,1.895-1.26,1.043-1.892,1.63-2.437,2.109a1.267,1.267,0,0,0-.523.915c0,.348.306.609,1.024,1.174,1.241.979,2.418,1.939,3.461,2.874a13.188,13.188,0,0,1,2.546,2.785,2.591,2.591,0,0,1,.437,1.33,1.372,1.372,0,0,1-1.327,1.477c-.545,0-.785-.262-1.11-.849a23.291,23.291,0,0,0-4.2-5.55c-.632-.609-1.219-1.107-1.872-1.7a1.684,1.684,0,0,1-.673-1.369,2.211,2.211,0,0,1,.737-1.591c1.611-1.7,3.027-3.263,4.268-4.83a2.972,2.972,0,0,0,.762-1.327c0-.284-.415-.743-.938-1.091Z" transform="translate(18.796 5.013)" fill="#1e3c3c"/>
          <path id="パス_702" data-name="パス 702" d="M36.216,21.021a4.663,4.663,0,0,1,1.917,1.566,1.974,1.974,0,0,1,.412,1.132,3.12,3.12,0,0,1-.3,1.155,19.019,19.019,0,0,0-1.088,4.4c-.045.7-.022,1.088-.022,1.394l.086.022A32.1,32.1,0,0,1,39.5,25.395c.609-1.043,1.327-1.806,2.306-1.806,2.112,0,3.656,2.612,3.656,6.814,0,5.18-2.262,8.619-8.4,10.077l-.134-.348c5.008-2.351,6.335-5.856,6.335-10.645,0-3.372-.8-4.874-1.828-4.874-.565,0-1.2.826-1.742,2.067a18.818,18.818,0,0,0-1.349,4.157,10.051,10.051,0,0,0-.217,1.461c0,.609.153,1.238.153,1.7,0,.651-.262,1.066-.829,1.066a1.166,1.166,0,0,1-.957-.5,7.132,7.132,0,0,1-.893-4.112,29.1,29.1,0,0,1,.74-5.573A14.206,14.206,0,0,0,36.631,23a2.566,2.566,0,0,0-.153-.935,4.708,4.708,0,0,0-.456-.785Z" transform="translate(29.282 4.664)" fill="#1e3c3c"/>
        </g>
      </g>
      <g id="グループ_1038" data-name="グループ 1038" transform="translate(22.466 81.777)">
        <g id="グループ_1037" data-name="グループ 1037" transform="translate(0 0)">
          <path id="パス_703" data-name="パス 703" d="M9.306,44.87a15.87,15.87,0,0,0,4.7-2.484c1.516.812,1.75,1,1.75,1.219s-.295.281-.593.281c-.078,0-.172-.017-.267-.017a15.882,15.882,0,0,1-5.545,1.2ZM17.68,32.183a.43.43,0,0,1-.25.359v1.391h3.937a11.855,11.855,0,0,1,1.093-1.219c1.594,1.249,1.625,1.358,1.625,1.469s-.092.186-.248.186H10.947l-1.564.078v-.593l1.564.078h4.794v-1.75H11.977l-1.561.078v-.6l1.561.078h8.049a11.532,11.532,0,0,1,1.029-1.107c1.452,1.029,1.611,1.249,1.611,1.358s-.095.189-.25.189Zm2.187,3.483c.314-.718.5-.843.687-.843.2,0,.423.078,1,.531.545.437.623.609.623.765,0,.186-.186.359-.562.545v.7c0,3.188.109,4.3.109,4.61,0,.484-.64.7-1.344.7-.264,0-.42-.111-.42-.409H13.29v.047c0,.328-.484.657-1.313.657-.281,0-.437-.139-.437-.406,0-.376.092-1.483.092-5.264,0-1.188-.014-1.516-.045-2.345a7.038,7.038,0,0,1,2.014.7Zm-6.374.437-.2.234V37.7h6.672V36.1Zm-.2,2.031v1.594h6.672V38.134Zm0,2.031v1.672h6.672V40.165ZM17.664,42.6a13.661,13.661,0,0,1,4.143.5c.765.264,1.263.64,1.263,1.188a.823.823,0,0,1-.9.857,2.029,2.029,0,0,1-1.157-.559A8.815,8.815,0,0,0,17.6,42.822Z" transform="translate(-9.306 -30.603)" fill="#1e3c3c"/>
          <path id="パス_704" data-name="パス 704" d="M21.967,35.482h-4.86l-.125.173v8.4c0,.314-.39.626-1.11.626a.351.351,0,0,1-.4-.392c0-.359.078-1.53.078-7.451,0-1.11-.017-1.689-.064-2.407a6.385,6.385,0,0,1,1.733.609h1.313V33.265H16.7l-1.561.078V32.75l1.561.075h1.828v-.467c0-.548-.031-1.077-.078-1.672,1.906.142,2.22.267,2.22.5,0,.2-.111.267-.548.453v1.185h1.3c.328-.39.626-.732.985-1.141,1.486,1.079,1.578,1.221,1.578,1.377,0,.109-.078.2-.25.2H20.123v1.781H21.89c.264-.64.389-.734.545-.734.186,0,.312.047.782.423s.609.545.609.7c0,.2-.078.284-.453.44V36.9c0,3.97.095,5.328.095,6.171A1.352,1.352,0,0,1,22,44.561c-.3,0-.328-.031-.392-.312a1.332,1.332,0,0,0-1.06-1.11l.014-.234a7.763,7.763,0,0,0,.971.061c.342,0,.437-.061.437-.437V40.844a.22.22,0,0,1-.189.075H19.967c.014,2,.064,2.69.064,3.049,0,.326-.423.562-1.079.562-.281,0-.406-.095-.406-.328,0-.406.031-1.2.047-3.283h-.328L17.31,41v-.6l.954.078h.328V38.8h-.267l-1,.078v-.6l1,.081h1.063a21.526,21.526,0,0,0,.579-2.64c1.483.373,1.577.467,1.577.64s-.095.25-.515.326a11.1,11.1,0,0,1-1.2,1.675h.5a10.177,10.177,0,0,1,.657-.782,6.083,6.083,0,0,1,.985.907Zm-4.563.312c1.063.331,1.641.924,1.641,1.594a.683.683,0,0,1-.7.735.521.521,0,0,1-.579-.529,2.759,2.759,0,0,0-.5-1.611Zm4.563,2.955a.256.256,0,0,1-.172.047H20.262a.357.357,0,0,1-.295.359v1.327h.312a10.043,10.043,0,0,1,.673-.843,6.141,6.141,0,0,1,1.015,1Zm7.857,4.983a2.8,2.8,0,0,0-1.313.562c-.156.125-.248.206-.312.206-.092,0-.156-.095-.248-.281-.768-1.5-1.11-3.408-1.2-6.455a14.058,14.058,0,0,1-.876,4,6.248,6.248,0,0,1-2.9,3.264l-.172-.156a7.475,7.475,0,0,0,1.939-3.561,20.3,20.3,0,0,0,.515-4.938h-.173l-1.171.081v-.6l1.171.078h.186V34.108c0-1.249-.031-2.843-.061-3.375,1.984.22,2.234.312,2.234.531,0,.2-.172.312-.579.484v3.344c0,.3,0,.579-.014.843h.467c.3-.39.517-.7.876-1.093,1.374,1.077,1.469,1.188,1.469,1.344,0,.109-.078.186-.236.186H26.9a12.183,12.183,0,0,0,3.016,7.142ZM27.4,32.077c1.374.342,1.953.985,1.953,1.7a.843.843,0,0,1-.812.876A.615.615,0,0,1,27.857,34a2.75,2.75,0,0,0-.6-1.736Z" transform="translate(1.091 -30.514)" fill="#1e3c3c"/>
          <path id="パス_705" data-name="パス 705" d="M24.865,33.633c.281-.345.531-.64.921-1.046,1.377,1.077,1.455,1.171,1.455,1.31,0,.095-.095.172-.25.172H22.038l-1.188.078v-.593l1.188.078Zm-.5,6.14c.248-.6.42-.751.576-.751.189,0,.345.033.874.423.487.359.531.517.531.657,0,.172-.17.328-.467.467V41.1c0,1.391.078,2.267.078,2.532,0,.47-.437.734-1.046.734a.41.41,0,0,1-.47-.453v-.47H22.772v.893c0,.295-.376.576-1.11.576-.25,0-.376-.122-.376-.359,0-.264.047-1.469.047-3.717,0-.718-.017-1.11-.047-1.719a7.286,7.286,0,0,1,1.7.657Zm-.081-8.124c.281-.345.562-.64.876-.968,1.327,1.029,1.344,1.107,1.344,1.233,0,.095-.095.173-.25.173H22.692l-1.185.078v-.593l1.185.078ZM24.241,35.6a10.592,10.592,0,0,1,.84-.938c1.313.982,1.377,1.077,1.377,1.2,0,.095-.095.173-.25.173H22.692l-1.185.078v-.6l1.185.081Zm-.111,2.014a10.24,10.24,0,0,1,.846-.938c1.31.985,1.372,1.079,1.372,1.2,0,.092-.092.17-.25.17H22.692l-1.185.078v-.593l1.185.078ZM22.99,40.21l-.217.25v2.546h1.669v-2.8Zm4.438-.125a3.446,3.446,0,0,1,.67,2.048c0,1.029-.5,1.655-1.171,1.655a.685.685,0,0,1-.748-.735c0-.281.095-.515.5-.968a1.828,1.828,0,0,0,.565-1.3,5.312,5.312,0,0,0-.047-.657Zm5.592-8.391c.236-.623.406-.779.579-.779.25,0,.423.078.938.484.47.359.657.579.657.782,0,.264-.156.373-.545.545a24.142,24.142,0,0,1-.423,3.937,2.2,2.2,0,0,1-2.078,1.956,1.067,1.067,0,0,1-.2.014c-.234,0-.267-.095-.376-.437a1.7,1.7,0,0,0-1.28-1.032l.031-.234c.5.047.954.078,1.327.078.562,0,.829-.189.954-.687a23.014,23.014,0,0,0,.467-4.187H31.6c-.014.2-.092.312-.342.376A8.444,8.444,0,0,1,30.88,34.1a2.337,2.337,0,0,1,.345.17c.687.392.982.829.982,1.266,0,.5-.295.782-.64.782-.281,0-.5-.078-.86-.531-.109-.142-.25-.281-.39-.437a7.559,7.559,0,0,1-3.625,3.216l-.156-.2a8.763,8.763,0,0,0,2.624-3.953,7.479,7.479,0,0,0-1.669-.89l.075-.206a10.01,10.01,0,0,1,1.831.267c.109-.484.17-.968.25-1.452h-.69l-1.436.078v-.593l1.436.075Zm.064,10.033a10.1,10.1,0,0,0-.078,1.219c0,.342.576.359.576.782,0,.576-.437,1.063-2.8,1.063-2.031,0-2.3-.236-2.3-1.063,0-.5.047-1.093.047-2.532,0-.735-.017-1.093-.031-1.452,1.686.156,2.014.281,2.014.451,0,.189-.109.267-.484.423v2.407c0,.312.186.39.748.39.89,0,1.283-.109,1.533-.545a5.224,5.224,0,0,0,.529-1.171Zm-3.033-3.141c1.641.312,2.44,1.235,2.44,2.126,0,.593-.328.952-.8.952a.764.764,0,0,1-.782-.748,3.537,3.537,0,0,0-1-2.14Zm2.969.938a5.053,5.053,0,0,1,2.095,1.719,2.251,2.251,0,0,1,.376,1.235.9.9,0,0,1-.893,1.015.813.813,0,0,1-.81-.815,6.109,6.109,0,0,0-.94-3Z" transform="translate(11.268 -30.522)" fill="#1e3c3c"/>
          <path id="パス_706" data-name="パス 706" d="M30.82,33.633c.281-.345.579-.671.968-1.079,1.516,1.11,1.564,1.2,1.564,1.344,0,.095-.095.172-.25.172H27.8l-1.188.078v-.593l1.188.078Zm-.392,6.11c.267-.6.47-.8.64-.8.206,0,.44.078.94.47s.576.531.576.671c0,.189-.108.328-.5.517v.593c0,1.188.064,1.967.064,2.329,0,.39-.437.67-1.155.67-.328,0-.47-.108-.47-.42v-.517H28.694v.954c0,.312-.406.623-1.2.623-.267,0-.409-.122-.409-.39,0-.186.05-1,.05-3.28,0-1.016-.017-1.564-.05-2.156a9.808,9.808,0,0,1,1.861.734ZM30.1,31.694a13.539,13.539,0,0,1,.935-1.013c1.36,1.029,1.438,1.155,1.438,1.28,0,.095-.095.172-.25.172H28.413l-1.188.078v-.593l1.188.075Zm-.017,3.862a12.559,12.559,0,0,1,.938-1.015c1.358,1.029,1.438,1.155,1.438,1.28,0,.095-.095.172-.25.172H28.477l-1.188.078v-.593l1.188.078Zm-.017,2.123a13.569,13.569,0,0,1,.938-1.015c1.36,1.032,1.438,1.157,1.438,1.283,0,.095-.095.173-.25.173H28.477l-1.188.078V37.6l1.188.075Zm-1.155,2.5-.22.264V42.82h1.828v-2.64Zm7.623-7.609H34.584l-1.483.078v-.593l1.483.078H38.46c.328-.44.687-.843,1.046-1.249,1.5,1.171,1.594,1.327,1.594,1.483,0,.111-.078.2-.25.2H38.443a.457.457,0,0,1-.25.345v4.624h.314c.281-.359.64-.8.952-1.141,1.33,1.046,1.422,1.188,1.422,1.391,0,.109-.078.186-.234.186H38.193v5.609h.3c.328-.437.721-.907,1.077-1.3,1.516,1.171,1.641,1.344,1.641,1.547a.2.2,0,0,1-.217.186H33.507l-1.046.081v-.6l1.046.078h.2V38.04c0-1.063-.033-1.814-.078-2.454,1.967.186,2.3.312,2.3.515,0,.22-.142.314-.6.5v6.983h1.2Z" transform="translate(21.544 -30.522)" fill="#1e3c3c"/>
          <path id="パス_707" data-name="パス 707" d="M38.678,38.382c.314-.734.44-.812.643-.812s.376.078.938.484c.531.406.609.548.609.721,0,.2-.125.359-.531.529v.7c0,1.828.061,2.423.061,2.782a1.379,1.379,0,0,1-1.53,1.438c-.281,0-.314-.033-.376-.331A1.4,1.4,0,0,0,37.54,42.8c.014,1.11.031,1.533.031,1.658,0,.39-.548.623-1.3.623-.281,0-.423-.109-.423-.342,0-.406.047-1.767.064-5.923H34.883l-.22.25V43.6c0,.359-.467.593-1.185.593-.3,0-.423-.108-.423-.342,0-.47.047-1.736.047-4.36,0-.64,0-1.171-.047-1.75a7.241,7.241,0,0,1,1.906.64h.954c0-.609.014-1.219.014-1.828H33.946l-1.564.078v-.593l1.564.078h1.984V33.945H34.243A9.209,9.209,0,0,1,32.8,35.8l-.2-.108a20.513,20.513,0,0,0,1-4.749c1.889.406,2.109.579,2.109.748,0,.236-.172.362-.643.44a10.45,10.45,0,0,1-.593,1.374h1.452v-.579c0-1,0-1.655-.047-2.248,2.078.186,2.22.295,2.22.484,0,.17-.109.312-.609.484v1.859h.718c.328-.406.626-.765,1.015-1.171,1.438,1.171,1.5,1.28,1.5,1.422,0,.109-.092.186-.248.186H37.493v2.173H38.57A15.275,15.275,0,0,1,39.632,34.9c1.516,1.219,1.58,1.327,1.58,1.469,0,.109-.095.186-.25.186H37.493c0,.609.014,1.219.014,1.828Zm-1.171.437c0,1.235.017,2.485.033,3.72.484.047.7.064.843.064.281,0,.389-.095.389-.47V38.819ZM43.18,34.8c0,4.329.095,6.032.095,6.61,0,.42-.517.7-1.266.7-.328,0-.5-.156-.5-.4,0-.629.109-2.409.109-6.955,0-1.233-.031-1.984-.078-2.624,1.939.186,2.251.312,2.251.515,0,.22-.156.314-.609.5Zm-.657,8.219a10.589,10.589,0,0,0,1.313.095c.593,0,.687-.095.687-.687V33.789c0-1.327-.031-2.109-.078-2.779,2.031.186,2.373.326,2.373.545s-.186.345-.67.531V33.9c0,6.875.139,8.516.139,9.454s-.609,1.672-1.936,1.672c-.281,0-.328-.031-.39-.328a1.716,1.716,0,0,0-1.455-1.438Z" transform="translate(31.82 -30.522)" fill="#1e3c3c"/>
          <path id="パス_708" data-name="パス 708" d="M43.47,35.109c0-.623-.014-1.171-.047-1.655,1.875.156,2.064.264,2.064.437,0,.189-.095.281-.454.44v.779h2.359c-.017-.673-.031-1.2-.061-1.655,1.842.156,2.109.264,2.109.437,0,.189-.081.281-.453.44v.779h.935c.314-.406.673-.812,1.063-1.249,1.469,1.063,1.705,1.327,1.705,1.486,0,.109-.078.2-.25.2H48.987c.014.69.075,1.719.075,2.19,0,.406-.481.64-1.249.64-.264,0-.42-.142-.42-.345v-.342H45.034v.437c0,.359-.531.6-1.2.6-.267,0-.423-.142-.423-.345,0-.39.061-1.438.061-2.829H41.05v.25c0,4.688-.89,7.22-2.86,9.109L38,44.766c.954-2.017,1.391-4.312,1.391-8.936,0-2.44-.047-3.158-.095-3.94a8.319,8.319,0,0,1,2.014.69h3.734v-.423c0-.548-.031-1.015-.075-1.533,1.936.189,2.373.314,2.373.517s-.156.312-.609.5v.94h3.405c.314-.409.67-.815,1.063-1.252,1.469,1.063,1.7,1.327,1.7,1.486,0,.109-.078.2-.25.2h-11.4l-.2.2v1.889Zm-.139,4.624-1.564.081v-.6l1.564.078H48.3c.362-.515.534-.64.7-.64.22,0,.392.031.89.423.565.437.7.654.7.8,0,.22-.156.345-.718.5A8.523,8.523,0,0,1,48,42.515a15.933,15.933,0,0,0,4.7.748l-.047.236a2.1,2.1,0,0,0-1,1.124c-.125.312-.186.406-.392.406a1.27,1.27,0,0,1-.234-.017A10.512,10.512,0,0,1,46.6,43.469a14.8,14.8,0,0,1-6.282,1.669l-.064-.217a14.026,14.026,0,0,0,5.331-2.267,8.667,8.667,0,0,1-2.017-2.921Zm.7,0a7.336,7.336,0,0,0,2.5,2.142,11.266,11.266,0,0,0,1.219-1.36c.189-.25.359-.515.531-.782Zm1-4.187v1.705h2.359V35.546Z" transform="translate(41.837 -30.624)" fill="#1e3c3c"/>
        </g>
      </g>
      <g id="グループ_1040" data-name="グループ 1040" transform="translate(59.313 102.131)">
        <g id="グループ_1039" data-name="グループ 1039">
          <path id="パス_709" data-name="パス 709" d="M24.186,40.242c0-.96-.025-1.583-.067-2.126,1.664.161,1.92.259,1.92.434s-.12.256-.5.42v2.354h.175c.189-.3.364-.556.623-.893.946.893,1,1.015,1,1.124,0,.078-.078.147-.214.147H25.541c.011.907.011,1.814.011,2.721.409-.083.8-.164,1.166-.259l.081.189a14.194,14.194,0,0,1-1.23.76c.025,2.434.081,3.447.081,3.9,0,.665-.434,1.152-1.394,1.26a1.02,1.02,0,0,1-.175.011c-.206,0-.245-.081-.326-.378a1.417,1.417,0,0,0-.988-.96l.014-.2a7.662,7.662,0,0,0,.865.067c.459,0,.54-.053.54-.529V45.762a7.632,7.632,0,0,1-.715.284c-.07.351-.15.434-.312.434-.136,0-.27-.161-.609-1.558.554-.067,1.1-.147,1.636-.228V41.7h-.568l-1.027.07v-.517l1.027.07h.568Zm7.862,4.207c.27-.568.431-.662.568-.662.164,0,.312.053.826.42.581.417.637.54.637.7,0,.2-.192.337-.6.392A9.194,9.194,0,0,1,31.67,47.7a11.273,11.273,0,0,0,3.775,1.177l-.042.206a1.708,1.708,0,0,0-1.082.879c-.109.214-.175.312-.312.312a1.591,1.591,0,0,1-.242-.056,7.837,7.837,0,0,1-3.1-1.692,11.155,11.155,0,0,1-5.086,1.895l-.07-.189a11.685,11.685,0,0,0,4.4-2.5,7.8,7.8,0,0,1-1.071-1.8,8.586,8.586,0,0,1-.351-1.082L27.3,44.9v-.515l1.352.067Zm1.488-2.1c.27-.568.406-.648.529-.648.161,0,.309.095.7.392.6.459.665.554.665.718,0,.189-.192.364-.732.406a8.875,8.875,0,0,1-1.258.771l-.164-.122a7.021,7.021,0,0,0,.314-1.135H28.22v.161c0,.743-.434,1.219-.99,1.219-.417,0-.648-.231-.648-.543a.961.961,0,0,1,.378-.757,1.535,1.535,0,0,0,.515-1.2c0-.067-.014-.136-.014-.2l.189-.067a2.809,2.809,0,0,1,.5,1.013h3.87a25.393,25.393,0,0,0,1.029-2.7c1.541.568,1.625.69,1.625.851s-.164.27-.6.326a11.649,11.649,0,0,1-1.5,1.527Zm-3.492-2.557c-.634.042-1.23.07-1.867.083,1.138.323,1.625.9,1.625,1.5a.713.713,0,0,1-.787.785c-.295,0-.526-.242-.54-.648a2.413,2.413,0,0,0-.459-1.488l.134-.147c-.459.011-.932.011-1.419.011l-.028-.2a32.782,32.782,0,0,0,6.928-1.731c1.121.893,1.23,1.057,1.23,1.219s-.095.217-.351.217a2.779,2.779,0,0,1-.42-.042c-1.2.189-2.434.337-3.706.42.974.326,1.422.921,1.422,1.5a.713.713,0,0,1-.746.8c-.378,0-.529-.228-.554-.648a2.6,2.6,0,0,0-.517-1.569Zm-1.216,5.033A5.956,5.956,0,0,0,30.6,46.992a8.661,8.661,0,0,0,.96-1.352c.147-.256.284-.526.42-.812Z" transform="translate(-22.55 -37.913)" fill="#1e3c3c"/>
          <path id="パス_710" data-name="パス 710" d="M35.727,43.043c.231-.623.42-.8.568-.8.217,0,.42.081.854.406.5.378.623.568.623.7,0,.175-.109.309-.5.459-.014.609-.056,1.285-.122,1.948h.662c.339-.42.6-.729.988-1.135,1.366,1.082,1.433,1.2,1.433,1.352,0,.095-.078.161-.214.161h-2.91a17.263,17.263,0,0,1-.323,2.017,2.782,2.782,0,0,1-2.952,2.3c-.214,0-.256-.07-.364-.378-.2-.6-.62-.921-1.516-1.18l.028-.2c.732.07,1.313.109,1.909.109a1.212,1.212,0,0,0,1.394-1.041,13.5,13.5,0,0,0,.284-1.625H28.9l-1.3.067v-.512l1.3.067h6.722c.1-.771.136-1.555.164-2.34H31.7l-.161.609c-.083.3-.448.487-.974.487-.581,0-.746-.164-.746-.529a60.217,60.217,0,0,0,1.678-6.048c1.8.339,2,.487,2,.7,0,.15-.161.3-.648.434l-.312,1.149h4.4a12.626,12.626,0,0,1,.974-1.149c1.53,1.163,1.583,1.219,1.583,1.366,0,.095-.081.164-.217.164H32.438l-.648,2.434Z" transform="translate(-13.555 -37.94)" fill="#1e3c3c"/>
        </g>
      </g>
      <g id="パス_711" data-name="パス 711" transform="translate(59.511 52.555)" fill="#376e6d" stroke-miterlimit="10">
        <path d="M 57.50993728637695 95.46216583251953 L 56.49200820922852 95.46216583251953 L 36.11528778076172 95.46216583251953 L 35.12881851196289 95.46216583251953 L 35.09785842895508 94.47617340087891 L 34.29658889770508 68.95516204833984 L 34.28495788574219 68.58452606201172 L 34.51445770263672 68.29324340820312 L 49.41861724853516 49.37716293334961 C 50.04125595092773 48.58766555786133 50.9744873046875 48.13507461547852 51.97930908203125 48.13507461547852 L 53.25632858276367 48.13507461547852 C 54.11283874511719 48.13507461547852 54.90194702148438 48.56381225585938 55.3671875 49.28195190429688 C 55.83174896240234 49.99906539916992 55.90061950683594 50.89269256591797 55.55139923095703 51.67241287231445 L 50.9818115234375 61.91241455078125 L 65.72563171386719 50.16801071166992 L 69.29116821289062 32.56110382080078 C 69.54413604736328 31.3053035736084 70.65999603271484 30.3930835723877 71.94424438476562 30.3930835723877 L 73.89735412597656 30.3930835723877 C 75.30752563476562 30.3930835723877 76.46580505371094 31.45063400268555 76.59162902832031 32.85303497314453 L 79.49050903320312 64.43709564208984 L 79.53543853759766 64.92664337158203 L 79.17994689941406 65.26621246337891 L 57.50993728637695 85.9654541015625 L 57.50993728637695 94.44423675537109 L 57.50993728637695 95.46216583251953 Z" stroke="none"/>
        <path d="M 56.49200439453125 94.44423675537109 L 56.49200439453125 85.53008270263672 L 78.47683715820312 64.53013610839844 L 75.57777404785156 32.94400024414062 C 75.49990081787109 32.07595062255859 74.77095031738281 31.4110107421875 73.89735412597656 31.4110107421875 L 71.94425201416016 31.4110107421875 C 71.14021301269531 31.4110107421875 70.44745635986328 31.97579956054688 70.28885650634766 32.76314926147461 L 66.64974975585938 50.7332878112793 L 48.35134124755859 65.30915832519531 L 54.62239074707031 51.2563362121582 C 55.06473922729492 50.26866149902344 54.34137725830078 49.15299987792969 53.25632858276367 49.15299987792969 L 51.97930145263672 49.15299987792969 C 51.2921028137207 49.15299987792969 50.64385223388672 49.46739959716797 50.21817779541016 50.00713729858398 L 35.31401443481445 68.92322540283203 L 36.11529159545898 94.44423675537109 L 56.49200439453125 94.44423675537109 M 58.52785110473633 96.48008728027344 L 34.14235305786133 96.48008728027344 L 33.25588989257812 68.24582672119141 L 48.61905288696289 48.74717330932617 C 49.43625259399414 47.71099853515625 50.66080093383789 47.11714935302734 51.97930145263672 47.11714935302734 L 53.25632858276367 47.11714935302734 C 54.45936584472656 47.11714935302734 55.56784057617188 47.71951293945312 56.22148895263672 48.72848510742188 C 56.87447738647461 49.73642349243164 56.97126388549805 50.99250030517578 56.48040390014648 52.08848571777344 L 53.61228179931641 58.51567840576172 L 64.80152130126953 49.60271835327148 L 68.29350280761719 32.35907363891602 C 68.6416015625 30.63093566894531 70.17713928222656 29.37516212463379 71.94425201416016 29.37516212463379 L 73.89735412597656 29.37516212463379 C 74.82872772216797 29.37516212463379 75.72036743164062 29.72062301635742 76.40801239013672 30.34793663024902 C 77.09693908691406 30.97639846801758 77.52220153808594 31.83376121520996 77.60549163818359 32.7620849609375 L 80.59403991699219 65.32315826416016 L 58.52785110473633 86.40081787109375 L 58.52785110473633 96.48008728027344 Z" stroke="none" fill="#fff"/>
      </g>
      <g id="パス_712" data-name="パス 712" transform="translate(0.286 53.994)" fill="#376e6d" stroke-miterlimit="10">
        <path d="M 45.43002700805664 96.26911926269531 L 44.44355773925781 96.26911926269531 L 24.06682777404785 96.26911926269531 L 23.04889869689941 96.26911926269531 L 23.04889869689941 95.25119018554688 L 23.04889869689941 86.77244567871094 L 1.37888777256012 66.07323455810547 L 1.023437857627869 65.73370361328125 L 1.068327784538269 65.24419403076172 L 3.964587926864624 33.66082382202148 C 4.094597816467285 32.25755310058594 5.252778053283691 31.2000617980957 6.658697605133057 31.2000617980957 L 8.614578247070312 31.2000617980957 C 9.894087791442871 31.2000617980957 11.00965785980225 32.11205291748047 11.26716804504395 33.36857223510742 L 14.83046531677246 50.97779846191406 L 29.57613563537598 62.72187423706055 L 25.0041675567627 52.4810905456543 C 24.65621757507324 51.69711303710938 24.72738838195801 50.80221176147461 25.19362831115723 50.0851936340332 C 25.65906715393066 49.36941146850586 26.44638824462891 48.94207382202148 27.29972839355469 48.94207382202148 L 28.57952690124512 48.94207382202148 C 29.56867790222168 48.94207382202148 30.52495765686035 49.40647125244141 31.13757705688477 50.18433380126953 L 46.04438781738281 69.10300445556641 L 46.27389907836914 69.39429473876953 L 46.26226806640625 69.76495361328125 L 45.46098709106445 95.28314208984375 L 45.43002700805664 96.26911926269531 Z" stroke="none"/>
        <path d="M 44.44355392456055 95.25119018554688 L 45.24483108520508 69.73300170898438 L 30.33788108825684 50.81414413452148 C 29.91497993469238 50.27717971801758 29.26395606994629 49.96000671386719 28.57953071594238 49.96000671386719 L 27.29973030090332 49.96000671386719 C 26.21745491027832 49.96000671386719 25.49409294128418 51.07565307617188 25.93366813659668 52.06613159179688 L 32.20750427246094 66.11894226074219 L 13.90629291534424 51.54306793212891 L 10.26996803283691 33.57292938232422 C 10.10860538482666 32.78556823730469 9.418618202209473 32.21799087524414 8.614567756652832 32.21799087524414 L 6.658692836761475 32.21799087524414 C 5.787868022918701 32.21799087524414 5.058942794799805 32.88296890258789 4.978255271911621 33.75378036499023 L 2.082005262374878 65.337158203125 L 24.06682968139648 86.33708190917969 L 24.06682968139648 95.25119018554688 L 44.44355392456055 95.25119018554688 M 46.41648101806641 97.28704071044922 L 22.03098106384277 97.28704071044922 L 22.03098106384277 87.20780944824219 L -0.0351196825504303 66.13025665283203 L 2.950905323028564 33.56786727905273 C 3.0369553565979 32.63924407958984 3.462430238723755 31.7834300994873 4.149155139923096 31.15616798400879 C 4.836792945861816 30.52805519104004 5.728030204772949 30.18214225769043 6.658692836761475 30.18214225769043 L 8.614567756652832 30.18214225769043 C 10.37528038024902 30.18214225769043 11.91024303436279 31.436279296875 12.26436805725098 33.16419219970703 L 12.26537990570068 33.16915512084961 L 15.75464057922363 50.41252136230469 L 26.94475746154785 59.32481384277344 L 24.07466697692871 52.89608001708984 C 23.58551788330078 51.79391860961914 23.68549346923828 50.53720474243164 24.34025573730469 49.53026580810547 C 24.99421691894531 48.52456665039062 26.10056686401367 47.92415618896484 27.29973030090332 47.92415618896484 L 28.57953071594238 47.92415618896484 C 29.87801742553711 47.92415618896484 31.13324356079102 48.53363037109375 31.937255859375 49.55450439453125 L 47.30295562744141 69.05558013916016 L 46.41648101806641 97.28704071044922 Z" stroke="none" fill="#fff"/>
      </g>
    </g>
  </g>
</svg>
