<svg xmlns="http://www.w3.org/2000/svg" width="85.709" height="59.996" viewBox="0 0 85.709 59.996">
  <g id="アートワーク_112" data-name="アートワーク 112" transform="translate(42.855 29.998)">
    <g id="グループ_1788" data-name="グループ 1788" transform="translate(-42.855 -29.998)">
      <g id="グループ_1787" data-name="グループ 1787">
        <path id="パス_1504" data-name="パス 1504" d="M82.166,25.584a1.659,1.659,0,0,0,2.362,0l1.181-1.192L71.857,10.411a5.46,5.46,0,1,0-4.966,0L50.432,27.023l-8.883-8.965a5.46,5.46,0,1,0-4.966,0L23.912,30.847,15.03,21.881a5.46,5.46,0,1,0-4.966,0L0,32.038,1.181,33.23a1.66,1.66,0,0,0,2.363,0l3.544-3.577v7.155L5.9,35.606,3.535,37.99l11.13,11.234V60h1.67a1.679,1.679,0,0,0,1.671-1.686V56.871l7.087-7.153-2.362-2.384L18.006,52.1V33.23H14.665V44.455l-4.235-4.274v-13.9l2.117-2.137,9,9.087-2.608,2.631,1.181,1.192a1.659,1.659,0,0,0,2.362,0l3.544-3.576V58.31A1.679,1.679,0,0,0,27.7,60h1.671V30.106l9.7-9.785,9.7,9.784V60h1.671A1.679,1.679,0,0,0,52.1,58.31V33.478l1.649,1.665a1.66,1.66,0,0,0,2.363,0L57.3,33.951l-4.5-4.544,7.332-7.4V42.3L57.3,39.447l-2.362,2.384,5.193,5.242V58.31A1.679,1.679,0,0,0,61.8,60h1.67V53.24l20.044-16.8-2.135-2.594-2.755,2.309V22.007ZM12.547,14.843a2.138,2.138,0,1,1-2.117,2.138A2.131,2.131,0,0,1,12.547,14.843ZM39.066,11.02a2.138,2.138,0,1,1-2.118,2.137A2.13,2.13,0,0,1,39.066,11.02ZM69.373,3.372A2.138,2.138,0,1,1,67.256,5.51,2.131,2.131,0,0,1,69.373,3.372ZM75.28,38.956l-11.813,9.9V18.635l5.906-5.961,5.907,5.961Z" fill="#fff"/>
        <path id="パス_1505" data-name="パス 1505" d="M9.376,73.275a1.679,1.679,0,0,0,1.671,1.686h1.671V64.683L9.376,61.311Z" transform="translate(-2.289 -14.966)" fill="#fff"/>
        <path id="パス_1506" data-name="パス 1506" d="M99.589,74.5h1.671a1.678,1.678,0,0,0,1.671-1.686V59.428l-3.341,2.8Z" transform="translate(-24.309 -14.506)" fill="#fff"/>
        <path id="パス_1507" data-name="パス 1507" d="M44.459,73.887H47.8V60.278h4.236V73.887h3.341V56.906H44.459Z" transform="translate(-10.852 -13.89)" fill="#fff"/>
      </g>
    </g>
  </g>
</svg>
