<svg id="コンポーネント_4_2" data-name="コンポーネント 4 – 2" xmlns="http://www.w3.org/2000/svg" width="153.5" height="88" viewBox="0 0 153.5 88">
  <rect id="長方形_165" data-name="長方形 165" width="119" height="29" transform="translate(14.5 30)" fill="#005167"/>
  <g id="グループ_4262" data-name="グループ 4262">
    <g id="アートワーク_110" data-name="アートワーク 110" transform="translate(110.5 0)">
      <g id="グループ_1026" data-name="グループ 1026">
        <g id="グループ_3819" data-name="グループ 3819">
          <path id="パス_662" data-name="パス 662" d="M21.68,0,13.324,16.5l4.338-1.241L7.749,33.25l5.089-1.214L2.776,52.809l5.241-.643L0,66.5H21.68" transform="translate(0 0)" fill="#005167"/>
          <path id="パス_663" data-name="パス 663" d="M11.083,0l8.356,16.5L15.1,15.255,25.013,33.25l-5.089-1.214L29.987,52.809l-5.241-.643L32.762,66.5H11.083" transform="translate(10.238)" fill="#005167"/>
        </g>
        <g id="グループ_3821" data-name="グループ 3821" transform="translate(16 66.5)">
          <path id="パス_3438" data-name="パス 3438" d="M59.077,36.832H52.461l-2.442,17.5h11.5Z" transform="translate(-50.019 -36.832)" fill="#005167"/>
        </g>
      </g>
    </g>
    <g id="アートワーク_110-2" data-name="アートワーク 110" transform="translate(73 0)">
      <g id="グループ_1026-2" data-name="グループ 1026" transform="translate(0)">
        <g id="グループ_3819-2" data-name="グループ 3819">
          <path id="パス_662-2" data-name="パス 662" d="M21.68,0,13.324,16.5l4.338-1.241L7.749,33.25l5.089-1.214L2.776,52.809l5.241-.643L0,66.5H21.68" transform="translate(0 0)" fill="#005167"/>
          <path id="パス_663-2" data-name="パス 663" d="M11.083,0l8.356,16.5L15.1,15.255,25.013,33.25l-5.089-1.214L29.987,52.809l-5.241-.643L32.762,66.5H11.083" transform="translate(10.238)" fill="#005167"/>
        </g>
        <g id="グループ_3821-2" data-name="グループ 3821" transform="translate(16 66.5)">
          <path id="パス_3438-2" data-name="パス 3438" d="M59.077,36.832H52.461l-2.442,17.5h11.5Z" transform="translate(-50.019 -36.832)" fill="#005167"/>
        </g>
      </g>
    </g>
    <g id="アートワーク_110-3" data-name="アートワーク 110" transform="translate(34 0)">
      <g id="グループ_1026-3" data-name="グループ 1026" transform="translate(0)">
        <g id="グループ_3819-3" data-name="グループ 3819">
          <path id="パス_662-3" data-name="パス 662" d="M21.68,0,13.324,16.5l4.338-1.241L7.749,33.25l5.089-1.214L2.776,52.809l5.241-.643L0,66.5H21.68" transform="translate(0 0)" fill="#005167"/>
          <path id="パス_663-3" data-name="パス 663" d="M11.083,0l8.356,16.5L15.1,15.255,25.013,33.25l-5.089-1.214L29.987,52.809l-5.241-.643L32.762,66.5H11.083" transform="translate(10.238)" fill="#005167"/>
        </g>
        <g id="グループ_3821-3" data-name="グループ 3821" transform="translate(16 66.5)">
          <path id="パス_3438-3" data-name="パス 3438" d="M59.077,36.832H52.461l-2.442,17.5h11.5Z" transform="translate(-50.019 -36.832)" fill="#005167"/>
        </g>
      </g>
    </g>
    <g id="アートワーク_110-4" data-name="アートワーク 110" transform="translate(0 0)">
      <g id="グループ_1026-4" data-name="グループ 1026">
        <g id="グループ_3819-4" data-name="グループ 3819">
          <path id="パス_662-4" data-name="パス 662" d="M21.68,0,13.324,16.5l4.338-1.241L7.749,33.25l5.089-1.214L2.776,52.809l5.241-.643L0,66.5H21.68" transform="translate(0 0)" fill="#005167"/>
          <path id="パス_663-4" data-name="パス 663" d="M11.083,0l8.356,16.5L15.1,15.255,25.013,33.25l-5.089-1.214L29.987,52.809l-5.241-.643L32.762,66.5H11.083" transform="translate(10.238)" fill="#005167"/>
        </g>
        <g id="グループ_3821-4" data-name="グループ 3821" transform="translate(16 66.5)">
          <path id="パス_3438-4" data-name="パス 3438" d="M59.077,36.832H52.461l-2.442,17.5h11.5Z" transform="translate(-50.019 -36.832)" fill="#005167"/>
        </g>
      </g>
    </g>
  </g>
  <g id="グループ_4261" data-name="グループ 4261" transform="translate(14.5 4)">
    <g id="アートワーク_110-5" data-name="アートワーク 110" transform="translate(78.5)">
      <g id="グループ_1026-5" data-name="グループ 1026" transform="translate(0 0)">
        <g id="グループ_3819-5" data-name="グループ 3819">
          <path id="パス_662-5" data-name="パス 662" d="M21.68,0,13.324,16.5l4.338-1.241L7.749,33.25l5.089-1.214L2.776,52.809l5.241-.643L0,66.5H21.68" transform="translate(0 0)" fill="#689da2"/>
          <path id="パス_663-5" data-name="パス 663" d="M11.083,0l8.356,16.5L15.1,15.255,25.013,33.25l-5.089-1.214L29.987,52.809l-5.241-.643L32.762,66.5H11.083" transform="translate(10.238)" fill="#689da2"/>
        </g>
        <g id="グループ_3821-5" data-name="グループ 3821" transform="translate(16 66.5)">
          <path id="パス_3438-5" data-name="パス 3438" d="M59.077,36.832H52.461l-2.442,17.5h11.5Z" transform="translate(-50.019 -36.832)" fill="#689da2"/>
        </g>
      </g>
    </g>
    <g id="アートワーク_110-6" data-name="アートワーク 110" transform="translate(39.5)">
      <g id="グループ_1026-6" data-name="グループ 1026" transform="translate(0 0)">
        <g id="グループ_3819-6" data-name="グループ 3819">
          <path id="パス_662-6" data-name="パス 662" d="M21.68,0,13.324,16.5l4.338-1.241L7.749,33.25l5.089-1.214L2.776,52.809l5.241-.643L0,66.5H21.68" transform="translate(0 0)" fill="#689da2"/>
          <path id="パス_663-6" data-name="パス 663" d="M11.083,0l8.356,16.5L15.1,15.255,25.013,33.25l-5.089-1.214L29.987,52.809l-5.241-.643L32.762,66.5H11.083" transform="translate(10.238)" fill="#689da2"/>
        </g>
        <g id="グループ_3821-6" data-name="グループ 3821" transform="translate(16 66.5)">
          <path id="パス_3438-6" data-name="パス 3438" d="M59.077,36.832H52.461l-2.442,17.5h11.5Z" transform="translate(-50.019 -36.832)" fill="#689da2"/>
        </g>
      </g>
    </g>
    <g id="アートワーク_110-7" data-name="アートワーク 110" transform="translate(0)">
      <g id="グループ_1026-7" data-name="グループ 1026" transform="translate(0 0)">
        <g id="グループ_3819-7" data-name="グループ 3819">
          <path id="パス_662-7" data-name="パス 662" d="M21.68,0,13.324,16.5l4.338-1.241L7.749,33.25l5.089-1.214L2.776,52.809l5.241-.643L0,66.5H21.68" transform="translate(0 0)" fill="#689da2"/>
          <path id="パス_663-7" data-name="パス 663" d="M11.083,0l8.356,16.5L15.1,15.255,25.013,33.25l-5.089-1.214L29.987,52.809l-5.241-.643L32.762,66.5H11.083" transform="translate(10.238)" fill="#689da2"/>
        </g>
        <g id="グループ_3821-7" data-name="グループ 3821" transform="translate(16 66.5)">
          <path id="パス_3438-7" data-name="パス 3438" d="M59.077,36.832H52.461l-2.442,17.5h11.5Z" transform="translate(-50.019 -36.832)" fill="#689da2"/>
        </g>
      </g>
    </g>
  </g>
</svg>
