<svg id="グループ_145" data-name="グループ 145" xmlns="http://www.w3.org/2000/svg" xmlns:xlink="http://www.w3.org/1999/xlink" width="186.165" height="97.434" viewBox="0 0 186.165 97.434">
  <defs>
    <clipPath id="clip-path">
      <rect id="長方形_60" data-name="長方形 60" width="186.165" height="97.434" fill="none"/>
    </clipPath>
  </defs>
  <g id="グループ_144" data-name="グループ 144" clip-path="url(#clip-path)">
    <path id="パス_89" data-name="パス 89" d="M35.226,111.318a15.383,15.383,0,0,1-6.737,4.493,28.355,28.355,0,0,1-9.682,1.647,19.2,19.2,0,0,1-9.812-2.371,16.261,16.261,0,0,1-6.55-7.034A24.9,24.9,0,0,1,.021,97.166L0,94.24A26.461,26.461,0,0,1,2.1,83.07a16.066,16.066,0,0,1,6.216-7.253,18.054,18.054,0,0,1,9.572-2.563q7.654-.052,11.994,3.568t5.185,10.588l-8.629.059a8.582,8.582,0,0,0-2.651-5.39A8.354,8.354,0,0,0,18.2,80.4a7.86,7.86,0,0,0-6.862,3.445Q9,87.264,9.012,93.971l.019,2.749q.047,6.767,2.641,10.207a8.8,8.8,0,0,0,7.559,3.406q4.994-.034,7.107-2.176l-.05-7.417-8.068.055-.044-6.531,16.933-.116Z" transform="translate(0 -20.025)" fill="#0089d2"/>
    <path id="パス_90" data-name="パス 90" d="M138.748,107.391,123.2,107.5l-2.895,8.885-9.427.065,15.724-43.136,8.215-.056,16.4,42.916-9.427.065Zm-13.2-7.091,10.756-.073-5.517-16.069Z" transform="translate(-30.312 -20.026)" fill="#0089d2"/>
    <path id="パス_91" data-name="パス 91" d="M178.8,108.9l18.824-.129.048,7.122-27.688.189-.294-43.026,8.865-.06Z" transform="translate(-46.388 -19.955)" fill="#0089d2"/>
    <path id="パス_92" data-name="パス 92" d="M234.884,104.107a4.552,4.552,0,0,0-1.8-3.845,23.285,23.285,0,0,0-6.4-2.793,45.208,45.208,0,0,1-7.32-2.891q-7.356-3.91-7.4-10.618a10.39,10.39,0,0,1,1.923-6.234,12.819,12.819,0,0,1,5.615-4.308,21.247,21.247,0,0,1,8.249-1.594,19.35,19.35,0,0,1,8.227,1.614,13.076,13.076,0,0,1,5.632,4.675,12.328,12.328,0,0,1,2.042,6.9l-8.866.06a5.8,5.8,0,0,0-1.892-4.582,7.656,7.656,0,0,0-5.242-1.6A8.175,8.175,0,0,0,222.6,80.3a4.335,4.335,0,0,0-1.777,3.632,4.149,4.149,0,0,0,2.137,3.5,23.836,23.836,0,0,0,6.238,2.617q7.581,2.225,11.062,5.57a11.239,11.239,0,0,1,3.514,8.369,10.352,10.352,0,0,1-4.166,8.791q-4.2,3.206-11.356,3.255a21.967,21.967,0,0,1-9.055-1.756,14.305,14.305,0,0,1-6.255-4.937,12.748,12.748,0,0,1-2.192-7.314l8.895-.06q.049,7.122,8.56,7.064a8.284,8.284,0,0,0,4.926-1.319,4.183,4.183,0,0,0,1.749-3.6" transform="translate(-57.614 -19.635)" fill="#0089d2"/>
    <path id="パス_93" data-name="パス 93" d="M66.96,91.552A12.3,12.3,0,0,1,68.9,89.058l-6.356-6.969a21.766,21.766,0,0,0-4.035,5.252Z" transform="translate(-15.994 -22.441)" fill="#3a9927"/>
    <path id="パス_94" data-name="パス 94" d="M91.583,85.021a12.143,12.143,0,0,1,2.665,1.67l6.374-6.959a21.711,21.711,0,0,0-5.649-3.524Z" transform="translate(-25.036 -20.833)" fill="#d39400"/>
    <path id="パス_95" data-name="パス 95" d="M108.493,91.22l-8.448,4.212a12.068,12.068,0,0,1,.846,2.984l9.4-.887a21.45,21.45,0,0,0-1.8-6.309" transform="translate(-27.349 -24.937)" fill="#b7001e"/>
    <path id="パス_96" data-name="パス 96" d="M98.506,91.78l8.446-4.211a21.721,21.721,0,0,0-3.947-5.24l-6.373,6.957a12.206,12.206,0,0,1,1.874,2.494" transform="translate(-26.416 -22.506)" fill="#25862a"/>
    <path id="パス_97" data-name="パス 97" d="M64.281,103.066c0-.19.007-.381.015-.569l-9.4-.841c-.03.466-.048.936-.048,1.41a21.639,21.639,0,0,0,.64,5.228l9.078-2.6a12.2,12.2,0,0,1-.286-2.624" transform="translate(-14.994 -27.79)" fill="#3d6726"/>
    <path id="パス_98" data-name="パス 98" d="M96.721,114.229a12.33,12.33,0,0,1-2.293,2.156l4.963,8.036a21.821,21.821,0,0,0,4.86-4.513Z" transform="translate(-25.814 -31.227)" fill="#ffad00"/>
    <path id="パス_99" data-name="パス 99" d="M101.285,103.1a12.017,12.017,0,0,1-.28,2.593l9.077,2.608a21.543,21.543,0,0,0,.635-5.2c0-.445-.015-.887-.042-1.328l-9.4.888c.005.147.008.292.008.44" transform="translate(-27.612 -27.821)" fill="#e01f10"/>
    <path id="パス_100" data-name="パス 100" d="M69.02,114.476l-7.513,5.71a21.814,21.814,0,0,0,4.906,4.445l4.962-8.027a12.327,12.327,0,0,1-2.356-2.128" transform="translate(-16.814 -31.294)" fill="#f68e00"/>
    <path id="パス_101" data-name="パス 101" d="M64.5,98.226a12.035,12.035,0,0,1,.9-3.028l-8.444-4.207a21.469,21.469,0,0,0-1.864,6.391Z" transform="translate(-15.06 -24.874)" fill="#0064ae"/>
    <path id="パス_102" data-name="パス 102" d="M96.718,126.236l-4.956-8.025a12.1,12.1,0,0,1-2.892,1.175l1.749,9.283a21.5,21.5,0,0,0,6.1-2.434" transform="translate(-24.294 -32.315)" fill="#830025"/>
    <path id="パス_103" data-name="パス 103" d="M100.012,108.975a12.177,12.177,0,0,1-1.32,2.717l7.537,5.684a21.527,21.527,0,0,0,2.853-5.795Z" transform="translate(-26.979 -29.79)" fill="#0098d1"/>
    <path id="パス_104" data-name="パス 104" d="M85.177,120.2a12.132,12.132,0,0,1-3.178.044l-1.748,9.283a21.763,21.763,0,0,0,6.673-.052Z" transform="translate(-21.938 -32.86)" fill="#e85200"/>
    <path id="パス_105" data-name="パス 105" d="M85.683,83.3a12.1,12.1,0,0,1,3.017.583l3.39-8.811a21.5,21.5,0,0,0-6.407-1.213Z" transform="translate(-23.423 -20.19)" fill="#db0015"/>
    <path id="パス_106" data-name="パス 106" d="M77.814,119.517a12.089,12.089,0,0,1-2.994-1.132l-4.965,8.031a21.554,21.554,0,0,0,6.212,2.375Z" transform="translate(-19.096 -32.363)" fill="#cd0068"/>
    <path id="パス_107" data-name="パス 107" d="M78.283,83.835a12.092,12.092,0,0,1,3.08-.548v-9.44A21.517,21.517,0,0,0,74.87,75.03Z" transform="translate(-20.467 -20.188)" fill="#002555"/>
    <path id="パス_108" data-name="パス 108" d="M66.755,111.9a12.089,12.089,0,0,1-1.439-2.883l-9.071,2.6a21.55,21.55,0,0,0,3,5.99Z" transform="translate(-15.376 -29.801)" fill="#cd7d00"/>
    <path id="パス_109" data-name="パス 109" d="M71.82,86.529a12.2,12.2,0,0,1,2.615-1.582l-3.412-8.8a21.611,21.611,0,0,0-5.564,3.407Z" transform="translate(-17.895 -20.816)" fill="#003d76"/>
    <path id="パス_110" data-name="パス 110" d="M11.51,14.692a1.945,1.945,0,0,0-.735-1.619,9.146,9.146,0,0,0-2.583-1.2,24.6,24.6,0,0,1-3.022-1.2Q1.351,8.8,1.351,5.518A4.619,4.619,0,0,1,2.3,2.637,6.157,6.157,0,0,1,4.993.695,10.481,10.481,0,0,1,8.906,0a9.162,9.162,0,0,1,3.8.756,6.013,6.013,0,0,1,2.611,2.152A5.62,5.62,0,0,1,16.245,6.1H11.523a2.375,2.375,0,0,0-.736-1.862A2.866,2.866,0,0,0,8.8,3.575a3.23,3.23,0,0,0-2,.56,1.716,1.716,0,0,0-.735,1.423,1.728,1.728,0,0,0,.809,1.37A10.2,10.2,0,0,0,9.716,8.2a17.5,17.5,0,0,1,3.345,1.41,5.624,5.624,0,0,1,3.184,5.06A4.8,4.8,0,0,1,14.3,18.712a8.642,8.642,0,0,1-5.329,1.471,10.572,10.572,0,0,1-4.323-.857,6.517,6.517,0,0,1-2.914-2.348,6.114,6.114,0,0,1-.979-3.433H5.506a3.014,3.014,0,0,0,.816,2.327,3.862,3.862,0,0,0,2.651.748,3.052,3.052,0,0,0,1.856-.506,1.672,1.672,0,0,0,.681-1.423" transform="translate(-0.207)" fill="#0089d2"/>
    <path id="パス_111" data-name="パス 111" d="M41.176.371V13.228a7.391,7.391,0,0,1-.931,3.784,6.029,6.029,0,0,1-2.671,2.435,9.407,9.407,0,0,1-4.115.836,8.131,8.131,0,0,1-5.653-1.862,6.641,6.641,0,0,1-2.1-5.1V.371h4.762V13.417q.081,3.225,3,3.224a2.9,2.9,0,0,0,2.226-.809,3.782,3.782,0,0,0,.756-2.63V.371Z" transform="translate(-7.026 -0.101)" fill="#0089d2"/>
    <path id="パス_112" data-name="パス 112" d="M61.342,14.692a1.945,1.945,0,0,0-.735-1.619,9.145,9.145,0,0,0-2.583-1.2A24.6,24.6,0,0,1,55,10.671Q51.183,8.8,51.183,5.518a4.619,4.619,0,0,1,.952-2.881A6.158,6.158,0,0,1,54.825.695,10.481,10.481,0,0,1,58.738,0a9.162,9.162,0,0,1,3.8.756,6.013,6.013,0,0,1,2.611,2.152A5.62,5.62,0,0,1,66.077,6.1H61.355a2.375,2.375,0,0,0-.736-1.862,2.866,2.866,0,0,0-1.99-.661,3.23,3.23,0,0,0-2,.56,1.716,1.716,0,0,0-.735,1.423,1.728,1.728,0,0,0,.809,1.37A10.2,10.2,0,0,0,59.548,8.2a17.5,17.5,0,0,1,3.345,1.41,5.624,5.624,0,0,1,3.184,5.06,4.8,4.8,0,0,1-1.943,4.047,8.642,8.642,0,0,1-5.329,1.471,10.572,10.572,0,0,1-4.323-.857,6.517,6.517,0,0,1-2.914-2.348,6.114,6.114,0,0,1-.979-3.433h4.749a3.014,3.014,0,0,0,.816,2.327,3.862,3.862,0,0,0,2.651.748,3.052,3.052,0,0,0,1.856-.506,1.672,1.672,0,0,0,.681-1.423" transform="translate(-13.829)" fill="#0089d2"/>
    <path id="パス_113" data-name="パス 113" d="M90.671,4.027h-5.9V20.014H80.04V4.027H74.252V.371H90.671Z" transform="translate(-20.298 -0.101)" fill="#0089d2"/>
    <path id="パス_114" data-name="パス 114" d="M108.332,16.346h-6.49l-1.133,3.669H95.65l7.2-19.643h4.452l7.258,19.643h-5.086Zm-5.356-3.656H107.2L105.08,5.876Z" transform="translate(-26.148 -0.102)" fill="#0089d2"/>
    <rect id="長方形_59" data-name="長方形 59" width="4.722" height="19.643" transform="translate(90.447 0.27)" fill="#0089d2"/>
    <path id="パス_115" data-name="パス 115" d="M152.288,20.015H147.58L140.619,7.792V20.015h-4.735V.372h4.735l6.948,12.223V.372h4.722Z" transform="translate(-37.146 -0.102)" fill="#0089d2"/>
    <path id="パス_116" data-name="パス 116" d="M173.88,16.346h-6.49l-1.133,3.669H161.2L168.4.372h4.452l7.258,19.643h-5.086Zm-5.356-3.656h4.222l-2.118-6.813Z" transform="translate(-44.067 -0.102)" fill="#0089d2"/>
    <path id="パス_117" data-name="パス 117" d="M189.577,20.015V.372h7.056A10,10,0,0,1,202.4,1.761,4.625,4.625,0,0,1,204.377,5.8a4.676,4.676,0,0,1-.7,2.6,4.088,4.088,0,0,1-2.064,1.592,4.144,4.144,0,0,1,2.361,1.511,4.4,4.4,0,0,1,.823,2.7,5.2,5.2,0,0,1-1.827,4.337,8.706,8.706,0,0,1-5.417,1.477Zm4.735-11.454h2.469a3.5,3.5,0,0,0,2.213-.569,2.016,2.016,0,0,0,.661-1.637,2.117,2.117,0,0,0-.715-1.793,3.826,3.826,0,0,0-2.307-.548h-2.32Zm0,3.1v4.709h3.1a2.953,2.953,0,0,0,1.97-.587,2.054,2.054,0,0,0,.688-1.652,2.178,2.178,0,0,0-2.442-2.469Z" transform="translate(-51.825 -0.102)" fill="#0089d2"/>
    <path id="パス_118" data-name="パス 118" d="M219.219,16.372h8.243v3.643H214.484V.372h4.735Z" transform="translate(-58.633 -0.102)" fill="#0089d2"/>
    <path id="パス_119" data-name="パス 119" d="M247.656,11.677h-7.447v4.695h8.8v3.643H235.473V.371h13.558V4.028h-8.823V8.17h7.447Z" transform="translate(-64.371 -0.102)" fill="#0089d2"/>
    <path id="パス_120" data-name="パス 120" d="M1.586,56.725V37.479h6.2a9.122,9.122,0,0,1,4.586,1.157A8.128,8.128,0,0,1,15.551,41.9a9.867,9.867,0,0,1,1.157,4.726v.885a9.917,9.917,0,0,1-1.117,4.74,8.168,8.168,0,0,1-3.146,3.278,8.923,8.923,0,0,1-4.528,1.2Zm4.64-15.664V53.156H7.838a3.612,3.612,0,0,0,3.067-1.421,6.966,6.966,0,0,0,1.07-4.224V46.68a6.907,6.907,0,0,0-1.07-4.2,3.673,3.673,0,0,0-3.119-1.415Z" transform="translate(-0.434 -10.246)" fill="#0089d2"/>
    <path id="パス_121" data-name="パス 121" d="M36.389,48.556H29.576v4.6h8.135v3.569H24.937V37.479h12.8v3.582H29.576V45.12h6.813Z" transform="translate(-6.817 -10.246)" fill="#0089d2"/>
    <path id="パス_122" data-name="パス 122" d="M53.147,51.491l3.834-14.012h5.182L55.685,56.726H50.609L44.185,37.479h5.142Z" transform="translate(-12.079 -10.246)" fill="#0089d2"/>
    <path id="パス_123" data-name="パス 123" d="M82.24,48.556H75.494v4.6h8.069v3.569H70.854V37.479H83.589v3.582H75.494V45.12H82.24Z" transform="translate(-19.369 -10.246)" fill="#0089d2"/>
    <path id="パス_124" data-name="パス 124" d="M95.178,53.156h7.343v3.569H90.538V37.479h4.64Z" transform="translate(-24.75 -10.246)" fill="#0089d2"/>
    <path id="パス_125" data-name="パス 125" d="M124.448,47.4a11.348,11.348,0,0,1-1.044,4.983,7.709,7.709,0,0,1-2.968,3.337,8.256,8.256,0,0,1-4.382,1.171,8.382,8.382,0,0,1-4.363-1.131,7.7,7.7,0,0,1-2.968-3.232,11.028,11.028,0,0,1-1.117-4.825V46.62a11.4,11.4,0,0,1,1.038-4.991,7.7,7.7,0,0,1,2.974-3.337,8.324,8.324,0,0,1,4.408-1.176,8.239,8.239,0,0,1,4.362,1.163,7.838,7.838,0,0,1,2.981,3.311,11.073,11.073,0,0,1,1.077,4.924Zm-4.719-.807a8.1,8.1,0,0,0-.958-4.355,3.075,3.075,0,0,0-2.743-1.487q-3.489,0-3.688,5.235l-.014,1.414a8.325,8.325,0,0,0,.939,4.349,3.069,3.069,0,0,0,2.79,1.52,3.031,3.031,0,0,0,2.71-1.494,8.1,8.1,0,0,0,.965-4.3Z" transform="translate(-29.417 -10.146)" fill="#0089d2"/>
    <path id="パス_126" data-name="パス 126" d="M137.96,50.2v6.53h-4.64V37.48H141a8.941,8.941,0,0,1,3.906.812,6.125,6.125,0,0,1,2.631,2.314,6.316,6.316,0,0,1,.932,3.4,5.569,5.569,0,0,1-2.016,4.5,8.362,8.362,0,0,1-5.532,1.686Zm0-3.582H141a2.866,2.866,0,0,0,2.056-.674,2.505,2.505,0,0,0,.707-1.9,3.1,3.1,0,0,0-.727-2.155,2.576,2.576,0,0,0-1.982-.82H137.96Z" transform="translate(-36.446 -10.246)" fill="#0089d2"/>
    <path id="パス_127" data-name="パス 127" d="M162.6,37.479l4.3,13.39,4.283-13.39h6.107V56.726h-4.653V52.232l.45-9.2-4.653,13.694h-3.066L160.7,43.018l.45,9.214v4.494h-4.64V37.479Z" transform="translate(-42.785 -10.246)" fill="#0089d2"/>
    <path id="パス_128" data-name="パス 128" d="M199.423,48.556h-6.833v4.6h8.154v3.569H187.951V37.479h12.821v3.582h-8.181V45.12h6.833Z" transform="translate(-51.38 -10.246)" fill="#0089d2"/>
    <path id="パス_129" data-name="パス 129" d="M223.781,56.726h-4.613l-6.82-11.976V56.726h-4.64V37.479h4.64l6.807,11.976V37.479h4.626Z" transform="translate(-56.781 -10.246)" fill="#0089d2"/>
    <path id="パス_130" data-name="パス 130" d="M248.08,41.061H242.3V56.725h-4.64V41.061h-5.67V37.479H248.08Z" transform="translate(-63.42 -10.246)" fill="#0089d2"/>
  </g>
</svg>
